<?xml version="1.0" encoding="UTF-8"?>
<svg width="16px" height="16px" viewBox="0 0 16 16" version="1.1" xmlns="http://www.w3.org/2000/svg" xmlns:xlink="http://www.w3.org/1999/xlink">
    <!-- Generator: sketchtool 52.6 (67491) - http://www.bohemiancoding.com/sketch -->
    <title>96D04954-B9E4-4F6B-9E1A-1DD04C4A80D9</title>
    <desc>Created with sketchtool.</desc>
    <g id="Symbols" stroke="none" stroke-width="1" fill="none" fill-rule="evenodd">
        <g id="absent" fill="#FD8268">
            <path d="M8,0 C12.418,0 16,3.58 16,8 C16,12.42 12.418,16 8,16 C3.582,16 0,12.42 0,8 C0,3.58 3.582,0 8,0 Z M10.832618,5.16738197 C10.6088698,4.94420601 10.2466381,4.94420601 10.0234621,5.16738197 L8,7.19313305 L5.97653791,5.16738197 C5.75336195,4.94420601 5.39113019,4.94420601 5.16738197,5.16738197 C4.94420601,5.39055794 4.94420601,5.75107296 5.16738197,5.97424893 L7.19084406,8 L5.16738197,10.0257511 C4.94420601,10.248927 4.94420601,10.6094421 5.16738197,10.832618 C5.39113019,11.055794 5.75336195,11.055794 5.97653791,10.832618 L8,8.80686695 L10.0234621,10.832618 C10.2466381,11.055794 10.6088698,11.055794 10.832618,10.832618 C11.055794,10.6094421 11.055794,10.248927 10.832618,10.0257511 L8.80915594,8 L10.832618,5.97424893 C11.055794,5.75107296 11.055794,5.39055794 10.832618,5.16738197 Z" id="Absent_ico-Copy"></path>
        </g>
    </g>
</svg>