<svg xmlns="http://www.w3.org/2000/svg" width="23" height="24" viewBox="0 0 23 24">
    <g fill="none" fill-rule="evenodd" stroke="#ffb74d" stroke-linecap="round" stroke-linejoin="round">
        <g transform="translate(2.377 2.5)">
            <path d="M6.611 3.534C6.267 1.06 8.8 0 10.398 0c4.476 0 9.295 3.888 9.295 9.543 0 6.051-4.778 10.956-10.672 10.956-6.197 0-11.36-6.008-7.918-11.663"/>
            <ellipse cx="11.016" cy="4.241" rx="1.377" ry="1.414"/>
            <ellipse cx="15.492" cy="7.069" rx="1.377" ry="1.414"/>
            <ellipse cx="15.836" cy="12.37" rx="1.377" ry="1.414"/>
        </g>
        <path d="M14.082 16.638c0 1.414 1.721 2.474 1.721 2.474h-3.787c-1.377 0-2.754-1.06-2.754-2.474 0-1.366 1.08-2.474 2.41-2.474 1.331 0 2.41 1.108 2.41 2.474zM8.23 12.043s.344-.353 1.377-.706"/>
        <path d="M8.287 14.505s.688-1.414 2.41-1.767l-8.05-11.29a.906.906 0 0 0-1.278-.172.963.963 0 0 0-.244 1.233l7.162 11.996zM10.984 16.638s0 1.06 1.377 1.06"/>
    </g>
</svg>
