<svg xmlns="http://www.w3.org/2000/svg" width="40" height="32" viewBox="0 0 40 32">
    <g fill="none" fill-rule="evenodd">
        <path fill="#F3F3F3" d="M0 2.953V.4h2.552v2.552H0zm27.162 0V.4h4.922v2.552h-4.922zm-9.844 0V.4h4.922v2.552h-4.922zm-9.843 0V.4h4.921v2.552H7.475zm29.532 0V.4h2.553v2.552h-2.553zM0 12.457V9.904h2.552v2.553H0zm12.396 0H7.474V9.905h4.922v2.552zm9.845 0h-4.923V9.905h4.923v2.552zm9.843 0h-4.922V9.905h4.922v2.552zm4.923 0V9.904h2.553v2.553h-2.553zM0 21.963v-2.552h2.552v2.552H0zm12.396 0H7.474v-2.552h4.922v2.552zm9.845 0h-4.923v-2.552h4.923v2.552zm9.843 0h-4.922v-2.552h4.922v2.552zm4.923 0v-2.552h2.553v2.552h-2.553zM0 31.477v-2.552h2.552v2.552H0zm27.162 0v-2.552h4.922v2.552h-4.922zm-9.844 0v-2.552h4.922v2.552h-4.922zm-9.843 0v-2.552h4.921v2.552H7.475zm29.532 0v-2.552h2.553v2.552h-2.553z"/>
        <path fill="#66BB6A" d="M34.368 14.466c-.014 1.209-.587 2.647-1.718 4.316-.134.233-.594.35-1.378.35H17.774c-.226 1.477-.696 2.484-1.41 3.021-2.482 1.647-4.835 2.482-7.062 2.503-.848 0-1.564-.07-2.147-.212-.583-.142-1.055-.407-1.416-.796-.36-.388-.62-.92-.78-1.595-.158-.675-.238-1.55-.238-2.625 0-1.187.168-2.288.504-3.302.336-1.015.76-1.87 1.272-2.566.513-.697.921-1.094 1.225-1.193-.205.367-.574 1.21-1.108 2.529-.534 1.318-.793 2.352-.78 3.101-.013 1.06.275 1.923.865 2.587.59.665 1.55.997 2.879.997 1.4 0 3.113-.382 5.142-1.145.827-.333 1.28-.587 1.357-.764a4.95 4.95 0 0 0 .085-.965c0-.325-.051-.774-.154-1.346-.102-.573-.302-1.237-.599-1.994-.297-.756-.537-1.244-.72-1.463l1.802-2.682c.827 1.074 1.297 2.608 1.41 4.601h.89c.842 0 1.782-.403 2.821-1.208.94-.7 1.661-1.255 2.163-1.665 2.361-2.057 3.937-3.086 4.73-3.086.756 0 1.579.205 2.47.615 2.262 1.421 3.393 2.75 3.393 3.987zm-1.782.912c0-.41-.558-.901-1.675-1.474-1.06-.551-1.813-.827-2.258-.827-1.732 0-3.248.442-4.55 1.326-.982.749-1.473 1.279-1.473 1.59.092.035.543.072 1.352.111.81.04 2.42.059 4.83.059 2.516 0 3.774-.262 3.774-.785zM25.917 3.672l3.096 1.24-1.134 2.514-3.033-1.273 1.071-2.48z"/>
    </g>
</svg>
