<?xml version="1.0" encoding="UTF-8"?>
<svg width="49px" height="39px" viewBox="0 0 49 39" version="1.1" xmlns="http://www.w3.org/2000/svg" xmlns:xlink="http://www.w3.org/1999/xlink">
    <!-- Generator: sketchtool 52.6 (67491) - http://www.bohemiancoding.com/sketch -->
    <title>90C74023-B73F-4EAB-8606-DC7B963A6FA5</title>
    <desc>Created with sketchtool.</desc>
    <defs>
        <path d="M4.91,0.869 C2.286,0.869 0.138,3.007 0.138,5.619 L0.138,12.745 C0.138,15.357 2.286,17.495 4.91,17.495 L14.454,17.495 L19.225,22.244 L19.225,5.619 C19.225,3.007 17.078,0.869 14.454,0.869 L4.91,0.869 L4.91,0.869 Z" id="path-1"></path>
        <path d="M0.971,8.583 C0.971,12.785 4.394,16.193 8.616,16.193 C12.837,16.193 16.259,12.785 16.259,8.583 C16.259,4.381 12.837,0.974 8.616,0.974 C4.394,0.974 0.971,4.381 0.971,8.583 L0.971,8.583 Z" id="path-3"></path>
        <path d="M0.107,8.95 L0.107,12.87 L31.124,12.87 L31.124,8.95 C31.124,8.95 26.83,0.994 15.616,0.994 C4.402,0.994 0.107,8.95 0.107,8.95 L0.107,8.95 Z" id="path-5"></path>
        <polygon id="path-7" points="0 0.739 56.262 0.739 56.262 47 0 47"></polygon>
    </defs>
    <g id="Content" stroke="none" stroke-width="1" fill="none" fill-rule="evenodd">
        <g id="P-11.5-Coursegroup_content---chanpters" transform="translate(-1327.000000, -172.000000)">
            <g id="Tabs" transform="translate(296.000000, 167.000000)">
                <g id="askteacher_ico" transform="translate(1027.000000, 1.000000)">
                    <g id="Group-3" transform="translate(4.000000, 4.000000)">
                        <mask id="mask-2" fill="white">
                            <use xlink:href="#path-1"></use>
                        </mask>
                        <g id="Clip-2"></g>
                        <polygon id="Fill-1" fill="#7ED321" mask="url(#mask-2)" points="-4 -3.261 23.364 -3.261 23.364 26.375 -4 26.375"></polygon>
                    </g>
                    <g id="Group-6" transform="translate(28.000000, 12.000000)">
                        <mask id="mask-4" fill="white">
                            <use xlink:href="#path-3"></use>
                        </mask>
                        <g id="Clip-5"></g>
                        <polygon id="Fill-4" fill="#F5A623" mask="url(#mask-4)" points="-3.167 -3.156 20.398 -3.156 20.398 20.323 -3.167 20.323"></polygon>
                    </g>
                    <g id="Group-9" transform="translate(21.000000, 30.000000)">
                        <mask id="mask-6" fill="white">
                            <use xlink:href="#path-5"></use>
                        </mask>
                        <g id="Clip-8"></g>
                        <polygon id="Fill-7" fill="#B0BEC5" mask="url(#mask-6)" points="-4.031 -3.136 35.262 -3.136 35.262 17 -4.031 17"></polygon>
                    </g>
                    <mask id="mask-8" fill="white">
                        <use xlink:href="#path-7"></use>
                    </mask>
                    <g id="Clip-10"></g>
                    <text id="?" mask="url(#mask-8)" font-family="ArialRoundedMTBold, Arial Rounded MT Bold" font-size="16" font-weight="normal" fill="#FFFFFF">
                        <tspan x="9.3789" y="19.4717058">?</tspan>
                    </text>
                </g>
            </g>
        </g>
    </g>
</svg>