<?xml version="1.0" encoding="UTF-8"?>
<svg width="49px" height="46px" viewBox="0 0 49 46" version="1.1" xmlns="http://www.w3.org/2000/svg" xmlns:xlink="http://www.w3.org/1999/xlink">
    <!-- Generator: sketchtool 52.6 (67491) - http://www.bohemiancoding.com/sketch -->
    <title>BF28E971-6A6E-495A-AD94-52C34A89C91C</title>
    <desc>Created with sketchtool.</desc>
    <defs>
        <path d="M1.772,2.258 C0.917,3.337 0.413,4.781 0.354,6.325 L0.354,6.325 C0.333,6.885 0.758,7.356 1.305,7.378 L1.305,7.378 C1.843,7.436 2.311,6.964 2.332,6.405 L2.332,6.405 C2.374,5.296 2.72,4.278 3.307,3.537 L3.307,3.537 C3.827,2.88 4.467,2.543 5.123,2.561 L5.123,2.561 C6.551,2.618 7.691,4.474 7.61,6.615 L7.61,6.615 C7.589,7.177 8.016,7.647 8.56,7.668 L8.56,7.668 C8.574,7.669 8.587,7.669 8.6,7.669 L8.6,7.669 C9.128,7.669 9.567,7.241 9.588,6.695 L9.588,6.695 C9.712,3.399 7.744,0.636 5.201,0.535 L5.201,0.535 C5.148,0.533 5.097,0.531 5.046,0.531 L5.046,0.531 C3.825,0.531 2.655,1.142 1.772,2.258 L1.772,2.258 Z" id="path-1"></path>
        <path d="M0.898,15.594 C0.898,24.078 7.583,30.98 15.8,30.98 L15.8,30.98 C17.185,30.98 18.558,30.784 19.882,30.397 L19.882,30.397 C20.406,30.242 20.71,29.682 20.561,29.143 L20.561,29.143 C20.472,28.824 20.238,28.602 19.957,28.493 L19.957,28.493 L27.271,8.946 C27.55,9.055 27.867,9.049 28.141,8.877 L28.141,8.877 C28.605,8.583 28.749,7.959 28.462,7.482 L28.462,7.482 C25.721,2.928 20.988,0.209 15.8,0.209 L15.8,0.209 C7.583,0.209 0.898,7.112 0.898,15.594 L0.898,15.594 Z M9.577,19.497 C9.298,19.017 9.452,18.393 9.921,18.106 L9.921,18.106 L14.976,15.018 L14.976,5.267 C14.976,4.707 15.418,4.252 15.965,4.252 L15.965,4.252 C16.511,4.252 16.955,4.707 16.955,5.267 L16.955,5.267 L16.955,15.594 C16.955,15.952 16.77,16.283 16.471,16.466 L16.471,16.466 L10.936,19.848 C10.776,19.945 10.601,19.992 10.429,19.992 L10.429,19.992 C10.091,19.992 9.763,19.815 9.577,19.497 L9.577,19.497 Z" id="path-3"></path>
        <path d="M6.41,1.288 C2.759,2.085 0.877,3.335 0.813,5.008 L0.813,5.008 C0.666,8.831 10.314,10.22 13.274,10.554 L13.274,10.554 C13.82,10.617 14.306,10.215 14.367,9.658 L14.367,9.658 C14.427,9.101 14.035,8.6 13.491,8.539 L13.491,8.539 C5.808,7.67 2.765,5.744 2.79,5.088 L2.79,5.088 C2.797,4.888 3.504,3.996 6.822,3.272 L6.822,3.272 C9.805,2.621 13.765,2.357 17.976,2.525 L17.976,2.525 C27.914,2.925 32.954,5.351 32.919,6.297 L32.919,6.297 C32.905,6.651 31.613,7.838 27.777,8.33 L27.777,8.33 C26.675,8.47 25.555,8.536 23.7,8.644 L23.7,8.644 L22.165,8.735 C21.62,8.767 21.203,9.248 21.236,9.807 L21.236,9.807 C21.266,10.346 21.703,10.76 22.222,10.76 L22.222,10.76 C22.242,10.76 22.262,10.76 22.281,10.759 L22.281,10.759 L23.812,10.669 C25.709,10.558 26.854,10.491 28.021,10.342 L28.021,10.342 C32.252,9.799 34.823,8.317 34.896,6.377 L34.896,6.377 C35.053,2.269 23.947,0.735 18.052,0.499 L18.052,0.499 C17.197,0.464 16.351,0.447 15.52,0.447 L15.52,0.447 C12.104,0.447 8.935,0.737 6.41,1.288 L6.41,1.288 Z" id="path-5"></path>
        <path d="M6.666,8.986 C6.618,11.014 6.101,21.486 0.481,28.442 L0.481,28.442 C0.239,28.741 0.204,29.155 0.362,29.509 L0.362,29.509 C0.519,29.863 0.878,30.094 1.257,30.104 L1.257,30.104 C1.535,30.117 1.784,30.005 1.976,29.812 L1.976,29.812 C3.092,28.687 7.502,27.475 14.543,27.475 L14.543,27.475 C15.337,27.475 16.149,27.492 16.976,27.525 L16.976,27.525 C24.926,27.844 30.524,29.559 31.754,31.01 L31.754,31.01 C31.93,31.218 32.182,31.344 32.452,31.358 L32.452,31.358 L32.491,31.359 C32.507,31.36 32.523,31.36 32.54,31.36 L32.54,31.36 L32.559,31.36 C33.105,31.36 33.549,30.908 33.549,30.346 L33.549,30.346 C33.549,30.064 33.437,29.81 33.256,29.625 L33.256,29.625 C28.293,22.268 28.563,11.893 28.672,9.78 L28.672,9.78 C28.771,7.215 27.774,4.825 25.863,3.049 L25.863,3.049 C23.908,1.233 21.199,0.205 18.025,0.078 L18.025,0.078 C17.808,0.069 17.592,0.065 17.38,0.065 L17.38,0.065 C11.23,0.065 6.866,3.696 6.666,8.986 L6.666,8.986 Z" id="path-7"></path>
        <path d="M0.53,5.393 C0.415,8.423 2.725,10.985 5.68,11.105 L5.68,11.105 L5.894,11.109 C8.506,11.109 10.728,9.196 11.177,6.564 L11.177,6.564 C11.192,6.474 11.206,6.383 11.216,6.294 L11.216,6.294 C11.235,6.144 11.246,5.993 11.254,5.825 L11.254,5.825 C11.368,2.795 9.057,0.235 6.101,0.115 L6.101,0.115 L5.887,0.11 C2.996,0.11 0.642,2.431 0.53,5.393 L0.53,5.393 Z" id="path-9"></path>
    </defs>
    <g id="Content" stroke="none" stroke-width="1" fill="none" fill-rule="evenodd">
        <g id="P-11.5-Coursegroup_content---chanpters" transform="translate(-1030.000000, -169.000000)">
            <g id="Tabs" transform="translate(296.000000, 167.000000)">
                <g id="Attendance_ico" transform="translate(734.000000, 2.000000)">
                    <g id="Group-3" transform="translate(28.000000, 1.000000)">
                        <mask id="mask-2" fill="white">
                            <use xlink:href="#path-1"></use>
                        </mask>
                        <g id="Clip-2"></g>
                        <polygon id="Fill-1" fill="#FF9100" mask="url(#mask-2)" points="-4.545 -4.36 14.492 -4.36 14.492 12.561 -4.545 12.561"></polygon>
                    </g>
                    <g id="Group-6">
                        <mask id="mask-4" fill="white">
                            <use xlink:href="#path-3"></use>
                        </mask>
                        <g id="Clip-5"></g>
                        <polygon id="Fill-4" fill="#FFCC80" mask="url(#mask-4)" points="-4 -4.682 33.508 -4.682 33.508 35.871 -4 35.871"></polygon>
                    </g>
                    <g id="Group-9" transform="translate(14.000000, 31.000000)">
                        <mask id="mask-6" fill="white">
                            <use xlink:href="#path-5"></use>
                        </mask>
                        <g id="Clip-8"></g>
                        <polygon id="Fill-7" fill="#FF9100" mask="url(#mask-6)" points="-4.087 -4.445 39.795 -4.445 39.795 15.652 -4.087 15.652"></polygon>
                    </g>
                    <g id="Group-12" transform="translate(15.000000, 6.000000)">
                        <mask id="mask-8" fill="white">
                            <use xlink:href="#path-7"></use>
                        </mask>
                        <g id="Clip-11"></g>
                        <polygon id="Fill-10" fill="#00BCD4" mask="url(#mask-8)" points="-4.632 -4.826 38.447 -4.826 38.447 36.252 -4.632 36.252"></polygon>
                    </g>
                    <g id="Group-15" transform="translate(26.000000, 34.000000)">
                        <mask id="mask-10" fill="white">
                            <use xlink:href="#path-9"></use>
                        </mask>
                        <g id="Clip-14"></g>
                        <polygon id="Fill-13" fill="#26C6DA" mask="url(#mask-10)" points="-4.372 -4.781 16.157 -4.781 16.157 16 -4.372 16"></polygon>
                    </g>
                </g>
            </g>
        </g>
    </g>
</svg>