<?xml version="1.0" encoding="UTF-8"?>
<svg width="30px" height="37px" viewBox="0 0 30 37" version="1.1" xmlns="http://www.w3.org/2000/svg" xmlns:xlink="http://www.w3.org/1999/xlink">
    <!-- Generator: sketchtool 52.6 (67491) - http://www.bohemiancoding.com/sketch -->
    <title>1DFB1FD5-488D-422F-9C54-43B156FC2960</title>
    <desc>Created with sketchtool.</desc>
    <defs>
        <path d="M14.5333333,16 C11.1338599,16 8,11.4141691 8,7 C8,3.29245948 11.1338599,0 14.5333333,0 C18.8661401,0 22,3.29245948 22,7 C22,11.4141691 18.8661401,16 14.5333333,16 Z" id="path-1"></path>
    </defs>
    <g id="Main-pages" stroke="none" stroke-width="1" fill="none" fill-rule="evenodd">
        <g id="Student--CourseGroup_Homepage" transform="translate(-339.000000, -851.000000)">
            <g id="Recent-Posts" transform="translate(320.000000, 775.000000)">
                <g id="Post" transform="translate(9.000000, 70.000000)">
                    <g id="Avatar">
                        <rect id="Avatar_bg" stroke="#E5E5E5" fill-opacity="0.7" fill="#FFFFFF" x="-0.5" y="-0.5" width="51" height="51" rx="4"></rect>
                        <g id="Mr.Avatar" transform="translate(10.000000, 7.000000)">
                            <path d="M27.5300833,30.3953333 L29.92675,30.3953333 C29.92675,27.8245 29.2684167,25.4128333 28.1250833,23.302 L27.5300833,30.3953333 Z" id="Fill-6" fill="#00B99B"></path>
                            <path d="M1.80633333,23.2945833 C0.659666667,25.4070833 -0.000333333333,27.82125 -0.000333333333,30.3954167 L2.448,30.3954167 L1.80633333,23.2945833 Z" id="Fill-9" fill="#00B99B"></path>
                            <path d="M26.41,21.3366667 L3.8875,21.3366667 C3.37916667,21.3366667 2.98333333,21.7775 3.0375,22.2825 L4.39916667,35.0691667 C4.44583333,35.5033333 4.8125,35.8333333 5.25,35.8333333 L25.0483333,35.8333333 C25.485,35.8333333 25.8516667,35.5033333 25.8983333,35.0691667 L27.2608333,22.2825 C27.3141667,21.7775 26.9183333,21.3366667 26.41,21.3366667 L26.41,21.3366667 Z" id="Fill-12" fill="#E77428"></path>
                            <path d="M26.2603333,19.7786667 C24.6211667,17.8945 22.5253333,16.4178333 20.1361667,15.5361667 C18.6628333,16.8778333 16.9028333,17.722 14.9636667,17.722 C13.0236667,17.722 11.2636667,16.8778333 9.79033333,15.5361667 C7.402,16.4178333 5.30533333,17.8945 3.66616667,19.7786667 L26.2603333,19.7786667 Z" id="Fill-4" fill="#00B99B"></path>
                            <path d="M14.5333333,16 C11.1338599,16 8,11.4141691 8,7 C8,3.29245948 11.1338599,0 14.5333333,0 C18.8661401,0 22,3.29245948 22,7 C22,11.4141691 18.8661401,16 14.5333333,16 Z" id="Fill-1" stroke="#274D57" fill="#F6F6F6"></path>
                            <mask id="mask-2" fill="white">
                                <use xlink:href="#path-1"></use>
                            </mask>
                            <g id="Mask"></g>
                            <path d="M9.02944351,3.15837888 C11,10.5 12,1.5 17.0294435,1.76156652 C18.8208332,2.13755683 19.3603617,4.13183511 20.5,3.5 C21.4575223,2.96913316 20.0073461,1.47018989 19.5,0.5 C19.5,0.5 18.2778778,-0.747041894 15,8.60422844e-16 C11.7221222,0.747041894 9.5,2.5 9.5,2.5" id="Path-227" stroke="#274D57" fill="#274D57" mask="url(#mask-2)"></path>
                        </g>
                    </g>
                </g>
            </g>
        </g>
    </g>
</svg>