<?xml version="1.0" encoding="UTF-8"?>
<svg width="28px" height="37px" viewBox="0 0 28 37" version="1.1" xmlns="http://www.w3.org/2000/svg" xmlns:xlink="http://www.w3.org/1999/xlink">
    <!-- Generator: sketchtool 52.6 (67491) - http://www.bohemiancoding.com/sketch -->
    <title>E6590FC2-3E03-4944-9B3A-BF4DBD6F986D</title>
    <desc>Created with sketchtool.</desc>
    <g id="Main-pages" stroke="none" stroke-width="1" fill="none" fill-rule="evenodd">
        <g id="Student--CourseGroup_Homepage" transform="translate(-340.000000, -931.000000)">
            <g id="Recent-Posts" transform="translate(320.000000, 775.000000)">
                <g id="Post" transform="translate(9.000000, 149.000000)">
                    <g id="Avatar">
                        <rect id="Avatar_bg" stroke="#E5E5E5" fill-opacity="0.7" fill="#FFFFFF" x="-0.5" y="-0.5" width="51" height="51" rx="4"></rect>
                        <g id="Mrs.Avatar" transform="translate(11.000000, 7.000000)">
                            <path d="M18.6378889,12.4397149 C18.4255556,13.0246298 18.0148889,13.5087787 17.6664444,14.0228426 C16.8373333,15.248566 16.24,16.7868213 14.9061111,17.4055872 C13.6204444,18.0015234 12.0423333,17.4764383 11.0094444,16.4986936 C9.97655556,15.5209489 9.37688889,14.1739915 8.83322222,12.8522255 C8.10755556,11.088034 7.42466667,9.1490766 7.92088889,7.30537447 C8.37044444,7.9351617 8.82,8.56573617 9.26955556,9.19631064 C9.20577778,8.06348085 9.80466667,6.91726809 10.7652222,6.33392766 C11.9505556,6.64803404 12.8714444,7.58641702 13.9937778,8.0831617 C15.3533333,8.68382128 17.0457778,8.66335319 18.0771111,9.74422553 C18.7413333,10.4401404 18.9684444,11.5312468 18.6378889,12.4397149 M22.435,15.9248 C22.0282222,13.1183106 21.6214444,10.3118213 21.2146667,7.50533191 C20.9191111,5.46324681 20.524,3.2338 18.9684444,1.89865106 C18.3594444,1.37592766 17.6182222,1.03899149 16.8785556,0.735119149 C15.9848889,0.368268085 15.057,0.0352680851 14.0933333,0.00220425532 C13.1296667,-0.0308595745 12.1138889,0.275374468 11.4776667,1.0090766 C11.4014444,0.732757447 11.0771111,0.618608511 10.7955556,0.587906383 C9.12566667,0.408417021 7.59111111,1.72545957 6.90977778,3.27867234 C6.22844444,4.83109787 6.19733333,6.58269362 6.11022222,8.27918298 C5.98188889,10.7896723 5.70577778,13.2915021 5.28422222,15.7681404 C5.05166667,17.132417 4.70244444,18.612417 3.61122222,19.4468851 C4.41233333,19.3508426 5.05555556,18.7659277 5.75011111,18.3510553 C7.33677778,17.4048 9.40644444,17.3489064 11.0405556,18.2077787 C11.473,18.4352894 11.8751111,18.7210553 12.3238889,18.9131404 C13.2626667,19.315417 14.3787778,19.2642468 15.2786667,18.7793106 C16.2011111,18.2817787 16.9788889,17.3355234 18.0242222,17.3536298 C18.6503333,17.3638638 19.2072222,17.7307149 19.7423333,18.0597787 C21.0342222,18.8517362 22.4171111,19.4909702 23.8544444,19.9593745 C22.8923333,18.8855872 22.6426667,17.3599277 22.435,15.9248" id="Fill-1" fill="#274D57"></path>
                            <path d="M18.4807778,18.7460894 C17.129,19.9922809 15.5135556,20.776366 13.7332222,20.776366 C11.9528889,20.776366 10.3374444,19.9922809 8.98488889,18.7460894 C7.21544444,19.407366 5.62488889,20.4331319 4.28477778,21.7234085 L23.1816667,21.7234085 C21.8407778,20.4331319 20.2502222,19.407366 18.4807778,18.7460894" id="Fill-4" fill="#00B99B"></path>
                            <path d="M27.4658222,31.7751277 C27.4658222,29.8605745 27.0722667,28.0444255 26.3777111,26.3888723 L25.8107111,31.7751277 L27.4658222,31.7751277 Z" id="Fill-6" fill="#00B99B"></path>
                            <path d="M0,31.7751277 L1.65511111,31.7751277 L1.08811111,26.3888723 C0.393555556,28.0452128 0,29.8605745 0,31.7751277" id="Fill-9" fill="#00B99B"></path>
                            <path d="M24.2433333,23.3052766 L3.22233333,23.3052766 C2.74788889,23.3052766 2.37844444,23.7217234 2.429,24.1987872 L3.69988889,36.2781064 C3.74344444,36.6882553 4.08566667,37 4.494,37 L22.9724444,37 C23.38,37 23.7222222,36.6882553 23.7657778,36.2781064 L25.0374444,24.1987872 C25.0872222,23.7217234 24.7177778,23.3052766 24.2433333,23.3052766 L24.2433333,23.3052766 Z" id="Fill-11" fill="#E77428"></path>
                        </g>
                    </g>
                </g>
            </g>
        </g>
    </g>
</svg>