<?xml version="1.0" encoding="UTF-8" standalone="no"?>
<svg width="18px" height="18px" viewBox="0 0 18 18" version="1.1" xmlns="http://www.w3.org/2000/svg" xmlns:xlink="http://www.w3.org/1999/xlink">
    <!-- Generator: sketchtool 3.8.3 (29802) - http://www.bohemiancoding.com/sketch -->
    <title>2A342465-F94F-4B34-8125-3A0CFCF3EC8A</title>
    <desc>Created with sketchtool.</desc>
    <defs></defs>
    <g id="Teacher" stroke="none" stroke-width="1" fill="none" fill-rule="evenodd">
        <g id="T7.1--My-Profile-101" transform="translate(-1078.000000, -673.000000)" stroke="#4A4A4A" stroke-width="0.3" fill="#4A4A4A">
            <g id="Right-Col" transform="translate(1079.000000, 116.000000)">
                <path d="M14.5,563 L1.5,563 C1.224,563 1,562.7765 1,562.5 C1,562.224 1.224,562 1.5,562 L14.5,562 C14.776,562 15,562.224 15,562.5 C15,562.7765 14.776,563 14.5,563 L14.5,563 Z M8.5,564 L14,564 L14,568 L8.5,568 L8.5,564 Z M14,572 C14,572.552 13.552,573 13,573 L8.5,573 L8.5,569 L14,569 L14,572 L14,572 Z M2,564 L7.5,564 L7.5,568 L2,568 L2,564 Z M7.5,573 L3,573 C2.448,573 2,572.552 2,572 L2,569 L7.5,569 L7.5,573 L7.5,573 Z M6.5,559 C7.052,559 7.5,559.448 7.5,560 C7.5,560.552 7.052,561 6.5,561 C5.948,561 5.5,560.552 5.5,560 C5.5,559.448 5.948,559 6.5,559 L6.5,559 Z M9.5,559 C10.052,559 10.5,559.448 10.5,560 C10.5,560.552 10.052,561 9.5,561 C8.948,561 8.5,560.552 8.5,560 C8.5,559.448 8.948,559 9.5,559 L9.5,559 Z M15,561 L11.2225,561 C11.3945,560.705 11.5,560.366 11.5,560 C11.5,558.8955 10.6045,558 9.5,558 C8.899,558 8.3665,558.2705 8,558.69 C7.6335,558.2705 7.101,558 6.5,558 C5.3955,558 4.5,558.8955 4.5,560 C4.5,560.366 4.6055,560.705 4.7775,561 L1,561 C0.448,561 0,561.448 0,562 L0,563 C0,563.552 0.448,564 1,564 L1,572 C1,573.1045 1.8955,574 3,574 L13,574 C14.1045,574 15,573.1045 15,572 L15,564 C15.552,564 16,563.552 16,563 L16,562 C16,561.448 15.552,561 15,561 L15,561 Z" id="birthday"></path>
            </g>
        </g>
    </g>
</svg>