<svg xmlns="http://www.w3.org/2000/svg" width="50" height="51" viewBox="0 0 50 51">
    <path fill="#F3F3F3" fill-rule="evenodd" d="M44.848 5.493c2.841 0 5.152 2.342 5.152 5.219v34.775c0 2.878-2.31 5.218-5.152 5.218H5.15c-2.84 0-5.15-2.34-5.15-5.218V10.712c0-2.877 2.31-5.219 5.15-5.219h6.137V1.754c0-.58.462-1.049 1.031-1.049.57 0 1.03.47 1.03 1.05v3.738H36.65V1.754c0-.58.462-1.049 1.03-1.049.57 0 1.032.47 1.032 1.05v3.738h6.136zm.985 39.803V13.059c0-.687-.516-1.243-1.153-1.243H5.32c-.637 0-1.153.556-1.153 1.243v32.237c0 .687.516 1.242 1.153 1.242h39.36c.637 0 1.153-.555 1.153-1.242z"/>
</svg>
