<svg xmlns="http://www.w3.org/2000/svg" width="25" height="17" viewBox="0 0 25 17">
    <g fill="#007EE5" fill-rule="evenodd" stroke="#FFF">
        <path fill-rule="nonzero" stroke-linecap="round" stroke-linejoin="round" d="M21.495 8.085l-2.051-4.4-1.513 2.953 3.564 1.447zm-8.22 5.296c1.808-.844 5.765-2.69 7.582-3.536l-3.81-1.493-.768 1.54-1.737-.37-1.267 3.86zm-1.749-.648l1.183-3.66-3.234-.739 2.051 4.4zm6.067-9.707L10.16 6.493l5.05 1.126 2.384-4.593zm.16-2.123a2.214 2.214 0 0 1 2.942 1.07l2.898 6.216a2.214 2.214 0 0 1-1.071 2.942L13.2 15.478a2.214 2.214 0 0 1-2.943-1.07L7.36 8.191A2.214 2.214 0 0 1 8.43 5.25L17.752.903z"/>
        <path d="M.5 16.5v-2.422l.058-.11c.27-.51.828-1.247 1.718-1.978 1.476-1.211 3.365-1.938 5.688-1.938 2.323 0 4.211.727 5.687 1.938.89.731 1.448 1.467 1.718 1.978l.058.11V16.5H.5zM4.031 5.776c0-2.202 1.76-3.99 3.933-3.99s3.932 1.788 3.932 3.99-1.759 3.991-3.932 3.991c-2.174 0-3.933-1.789-3.933-3.99z"/>
    </g>
</svg>
