<svg xmlns="http://www.w3.org/2000/svg" width="48" height="48" viewBox="0 0 48 48">
    <g fill="none" fill-rule="evenodd">
        <path fill="#FFB74D" d="M1.714 33.429V2.57H.857A.858.858 0 0 0 0 3.43v31.714c0 .473.384.856.857.857h28.286v-1.714H2.57a.857.857 0 0 1-.857-.857z"/>
        <path fill="#FFB74D" d="M20.571 29.673V1.714c0-.946-.767-1.713-1.714-1.714h-5.143v13.714a.857.857 0 0 1-1.526.536l-2.76-3.45-2.759 3.45a.857.857 0 0 1-1.526-.536V0h-.857a.858.858 0 0 0-.857.857v28.286h15.347a3.38 3.38 0 0 1 1.795.53z"/>
        <path fill="#9575CD" d="M9.429 8.571c.26 0 .506.119.669.322L12 11.271V0H6.857v11.27L8.76 8.894a.857.857 0 0 1 .67-.322z"/>
        <path fill="#FFB74D" d="M42.857 18.05V3.43A.858.858 0 0 0 42 2.57h-.857V18H42c.286.001.573.018.857.05zM18.776 30.857H3.429v1.714H20.55a1.845 1.845 0 0 0-1.775-1.714z"/>
        <path fill="#9575CD" d="M30.857 42a6.007 6.007 0 0 0 6 6H42a6.007 6.007 0 0 0 6-6v-9.429H30.857V42z"/>
        <path fill="#FFB74D" d="M22.306 32.571h6.837v-1.714h-5.057a1.847 1.847 0 0 0-1.78 1.714z"/>
        <path fill="#9575CD" d="M42 19.714h-1.714v11.143H48v-5.143a6.007 6.007 0 0 0-6-6zM30.857 25.714v5.143h7.714V19.714h-1.714a6.007 6.007 0 0 0-6 6z"/>
        <path fill="#FFB74D" d="M36.857 18h2.572V.857A.858.858 0 0 0 38.57 0H24c-.946 0-1.713.768-1.714 1.714v27.96a3.387 3.387 0 0 1 1.8-.531h5.057v-3.429A7.723 7.723 0 0 1 36.857 18z"/>
    </g>
</svg>
