<svg xmlns="http://www.w3.org/2000/svg" xmlns:xlink="http://www.w3.org/1999/xlink" width="50" height="50" viewBox="0 0 50 50">
    <defs>
        <rect id="a" width="50" height="50" rx="4"/>
        <linearGradient id="c" x1="91.051%" x2="50%" y1="26.676%" y2="100%">
            <stop offset="0%" stop-color="#95A4E1"/>
            <stop offset="100%" stop-color="#5C6BC0"/>
        </linearGradient>
        <rect id="d" width="32" height="32" x="9" y="9" rx="4"/>
        <filter id="e" width="184.4%" height="184.4%" x="-42.2%" y="-42.2%" filterUnits="objectBoundingBox">
            <feOffset in="SourceAlpha" result="shadowOffsetOuter1"/>
            <feGaussianBlur in="shadowOffsetOuter1" result="shadowBlurOuter1" stdDeviation="4.5"/>
            <feColorMatrix in="shadowBlurOuter1" values="0 0 0 0 0 0 0 0 0 0 0 0 0 0 0 0 0 0 0.15 0"/>
        </filter>
        <linearGradient id="g" x1="50%" x2="50%" y1="0%" y2="100%">
            <stop offset="0%" stop-color="#D8E0E4"/>
            <stop offset="100%" stop-color="#B0BEC5"/>
        </linearGradient>
    </defs>
    <g fill="none" fill-rule="evenodd">
        <mask id="b" fill="#fff">
            <use xlink:href="#a"/>
        </mask>
        <use fill="#EEE" xlink:href="#a"/>
        <circle cx="29" cy="15" r="17" fill="#F50057" mask="url(#b)" opacity=".8"/>
        <circle cx="-6.5" cy="35.5" r="27.5" fill="url(#c)" mask="url(#b)"/>
        <circle cx="46.5" cy="32.5" r="10.5" fill="#B0BEC5" mask="url(#b)"/>
        <mask id="f" fill="#fff">
            <use xlink:href="#d"/>
        </mask>
        <use fill="#000" filter="url(#e)" xlink:href="#d"/>
        <use fill="#FFF" xlink:href="#d"/>
        <g fill="url(#g)" mask="url(#f)">
            <path d="M26.13 19.066a2.91 2.91 0 0 1 1.05-.195 2.898 2.898 0 0 1 2.905 2.892c0 1.597-1.3 2.892-2.904 2.892a2.9 2.9 0 0 1-1.674-.528 3.33 3.33 0 0 0 .622-5.06zm-1.069 6.93a7.901 7.901 0 0 1 2.12-.277c4.261 0 5.893 3.024 5.893 3.024v1.49h-2.603v-.848s-1.523-2.823-5.41-3.389z"/>
            <path d="M16 29.385v1.718h13.595v-1.718s-1.882-3.487-6.797-3.487S16 29.385 16 29.385zm3.447-8.05c0 1.842 1.5 3.336 3.35 3.336s3.35-1.494 3.35-3.336c0-1.842-1.5-3.335-3.35-3.335a3.343 3.343 0 0 0-3.35 3.335z"/>
        </g>
    </g>
</svg>
