<svg xmlns="http://www.w3.org/2000/svg" xmlns:xlink="http://www.w3.org/1999/xlink" width="50" height="48" viewBox="0 0 50 48">
    <defs>
        <rect id="a" width="50" height="46" rx="4"/>
        <rect id="c" width="32" height="29.44" x="9" y="8.28" rx="4"/>
        <filter id="d" width="184.4%" height="191.7%" x="-42.2%" y="-45.9%" filterUnits="objectBoundingBox">
            <feOffset in="SourceAlpha" result="shadowOffsetOuter1"/>
            <feGaussianBlur in="shadowOffsetOuter1" result="shadowBlurOuter1" stdDeviation="4.5"/>
            <feColorMatrix in="shadowBlurOuter1" values="0 0 0 0 0 0 0 0 0 0 0 0 0 0 0 0 0 0 0.15 0"/>
        </filter>
        <linearGradient id="f" x1="50%" x2="50%" y1="0%" y2="100%">
            <stop offset="0%" stop-color="#D8E0E4"/>
            <stop offset="100%" stop-color="#B0BEC5"/>
        </linearGradient>
    </defs>
    <g fill="none" fill-rule="evenodd" transform="translate(0 1)">
        <mask id="b" fill="#fff">
            <use xlink:href="#a"/>
        </mask>
        <use fill="#EEE" xlink:href="#a"/>
        <ellipse cx="44" fill="#FF5A6E" mask="url(#b)" opacity=".8" rx="22" ry="20.24"/>
        <ellipse cx="-1" cy="36.8" fill="#FF9100" mask="url(#b)" rx="22" ry="20.24"/>
        <ellipse cx="50" cy="45.08" fill="#00BCD4" mask="url(#b)" rx="10" ry="9.2"/>
        <mask id="e" fill="#fff">
            <use xlink:href="#c"/>
        </mask>
        <use fill="#000" filter="url(#d)" xlink:href="#c"/>
        <use fill="#FFF" xlink:href="#c"/>
        <g fill="url(#f)" mask="url(#e)">
            <path d="M26.13 17.54c.325-.115.68-.179 1.05-.179 1.605 0 2.905 1.192 2.905 2.66 0 1.47-1.3 2.661-2.904 2.661-.623 0-1.2-.18-1.674-.485.914-.548 1.517-1.494 1.517-2.569 0-.806-.34-1.54-.895-2.087zm-1.069 6.377a8.548 8.548 0 0 1 2.12-.255c4.261 0 5.893 2.781 5.893 2.781v1.37h-2.603v-.778s-1.523-2.598-5.41-3.118z"/>
            <path d="M16 27.035v1.58h13.595v-1.58s-1.882-3.209-6.797-3.209S16 27.035 16 27.035zm3.447-7.407c0 1.695 1.5 3.069 3.35 3.069s3.35-1.374 3.35-3.069c0-1.694-1.5-3.068-3.35-3.068s-3.35 1.374-3.35 3.068z"/>
        </g>
    </g>
</svg>
