<svg xmlns="http://www.w3.org/2000/svg" xmlns:xlink="http://www.w3.org/1999/xlink" width="12" height="16" viewBox="0 0 12 16">
    <defs>
        <path id="a" d="M16.514 8H7.371c-.252 0-.457-.223-.457-.5 0-.276.205-.5.457-.5h9.143c.253 0 .457.224.457.5 0 .277-.204.5-.457.5zm-.457 10c0 .552-.41 1-.914 1h-6.4c-.505 0-.914-.448-.914-1V9h8.228v9zM10.571 5.5c0-.277.205-.5.458-.5h1.828c.252 0 .457.223.457.5V6h-2.743v-.5zm6.4.5H14.23V5c0-.552-.41-1-.915-1h-2.743c-.504 0-.914.448-.914 1v1H6.914C6.41 6 6 6.448 6 7v1c0 .552.41 1 .914 1v9c0 1.105.819 2 1.829 2h6.4c1.01 0 1.828-.895 1.828-2V9c.505 0 .915-.448.915-1V7c0-.552-.41-1-.915-1zm-5.028 12c.252 0 .457-.224.457-.5v-6c0-.276-.205-.5-.457-.5s-.457.224-.457.5v6c0 .276.205.5.457.5zm-2.286 0c.252 0 .457-.224.457-.5v-6c0-.276-.205-.5-.457-.5s-.457.224-.457.5v6c0 .276.205.5.457.5zm4.572 0c.252 0 .457-.224.457-.5v-6c0-.276-.205-.5-.457-.5-.253 0-.458.224-.458.5v6c0 .276.205.5.458.5z"/>
    </defs>
    <g fill="none" fill-rule="evenodd" transform="translate(-6 -4)">
        <path d="M0 0h24v24H0z"/>
        <use fill="#7A8993" xlink:href="#a"/>
    </g>
</svg>
