<svg xmlns="http://www.w3.org/2000/svg" width="25" height="19" viewBox="0 0 25 19">
    <path fill="#66BB6A" fill-rule="evenodd" d="M19.008 16.727H6.082s-4.59-.472-4.561-4.562c.016-2.311 2.043-4.425 4.561-4.562 0-3.148 2.015-6.082 5.323-6.082 2.61 0 4.351 1.596 4.97 3.809 3.768-.16 6.316 2.82 6.434 5.314.103 2.152-1.764 4.927-3.801 6.083zm-1.47-12.903A6.832 6.832 0 0 0 11.405 0a6.837 6.837 0 0 0-6.818 6.341C1.933 7.101 0 9.421 0 12.165c0 3.239 2.692 5.877 6.082 6.067l12.926.015c2.613-1.132 5.322-4.295 5.322-7.222a7.21 7.21 0 0 0-6.792-7.2zM16.191 9.42l-3.266 3.247V5.33a.761.761 0 0 0-1.52 0v7.314L8.163 9.42A.764.764 0 1 0 7.08 10.5l4.517 4.493c.16.16.37.228.58.213a.733.733 0 0 0 .578-.213l4.517-4.493a.764.764 0 1 0-1.082-1.08z"/>
</svg>
