<svg xmlns="http://www.w3.org/2000/svg" width="14" height="13" viewBox="0 0 14 13">
    <path fill="#007EE5" fill-rule="evenodd" d="M4.48 10.196L1.99 11.702c-.227.105-.43-.113-.325-.325l1.508-2.489 1.308 1.308zm6.024-8.95c.18-.18.472-.18.652 0l.977.976a.46.46 0 0 1 0 .65l-.977.977L9.55 2.198l.954-.952zM2.776 7.904L.782 11.933c-.168.454.196.86.65.65l4.034-1.992a.898.898 0 0 0 .477-.235l7.167-7.159a.919.919 0 0 0 0-1.3L11.482.268a.923.923 0 0 0-1.304 0L3.012 7.427a.898.898 0 0 0-.236.477z"/>
</svg>
