<svg xmlns="http://www.w3.org/2000/svg" width="40" height="32" viewBox="0 0 40 32">
    <g fill="none" fill-rule="evenodd">
        <path fill="#F3F3F3" d="M0 2.953V.4h2.552v2.552H0zm27.162 0V.4h4.922v2.552h-4.922zm-9.844 0V.4h4.922v2.552h-4.922zm-9.843 0V.4h4.921v2.552H7.475zm29.532 0V.4h2.553v2.552h-2.553zM0 12.457V9.904h2.552v2.553H0zm12.396 0H7.474V9.905h4.922v2.552zm9.845 0h-4.923V9.905h4.923v2.552zm9.843 0h-4.922V9.905h4.922v2.552zm4.923 0V9.904h2.553v2.553h-2.553zM0 21.963v-2.552h2.552v2.552H0zm12.396 0H7.474v-2.552h4.922v2.552zm9.845 0h-4.923v-2.552h4.923v2.552zm9.843 0h-4.922v-2.552h4.922v2.552zm4.923 0v-2.552h2.553v2.552h-2.553zM0 31.477v-2.552h2.552v2.552H0zm27.162 0v-2.552h4.922v2.552h-4.922zm-9.844 0v-2.552h4.922v2.552h-4.922zm-9.843 0v-2.552h4.921v2.552H7.475zm29.532 0v-2.552h2.553v2.552h-2.553z"/>
        <path fill="#FF8A65" d="M17.116 14.52h-8.6l-2.944 6.426a1.277 1.277 0 0 1-2.32-1.064l8.442-18.426a1.276 1.276 0 0 1 1.16-.745h.004c.5.002.954.295 1.16.751l8.296 18.364a1.275 1.275 0 1 1-2.326 1.05l-2.872-6.355zm-1.153-2.552l-3.117-6.9-3.16 6.9h6.277z"/>
        <path fill="#26C6DA" d="M28.657 12.51a3.552 3.552 0 0 0-3.548 3.55 3.552 3.552 0 0 0 3.548 3.547 3.552 3.552 0 0 0 3.549-3.548 3.552 3.552 0 0 0-3.549-3.549m3.75-1.26v-.15a1.276 1.276 0 1 1 2.552 0v9.648a1.276 1.276 0 0 1-2.547.116 6.07 6.07 0 0 1-3.755 1.295 6.107 6.107 0 0 1-6.1-6.1 6.108 6.108 0 0 1 6.1-6.101 6.07 6.07 0 0 1 3.75 1.292z"/>
    </g>
</svg>
