<?xml version="1.0" encoding="UTF-8"?>
<svg width="16px" height="16px" viewBox="0 0 16 16" version="1.1" xmlns="http://www.w3.org/2000/svg" xmlns:xlink="http://www.w3.org/1999/xlink">
    <!-- Generator: sketchtool 52.6 (67491) - http://www.bohemiancoding.com/sketch -->
    <title>064DA997-BC95-408D-8675-F5A0C338CC41</title>
    <desc>Created with sketchtool.</desc>
    <g id="Attendance" stroke="none" stroke-width="1" fill="none" fill-rule="evenodd">
        <g id="T-6.12-CourseGroup_Full-day-attendance" transform="translate(-1301.000000, -435.000000)" fill="#007EE5">
            <g id="Group" transform="translate(296.000000, 435.000000)">
                <g id="cell1">
                    <path d="M1013,10.328 L1006,5 L1012.99,1.1655 L1020,5 L1013,10.328 L1013,10.328 Z M1020,14 C1020,14.1015 1019.9805,14.1975 1019.9525,14.289 L1015.4675,9.8035 L1020,6.1875 L1020,14 L1020,14 Z M1006.778,14.973 L1011.371,10.38 L1013,11.5 L1014.629,10.38 L1019.222,14.973 C1019.1505,14.9895 1006.8495,14.9895 1006.778,14.973 L1006.778,14.973 Z M1006,14 L1006,6.1875 L1010.533,9.8035 L1006.0475,14.289 C1006.0195,14.1975 1006,14.1015 1006,14 L1006,14 Z M1013,0 L1005,4.5 L1005,14 C1005,15.1045 1005.8955,16 1007,16 L1019,16 C1020.1045,16 1021,15.1045 1021,14 L1021,4.5 L1013,0 L1013,0 Z" id="Excused_ico-Copy"></path>
                </g>
            </g>
        </g>
    </g>
</svg>