<svg xmlns="http://www.w3.org/2000/svg" width="15" height="18" viewBox="0 0 15 18">
    <path fill="#7A8993" fill-rule="evenodd" d="M10.686 9.001h-6.75a.563.563 0 0 0 0 1.125h6.75a.562.562 0 1 0 0-1.125zm0 3.375h-6.75a.562.562 0 1 0 0 1.125h6.75a.562.562 0 1 0 0-1.125zm.562-7.874c-.62 0-1.125-.504-1.125-1.125v-2.25l3.375 3.375h-2.25zm2.25 11.248c0 .621-.504 1.125-1.125 1.125H2.25c-.621 0-1.125-.504-1.125-1.125V2.253c0-.621.504-1.125 1.125-1.125h6.733c-.01 1.347.016 2.25.016 2.25a2.25 2.25 0 0 0 2.25 2.249h2.249V15.75zM10.123.003v.016C10.051.019 9.751-.01 9 .003h-6.75A2.25 2.25 0 0 0 0 2.253V15.75A2.25 2.25 0 0 0 2.25 18h10.123a2.25 2.25 0 0 0 2.25-2.25V4.502l-4.5-4.5z"/>
</svg>
