<svg xmlns="http://www.w3.org/2000/svg" width="12" height="13" viewBox="0 0 12 13">
    <path fill="#e50000" fill-rule="evenodd" d="M9.865 3.16h-7.9a.395.395 0 1 1 0-.79h7.9a.395.395 0 0 1 0 .79zm-.395 7.9a.79.79 0 0 1-.79.79H3.15a.79.79 0 0 1-.79-.79V3.95h7.11v7.11zM4.73 1.185c0-.218.177-.395.395-.395h1.58c.218 0 .395.177.395.395v.395H4.73v-.395zm5.53.395H7.89V.79A.79.79 0 0 0 7.1 0H4.73a.79.79 0 0 0-.79.79v.79H1.57a.79.79 0 0 0-.79.79v.79c0 .436.354.79.79.79v7.11c0 .873.707 1.58 1.58 1.58h5.53a1.58 1.58 0 0 0 1.58-1.58V3.95a.79.79 0 0 0 .79-.79v-.79a.79.79 0 0 0-.79-.79zm-4.345 9.48a.395.395 0 0 0 .395-.395v-4.74a.395.395 0 0 0-.79 0v4.74c0 .218.177.395.395.395zm-1.975 0a.395.395 0 0 0 .395-.395v-4.74a.395.395 0 0 0-.79 0v4.74c0 .218.177.395.395.395zm3.95 0a.395.395 0 0 0 .395-.395v-4.74a.395.395 0 0 0-.79 0v4.74c0 .218.177.395.395.395z"/>
</svg>
