<svg xmlns="http://www.w3.org/2000/svg" width="37" height="34" viewBox="0 0 37 34">
    <defs>
        <linearGradient id="a" x1="50%" x2="50%" y1="0%" y2="100%">
            <stop offset="0%" stop-color="#C3D1D7"/>
            <stop offset="100%" stop-color="#90A4AE"/>
        </linearGradient>
        <linearGradient id="b" x1="50%" x2="50%" y1="229.505%" y2="0%">
            <stop offset="0%" stop-color="#C3D1D7"/>
            <stop offset="100%" stop-color="#90A4AE"/>
        </linearGradient>
    </defs>
    <g fill="none" fill-rule="evenodd">
        <path fill="url(#a)" d="M32.725 33.973H3.22a.168.168 0 0 1-.167-.142L.002 13.766a.168.168 0 0 1 .166-.193h35.61c.102 0 .181.091.166.193L32.89 33.83a.168.168 0 0 1-.166.142z" transform="translate(.709)"/>
        <path fill="url(#b)" d="M33.517 13.573V4.157a.476.476 0 0 0-.476-.475H13.925a.475.475 0 0 1-.408-.23L11.932.82a.478.478 0 0 0-.408-.23H2.959a.477.477 0 0 0-.476.475v12.507h31.034z" transform="translate(.709)"/>
        <path fill="#FFF" d="M5.054 11.1h27.31v2.473H5.054z"/>
        <path fill="#E7ECED" d="M5.675 9.246h26.069v1.855H5.674z"/>
        <path fill="#FFF" d="M6.295 7.391h24.828v1.855H6.295z"/>
    </g>
</svg>
