<svg xmlns="http://www.w3.org/2000/svg" width="36" height="36" viewBox="0 0 36 36">
    <defs>
        <linearGradient id="a" x1="50%" x2="50%" y1="0%" y2="100%">
            <stop offset="0%" stop-color="#C3D1D7"/>
            <stop offset="100%" stop-color="#90A4AE"/>
        </linearGradient>
    </defs>
    <g fill="none" fill-rule="evenodd">
        <rect width="36" height="36" fill="url(#a)" rx="2"/>
        <path fill="#FFF" d="M24.768 11H12.232a.233.233 0 0 0-.232.233v2.8c0 .13.104.234.232.234h1.857a.233.233 0 0 0 .232-.234v-.7h3.018v9.334h-1.16a.233.233 0 0 0-.233.233v1.867c0 .128.104.233.233.233h4.642a.233.233 0 0 0 .233-.233V22.9a.233.233 0 0 0-.233-.233h-1.16v-9.334h3.018v.7c0 .13.104.234.232.234h1.857a.233.233 0 0 0 .232-.234v-2.8a.233.233 0 0 0-.232-.233z"/>
    </g>
</svg>
