<?xml version="1.0" encoding="UTF-8"?>
<svg width="49px" height="48px" viewBox="0 0 49 48" version="1.1" xmlns="http://www.w3.org/2000/svg" xmlns:xlink="http://www.w3.org/1999/xlink">
    <!-- Generator: sketchtool 52.6 (67491) - http://www.bohemiancoding.com/sketch -->
    <title>27C01F3E-E268-419C-9EC0-9AB0115AC498</title>
    <desc>Created with sketchtool.</desc>
    <defs>
        <path d="M5.669,0.393 C1.984,1.527 -0.105,5.495 1.005,9.258 L1.005,9.258 C1.637,11.404 3.173,13.018 5.058,13.799 L5.058,13.799 L3.607,22.038 L6.205,20.896 L8.249,22.891 L8.25,22.891 L9.765,14.297 L15.674,20.61 L16.303,17.793 L19.085,17.28 L13.423,11.229 C14.572,9.514 14.984,7.304 14.35,5.157 L14.35,5.157 C13.443,2.077 10.675,0.09 7.68,0.09 L7.68,0.09 C7.015,0.09 6.339,0.187 5.669,0.393 L5.669,0.393 Z" id="path-1"></path>
        <path d="M3.94,0.891 C1.823,0.891 0.107,2.64 0.107,4.797 L0.107,4.797 L0.107,34.985 C0.107,37.143 1.823,38.892 3.94,38.892 L3.94,38.892 L29.445,38.892 C28.626,37.915 27.998,36.769 27.623,35.502 L27.623,35.502 C26.915,33.105 27.166,30.568 28.33,28.363 L28.33,28.363 C29.493,26.156 31.431,24.543 33.786,23.822 L33.786,23.822 C34.65,23.557 35.543,23.421 36.44,23.421 L36.44,23.421 C40.466,23.421 44.089,26.167 45.25,30.099 L45.25,30.099 C45.888,32.257 45.742,34.532 44.869,36.556 L44.869,36.556 L46.418,38.207 C47.425,37.504 48.087,36.324 48.087,34.985 L48.087,34.985 L48.087,4.797 C48.087,2.64 46.372,0.891 44.254,0.891 L44.254,0.891 L3.94,0.891 Z M5.249,12.343 C4.926,11.858 5.049,11.197 5.525,10.867 L5.525,10.867 C16.808,3.055 31.386,3.055 42.669,10.867 L42.669,10.867 C43.145,11.197 43.268,11.858 42.945,12.343 L42.945,12.343 C42.621,12.828 41.975,12.954 41.495,12.625 L41.495,12.625 C30.924,5.306 17.264,5.307 6.699,12.625 L6.699,12.625 C6.518,12.748 6.315,12.809 6.113,12.809 L6.113,12.809 C5.779,12.809 5.451,12.646 5.249,12.343 L5.249,12.343 Z M20.014,15.244 C20.014,12.947 21.842,11.084 24.097,11.084 L24.097,11.084 C26.352,11.084 28.18,12.947 28.18,15.244 L28.18,15.244 C28.18,17.542 26.352,19.404 24.097,19.404 L24.097,19.404 C21.842,19.404 20.014,17.542 20.014,15.244 L20.014,15.244 Z M5.612,27.014 C5.612,26.428 6.078,25.951 6.655,25.951 L6.655,25.951 L22.216,25.951 C22.792,25.951 23.259,26.428 23.259,27.014 L23.259,27.014 C23.259,27.601 22.792,28.077 22.216,28.077 L22.216,28.077 L6.655,28.077 C6.078,28.077 5.612,27.601 5.612,27.014 L5.612,27.014 Z M5.612,33.711 C5.612,33.124 6.078,32.648 6.655,32.648 L6.655,32.648 L22.216,32.648 C22.792,32.648 23.259,33.124 23.259,33.711 L23.259,33.711 C23.259,34.298 22.792,34.774 22.216,34.774 L22.216,34.774 L6.655,34.774 C6.078,34.774 5.612,34.298 5.612,33.711 L5.612,33.711 Z" id="path-3"></path>
    </defs>
    <g id="Content" stroke="none" stroke-width="1" fill="none" fill-rule="evenodd">
        <g id="P-11.5-Coursegroup_content---chanpters" transform="translate(-886.000000, -168.000000)">
            <g id="Tabs" transform="translate(296.000000, 167.000000)">
                <g id="grades_ico" transform="translate(590.000000, 1.000000)">
                    <g id="Group-3" transform="translate(28.000000, 25.000000)">
                        <mask id="mask-2" fill="white">
                            <use xlink:href="#path-1"></use>
                        </mask>
                        <g id="Clip-2"></g>
                        <polygon id="Fill-1" fill="#FF8F00" mask="url(#mask-2)" points="-4.4 -5.019 24.191 -5.019 24.191 28 -4.4 28"></polygon>
                    </g>
                    <g id="Group-6">
                        <mask id="mask-4" fill="white">
                            <use xlink:href="#path-3"></use>
                        </mask>
                        <g id="Clip-5"></g>
                        <polygon id="Fill-4" fill="#66BB6A" mask="url(#mask-4)" points="-5 -4.217 53.194 -4.217 53.194 44 -5 44"></polygon>
                    </g>
                </g>
            </g>
        </g>
    </g>
</svg>