<?xml version="1.0" encoding="UTF-8"?>
<svg width="14px" height="14px" viewBox="0 0 14 14" version="1.1" xmlns="http://www.w3.org/2000/svg" xmlns:xlink="http://www.w3.org/1999/xlink">
    <!-- Generator: sketchtool 50.2 (55047) - http://www.bohemiancoding.com/sketch -->
    <title>A2CBB3EF-CF4F-440E-9660-478C30875A0C</title>
    <desc>Created with sketchtool.</desc>
    <defs></defs>
    <g id="Page-1" stroke="none" stroke-width="1" fill="none" fill-rule="evenodd">
        <g id="T4.2---Teacher_homepage---Language,-Logout-and-help" transform="translate(-1301.000000, -174.000000)">
            <g id="Group-14" transform="translate(1284.000000, 78.000000)">
                <g id="Help" transform="translate(16.000000, 95.000000)">
                    <g id="help_ico">
                        <polygon id="Stroke-1" stroke-opacity="0.00784313771" stroke="#000000" stroke-width="1.33333335e-11" points="0 0 15.999999 0 15.999999 15.999999 0 15.999999"></polygon>
                        <path d="M7.99999952,1.33333325 C4.31999975,1.33333325 1.33333325,4.31999975 1.33333325,7.99999952 C1.33333325,11.6799996 4.31999975,14.6666658 7.99999952,14.6666658 C11.6799996,14.6666658 14.6666658,11.6799996 14.6666658,7.99999952 C14.6666658,4.31999943 11.6799996,1.33333325 7.99999952,1.33333325 Z M8.66666615,12.6666659 L7.33333289,12.6666659 L7.33333289,11.3333327 L8.66666615,11.3333327 L8.66666615,12.6666659 Z M10.0466658,7.49999955 L9.4466661,8.11333285 C8.966666,8.59999922 8.66666615,8.99999946 8.66666615,9.9999994 L7.33333289,9.9999994 L7.33333289,9.66666609 C7.33333289,8.93333253 7.63333274,8.2666659 8.11333285,7.77999953 L8.93999933,6.93999945 C9.18666592,6.69999966 9.33333277,6.36666641 9.33333277,5.99999964 C9.33333277,5.26666641 8.73333301,4.66666639 7.99999952,4.66666639 C7.26666596,4.66666639 6.66666627,5.26666641 6.66666627,5.99999964 L5.33333301,5.99999964 C5.33333301,4.52666637 6.52666625,3.33333313 7.99999952,3.33333313 C9.47333276,3.33333313 10.666666,4.52666637 10.666666,5.99999964 C10.666666,6.58666634 10.4266662,7.11999977 10.0466658,7.49999955 Z" id="Fill-2" fill="#7A8993"></path>
                    </g>
                </g>
            </g>
        </g>
    </g>
</svg>