<svg xmlns="http://www.w3.org/2000/svg" width="14" height="14" viewBox="0 0 14 14">
    <path fill="#66bb6a" fill-rule="evenodd" d="M4.143 11.293l-2.76 1.668c-.25.117-.477-.125-.36-.36l1.67-2.756 1.45 1.448zm4.855-8.099l1.817 1.79-5.774 5.765-1.803-1.802 5.76-5.753zm1.817-1.814c.199-.2.522-.2.722 0l1.082 1.08c.2.2.2.523 0 .721l-1.082 1.082-1.779-1.828 1.057-1.055zm-8.56 7.374L.046 13.217c-.185.503.217.953.72.72l4.469-2.206a.995.995 0 0 0 .528-.261l7.938-7.929a1.018 1.018 0 0 0 0-1.44L11.897.297a1.022 1.022 0 0 0-1.443 0L2.516 8.226a.995.995 0 0 0-.261.528z"/>
</svg>
