<?xml version="1.0" encoding="UTF-8"?>
<svg width="79px" height="52px" viewBox="0 0 79 52" version="1.1" xmlns="http://www.w3.org/2000/svg" xmlns:xlink="http://www.w3.org/1999/xlink">
    <!-- Generator: sketchtool 52.6 (67491) - http://www.bohemiancoding.com/sketch -->
    <title>316AA213-ABEE-467E-BCE8-E0008A3F3D5F</title>
    <desc>Created with sketchtool.</desc>
    <defs>
        <linearGradient x1="120.094%" y1="-23.005%" x2="22.735%" y2="86.115%" id="linearGradient-1">
            <stop stop-color="#C4DF9B" offset="0%"></stop>
            <stop stop-color="#3CB878" offset="100%"></stop>
        </linearGradient>
        <linearGradient x1="45.624%" y1="59.481%" x2="70.582%" y2="4.721%" id="linearGradient-2">
            <stop stop-color="#FFFFFF" offset="0.595%"></stop>
            <stop stop-color="#B3B3B3" offset="37.5%"></stop>
            <stop stop-color="#B8B8B8" offset="40.29%"></stop>
            <stop stop-color="#DEDEDE" offset="65.8%"></stop>
            <stop stop-color="#F6F6F6" offset="86.2%"></stop>
            <stop stop-color="#FFFFFF" offset="98.81%"></stop>
        </linearGradient>
        <polygon id="path-3" points="0 0 0 51.711 66.5 8"></polygon>
        <linearGradient x1="22.33%" y1="120.613%" x2="51.081%" y2="47.101%" id="linearGradient-5">
            <stop stop-color="#FFFFFF" offset="40.48%"></stop>
            <stop stop-color="#FCFCFC" offset="52.31%"></stop>
            <stop stop-color="#F1F1F1" offset="62.63%"></stop>
            <stop stop-color="#DFDFDF" offset="72.39%"></stop>
            <stop stop-color="#C6C6C6" offset="81.81%"></stop>
            <stop stop-color="#A6A6A6" offset="90.89%"></stop>
            <stop stop-color="#808080" offset="99.4%"></stop>
        </linearGradient>
    </defs>
    <g id="Symbols" stroke="none" stroke-width="1" fill="none" fill-rule="evenodd">
        <g id="b-logo-/-HOD" transform="translate(0.000000, -1.000000)">
            <g>
                <path d="M0,1 C0,1 32.462,23.678 61.333,7.356 C61.333,7.356 63.487,35.666 79,52.711 C79,52.711 16.23,26.422 0,1 Z" id="Path" fill="url(#linearGradient-1)" transform="translate(39.500000, 26.855500) scale(-1, 1) rotate(-180.000000) translate(-39.500000, -26.855500) "></path>
                <path d="M0,1 C0,1 32.462,23.678 61.333,7.356 C61.333,7.356 63.487,35.666 79,52.711 C79,52.711 16.23,26.422 0,1 Z" id="Path" fill="url(#linearGradient-2)" style="mix-blend-mode: multiply;" transform="translate(39.500000, 26.855500) scale(-1, 1) rotate(-180.000000) translate(-39.500000, -26.855500) "></path>
                <g id="Group">
                    <g id="c-link" transform="translate(39.500000, 26.711000) scale(-1, 1) rotate(-180.000000) translate(-39.500000, -26.711000) translate(0.000000, 0.711000)" fill="url(#linearGradient-1)">
                        <polygon id="c" points="0 0 0 51.711 79 51.711"></polygon>
                    </g>
                    <g id="Clipped" transform="translate(0.000000, 1.000000)">
                        <mask id="mask-4" fill="white">
                            <use xlink:href="#path-3"></use>
                        </mask>
                        <g id="c"></g>
                        <path d="M29.257,26.167 L37.66,23.377 L37.66,27.918 C37.6567774,28.4887705 37.2891967,28.9936405 36.747,29.172 L28.412,31.932 C28.138,32.022 27.842,32.022 27.568,31.932 L19.233,29.172 C18.6908033,28.9936405 18.3232226,28.4887705 18.32,27.918 L18.32,23.38 L26.721,26.167 C27.5441916,26.4406215 28.4338084,26.4406215 29.257,26.167 Z M22.076,21.827 L18.32,20.574 L10.898,18.118 C10.3621087,17.9339597 10.0016562,17.4306106 10,16.864 C10,16.299 10.36,15.796 10.898,15.609 L27.568,10.069 C27.8419889,9.97808803 28.1380111,9.97808803 28.412,10.069 L31.08,10.954 L15.31,16.272 C15.000887,16.37545 14.7934339,16.6660458 14.796,16.992 C14.8,17.318 15.015,17.604 15.328,17.702 L21.008,19.457 C21.161,19.507 21.326,19.507 21.48,19.457 L33.973,15.268 L37.553,16.48 L22.41,21.592 C22.2791947,21.6386715 22.1636788,21.7202935 22.076,21.828 L22.076,21.827 Z M24.274,22.557 L40.16,17.197 C40.47,17.095 40.68,16.807 40.68,16.484 C40.6791162,16.1586546 40.4693798,15.8706705 40.16,15.77 L34.227,13.763 C34.0680361,13.7095706 33.8959639,13.7095706 33.737,13.763 L21.234,17.95 L18.011,16.946 L33.061,11.879 C33.1681439,11.8426244 33.2658421,11.7828441 33.347,11.704 L45.087,15.599 C45.632,15.781 45.999,16.285 46,16.854 L46,17.807 L41.623,19.264 L37.665,20.579 L28.41,23.649 C28.1357049,23.7401333 27.8392951,23.7401333 27.565,23.649 L24.275,22.558 L24.274,22.557 Z" id="Shape" fill-opacity="0.9" fill="#FFFFFF" fill-rule="nonzero" opacity="0.767" style="mix-blend-mode: soft-light;" mask="url(#mask-4)"></path>
                    </g>
                </g>
                <polygon id="Path" fill="url(#linearGradient-5)" style="mix-blend-mode: multiply;" transform="translate(39.500000, 26.855500) scale(-1, 1) rotate(-180.000000) translate(-39.500000, -26.855500) " points="0 1 0 52.711 79 52.711"></polygon>
            </g>
        </g>
    </g>
</svg>