<svg xmlns="http://www.w3.org/2000/svg" width="32" height="32" viewBox="0 0 32 32">
    <g fill="none" fill-rule="nonzero">
        <rect width="32" height="32" fill="#51BE7D" rx="4"/>
        <path fill="#FFF" d="M13 23.977H9.25c-1.243 0-2.25-1.025-2.25-2.29v-2.443a2.35 2.35 0 0 1 1.403-2.076 11.37 11.37 0 0 1 6.097-.672c.268.044.493.23.59.488a.784.784 0 0 1-.12.763.753.753 0 0 1-.71.276 9.909 9.909 0 0 0-5.25.588.847.847 0 0 0-.45.656v2.443c0 .422.336.763.75.763H13c.414 0 .75.342.75.764A.757.757 0 0 1 13 24v-.023zm3-12.542C16 9.538 14.489 8 12.625 8S9.25 9.538 9.25 11.435s1.511 3.435 3.375 3.435S16 13.332 16 11.435zm-1.5 0c0 1.054-.84 1.909-1.875 1.909-1.036 0-1.875-.855-1.875-1.909s.84-1.908 1.875-1.908c1.036 0 1.875.854 1.875 1.908zM25 22.206v-2.565a2.084 2.084 0 0 0-1.245-1.847 9.496 9.496 0 0 0-7.117 0 2.084 2.084 0 0 0-1.246 1.847v3.573c0 .421.336.763.75.763.415 0 .75-.342.75-.763V19.64a.58.58 0 0 1 .293-.42 8.035 8.035 0 0 1 6 0 .58.58 0 0 1 .292.42v2.565a.262.262 0 0 1-.08.181.252.252 0 0 1-.182.071H19a.757.757 0 0 0-.75.763c0 .422.336.764.75.764h4.237a1.74 1.74 0 0 0 1.244-.518c.33-.334.517-.787.519-1.26zm-2.25-9.26a2.674 2.674 0 0 0-1.594-2.495 2.591 2.591 0 0 0-2.873.555 2.706 2.706 0 0 0-.587 2.916 2.625 2.625 0 0 0 2.429 1.658c1.439.009 2.613-1.17 2.625-2.633zm-1.5 0c.025.468-.233.904-.651 1.101a1.11 1.11 0 0 1-1.246-.208 1.16 1.16 0 0 1-.272-1.254c.17-.436.584-.722 1.044-.722.602-.01 1.1.472 1.125 1.084z"/>
    </g>
</svg>
