<svg xmlns="http://www.w3.org/2000/svg" xmlns:xlink="http://www.w3.org/1999/xlink" width="55" height="55" viewBox="0 0 55 55">
    <defs>
        <rect id="a" width="315" height="255" x="1" rx="2"/>
        <mask id="b" width="319" height="259" x="-2" y="-2">
            <path fill="#fff" d="M-1-2h319v259H-1z"/>
            <use xlink:href="#a"/>
        </mask>
    </defs>
    <g fill="none" fill-rule="evenodd" transform="translate(-131 -100)">
        <use stroke="#FFA726" stroke-dasharray="4,4" stroke-width="4" mask="url(#b)" xlink:href="#a"/>
        <path fill="#66bb6a" d="M182.071 123.571H162.43V103.93c0-2.161-1.76-3.929-3.929-3.929a3.935 3.935 0 0 0-3.929 3.929v19.642H134.93A3.935 3.935 0 0 0 131 127.5c0 2.16 1.76 3.929 3.929 3.929h19.642v19.642c0 2.161 1.76 3.929 3.929 3.929a3.935 3.935 0 0 0 3.929-3.929V131.43h19.642A3.935 3.935 0 0 0 186 127.5c0-2.16-1.76-3.929-3.929-3.929z"/>
    </g>
</svg>
