<svg xmlns="http://www.w3.org/2000/svg" xmlns:xlink="http://www.w3.org/1999/xlink" width="16" height="16" viewBox="0 0 16 16">
    <defs>
        <path id="1uuyudvuza" d="M7.228 1.615c1.192 0 2.315.29 3.304.803-.009.082-.01.166-.004.25l.08 1.05-.595.595c-.808-.502-1.761-.792-2.784-.792-2.92 0-5.287 2.367-5.287 5.287s2.37 5.286 5.289 5.286c2.92 0 5.287-2.367 5.287-5.286 0-1.021-.29-1.975-.793-2.784l.658-.658.915.07c.036.002.07.004.105.004.058 0 .119-.004.177-.012.538 1.007.842 2.157.842 3.38 0 3.972-3.22 7.192-7.193 7.192C3.257 16 .037 12.78.037 8.808c0-3.973 3.22-7.193 7.19-7.193zm.001 3.65c.536 0 1.043.12 1.498.332L7.37 6.954c-.047-.003-.094-.005-.14-.005-1.027 0-1.86.833-1.86 1.859 0 1.025.83 1.858 1.858 1.858 1.027 0 1.858-.833 1.858-1.858 0-.047-.002-.094-.005-.141l1.328-1.328.029-.029c.213.455.332.962.332 1.498 0 1.955-1.585 3.54-3.54 3.54-1.957 0-3.542-1.586-3.542-3.542 0-1.956 1.585-3.54 3.541-3.54zM13.314 0c.082 0 .16.059.167.154l.101 1.302.489-.489c.095-.097.225-.146.35-.146.127 0 .254.049.351.146l.296.297c.195.195.195.509 0 .704l-.426.426 1.166.09c.143.01.207.185.106.286l-1.92 1.92c-.16.159-.373.246-.595.246-.02 0-.042 0-.064-.002l-.048-.003-1.098-.084L8.41 8.625c-.072.073-.171.117-.275.122l-.445.022h-.022c-.243 0-.438-.208-.418-.453l.034-.422c.006-.099.05-.193.12-.263l1.748-1.748.029-.029 1.25-1.25.696-.696-.093-1.203-.005-.076c-.018-.245.07-.485.244-.658L13.196.049c.034-.034.076-.049.118-.049z"/>
    </defs>
    <g fill="none" fill-rule="evenodd">
        <g>
            <g>
                <g>
                    <g>
                        <g transform="translate(-673 -227) translate(45 45) translate(312 174) translate(316) translate(0 8)">
                            <mask id="jdcpj1mrpb" fill="#fff">
                                <use xlink:href="#1uuyudvuza"/>
                            </mask>
                            <use fill="#000" fill-rule="nonzero" xlink:href="#1uuyudvuza"/>
                            <g fill="#75849B" mask="url(#jdcpj1mrpb)">
                                <path d="M0 0H16V16H0z"/>
                            </g>
                        </g>
                    </g>
                </g>
            </g>
        </g>
    </g>
</svg>
