<svg xmlns="http://www.w3.org/2000/svg" width="24" height="24" viewBox="0 0 24 24">
    <path fill="#007EE5" fill-rule="evenodd" d="M15.717 4a1.506 1.506 0 0 1 1.5 1.356l.007.149-.002 4.067c.36.256 1.05.732 1.367.96l.082.06.25.187c.974.742 1.597 1.389 1.876 2.074.072.177.119.355.138.533l.01.178v3.56l.966 1.449a.531.531 0 0 1-.825.664l-.06-.075-1.056-1.583a.531.531 0 0 1-.083-.217l-.006-.078v-3.72a.83.83 0 0 0-.069-.31c-.189-.464-.715-1.006-1.554-1.644l-.216-.162-.819-.579v2.259l1.17.938a.531.531 0 0 1-.585.882l-.08-.053-1.342-1.075-.031-.025-1.327-1.066a.392.392 0 0 0-.483.056.392.392 0 0 0-.036.509l.058.069 2.503 2.825a.531.531 0 0 1 .125.256l.009.096v1.771c0 .115.053.294.158.51.088.18.206.377.346.582l.105.147.102.138.19.241.158.183a.531.531 0 0 1-.718.778l-.07-.065-.204-.24a8.73 8.73 0 0 1-.438-.58 5.612 5.612 0 0 1-.427-.719 2.476 2.476 0 0 1-.257-.821l-.008-.154v-1.57l-2.454-2.768a1.455 1.455 0 0 1 .106-1.94c.533-.532 1.376-.565 1.911-.131l.103.093.353.282V5.505a.443.443 0 0 0-.074-.245l-.055-.068a.443.443 0 0 0-.227-.12l-.087-.01H6.505a.442.442 0 0 0-.435.363l-.007.08v12.93c0 .218.156.398.363.436l.08.007h8.06a.531.531 0 0 1 .087 1.056l-.087.007H6.505c-.785 0-1.43-.602-1.499-1.369L5 18.435V5.505c0-.785.601-1.43 1.368-1.499L6.505 4h9.212zM8.713 14.627c.264 0 .484.193.525.445l.007.087v2.125a.531.531 0 0 1-1.056.086l-.007-.086v-2.125c0-.294.238-.532.531-.532zm2.126-1.594c.294 0 .532.238.532.531v3.72a.531.531 0 0 1-1.063 0v-3.72c0-.293.238-.53.531-.53zm1.07-6.908l2.138.001.063.005-.022-.003.015.002.008.001h.002l.056.012a.532.532 0 0 1 .248.145l.01.01.019.022a.53.53 0 0 1 .027.036l.024.038a.536.536 0 0 1 .062.177l.004.03a.534.534 0 0 1 .003.048v2.133a.531.531 0 0 1-1.056.086l-.006-.086-.001-.917-5.487 5.028a.532.532 0 0 1-.68.032l-.07-.064a.531.531 0 0 1-.032-.68l.064-.07 5.37-4.923h-.759a.531.531 0 0 1-.086-1.056l.086-.007zm2.152.001l.023.002-.033-.002h.01zm-.026 0h.016-.016z"/>
</svg>
