<svg xmlns="http://www.w3.org/2000/svg" width="16" height="16" viewBox="0 0 16 16">
    <defs>
        <linearGradient id="a" x1="125.954%" x2="-2.549%" y1="-50.92%" y2="100%">
            <stop offset="0%" stop-color="#FF6030"/>
            <stop offset="100%" stop-color="#F5344F"/>
        </linearGradient>
    </defs>
    <path fill="url(#a)" fill-rule="evenodd" d="M18.847 8.63A7.719 7.719 0 0 1 21.934 8c1.081 0 2.11.21 3.087.63.976.422 1.82.99 2.53 1.706a8.023 8.023 0 0 1 1.69 2.551c.418.985.626 2.022.626 3.113a7.9 7.9 0 0 1-.625 3.113 8.025 8.025 0 0 1-1.691 2.55 7.946 7.946 0 0 1-2.53 1.706c-.977.42-2.006.631-3.087.631-1.082 0-2.111-.21-3.087-.63a7.943 7.943 0 0 1-2.53-1.706 8.03 8.03 0 0 1-1.692-2.551A7.895 7.895 0 0 1 14 16c0-1.09.208-2.128.625-3.113a8.029 8.029 0 0 1 1.692-2.55 7.952 7.952 0 0 1 2.53-1.706s-.977.42 0 0zm4.27 8.077l.797-4.187a.55.55 0 0 0-.564-.68h-2.846a.55.55 0 0 0-.55.68l.797 4.187a.82.82 0 0 0 .296.478c.16.134.332.201.516.201h.742a.79.79 0 0 0 .515-.2.821.821 0 0 0 .296-.479s-.036.185 0 0zM22 20.403c.552 0 1-.445 1-1.002a.998.998 0 0 0-1-1.001c-.552 0-1 .445-1 1.001a.998.998 0 0 0 1 1.002z" transform="translate(-14 -8)"/>
</svg>
