<svg xmlns="http://www.w3.org/2000/svg" width="26" height="25" viewBox="0 0 26 25">
    <g fill="none" fill-rule="evenodd" stroke="#00bcd4" stroke-linecap="round" stroke-linejoin="round">
        <path d="M13 3.56C16.423 3.98 17.258 1 17.258 1s-1.161.731-2.323.366c-.42-.133-1.16-.366-1.935 0"/>
        <path d="M10.484 5.009a5.03 5.03 0 0 0-1.161.282C8.35 5.66 7 6.754 7 8.95c0 2.194 1.14 3.726 1.935 4.754.413.532 1.162 1.463 2.323 1.463.632 0 1.149-.109 1.49-.207.291-.085.6-.085.892 0 .34.098.857.207 1.489.207 1.161 0 1.91-.931 2.323-1.463.796-1.028 1.935-2.56 1.935-4.754 0-2.195-1.35-3.29-2.322-3.658-1.936-.731-3.871 0-3.871 0S13.028 2.68 10.87 2M14.323 7c-.388.387-1.936.387-2.323 0"/>
        <g>
            <path d="M19.484 15l5.033.731-7.355 3.095c-.747.308-1.148 1.058-1.153 1.828-.005.574-.009 1.36-.009 2.392 0 .865 1.012 1.389 1.785.924l6.732-3.85s-.775-1.097-.388-2.194"/>
            <path d="M5.645 14l-2.71.731C1.387 15.097 1 15.83 1 17.29v1.359c0 1.203.387 1.935 1.703 2.377l14.942 2.85M4 19.463V18M6 19.463V18"/>
        </g>
    </g>
</svg>
