<?xml version="1.0" encoding="UTF-8"?>
<svg width="14px" height="14px" viewBox="0 0 14 14" version="1.1" xmlns="http://www.w3.org/2000/svg" xmlns:xlink="http://www.w3.org/1999/xlink">
    <!-- Generator: sketchtool 50.2 (55047) - http://www.bohemiancoding.com/sketch -->
    <title>E4BF06F0-CA14-44FA-B25E-C68A5AE23D2A</title>
    <desc>Created with sketchtool.</desc>
    <defs></defs>
    <g id="Page-1" stroke="none" stroke-width="1" fill="none" fill-rule="evenodd">
        <g id="T4.2---Teacher_homepage---Language,-Logout-and-help" transform="translate(-1301.000000, -141.000000)">
            <g id="Group-14" transform="translate(1284.000000, 78.000000)">
                <g id="Language" transform="translate(16.000000, 62.000000)">
                    <g id="lang_ico">
                        <polygon id="Stroke-1" stroke-opacity="0.00784313771" stroke="#000000" stroke-width="1.33333335e-11" points="0 0 15.999999 0 15.999999 15.999999 0 15.999999"></polygon>
                        <path d="M7.99333265,1.33333325 C4.31333325,1.33333325 1.33333325,4.31999975 1.33333325,7.99999952 C1.33333325,11.6799996 4.31333325,14.6666658 7.99333265,14.6666658 C11.6799996,14.6666658 14.6666658,11.6799996 14.6666658,7.99999952 C14.6666658,4.31999943 11.6799996,1.33333325 7.99333265,1.33333325 Z M12.6133326,5.33333301 L10.6466662,5.33333301 C10.433333,4.49999973 10.1266664,3.6999999 9.72666615,2.95999986 C10.9533329,3.37999991 11.9733319,4.23333333 12.6133326,5.33333301 Z M7.99999952,2.69333315 C8.55333275,3.49333297 8.98666579,4.37999953 9.27333264,5.33333301 L6.72666633,5.33333301 C7.01333318,4.37999953 7.44666622,3.49333297 7.99999952,2.69333315 Z M2.83999998,9.33333277 C2.7333331,8.90666587 2.66666651,8.45999983 2.66666651,7.99999952 C2.66666651,7.53999915 2.7333331,7.09333311 2.83999998,6.66666627 L5.09333325,6.66666627 C5.03999997,7.10666611 5.00000001,7.54666595 5.00000001,7.99999952 C5.00000001,8.45333303 5.03999997,8.89333287 5.09333325,9.33333277 L2.83999998,9.33333277 Z M3.38666673,10.666666 L5.35333347,10.666666 C5.56666659,11.4999993 5.87333325,12.2999997 6.27333349,13.0399988 C5.04666679,12.6199994 4.02666703,11.7733325 3.38666673,10.666666 Z M5.35333347,5.33333301 L3.38666641,5.33333301 C4.0266664,4.22666651 5.04666616,3.37999959 6.27333285,2.95999986 C5.87333325,3.6999999 5.56666659,4.49999973 5.35333283,5.33333301 L5.35333347,5.33333301 Z M7.99999952,13.3066652 C7.44666622,12.5066648 7.01333318,11.6199982 6.72666633,10.6666654 L9.27333264,10.6666654 C8.98666579,11.6199982 8.55333275,12.5066648 7.99999952,13.3066652 Z M9.55999949,9.33333277 L6.43999951,9.33333277 C6.37999941,8.89333287 6.33333295,8.45333303 6.33333295,7.99999952 C6.33333295,7.54666595 6.37999941,7.09999931 6.43999951,6.66666627 L9.55999949,6.66666627 C9.61999962,7.09999931 9.66666609,7.54666595 9.66666609,7.99999952 C9.66666609,8.45333303 9.61999962,8.89333287 9.55999949,9.33333277 Z M9.72666615,13.0399988 C10.1266664,12.2999985 10.4333324,11.4999993 10.6466662,10.666666 L12.6133326,10.666666 C11.9733319,11.7666657 10.9533329,12.6199994 9.72666615,13.0399988 Z M10.9066664,9.33333277 C10.9599997,8.89333287 10.9999993,8.45333303 10.9999993,7.99999952 C10.9999993,7.54666595 10.9599997,7.10666611 10.9066664,6.66666627 L13.1600003,6.66666627 C13.2666669,7.09333311 13.3333338,7.53999915 13.3333338,7.99999952 C13.3333338,8.45999983 13.2666669,8.90666587 13.1600003,9.33333277 L10.9066664,9.33333277 Z" id="Fill-2" fill="#7A8993"></path>
                    </g>
                </g>
            </g>
        </g>
    </g>
</svg>