<?xml version="1.0" encoding="UTF-8"?>
<svg width="16px" height="16px" viewBox="0 0 16 16" version="1.1" xmlns="http://www.w3.org/2000/svg" xmlns:xlink="http://www.w3.org/1999/xlink">
    <!-- Generator: sketchtool 52.6 (67491) - http://www.bohemiancoding.com/sketch -->
    <title>D1D2A1A6-E616-4F77-8E3E-990DDA132AF7</title>
    <desc>Created with sketchtool.</desc>
    <g id="Symbols" stroke="none" stroke-width="1" fill="none" fill-rule="evenodd">
        <g id="Late" fill="#FBC02D">
            <path d="M8,0 C12.418,0 16,3.58 16,8 C16,12.42 12.418,16 8,16 C3.582,16 0,12.42 0,8 C0,3.58 3.582,0 8,0 Z M8.49427451,7.9212549 L8.49427451,3.38977778 C8.49427451,3.11861438 8.25801307,2.89989542 7.98682353,2.89989542 C7.73320261,2.89989542 7.50569935,3.11861438 7.50569935,3.38977778 L7.50569935,7.99121569 C7.50569935,8 7.52324183,8.03508497 7.52324183,8.06122876 C7.50569935,8.21871895 7.54956863,8.34993464 7.65445752,8.45500654 L10.2702222,11.0705882 C10.4452549,11.2456209 10.7688627,11.2456209 10.9437647,11.0705882 C11.144915,10.8694118 11.1316863,10.5775163 10.9437647,10.3882614 L8.49427451,7.9212549 Z" id="Late-Copy"></path>
        </g>
    </g>
</svg>