<?xml version="1.0" encoding="UTF-8" standalone="no"?>
<svg width="12px" height="16px" viewBox="0 0 12 16" version="1.1" xmlns="http://www.w3.org/2000/svg" xmlns:xlink="http://www.w3.org/1999/xlink">
    <!-- Generator: sketchtool 3.8.3 (29802) - http://www.bohemiancoding.com/sketch -->
    <title>2BA247F7-E3F9-4D78-A9D0-EE78BEECF901</title>
    <desc>Created with sketchtool.</desc>
    <defs></defs>
    <g id="Teacher" stroke="none" stroke-width="1" fill="none" fill-rule="evenodd">
        <g id="T7.1--My-Profile-101" transform="translate(-1079.000000, -770.000000)" fill="#4A4A4A">
            <g id="Right-Col" transform="translate(1079.000000, 116.000000)">
                <path d="M6.00018182,661.408522 C5.10581818,661.408522 4.37836364,660.69287 4.37836364,659.813217 C4.37836364,658.933565 5.10581818,658.217913 6.00018182,658.217913 C6.89454545,658.217913 7.62236364,658.933565 7.62236364,659.813217 C7.62236364,660.69287 6.89454545,661.408522 6.00018182,661.408522 M6.00018182,657.000522 C4.40418182,657.000522 3.10563636,658.262261 3.10563636,659.813217 C3.10563636,661.364174 4.40418182,662.625913 6.00018182,662.625913 C7.59636364,662.625913 8.89509091,661.364174 8.89509091,659.813217 C8.89509091,658.262261 7.59636364,657.000522 6.00018182,657.000522 M5.99945455,668.284522 C5.508,667.762783 4.73145455,666.893217 3.958,665.844 C2.32018182,663.622261 1.45454545,661.630435 1.45454545,660.083826 C1.45454545,655.729739 4.93363636,655.391304 6,655.391304 C10.2176364,655.391304 10.5454545,658.982957 10.5454545,660.083826 C10.5454545,663.145913 7.28854545,666.913391 5.99945455,668.284522 M10.0816364,655.380522 C9.03727273,654.490435 7.58763636,654 6,654 C4.41236364,654 2.96272727,654.490435 1.91836364,655.380522 C0.663272727,656.450435 0,658.076696 0,660.083826 C0,664.455652 5.25981818,669.578435 5.48363636,669.794261 C5.62018182,669.926087 5.80618182,670 6,670 C6.19381818,670 6.37981818,669.926087 6.51636364,669.794261 C6.74018182,669.578435 12,664.455652 12,660.083826 C12,658.076696 11.3367273,656.450435 10.0816364,655.380522" id="location"></path>
            </g>
        </g>
    </g>
</svg>