<svg xmlns="http://www.w3.org/2000/svg" width="15" height="18" viewBox="0 0 15 18">
    <path fill="#A07DDD" fill-rule="nonzero" d="M13.14 7.27h-.359V5.627C12.781 2.59 10.318.055 7.24 0a12.741 12.741 0 0 0-.337 0c-3.078.054-5.541 2.59-5.541 5.627v1.641h-.359C.451 7.27 0 7.827 0 8.516v8.233C0 17.437.45 18 1.003 18H13.14c.552 0 1.003-.563 1.003-1.251V8.516c0-.69-.45-1.247-1.003-1.247zm-4.932 5.354v2.488a.537.537 0 0 1-.535.526H6.47a.537.537 0 0 1-.536-.526v-2.488a1.464 1.464 0 0 1-.447-1.065c0-.789.624-1.467 1.416-1.498.084-.003.253-.003.337 0 .792.031 1.416.71 1.416 1.498 0 .416-.165.793-.448 1.065zM7.24 7.269H3.725V5.628c0-1.809 1.503-3.304 3.346-3.304 1.844 0 3.347 1.495 3.347 3.304v1.641H7.24z"/>
</svg>
