<?xml version="1.0" encoding="UTF-8"?>
<svg width="13px" height="13px" viewBox="0 0 13 13" version="1.1" xmlns="http://www.w3.org/2000/svg" xmlns:xlink="http://www.w3.org/1999/xlink">
    <!-- Generator: sketchtool 50.2 (55047) - http://www.bohemiancoding.com/sketch -->
    <title>0E822D91-5849-4B15-8FA0-33B17B98A066</title>
    <desc>Created with sketchtool.</desc>
    <defs></defs>
    <g id="Page-1" stroke="none" stroke-width="1" fill="none" fill-rule="evenodd">
        <g id="T4.2---Teacher_homepage---Language,-Logout-and-help" transform="translate(-1302.000000, -207.000000)" fill="#7A8993">
            <g id="Group-14" transform="translate(1284.000000, 78.000000)">
                <g id="logout_dropdown-copy" transform="translate(16.000000, 127.000000)">
                    <g id="logout_ico">
                        <path d="M10.9375,4.89180816 L10.9375,2.64984453 C10.9375,2.29243004 10.657008,2 10.3139535,2 L2.62354651,2 C2.28059593,2 2,2.29243004 2,2.64984453 L2,3.07224348 L2,11.5418839 L2,11.8344222 C2,12.0725902 2.13510174,12.3000358 2.33255814,12.4083432 L7.07151163,14.9645067 C7.27936047,15.0728141 7.52877907,14.921292 7.52877907,14.6720767 L7.52877907,12.181006 L10.3139535,12.181006 C10.657008,12.181006 10.9375,11.8886842 10.9375,11.5311614 L10.9375,7.97867799 L9.69040698,7.97867799 L9.69040698,10.5563946 C9.69040698,10.7405173 9.55530523,10.8813169 9.37863372,10.8813169 L7.53917151,10.8813169 L7.53917151,7.54544831 L7.53917151,5.43345358 L7.53917151,5.36846913 C7.53917151,5.1301928 7.40406977,4.90274721 7.20661337,4.79443979 L4.41104651,3.29979737 L9.37863372,3.29979737 C9.55530523,3.29979737 9.69040698,3.44059702 9.69040698,3.62471964 L9.69040698,4.90274721 L10.9375,4.90274721 L10.9375,4.89180816 L10.9375,4.89180816 Z" id="Shape"></path>
                        <path d="M12.7406892,3.83883413 L14.8018148,5.98964045 C15.0660617,6.26538486 15.0660617,6.67348657 14.8018148,6.94923097 L12.7406892,9.1000373 C12.4764423,9.3757817 12.0746813,9.38692177 11.8104344,9.11117737 C11.5568631,8.84657305 11.5884671,8.40527171 11.8316799,8.14055708 L12.7617232,7.18096657 L9.15750144,7.18096657 C8.97791925,7.18096657 8.79812568,7.10375813 8.68185705,6.96037104 C8.38590054,6.62947776 8.45988967,6.04489963 8.84040518,5.82430411 C8.93553405,5.76915523 9.05180268,5.7360659 9.15750144,5.7360659 L12.7618289,5.7360659 C12.7618289,5.7360659 11.8423555,4.77647539 11.8317856,4.77647539 C11.5885728,4.52279054 11.5568631,4.07056972 11.8105401,3.81688487 C12.0642171,3.55217025 12.4764423,3.56308972 12.7406892,3.83883413 L12.7406892,3.83883413 Z" id="Shape"></path>
                    </g>
                </g>
            </g>
        </g>
    </g>
</svg>