<?xml version="1.0" encoding="UTF-8" standalone="no"?>
<svg width="16px" height="12px" viewBox="0 0 16 12" version="1.1" xmlns="http://www.w3.org/2000/svg" xmlns:xlink="http://www.w3.org/1999/xlink">
    <!-- Generator: sketchtool 3.8.3 (29802) - http://www.bohemiancoding.com/sketch -->
    <title>E1B60BFF-423C-4A16-9DEE-61D923E4B4CE</title>
    <desc>Created with sketchtool.</desc>
    <defs></defs>
    <g id="Teacher" stroke="none" stroke-width="1" fill="none" fill-rule="evenodd">
        <g id="T7.1--My-Profile-101" transform="translate(-1079.000000, -824.000000)" fill="#4A4A4A">
            <g id="Right-Col" transform="translate(1079.000000, 116.000000)">
                <path d="M1.39130435,718.222222 L1.39130435,710.656 L7.58521739,714.532889 C7.70834783,714.649778 7.85408696,714.708222 8,714.708222 C8.14573913,714.708222 8.29147826,714.649778 8.4146087,714.532889 L14.6086957,710.656 L14.6086957,718.222222 L1.39130435,718.222222 Z M13.2006957,709.777778 L8,712.712222 L2.79930435,709.777778 L13.2006957,709.777778 Z M15.9984348,708.869778 C15.997913,708.836667 15.994087,708.803778 15.9907826,708.770889 C15.988,708.745333 15.9866087,708.719556 15.9822609,708.694667 C15.9772174,708.666444 15.9692174,708.639111 15.961913,708.611333 C15.9547826,708.583333 15.9485217,708.555111 15.9391304,708.528222 C15.9311304,708.505333 15.9203478,708.483556 15.9106087,708.461111 C15.897913,708.432 15.8857391,708.402667 15.8706087,708.375556 C15.8676522,708.370222 15.865913,708.364222 15.8627826,708.358889 C15.8533913,708.342667 15.8417391,708.330222 15.8314783,708.314889 C15.8153043,708.290889 15.7994783,708.266667 15.7813913,708.244667 C15.7646957,708.224444 15.7469565,708.207333 15.7290435,708.189556 C15.7114783,708.172 15.6942609,708.154667 15.6753043,708.139333 C15.6558261,708.123556 15.6353043,708.110444 15.6147826,708.097333 C15.5951304,708.084667 15.5756522,708.072 15.5549565,708.061778 C15.5332174,708.051111 15.5109565,708.043333 15.4883478,708.035333 C15.4674783,708.028 15.4471304,708.020444 15.4255652,708.015556 C15.4,708.009778 15.3744348,708.007778 15.3485217,708.005778 C15.3335652,708.004444 15.3194783,708 15.3043478,708 L0.695652174,708 C0.680347826,708 0.665913043,708.004444 0.650782609,708.005778 C0.625217391,708.008 0.599826087,708.01 0.574608696,708.015556 C0.552869565,708.020444 0.532173913,708.028222 0.511304348,708.035556 C0.488869565,708.043556 0.466782609,708.051111 0.445217391,708.061778 C0.424347826,708.072 0.404869565,708.084667 0.385217391,708.097333 C0.364521739,708.110667 0.344173913,708.123556 0.324695652,708.139333 C0.30573913,708.154667 0.288521739,708.172 0.270956522,708.189556 C0.253043478,708.207333 0.235304348,708.224444 0.218608696,708.244667 C0.200521739,708.266667 0.184695652,708.290889 0.168521739,708.314889 C0.158434783,708.330222 0.146608696,708.342667 0.137217391,708.358889 C0.134086957,708.364222 0.132347826,708.370222 0.129391304,708.375556 C0.11426087,708.402667 0.102086957,708.431778 0.0893913043,708.461111 C0.0796521739,708.483556 0.0688695652,708.505333 0.0608695652,708.528444 C0.0516521739,708.555111 0.0453913043,708.583333 0.0380869565,708.611111 C0.0309565217,708.638889 0.0227826087,708.666444 0.0177391304,708.694667 C0.0133913043,708.719556 0.012,708.745333 0.00939130435,708.770889 C0.00591304348,708.803778 0.00208695652,708.836667 0.00156521739,708.869778 C0.00139130435,708.876222 0,708.882222 0,708.888889 L0,719.111111 C0,719.602 0.311478261,720 0.695652174,720 L15.3043478,720 C15.6885217,720 16,719.602 16,719.111111 L16,708.888889 C16,708.882222 15.9986087,708.876222 15.9984348,708.869778 L15.9984348,708.869778 Z" id="mail"></path>
            </g>
        </g>
    </g>
</svg>