<svg xmlns="http://www.w3.org/2000/svg" width="20" height="16" viewBox="0 0 20 16">
    <path fill="#B0BEC5" fill-rule="nonzero" d="M9.955 12.25l1.13 1.454c-.36.03-.722.046-1.085.046-4.16 0-7.811-1.998-9.77-4.988a1.372 1.372 0 0 1 0-1.524c.835-1.273 1.977-2.368 3.335-3.204l1.982 2.548c-.174.444-.27.92-.27 1.418 0 2.336 2.089 4.228 4.678 4.25zm9.814-3.488c-1.1 1.679-2.734 3.045-4.693 3.92v.001l1.44 1.85c.264.34.172.807-.205 1.045l-.455.286c-.377.238-.897.155-1.16-.184L3.483 1.467c-.264-.34-.172-.807.205-1.045l.455-.286c.377-.238.897-.155 1.16.184l1.773 2.27C8.01 2.367 8.99 2.25 10 2.25c4.16 0 7.811 1.998 9.77 4.988.307.47.307 1.054 0 1.524zM14.722 8c0-2.35-2.112-4.25-4.722-4.25-.623 0-1.217.109-1.761.305l.67.846a3.981 3.981 0 0 1 2.791.232c-.822 0-1.487.599-1.487 1.338 0 .738.664 1.338 1.486 1.338.821 0 1.487-.6 1.487-1.338V6.47c.641 1.078.567 2.435-.286 3.467l.67.846c.718-.745 1.152-1.718 1.152-2.783zm-5.624 3.148L6.406 7.687c-.174 1.637 1.018 3.073 2.692 3.46z"/>
</svg>
