<svg xmlns="http://www.w3.org/2000/svg" width="16" height="18" viewBox="0 0 16 18">
    <path fill="#7A8993" fill-rule="evenodd" d="M12.938 4.5c-.6 0-1.126-1.088-1.126-1.673V1.142L14.626 4.5h-1.688zm1.687 9c0 .573-.534 1.125-1.125 1.125H5.062c-.59 0-1.125-.552-1.125-1.125V2.25c0-.573.535-1.125 1.126-1.125h5.625c-.01 1.296 0 2.264 0 2.264 0 1.169 1.051 2.236 2.25 2.236h1.687V13.5zm-3.938 3.375H2.25c-.59 0-1.125-.552-1.125-1.125V4.5c0-.573.48-1.107 1.072-1.107l.615-.018V13.5c0 1.158 1.06 2.25 2.25 2.25h6.75c0 .573-.534 1.125-1.124 1.125zM11.813 0h-6.75c-1.19 0-2.25 1.092-2.25 2.25l-.65.015C.973 2.265 0 3.342 0 4.5v11.25C0 16.908 1.06 18 2.25 18h8.438c1.19 0 2.25-1.092 2.25-2.25h.562c1.19 0 2.25-1.092 2.25-2.25V4.513L11.812 0zm0 7.885H6.75a.562.562 0 1 0 0 1.124h5.063a.563.563 0 0 0 0-1.124zm0 2.81H6.75a.562.562 0 1 0 0 1.124h5.063a.563.563 0 0 0 0-1.124z"/>
</svg>
