<?xml version="1.0" encoding="UTF-8" standalone="no"?>
<svg width="47px" height="47px" viewBox="0 0 47 47" version="1.1" xmlns="http://www.w3.org/2000/svg" xmlns:xlink="http://www.w3.org/1999/xlink" xmlns:sketch="http://www.bohemiancoding.com/sketch/ns">
    <!-- Generator: sketchtool 3.5.1 (25234) - http://www.bohemiancoding.com/sketch -->
    <title>mydays_ico</title>
    <desc>Created with sketchtool.</desc>
    <defs>
        <filter x="-50%" y="-50%" width="200%" height="200%" filterUnits="objectBoundingBox" id="filter-1">
            <feOffset dx="0" dy="1" in="SourceAlpha" result="shadowOffsetInner1"></feOffset>
            <feGaussianBlur stdDeviation="0.5" in="shadowOffsetInner1" result="shadowBlurInner1"></feGaussianBlur>
            <feComposite in="shadowBlurInner1" in2="SourceAlpha" operator="arithmetic" k2="-1" k3="1" result="shadowInnerInner1"></feComposite>
            <feColorMatrix values="0 0 0 0 0.239215686   0 0 0 0 0.274509804   0 0 0 0 0.301960784  0 0 0 0.14 0" in="shadowInnerInner1" type="matrix" result="shadowMatrixInner1"></feColorMatrix>
            <feMerge>
                <feMergeNode in="SourceGraphic"></feMergeNode>
                <feMergeNode in="shadowMatrixInner1"></feMergeNode>
            </feMerge>
        </filter>
        <path d="M41.815,40.7272 C41.815,41.2632 41.381,41.6962 40.846,41.6962 L6.449,41.6962 C5.914,41.6962 5.48,41.2632 5.48,40.7272 L5.48,17.0452 C5.48,16.5102 5.914,16.0762 6.449,16.0762 L40.846,16.0762 C41.381,16.0762 41.815,16.5102 41.815,17.0452 L41.815,40.7272 Z M42.643,4.2732 L40.295,4.2732 L40.295,7.6522 C40.295,9.2552 38.99,10.5592 37.387,10.5592 C35.784,10.5592 34.48,9.2552 34.48,7.6522 L34.48,4.2732 L33.351,4.2732 L33.351,7.6522 C33.351,9.2552 32.047,10.5592 30.443,10.5592 C28.84,10.5592 27.536,9.2552 27.536,7.6522 L27.536,4.2732 L26.407,4.2732 L26.407,7.6522 C26.407,9.2552 25.103,10.5592 23.5,10.5592 C21.896,10.5592 20.592,9.2552 20.592,7.6522 L20.592,4.2732 L19.463,4.2732 L19.463,7.6522 C19.463,9.2552 18.159,10.5592 16.556,10.5592 C14.953,10.5592 13.648,9.2552 13.648,7.6522 L13.648,4.2732 L12.519,4.2732 L12.519,7.6522 C12.519,9.2552 11.215,10.5592 9.612,10.5592 C8.008,10.5592 6.704,9.2552 6.704,7.6522 L6.704,4.2732 L4.356,4.2732 C1.954,4.2732 0,6.2512 0,8.6812 L0,42.5892 C0,45.0222 1.954,46.9992 4.356,46.9992 L42.643,46.9992 C45.045,46.9992 47,45.0222 47,42.5892 L47,8.6812 C47,6.2512 45.045,4.2732 42.643,4.2732 Z M9.6119,8.621 C10.1469,8.621 10.5809,8.187 10.5809,7.652 L10.5809,0.969 C10.5809,0.433 10.1469,0 9.6119,0 C9.0769,0 8.6429,0.433 8.6429,0.969 L8.6429,7.652 C8.6429,8.187 9.0769,8.621 9.6119,8.621 Z M16.5558,8.621 C17.0908,8.621 17.5248,8.187 17.5248,7.652 L17.5248,0.969 C17.5248,0.433 17.0908,0 16.5558,0 C16.0208,0 15.5868,0.433 15.5868,0.969 L15.5868,7.652 C15.5868,8.187 16.0208,8.621 16.5558,8.621 Z M23.4997,8.621 C24.0347,8.621 24.4687,8.187 24.4687,7.652 L24.4687,0.969 C24.4687,0.433 24.0347,0 23.4997,0 C22.9647,0 22.5307,0.433 22.5307,0.969 L22.5307,7.652 C22.5307,8.187 22.9647,8.621 23.4997,8.621 Z M30.4436,8.621 C30.9786,8.621 31.4126,8.187 31.4126,7.652 L31.4126,0.969 C31.4126,0.433 30.9786,0 30.4436,0 C29.9086,0 29.4746,0.433 29.4746,0.969 L29.4746,7.652 C29.4746,8.187 29.9086,8.621 30.4436,8.621 Z M37.3875,8.621 C37.9225,8.621 38.3565,8.187 38.3565,7.652 L38.3565,0.969 C38.3565,0.433 37.9225,0 37.3875,0 C36.8525,0 36.4185,0.433 36.4185,0.969 L36.4185,7.652 C36.4185,8.187 36.8525,8.621 37.3875,8.621 Z M15.5645,22.3471 L12.5405,22.3471 C12.0055,22.3471 11.5715,22.7801 11.5715,23.3161 C11.5715,23.8521 12.0055,24.2851 12.5405,24.2851 L15.5645,24.2851 C16.0995,24.2851 16.5335,23.8521 16.5335,23.3161 C16.5335,22.7801 16.0995,22.3471 15.5645,22.3471 Z M25.1596,22.3471 L22.1346,22.3471 C21.5996,22.3471 21.1656,22.7801 21.1656,23.3161 C21.1656,23.8521 21.5996,24.2851 22.1346,24.2851 L25.1596,24.2851 C25.6946,24.2851 26.1286,23.8521 26.1286,23.3161 C26.1286,22.7801 25.6946,22.3471 25.1596,22.3471 Z M34.7538,22.3471 L31.7298,22.3471 C31.1948,22.3471 30.7608,22.7801 30.7608,23.3161 C30.7608,23.8521 31.1948,24.2851 31.7298,24.2851 L34.7538,24.2851 C35.2888,24.2851 35.7228,23.8521 35.7228,23.3161 C35.7228,22.7801 35.2888,22.3471 34.7538,22.3471 Z M15.5645,27.9172 L12.5405,27.9172 C12.0055,27.9172 11.5715,28.3512 11.5715,28.8862 C11.5715,29.4222 12.0055,29.8552 12.5405,29.8552 L15.5645,29.8552 C16.0995,29.8552 16.5335,29.4222 16.5335,28.8862 C16.5335,28.3512 16.0995,27.9172 15.5645,27.9172 Z M25.1596,27.9172 L22.1346,27.9172 C21.5996,27.9172 21.1656,28.3512 21.1656,28.8862 C21.1656,29.4222 21.5996,29.8552 22.1346,29.8552 L25.1596,29.8552 C25.6946,29.8552 26.1286,29.4222 26.1286,28.8862 C26.1286,28.3512 25.6946,27.9172 25.1596,27.9172 Z M34.7538,27.9172 L31.7298,27.9172 C31.1948,27.9172 30.7608,28.3512 30.7608,28.8862 C30.7608,29.4222 31.1948,29.8552 31.7298,29.8552 L34.7538,29.8552 C35.2888,29.8552 35.7228,29.4222 35.7228,28.8862 C35.7228,28.3512 35.2888,27.9172 34.7538,27.9172 Z M15.5645,33.4857 L12.5405,33.4857 C12.0055,33.4857 11.5715,33.9187 11.5715,34.4547 C11.5715,34.9907 12.0055,35.4237 12.5405,35.4237 L15.5645,35.4237 C16.0995,35.4237 16.5335,34.9907 16.5335,34.4547 C16.5335,33.9187 16.0995,33.4857 15.5645,33.4857 Z M25.1596,33.4857 L22.1346,33.4857 C21.5996,33.4857 21.1656,33.9187 21.1656,34.4547 C21.1656,34.9907 21.5996,35.4237 22.1346,35.4237 L25.1596,35.4237 C25.6946,35.4237 26.1286,34.9907 26.1286,34.4547 C26.1286,33.9187 25.6946,33.4857 25.1596,33.4857 Z M34.7538,33.4857 L31.7298,33.4857 C31.1948,33.4857 30.7608,33.9187 30.7608,34.4547 C30.7608,34.9907 31.1948,35.4237 31.7298,35.4237 L34.7538,35.4237 C35.2888,35.4237 35.7228,34.9907 35.7228,34.4547 C35.7228,33.9187 35.2888,33.4857 34.7538,33.4857 Z" id="path-2"></path>
    </defs>
    <g id="Student" stroke="none" stroke-width="1" fill="none" fill-rule="evenodd" sketch:type="MSPage">
        <g id="S4.21--CourseGroup_Homepage" sketch:type="MSArtboardGroup" transform="translate(-24.000000, -689.000000)" filter="url(#filter-1)">
            <g id="Menu" sketch:type="MSLayerGroup" transform="translate(-1.000000, 0.000000)">
                <g id="Menu_item03_mydays" transform="translate(1.000000, 662.000000)">
                    <g id="mydays_ico" transform="translate(24.000000, 27.000000)">
                        <g id="Mask">
                            <use fill="none" sketch:type="MSShapeGroup" xlink:href="#path-2"></use>
                            <use fill="#00C4CC" fill-rule="evenodd" xlink:href="#path-2"></use>
                        </g>
                    </g>
                </g>
            </g>
        </g>
    </g>
</svg>