<?xml version="1.0" encoding="UTF-8" standalone="no"?>
<svg width="264px" height="183px" viewBox="0 0 264 183" version="1.1" xmlns="http://www.w3.org/2000/svg" xmlns:xlink="http://www.w3.org/1999/xlink">
    <!-- Generator: sketchtool 3.7.2 (28276) - http://www.bohemiancoding.com/sketch -->
    <title>5392A157-E4AD-4555-871E-E7E871DC3574</title>
    <desc>Created with sketchtool.</desc>
    <defs>
        <circle id="path-1" cx="34.5" cy="66.5" r="3.5"></circle>
        <mask id="mask-2" maskContentUnits="userSpaceOnUse" maskUnits="objectBoundingBox" x="0" y="0" width="7" height="7" fill="white">
            <use xlink:href="#path-1"></use>
        </mask>
        <circle id="path-3" cx="229" cy="30" r="3"></circle>
        <mask id="mask-4" maskContentUnits="userSpaceOnUse" maskUnits="objectBoundingBox" x="0" y="0" width="6" height="6" fill="white">
            <use xlink:href="#path-3"></use>
        </mask>
        <linearGradient x1="50%" y1="0%" x2="50%" y2="100%" id="linearGradient-5">
            <stop stop-color="#C3D1D7" offset="0%"></stop>
            <stop stop-color="#90A4AE" offset="100%"></stop>
        </linearGradient>
    </defs>
    <g id="Teacher" stroke="none" stroke-width="1" fill="none" fill-rule="evenodd">
        <g id="T-4.17-Create-Course-group-Virtual-Classroom" transform="translate(-726.000000, -314.000000)">
            <g id="newvclass_ico" transform="translate(723.000000, 314.000000)">
                <g id="+" transform="translate(244.000000, 70.000000)" stroke="#979797" stroke-width="2" stroke-linecap="round" stroke-linejoin="round" stroke-dasharray="3,7">
                    <path d="M0,6.15789474 L13,6.15789474" id="Line"></path>
                    <path d="M6.15789474,0 L6.15789474,13" id="Line"></path>
                </g>
                <g id="+" transform="translate(78.000000, 30.000000)" stroke="#979797" stroke-width="2" stroke-linecap="round" stroke-linejoin="round" stroke-dasharray="3,7">
                    <path d="M0,6.15789474 L13,6.15789474" id="Line"></path>
                    <path d="M6.15789474,0 L6.15789474,13" id="Line"></path>
                </g>
                <g id="+" transform="translate(192.020815, 38.838835) rotate(-45.000000) translate(-192.020815, -38.838835) translate(186.520815, 32.838835)" stroke="#979797" stroke-width="1.6" stroke-linecap="round" stroke-linejoin="round" stroke-dasharray="3,5">
                    <path d="M-1.13686838e-13,5.8 L10.7426407,5.8" id="Line"></path>
                    <path d="M5.50710678,0.292893219 L5.50710678,11.0355339" id="Line"></path>
                </g>
                <g id="+" transform="translate(8.131728, 77.131728) rotate(-45.000000) translate(-8.131728, -77.131728) translate(2.631728, 71.131728)" stroke="#979797" stroke-width="1.6" stroke-linecap="round" stroke-linejoin="round" stroke-dasharray="3,5">
                    <path d="M-1.13686838e-13,5.8 L10.7426407,5.8" id="Line"></path>
                    <path d="M5.50710678,0.292893219 L5.50710678,11.0355339" id="Line"></path>
                </g>
                <g id="+" transform="translate(262.131728, 109.131728) rotate(-45.000000) translate(-262.131728, -109.131728) translate(256.631728, 103.131728)" stroke="#979797" stroke-width="1.6" stroke-linecap="round" stroke-linejoin="round" stroke-dasharray="3,5">
                    <path d="M2.84217094e-14,5.8 L10.7426407,5.8" id="Line"></path>
                    <path d="M5.50710678,0.292893219 L5.50710678,11.0355339" id="Line"></path>
                </g>
                <g id="+" transform="translate(52.631728, 14.131728) rotate(-45.000000) translate(-52.631728, -14.131728) translate(47.131728, 8.131728)" stroke="#979797" stroke-width="1.6" stroke-linecap="round" stroke-linejoin="round" stroke-dasharray="3,5">
                    <path d="M2.84217094e-14,5.8 L10.7426407,5.8" id="Line"></path>
                    <path d="M5.50710678,0.292893219 L5.50710678,11.0355339" id="Line"></path>
                </g>
                <use id="Oval-127" stroke="#FE127F" mask="url(#mask-2)" stroke-width="3.2" xlink:href="#path-1"></use>
                <use id="Oval-127" stroke="#007EE5" mask="url(#mask-4)" stroke-width="2" xlink:href="#path-3"></use>
                <circle id="Oval-127" fill="#7A8993" cx="22" cy="92" r="3"></circle>
                <circle id="Oval-127" fill="#FD8268" cx="211.5" cy="52.5" r="2.5"></circle>
                <circle id="Oval-127" fill="#4990E2" cx="19.5" cy="48.5" r="2.5"></circle>
                <path d="M235,95 C236.656854,95 238,93.6568542 238,92 C238,90.3431458 236.656854,89 235,89 C233.343146,89 232,90.3431458 232,92 C232,93.6568542 233.343146,95 235,95 Z" id="Oval-127" stroke="#00C4CC" stroke-width="2"></path>
                <circle id="Oval-127" stroke="#F6A623" stroke-width="2" cx="104" cy="24" r="3"></circle>
                <circle id="Oval-127" stroke="#979797" stroke-width="1.6" cx="154.5" cy="7.5" r="6.5"></circle>
                <g id="?" transform="translate(134.000000, 22.000000)" fill="#7ED321">
                    <path d="M8.16343049,7.64883963 C7.81741207,8.24688926 7.05216419,8.94660732 6.24144842,9.68818886 C5.80449419,10.087387 5.14405368,10.6914171 5.0153564,10.8984918 C4.38034709,12.0288056 4.45818197,12.7188053 4.45972325,12.7255334 C4.57763154,13.3146123 4.17843879,13.8670606 3.57040196,13.9821852 C3.50104414,13.9948937 3.43091569,14.0016218 3.36232852,14.0016218 C2.83366785,14.0016218 2.35895215,13.6263457 2.25414478,13.1052949 C2.20867688,12.8795312 2.03451171,11.6625002 3.050989,9.85265251 C3.30915419,9.39364942 3.84783321,8.88979261 4.70478753,8.1063476 C5.23267755,7.62342252 6.03106305,6.89380198 6.20908144,6.58655398 C7.12152201,5.00770296 6.95968711,3.64863519 5.77675107,2.95115981 C4.67087926,2.30078084 2.98933761,2.42039076 2.0907686,3.75030362 C1.75168596,4.25191775 1.05733718,4.39171185 0.539465507,4.06203699 C0.022364475,3.73236213 -0.121745649,3.0595563 0.217336995,2.55719462 C1.86034653,0.130608253 4.92596189,-0.0921652327 6.93965041,1.09421572 C8.80075173,2.19014166 9.9004584,4.64214513 8.16343049,7.64883963 L8.16343049,7.64883963 Z M4.47359482,17.3095838 C4.47359482,17.9098761 3.97267727,18.3957914 3.35385145,18.3957914 C2.73502562,18.3957914 2.23333744,17.9098761 2.23333744,17.3095838 L2.23333744,16.0349905 C2.23333744,15.4346982 2.73502562,14.9487829 3.35385145,14.9487829 C3.97267727,14.9487829 4.47359482,15.4346982 4.47359482,16.0349905 L4.47359482,17.3095838 Z" id="Fill-1"></path>
                </g>
                <g id="Page-1" transform="translate(15.000000, 103.000000)">
                    <path d="M13.0991087,5.19019075 C12.8792485,6.50122575 12.2273427,7.58833742 11.3113337,8.17297597 C11.1298475,8.28900076 10.9339146,8.39103034 10.7379816,8.4944143 C10.1330275,8.81269243 9.4468108,9.17340764 9.09512476,9.89935264 C8.55111747,11.0212266 9.16600372,12.2993051 10.0165512,13.0681387 C10.3673343,13.3855139 10.7510739,13.6432966 11.1212698,13.8929531 C11.5275823,14.1660854 11.9108704,14.4243195 12.2264398,14.7407918 C13.2665998,15.7827577 13.5288971,17.3782114 13.6629802,19.0964618 L2.42211911,19.0964618 C2.55620224,17.3786629 2.81804807,15.7832091 3.85820808,14.7407918 C4.17422891,14.4243195 4.5579685,14.1660854 4.964281,13.8929531 C5.33447683,13.6432966 5.7173135,13.3855139 6.06854808,13.0681387 C6.91864413,12.2988537 7.53307892,11.0212266 6.98997455,9.89935264 C6.63873996,9.17385909 5.95297475,8.81269243 5.34802058,8.4944143 C5.15208766,8.3914818 4.95570329,8.28900076 4.77421704,8.17342742 C3.85775662,7.58878888 3.20585078,6.50167721 2.98599057,5.19019075 C2.8112762,4.14777345 2.9087912,3.08774928 3.07447641,2.1220799 L13.0106229,2.1220799 C13.1763081,3.08820074 13.2738231,4.14867637 13.0991087,5.19019075 L13.0991087,5.19019075 Z M16.0850542,0.000225729168 L4.51458327e-05,0.000225729168 L4.51458327e-05,2.1220799 L1.90610224,2.1220799 C1.74809182,3.11754553 1.6605089,4.25702637 1.84876703,5.38115762 C2.12280224,7.01363096 2.96341766,8.3860643 4.15436474,9.14541722 C4.36925891,9.28266055 4.5936337,9.40094264 4.81123662,9.5151616 C5.30197183,9.77339576 5.766071,10.0176347 5.95207183,10.4018258 C6.221141,10.9571195 5.82521204,11.7331764 5.29519996,12.2126251 C5.00536371,12.4749224 4.67218745,12.6988458 4.32004995,12.9363129 C3.88619849,13.2284064 3.43699745,13.530432 3.04197141,13.9259095 C1.71287807,15.2577116 1.41310973,17.1190743 1.26457994,19.0964618 L4.51458327e-05,19.0964618 L4.51458327e-05,21.2187675 L16.0850542,21.2187675 L16.0850542,19.0964618 L14.8209708,19.0964618 C14.6715381,17.1186229 14.3713183,15.2568087 13.0426764,13.926361 C12.6481019,13.530432 12.1989008,13.2284064 11.7655008,12.9363129 C11.4129119,12.6988458 11.0801871,12.4749224 10.7898994,12.2126251 C10.2598873,11.7331764 9.86395831,10.9571195 10.1330275,10.4022772 C10.3194798,10.0176347 10.7831275,9.77339576 11.2747656,9.51471014 C11.4919171,9.40094264 11.7162919,9.28266055 11.9316375,9.14541722 C13.1225846,8.38516138 13.9627485,7.0131795 14.2358808,5.38070616 C14.4245904,4.25792929 14.336556,3.11754553 14.1789971,2.1220799 L16.0850542,2.1220799 L16.0850542,0.000225729168 Z" id="Fill-1" fill="#FFA726"></path>
                    <polygon id="Fill-4" fill="#B8E986" points="12.0036902 18.2762523 4.08149937 18.2762523 7.85117647 15.3304867"></polygon>
                    <polygon id="Fill-6" fill="#F6A623" points="12.0036902 5.22079962 4.08149937 5.22079962 7.85117647 8.16656526"></polygon>
                </g>
                <g id="Page-1" transform="translate(216.000000, 111.000000)">
                    <path d="M8.5,14.5524702 C6.60721277,14.5524702 5.07251064,13.0177681 5.07251064,11.1249809 C5.07251064,9.23219362 6.60721277,7.69749149 8.5,7.69749149 C10.3927872,7.69749149 11.9274894,9.23219362 11.9274894,11.1249809 C11.9274894,13.0177681 10.3927872,14.5524702 8.5,14.5524702 M15.4240638,0.000108510638 L12.2371064,0.000108510638 L12.2371064,4.80785319 C12.2371064,5.4560234 11.7115532,5.98121489 11.0637447,5.98121489 L4.4203617,5.98121489 C3.77255319,5.98121489 3.247,5.4560234 3.247,4.80785319 L3.247,0.000108510638 L1.57593617,0.000108510638 C0.705680851,0.000108510638 0,0.70542766 0,1.57568298 L0,15.4241723 C0,16.2944277 0.705680851,17.0001085 1.57593617,17.0001085 L15.4240638,17.0001085 C16.2943191,17.0001085 17,16.2944277 17,15.4241723 L17,1.57568298 C17,0.70542766 16.2943191,0.000108510638 15.4240638,0.000108510638" id="Fill-2" fill="#9575CD"></path>
                    <polygon id="Fill-1" fill="#FB4732" points="4.58565957 4.78712766 5.84944681 4.78712766 5.84944681 0.268021277 4.58565957 0.268021277"></polygon>
                </g>
                <g id="Virtual-Class_ico" transform="translate(61.000000, 69.000000)">
                    <path d="M16.1891179,85.3816039 C16.1891179,89.7839672 19.6771919,93.3500972 23.9793296,93.3500972 C28.2841628,93.3500972 31.7722369,89.7839672 31.7722369,85.3816039 C31.7722369,80.9819381 28.2841628,77.4131105 23.9793296,77.4131105 C19.6771919,77.4131105 16.1891179,80.9819381 16.1891179,85.3816039 Z M57.660539,85.3816039 C57.660539,89.7839672 61.148613,93.3500972 65.4480551,93.3500972 C69.7528883,93.3500972 73.2409624,89.7839672 73.2409624,85.3816039 C73.2409624,80.9819381 69.7528883,77.4131105 65.4480551,77.4131105 C61.148613,77.4131105 57.660539,80.9819381 57.660539,85.3816039 Z M99.1292645,85.3816039 C99.1292645,89.7839672 102.617339,93.3500972 106.919476,93.3500972 C111.224309,93.3500972 114.712383,89.7839672 114.712383,85.3816039 C114.712383,80.9819381 111.224309,77.4131105 106.919476,77.4131105 C102.617339,77.4131105 99.1292645,80.9819381 99.1292645,85.3816039 Z M42.4925386,113.128362 C42.4925386,102.764465 34.2036455,94.3643672 23.9793296,94.3643672 C13.7550137,94.3643672 5.46612064,102.764465 5.46612064,113.128362 L42.4925386,113.128362 Z M46.9375417,113.128362 L83.9612641,113.128362 C83.9612641,102.764465 75.6750666,94.3643672 65.4480551,94.3643672 C55.2264348,94.3643672 46.9375417,102.764465 46.9375417,113.128362 Z M88.4062672,113.128362 L125.432685,113.128362 C125.432685,102.764465 117.146488,94.3643672 106.919476,94.3643672 C96.6978559,94.3643672 88.4062672,102.764465 88.4062672,113.128362 Z M0.0830574041,57.5523321 C0.0830574041,63.0699488 4.55573385,67.5428609 10.0747793,67.5428609 L119.48163,67.5428609 C124.999906,67.5428609 129.473352,63.0705974 129.473352,57.5523321 L129.473352,10.5592011 C129.473352,5.04158442 125.000676,0.568672311 119.48163,0.568672311 L10.0747793,0.568672311 C4.55650365,0.568672311 0.0830574041,5.04093582 0.0830574041,10.5592011 L0.0830574041,57.5523321 Z M44.1125791,34.0557666 C44.1125791,22.5993715 53.3637925,13.3144852 64.7768569,13.3144852 C76.192617,13.3144852 85.4438303,22.5993715 85.4438303,34.0557666 C85.4438303,45.5121618 76.192617,54.8024432 64.7768569,54.8024432 C53.3637925,54.8024432 44.1125791,45.5121618 44.1125791,34.0557666 Z" id="Clip-2" fill="url(#linearGradient-5)"></path>
                    <polygon id="Fill-22" fill="#00B99B" points="60.6192021 47.671262 74.1833354 34.0568456 60.6192021 20.4397317"></polygon>
                </g>
            </g>
        </g>
    </g>
</svg>