<svg xmlns="http://www.w3.org/2000/svg" width="14" height="10" viewBox="0 0 14 10">
    <g fill="none" fill-rule="evenodd">
        <path stroke="#000" stroke-opacity=".008" stroke-width="0" d="M0-2h14v14H0z"/>
        <path fill="#A07DDD" d="M7 .625A6.899 6.899 0 0 0 .583 5 6.899 6.899 0 0 0 7 9.375 6.899 6.899 0 0 0 13.417 5 6.899 6.899 0 0 0 7 .625zm0 7.292a2.918 2.918 0 0 1 0-5.834 2.918 2.918 0 0 1 0 5.834zM7 3.25c-.968 0-1.75.782-1.75 1.75S6.032 6.75 7 6.75 8.75 5.968 8.75 5 7.968 3.25 7 3.25z"/>
    </g>
</svg>
