<?xml version="1.0" encoding="UTF-8" standalone="no"?>
<svg width="16px" height="16px" viewBox="0 0 16 16" version="1.1" xmlns="http://www.w3.org/2000/svg" xmlns:xlink="http://www.w3.org/1999/xlink">
    <!-- Generator: sketchtool 3.8.3 (29802) - http://www.bohemiancoding.com/sketch -->
    <title>970BEBA6-A02F-42C2-B60B-356E02B88AD6</title>
    <desc>Created with sketchtool.</desc>
    <defs></defs>
    <g id="Teacher" stroke="none" stroke-width="1" fill="none" fill-rule="evenodd">
        <g id="T7.1--My-Profile-101" transform="translate(-1079.000000, -722.000000)" fill="#4A4A4A">
            <g id="Right-Col" transform="translate(1079.000000, 116.000000)">
                <path d="M10.6528863,616.651839 C7.36151587,619.943742 3.67121297,620.838496 3.04188104,620.535385 L1.43050684,618.683478 C1.43104017,618.681701 1.43157351,618.679923 1.43228461,618.678145 L3.75174612,616.840816 L4.37556696,617.778592 C4.3878336,617.79708 4.40098912,617.815036 4.41485576,617.832103 C4.62587751,618.092902 4.93698793,618.246857 5.29076492,618.265346 C5.63565305,618.283835 6.68347294,618.33859 9.51155554,615.509974 C10.2109318,614.81042 12.3392826,612.681714 12.2662161,611.289184 C12.2475495,610.935051 12.093772,610.623941 11.8331504,610.412741 C11.815906,610.398697 11.7981282,610.385719 11.7796394,610.373452 L10.8416859,609.749276 L12.6788374,607.429992 C12.6807929,607.429281 12.6827485,607.42857 12.6848818,607.427859 L14.5357221,609.039589 C14.8388326,609.669276 13.9444346,613.359401 10.6528863,616.651839 M15.5531421,608.041902 C15.5415866,608.030347 15.5294977,608.019147 15.5172311,608.00848 L13.6066575,606.344661 C13.3439026,606.094706 12.9728812,605.971329 12.584082,606.00564 C12.2374161,606.035862 11.902128,606.189995 11.6640841,606.428217 C11.6448841,606.447595 11.6267508,606.467861 11.609862,606.489194 L9.73306616,608.858434 C9.24311169,609.38501 9.25431166,610.212386 9.7664883,610.725274 C9.79991045,610.758696 9.83653259,610.788563 9.87564362,610.814696 L10.8352859,611.45345 C10.7590194,611.786072 10.2582205,612.751403 8.50604666,614.50411 C6.753695,616.256817 5.78818604,616.757794 5.45556456,616.834238 L4.81716598,615.874596 C4.7910327,615.835307 4.7611661,615.798685 4.72774395,615.76544 C4.2148562,615.252731 3.38748027,615.241531 2.86108144,615.731841 L0.492020039,617.608459 C0.470331198,617.625703 0.449886799,617.644014 0.430331287,617.66357 C-0.110645288,618.205613 -0.145489654,619.087744 0.348020359,619.606143 L2.01112777,621.517072 C2.02179441,621.529517 2.03299439,621.541605 2.04454992,621.553161 C2.37308252,621.881694 2.86588143,621.999916 3.40561356,621.999916 C4.38036695,621.999916 5.50765333,621.613783 6.09360758,621.383384 C7.22622729,620.937696 9.45520011,619.861076 11.6583952,617.657525 C13.2912805,616.024284 14.6142997,614.047578 15.3835425,612.091671 C15.7415861,611.181273 16.4750956,608.964033 15.5531421,608.041902" id="phone"></path>
            </g>
        </g>
    </g>
</svg>