<?xml version="1.0" encoding="UTF-8" standalone="no"?>
<svg width="12px" height="12px" viewBox="0 0 12 12" version="1.1" xmlns="http://www.w3.org/2000/svg" xmlns:xlink="http://www.w3.org/1999/xlink">
    <!-- Generator: sketchtool 40.1 (33804) - http://www.bohemiancoding.com/sketch -->
    <title>013EC136-98F2-41B5-BF9D-9D3771148804</title>
    <desc>Created with sketchtool.</desc>
    <defs></defs>
    <g id="Admin" stroke="none" stroke-width="1" fill="none" fill-rule="evenodd">
        <g id="Timetable_edit-002" transform="translate(-869.000000, -262.000000)" fill="#9575CD">
            <g id="Popup" transform="translate(186.000000, 242.000000)">
                <g id="Primary--Regular" transform="translate(661.000000, 8.000000)">
                    <path d="M28.8571429,17.1428571 L28.8571429,12.8571429 C28.8571429,12.3857143 28.4731429,12 28,12 C27.5268571,12 27.1428571,12.3857143 27.1428571,12.8571429 L27.1428571,17.1428571 L22.8571429,17.1428571 C22.384,17.1428571 22,17.5285714 22,18 C22,18.4714286 22.384,18.8571429 22.8571429,18.8571429 L27.1428571,18.8571429 L27.1428571,23.1428571 C27.1428571,23.6142857 27.5268571,24 28,24 C28.4731429,24 28.8571429,23.6142857 28.8571429,23.1428571 L28.8571429,18.8571429 L33.1428571,18.8571429 C33.616,18.8571429 34,18.4714286 34,18 C34,17.5285714 33.616,17.1428571 33.1428571,17.1428571 L28.8571429,17.1428571 Z" id="Addnew_ico"></path>
                </g>
            </g>
        </g>
    </g>
</svg>