<?xml version="1.0" encoding="UTF-8"?>
<svg width="12px" height="12px" viewBox="0 0 12 12" version="1.1" xmlns="http://www.w3.org/2000/svg" xmlns:xlink="http://www.w3.org/1999/xlink">
    <!-- Generator: sketchtool 52.6 (67491) - http://www.bohemiancoding.com/sketch -->
    <title>37F45797-A0C4-426B-9672-CE3622E07930</title>
    <desc>Created with sketchtool.</desc>
    <g id="Timetable" stroke="none" stroke-width="1" fill="none" fill-rule="evenodd">
        <g id="Timetable_edit-mode" transform="translate(-354.000000, -678.000000)" fill="#FFFFFF">
            <g id="System-log" transform="translate(24.000000, 260.000000)">
                <g id="+-add-new" transform="translate(279.000000, 399.000000)">
                    <path d="M57.8571429,24.1428571 L57.8571429,19.8571429 C57.8571429,19.3857143 57.4731429,19 57,19 C56.5268571,19 56.1428571,19.3857143 56.1428571,19.8571429 L56.1428571,24.1428571 L51.8571429,24.1428571 C51.384,24.1428571 51,24.5285714 51,25 C51,25.4714286 51.384,25.8571429 51.8571429,25.8571429 L56.1428571,25.8571429 L56.1428571,30.1428571 C56.1428571,30.6142857 56.5268571,31 57,31 C57.4731429,31 57.8571429,30.6142857 57.8571429,30.1428571 L57.8571429,25.8571429 L62.1428571,25.8571429 C62.616,25.8571429 63,25.4714286 63,25 C63,24.5285714 62.616,24.1428571 62.1428571,24.1428571 L57.8571429,24.1428571 Z" id="Addnew_ico"></path>
                </g>
            </g>
        </g>
    </g>
</svg>