<?xml version="1.0" encoding="UTF-8"?>
<svg width="14px" height="14px" viewBox="0 0 14 14" version="1.1" xmlns="http://www.w3.org/2000/svg" xmlns:xlink="http://www.w3.org/1999/xlink">
    <!-- Generator: sketchtool 52.6 (67491) - http://www.bohemiancoding.com/sketch -->
    <title>5D005360-0332-4AF8-AD90-3A0D00D21911</title>
    <desc>Created with sketchtool.</desc>
    <g id="Assignments" stroke="none" stroke-width="1" fill="none" fill-rule="evenodd">
        <g id="T6.1.3a--Create_assignment---View-assignments" transform="translate(-617.000000, -415.000000)" fill="#007EE5">
            <g id="Content" transform="translate(296.000000, 260.000000)">
                <g id="unit1" transform="translate(46.000000, 129.000000)">
                    <g id="Header" transform="translate(1.000000, 16.000000)">
                        <g id="new" transform="translate(258.000000, 0.000000)">
                            <path d="M24,16 L24,11 C24,10.45 23.552,10 23,10 C22.448,10 22,10.45 22,11 L22,16 L17,16 C16.448,16 16,16.45 16,17 C16,17.55 16.448,18 17,18 L22,18 L22,23 C22,23.55 22.448,24 23,24 C23.552,24 24,23.55 24,23 L24,18 L29,18 C29.552,18 30,17.55 30,17 C30,16.45 29.552,16 29,16 L24,16 Z" id="Addnew_ico"></path>
                        </g>
                    </g>
                </g>
            </g>
        </g>
    </g>
</svg>