<?xml version="1.0" encoding="UTF-8"?>
<svg width="16px" height="16px" viewBox="0 0 16 16" version="1.1" xmlns="http://www.w3.org/2000/svg" xmlns:xlink="http://www.w3.org/1999/xlink">
    <!-- Generator: sketchtool 52.6 (67491) - http://www.bohemiancoding.com/sketch -->
    <title>B5A80111-3AF8-4766-B7CF-5C4853587AAE</title>
    <desc>Created with sketchtool.</desc>
    <g id="Attendance" stroke="none" stroke-width="1" fill="none" fill-rule="evenodd">
        <g id="T-6.12-CourseGroup_Full-day-attendance" transform="translate(-786.000000, -435.000000)" fill="#66BB6A">
            <g id="Group" transform="translate(296.000000, 435.000000)">
                <g id="cell1">
                    <path d="M501.0135,4.535 C500.774,4.395 500.4685,4.48 500.3305,4.715 L497.133,10.255 L495.344,8.605 C495.155,8.405 494.8385,8.395 494.637,8.585 C494.4355,8.77 494.425,9.09 494.614,9.29 L496.9,11.4 C497.0885,11.6 497.405,11.61 497.6065,11.42 C497.6675,11.365 501.1965,5.215 501.1965,5.215 C501.3345,4.98 501.2525,4.67 501.0135,4.535 L501.0135,4.535 Z M498,0 C493.582,0 490,3.58 490,8 C490,12.42 493.582,16 498,16 C502.418,16 506,12.42 506,8 C506,3.58 502.418,0 498,0 L498,0 Z" id="complete-copy"></path>
                </g>
            </g>
        </g>
    </g>
</svg>