<?xml version="1.0" encoding="UTF-8"?>
<svg width="280px" height="192px" viewBox="0 0 280 192" version="1.1" xmlns="http://www.w3.org/2000/svg" xmlns:xlink="http://www.w3.org/1999/xlink">
    <!-- Generator: sketchtool 42 (36781) - http://www.bohemiancoding.com/sketch -->
    <title>3AD253F6-BC3A-4500-A8FC-2C026058A3B6</title>
    <desc>Created with sketchtool.</desc>
    <defs>
        <circle id="path-1" cx="17.5" cy="65.5" r="3.5"></circle>
        <mask id="mask-2" maskContentUnits="userSpaceOnUse" maskUnits="objectBoundingBox" x="0" y="0" width="7" height="7" fill="white">
            <use xlink:href="#path-1"></use>
        </mask>
        <circle id="path-3" cx="212" cy="29" r="3"></circle>
        <mask id="mask-4" maskContentUnits="userSpaceOnUse" maskUnits="objectBoundingBox" x="0" y="0" width="6" height="6" fill="white">
            <use xlink:href="#path-3"></use>
        </mask>
        <path d="M5.55499949,21.9999987 C6.24799977,23.1899991 7.52299931,23.9999986 8.99999946,23.9999986 C10.4769996,23.9999986 11.7519991,23.1899991 12.4449989,21.9999987 L5.55499949,21.9999987 Z" id="path-5"></path>
        <mask id="mask-6" maskContentUnits="userSpaceOnUse" maskUnits="objectBoundingBox" x="0" y="0" width="6.88999937" height="1.99999988" fill="white">
            <use xlink:href="#path-5"></use>
        </mask>
        <circle id="path-7" cx="64" cy="64" r="64"></circle>
        <filter x="-50%" y="-50%" width="200%" height="200%" filterUnits="objectBoundingBox" id="filter-8">
            <feGaussianBlur stdDeviation="1" in="SourceAlpha" result="shadowBlurInner1"></feGaussianBlur>
            <feOffset dx="0" dy="1" in="shadowBlurInner1" result="shadowOffsetInner1"></feOffset>
            <feComposite in="shadowOffsetInner1" in2="SourceAlpha" operator="arithmetic" k2="-1" k3="1" result="shadowInnerInner1"></feComposite>
            <feColorMatrix values="0 0 0 0 0.767082907   0 0 0 0 0.798487943   0 0 0 0 0.855017007  0 0 0 1 0" type="matrix" in="shadowInnerInner1"></feColorMatrix>
        </filter>
        <linearGradient x1="50%" y1="0%" x2="50%" y2="100%" id="linearGradient-9">
            <stop stop-color="#FFEA94" offset="0%"></stop>
            <stop stop-color="#FFD05B" offset="100%"></stop>
        </linearGradient>
        <linearGradient x1="70.8647496%" y1="14.0415412%" x2="29.2466678%" y2="100.598005%" id="linearGradient-10">
            <stop stop-color="#2D2D2D" offset="0%"></stop>
            <stop stop-color="#666666" offset="100%"></stop>
        </linearGradient>
        <linearGradient x1="2.7357221%" y1="6.23888358%" x2="50%" y2="98.5511001%" id="linearGradient-11">
            <stop stop-color="#2D2D2D" offset="0%"></stop>
            <stop stop-color="#666666" offset="100%"></stop>
        </linearGradient>
        <linearGradient x1="50%" y1="0%" x2="50%" y2="100%" id="linearGradient-12">
            <stop stop-color="#FFFFFF" stop-opacity="0.5" offset="0%"></stop>
            <stop stop-color="#000000" stop-opacity="0.5" offset="100%"></stop>
        </linearGradient>
        <path d="M101.44252,60.4724409 C101.44252,61.2787402 101.492913,62.0598425 101.618898,62.815748 C100.283465,62.5889764 98.8976378,62.4629921 97.4866142,62.4629921 C93.0267717,62.4629921 88.8440945,63.6220472 85.215748,65.6629921 C84.5858268,65.3858268 83.9559055,65.1086614 83.3007874,64.8062992 C65.9401575,56.6677165 50.0913386,39.6850394 53.1149606,32.5795276 C56.1385827,25.4740157 77.2535433,29.984252 95.1685039,36.8377953 C102.349606,39.584252 108.144882,42.4314961 112.428346,45.3543307 C106.053543,47.4204724 101.44252,53.392126 101.44252,60.4724409 Z" id="path-13"></path>
        <linearGradient x1="52.9116292%" y1="-12.2401041%" x2="18.4813073%" y2="87.8519067%" id="linearGradient-14">
            <stop stop-color="#494949" offset="0%"></stop>
            <stop stop-color="#3F3F3F" offset="95.2552798%"></stop>
            <stop stop-color="#4D4D4D" offset="100%"></stop>
        </linearGradient>
        <linearGradient x1="16.0983678%" y1="19.2630584%" x2="87.1923312%" y2="88.2173982%" id="linearGradient-15">
            <stop stop-color="#2D2D2D" offset="0%"></stop>
            <stop stop-color="#4D4D4D" offset="100%"></stop>
        </linearGradient>
        <path d="M80.2015748,45.9086614 C77.0771654,48.1007874 74.784252,50.7212598 73.5748031,53.4929134 C62.4377953,45.984252 54.7023622,38.2992126 56.1637795,36.0566929 C57.7007874,33.7637795 68.4346457,38.1732283 80.2015748,45.9086614 Z" id="path-16"></path>
        <filter x="-50%" y="-50%" width="200%" height="200%" filterUnits="objectBoundingBox" id="filter-17">
            <feGaussianBlur stdDeviation="1" in="SourceAlpha" result="shadowBlurInner1"></feGaussianBlur>
            <feOffset dx="0" dy="1" in="shadowBlurInner1" result="shadowOffsetInner1"></feOffset>
            <feComposite in="shadowOffsetInner1" in2="SourceAlpha" operator="arithmetic" k2="-1" k3="1" result="shadowInnerInner1"></feComposite>
            <feColorMatrix values="0 0 0 0 0   0 0 0 0 0   0 0 0 0 0  0 0 0 0.5 0" type="matrix" in="shadowInnerInner1"></feColorMatrix>
        </filter>
        <linearGradient x1="80.1751691%" y1="77.0645717%" x2="2.08714383%" y2="5.5053739%" id="linearGradient-18">
            <stop stop-color="#FF1C1C" offset="0%"></stop>
            <stop stop-color="#5B0404" offset="59.151054%"></stop>
            <stop stop-color="#000000" offset="100%"></stop>
        </linearGradient>
        <path d="M79.496063,46.4125984 C77.0267717,48.2771654 75.111811,50.4440945 73.9527559,52.711811 C66.2677165,47.1181102 61.3291339,41.8519685 62.4377953,40.1637795 C63.5716535,38.4503937 70.8787402,41.1716535 79.496063,46.4125984 Z" id="path-19"></path>
        <filter x="-50%" y="-50%" width="200%" height="200%" filterUnits="objectBoundingBox" id="filter-20">
            <feGaussianBlur stdDeviation="1.5" in="SourceAlpha" result="shadowBlurInner1"></feGaussianBlur>
            <feOffset dx="0" dy="1" in="shadowBlurInner1" result="shadowOffsetInner1"></feOffset>
            <feComposite in="shadowOffsetInner1" in2="SourceAlpha" operator="arithmetic" k2="-1" k3="1" result="shadowInnerInner1"></feComposite>
            <feColorMatrix values="0 0 0 0 0   0 0 0 0 0   0 0 0 0 0  0 0 0 0.5 0" type="matrix" in="shadowInnerInner1"></feColorMatrix>
        </filter>
        <linearGradient x1="8.13323449%" y1="17.8919824%" x2="94.4807766%" y2="58.3846442%" id="linearGradient-21">
            <stop stop-color="#FFF2DA" offset="0%"></stop>
            <stop stop-color="#FFDC75" offset="100%"></stop>
        </linearGradient>
        <path d="M18.4440945,2.14173228 C18.4944882,2.24251969 18.4692913,2.36850394 18.4440945,2.49448819 C18.2173228,3.32598425 17.7637795,4.10708661 17.1590551,4.71181102 C16.8062992,5.06456693 16.3275591,5.36692913 15.8488189,5.29133858 C15.5968504,5.24094488 15.3700787,5.08976378 15.1181102,4.96377953 C14.3370079,4.53543307 13.3543307,4.30866142 12.9511811,3.5023622 C12.6740157,2.9984252 12.7496063,2.36850394 13.0267717,1.83937008 C13.303937,1.33543307 13.7322835,0.932283465 14.2110236,0.62992126 C14.6645669,0.327559055 15.2188976,0.100787402 15.7732283,0.176377953 C16.7559055,0.327559055 17.2850394,1.43622047 18.1669291,1.91496063 C18.2677165,1.96535433 18.3937008,2.04094488 18.4440945,2.14173228 Z" id="path-22"></path>
        <filter x="-50%" y="-50%" width="200%" height="200%" filterUnits="objectBoundingBox" id="filter-23">
            <feOffset dx="-1" dy="-1" in="SourceAlpha" result="shadowOffsetOuter1"></feOffset>
            <feGaussianBlur stdDeviation="0.5" in="shadowOffsetOuter1" result="shadowBlurOuter1"></feGaussianBlur>
            <feColorMatrix values="0 0 0 0 0.976470588   0 0 0 0 0.709803922   0 0 0 0 0.298039216  0 0 0 0.2 0" type="matrix" in="shadowBlurOuter1"></feColorMatrix>
        </filter>
        <path d="M4.68661417,8.46614173 C4.35905512,8.46614173 4.03149606,8.46614173 3.70393701,8.36535433 C3.42677165,8.26456693 3.2,8.11338583 2.97322835,7.93700787 C2.59527559,7.63464567 2.24251969,7.28188976 2.11653543,6.82834646 C1.99055118,6.2992126 2.21732283,5.74488189 2.44409449,5.24094488 C2.69606299,4.68661417 2.9480315,4.10708661 3.47716535,3.80472441 C3.85511811,3.57795276 4.33385827,3.55275591 4.76220472,3.62834646 C5.19055118,3.70393701 5.59370079,3.88031496 5.99685039,4.05669291 C6.22362205,4.15748031 6.47559055,4.25826772 6.62677165,4.45984252 C6.80314961,4.71181102 6.82834646,5.01417323 6.82834646,5.31653543 C6.85354331,6.1984252 6.85354331,7.08031496 6.87874016,7.96220472 C6.87874016,8.03779528 6.87874016,8.11338583 6.85354331,8.18897638 C6.77795276,8.39055118 6.5007874,8.44094488 6.27401575,8.44094488 C5.71968504,8.44094488 5.19055118,8.46614173 4.68661417,8.46614173 Z" id="path-24"></path>
        <filter x="-50%" y="-50%" width="200%" height="200%" filterUnits="objectBoundingBox" id="filter-25">
            <feOffset dx="-1" dy="-1" in="SourceAlpha" result="shadowOffsetOuter1"></feOffset>
            <feGaussianBlur stdDeviation="0.5" in="shadowOffsetOuter1" result="shadowBlurOuter1"></feGaussianBlur>
            <feColorMatrix values="0 0 0 0 0.976470588   0 0 0 0 0.709803922   0 0 0 0 0.298039216  0 0 0 0.2 0" type="matrix" in="shadowBlurOuter1"></feColorMatrix>
        </filter>
        <path d="M2.46929134,16.3779528 C2.16692913,16.3527559 1.96535433,16.0755906 1.71338583,15.8740157 C1.43622047,15.6472441 1.10866142,15.496063 0.806299213,15.2944882 C0.503937008,15.0929134 0.226771654,14.8409449 0.151181102,14.488189 C0.0503937008,14.0850394 0.251968504,13.6566929 0.453543307,13.303937 C0.65511811,12.9007874 0.881889764,12.5228346 1.08346457,12.119685 C1.13385827,12.0188976 1.18425197,11.9433071 1.25984252,11.8677165 C1.36062992,11.792126 1.51181102,11.7669291 1.63779528,11.7669291 C1.99055118,11.7417323 2.36850394,11.7165354 2.64566929,11.9433071 C2.79685039,12.0692913 2.8976378,12.2708661 3.0488189,12.4220472 C3.17480315,12.5480315 3.32598425,12.6488189 3.4519685,12.7748031 C3.93070866,13.2031496 4.15748031,13.8834646 4.05669291,14.5385827 C3.95590551,15.1685039 3.57795276,15.7732283 3.07401575,16.1511811 C2.8976378,16.3023622 2.67086614,16.4031496 2.46929134,16.3779528 Z" id="path-26"></path>
        <filter x="-50%" y="-50%" width="200%" height="200%" filterUnits="objectBoundingBox" id="filter-27">
            <feOffset dx="-1" dy="-1" in="SourceAlpha" result="shadowOffsetOuter1"></feOffset>
            <feGaussianBlur stdDeviation="0.5" in="shadowOffsetOuter1" result="shadowBlurOuter1"></feGaussianBlur>
            <feColorMatrix values="0 0 0 0 0.976470588   0 0 0 0 0.709803922   0 0 0 0 0.298039216  0 0 0 0.2 0" type="matrix" in="shadowBlurOuter1"></feColorMatrix>
        </filter>
        <linearGradient x1="5.97914808%" y1="13.0928759%" x2="47.7686234%" y2="92.1058927%" id="linearGradient-28">
            <stop stop-color="#FFE385" offset="0%"></stop>
            <stop stop-color="#FFD05B" offset="100%"></stop>
        </linearGradient>
        <linearGradient x1="81.8202159%" y1="78.3433269%" x2="15.0647391%" y2="20.9587179%" id="linearGradient-29">
            <stop stop-color="#FFF2DA" offset="0%"></stop>
            <stop stop-color="#FFDC75" offset="100%"></stop>
        </linearGradient>
        <path d="M59.9433071,54.1480315 C59.9433071,54.1480315 54.5007874,56.3905512 55.6094488,59.6409449 C55.6094488,59.6409449 57.7007874,63.319685 61.6818898,62.6645669 C61.6818898,62.6645669 66.8724409,59.7669291 66.2425197,58.2047244 C66.2425197,58.1795276 60.5228346,54.4 59.9433071,54.1480315 Z" id="path-30"></path>
        <filter x="-50%" y="-50%" width="200%" height="200%" filterUnits="objectBoundingBox" id="filter-31">
            <feOffset dx="0" dy="1" in="SourceAlpha" result="shadowOffsetOuter1"></feOffset>
            <feGaussianBlur stdDeviation="1" in="shadowOffsetOuter1" result="shadowBlurOuter1"></feGaussianBlur>
            <feColorMatrix values="0 0 0 0 0.976470588   0 0 0 0 0.709803922   0 0 0 0 0.298039216  0 0 0 0.2 0" type="matrix" in="shadowBlurOuter1"></feColorMatrix>
        </filter>
        <linearGradient x1="50%" y1="0%" x2="59.1667586%" y2="89.938358%" id="linearGradient-32">
            <stop stop-color="#2D2D2D" offset="0%"></stop>
            <stop stop-color="#666666" offset="100%"></stop>
        </linearGradient>
        <circle id="path-33" cx="64" cy="64" r="64"></circle>
        <filter x="-50%" y="-50%" width="200%" height="200%" filterUnits="objectBoundingBox" id="filter-34">
            <feGaussianBlur stdDeviation="1" in="SourceAlpha" result="shadowBlurInner1"></feGaussianBlur>
            <feOffset dx="0" dy="1" in="shadowBlurInner1" result="shadowOffsetInner1"></feOffset>
            <feComposite in="shadowOffsetInner1" in2="SourceAlpha" operator="arithmetic" k2="-1" k3="1" result="shadowInnerInner1"></feComposite>
            <feColorMatrix values="0 0 0 0 0.767082907   0 0 0 0 0.798487943   0 0 0 0 0.855017007  0 0 0 1 0" type="matrix" in="shadowInnerInner1"></feColorMatrix>
        </filter>
        <linearGradient x1="28.7758898%" y1="100%" x2="69.766046%" y2="11.8923456%" id="linearGradient-35">
            <stop stop-color="#608197" offset="0%"></stop>
            <stop stop-color="#324A5E" offset="100%"></stop>
        </linearGradient>
        <linearGradient x1="2.52717242%" y1="8.36031046%" x2="79.1755654%" y2="62.7142715%" id="linearGradient-36">
            <stop stop-color="#DAE3E8" offset="0%"></stop>
            <stop stop-color="#90A4AE" offset="100%"></stop>
        </linearGradient>
        <linearGradient x1="50%" y1="0%" x2="50%" y2="100%" id="linearGradient-37">
            <stop stop-color="#608197" offset="0%"></stop>
            <stop stop-color="#324A5E" offset="100%"></stop>
        </linearGradient>
        <linearGradient x1="3.97269519%" y1="7.93496473%" x2="84.693972%" y2="82.4114774%" id="linearGradient-38">
            <stop stop-color="#547288" offset="0%"></stop>
            <stop stop-color="#F6A623" offset="100%"></stop>
        </linearGradient>
        <linearGradient x1="8.13323449%" y1="17.8919824%" x2="94.4807766%" y2="58.3846442%" id="linearGradient-39">
            <stop stop-color="#FDFAF3" offset="0%"></stop>
            <stop stop-color="#FFDC75" offset="100%"></stop>
        </linearGradient>
        <path d="M18.4440945,2.14173228 C18.4944882,2.24251969 18.4692913,2.36850394 18.4440945,2.49448819 C18.2173228,3.32598425 17.7637795,5.10708661 17.1590551,5.71181102 C16.8062992,6.06456693 16.3275591,6.36692913 15.8488189,6.29133858 C15.5968504,6.24094488 15.3700787,6.08976378 15.1181102,5.96377953 C14.3370079,5.53543307 13.3543307,5.30866142 12.9511811,4.5023622 C12.6740157,3.9984252 12.7496063,3.36850394 13.0267717,2.83937008 C13.303937,2.33543307 13.7322835,0.932283465 14.2110236,0.62992126 C14.6645669,0.327559055 15.2188976,0.100787402 15.7732283,0.176377953 C16.7559055,0.327559055 17.2850394,1.43622047 18.1669291,1.91496063 C18.2677165,1.96535433 18.3937008,2.04094488 18.4440945,2.14173228 Z" id="path-40"></path>
        <filter x="-50%" y="-50%" width="200%" height="200%" filterUnits="objectBoundingBox" id="filter-41">
            <feOffset dx="-1" dy="-1" in="SourceAlpha" result="shadowOffsetOuter1"></feOffset>
            <feGaussianBlur stdDeviation="0.5" in="shadowOffsetOuter1" result="shadowBlurOuter1"></feGaussianBlur>
            <feColorMatrix values="0 0 0 0 0.976470588   0 0 0 0 0.709803922   0 0 0 0 0.298039216  0 0 0 0.2 0" type="matrix" in="shadowBlurOuter1"></feColorMatrix>
        </filter>
        <path d="M4.68661417,9.46614173 C4.35905512,9.46614173 4.03149606,9.46614173 3.70393701,9.36535433 C3.42677165,9.26456693 3.2,9.11338583 2.97322835,8.93700787 C2.59527559,8.63464567 2.24251969,8.28188976 2.11653543,7.82834646 C1.99055118,7.2992126 2.21732283,6.74488189 2.44409449,6.24094488 C2.69606299,5.68661417 2.9480315,5.10708661 3.47716535,4.80472441 C3.85511811,4.57795276 4.33385827,4.55275591 4.76220472,4.62834646 C5.19055118,4.70393701 5.59370079,4.88031496 5.99685039,5.05669291 C6.22362205,5.15748031 6.47559055,5.25826772 6.62677165,5.45984252 C6.80314961,5.71181102 6.82834646,6.01417323 6.82834646,6.31653543 C6.85354331,7.1984252 6.85354331,8.08031496 6.87874016,8.96220472 C6.87874016,9.03779528 6.87874016,9.11338583 6.85354331,9.18897638 C6.77795276,9.39055118 6.5007874,9.44094488 6.27401575,9.44094488 C5.71968504,9.44094488 5.19055118,9.46614173 4.68661417,9.46614173 Z" id="path-42"></path>
        <filter x="-50%" y="-50%" width="200%" height="200%" filterUnits="objectBoundingBox" id="filter-43">
            <feOffset dx="-1" dy="-1" in="SourceAlpha" result="shadowOffsetOuter1"></feOffset>
            <feGaussianBlur stdDeviation="0.5" in="shadowOffsetOuter1" result="shadowBlurOuter1"></feGaussianBlur>
            <feColorMatrix values="0 0 0 0 0.976470588   0 0 0 0 0.709803922   0 0 0 0 0.298039216  0 0 0 0.2 0" type="matrix" in="shadowBlurOuter1"></feColorMatrix>
        </filter>
        <path d="M2.46929134,17.3779528 C2.16692913,17.3527559 1.96535433,17.0755906 1.71338583,16.8740157 C1.43622047,16.6472441 1.10866142,16.496063 0.806299213,16.2944882 C0.503937008,16.0929134 0.226771654,15.8409449 0.151181102,15.488189 C0.0503937008,15.0850394 0.251968504,14.6566929 0.453543307,14.303937 C0.65511811,13.9007874 0.881889764,13.5228346 1.08346457,13.119685 C1.13385827,13.0188976 1.18425197,12.9433071 1.25984252,12.8677165 C1.36062992,12.792126 1.51181102,12.7669291 1.63779528,12.7669291 C1.99055118,12.7417323 2.36850394,12.7165354 2.64566929,12.9433071 C2.79685039,13.0692913 2.8976378,13.2708661 3.0488189,13.4220472 C3.17480315,13.5480315 3.32598425,13.6488189 3.4519685,13.7748031 C3.93070866,14.2031496 4.15748031,14.8834646 4.05669291,15.5385827 C3.95590551,16.1685039 3.57795276,16.7732283 3.07401575,17.1511811 C2.8976378,17.3023622 2.67086614,17.4031496 2.46929134,17.3779528 Z" id="path-44"></path>
        <filter x="-50%" y="-50%" width="200%" height="200%" filterUnits="objectBoundingBox" id="filter-45">
            <feOffset dx="-1" dy="-1" in="SourceAlpha" result="shadowOffsetOuter1"></feOffset>
            <feGaussianBlur stdDeviation="0.5" in="shadowOffsetOuter1" result="shadowBlurOuter1"></feGaussianBlur>
            <feColorMatrix values="0 0 0 0 0.976470588   0 0 0 0 0.709803922   0 0 0 0 0.298039216  0 0 0 0.2 0" type="matrix" in="shadowBlurOuter1"></feColorMatrix>
        </filter>
        <linearGradient x1="81.8202159%" y1="78.3433269%" x2="15.0647391%" y2="20.9587179%" id="linearGradient-46">
            <stop stop-color="#FAF7F0" offset="0%"></stop>
            <stop stop-color="#FFDC75" offset="100%"></stop>
        </linearGradient>
        <path d="M59.9433071,54.1480315 C59.9433071,54.1480315 54.5007874,56.3905512 55.6094488,59.6409449 C55.6094488,59.6409449 57.7007874,63.319685 61.6818898,62.6645669 C61.6818898,62.6645669 66.8724409,59.7669291 66.2425197,58.2047244 C66.2425197,58.1795276 60.5228346,54.4 59.9433071,54.1480315 Z" id="path-47"></path>
        <filter x="-50%" y="-50%" width="200%" height="200%" filterUnits="objectBoundingBox" id="filter-48">
            <feOffset dx="0" dy="1" in="SourceAlpha" result="shadowOffsetOuter1"></feOffset>
            <feGaussianBlur stdDeviation="1" in="shadowOffsetOuter1" result="shadowBlurOuter1"></feGaussianBlur>
            <feColorMatrix values="0 0 0 0 0.976470588   0 0 0 0 0.709803922   0 0 0 0 0.298039216  0 0 0 0.2 0" type="matrix" in="shadowBlurOuter1"></feColorMatrix>
        </filter>
        <linearGradient x1="86.6860852%" y1="80.6286573%" x2="41.7248952%" y2="0%" id="linearGradient-49">
            <stop stop-color="#566D86" offset="0%"></stop>
            <stop stop-color="#2B3B4E" offset="100%"></stop>
        </linearGradient>
    </defs>
    <g id="Page-1" stroke="none" stroke-width="1" fill="none" fill-rule="evenodd" opacity="0.889999986">
        <g id="Admin-Auto_attendance" transform="translate(-329.000000, -174.000000)">
            <g id="01" transform="translate(50.000000, 50.000000)">
                <g id="content" transform="translate(207.000000, 124.000000)">
                    <g id="QRScanner_ico" transform="translate(78.000000, 4.000000)">
                        <g id="Group-4" transform="translate(0.000000, 5.000000)" stroke="#979797" stroke-linejoin="round" stroke-linecap="round">
                            <g id="+" transform="translate(244.000000, 64.000000)" stroke-width="2" stroke-dasharray="3,7">
                                <path d="M0,6.15789474 L13,6.15789474" id="Line"></path>
                                <path d="M6.15789474,0 L6.15789474,13" id="Line"></path>
                            </g>
                            <g id="+" transform="translate(78.000000, 24.000000)" stroke-width="2" stroke-dasharray="3,7">
                                <path d="M0,6.15789474 L13,6.15789474" id="Line"></path>
                                <path d="M6.15789474,0 L6.15789474,13" id="Line"></path>
                            </g>
                            <g id="+" transform="translate(192.020815, 32.838835) rotate(-45.000000) translate(-192.020815, -32.838835) translate(186.520815, 26.838835)" stroke-width="1.6" stroke-dasharray="3,5">
                                <path d="M4.26325641e-14,5.8 L10.7426407,5.8" id="Line"></path>
                                <path d="M5.50710678,0.292893219 L5.50710678,11.0355339" id="Line"></path>
                            </g>
                            <g id="+" transform="translate(8.131728, 71.131728) rotate(-45.000000) translate(-8.131728, -71.131728) translate(2.631728, 65.131728)" stroke-width="1.6" stroke-dasharray="3,5">
                                <path d="M2.84217094e-14,5.8 L10.7426407,5.8" id="Line"></path>
                                <path d="M5.50710678,0.292893219 L5.50710678,11.0355339" id="Line"></path>
                            </g>
                            <g id="+" transform="translate(262.131728, 103.131728) rotate(-45.000000) translate(-262.131728, -103.131728) translate(256.631728, 97.131728)" stroke-width="1.6" stroke-dasharray="3,5">
                                <path d="M5.68434189e-14,5.8 L10.7426407,5.8" id="Line"></path>
                                <path d="M5.50710678,0.292893219 L5.50710678,11.0355339" id="Line"></path>
                            </g>
                            <g id="+" transform="translate(52.631728, 8.131728) rotate(-45.000000) translate(-52.631728, -8.131728) translate(47.131728, 2.131728)" stroke-width="1.6" stroke-dasharray="3,5">
                                <path d="M3.55271368e-14,5.8 L10.7426407,5.8" id="Line"></path>
                                <path d="M5.50710678,0.292893219 L5.50710678,11.0355339" id="Line"></path>
                            </g>
                        </g>
                        <g id="Group-3" transform="translate(17.000000, 0.000000)">
                            <use id="Oval-127" stroke="#FE127F" mask="url(#mask-2)" stroke-width="3.2" xlink:href="#path-1"></use>
                            <use id="Oval-127" stroke="#007EE5" mask="url(#mask-4)" stroke-width="2" xlink:href="#path-3"></use>
                            <circle id="Oval-127" fill="#7A8993" cx="5" cy="91" r="3"></circle>
                            <circle id="Oval-127" fill="#FD8268" cx="194.5" cy="51.5" r="2.5"></circle>
                            <circle id="Oval-127" fill="#4990E2" cx="2.5" cy="47.5" r="2.5"></circle>
                            <path d="M218,94 C219.656854,94 221,92.6568542 221,91 C221,89.3431458 219.656854,88 218,88 C216.343146,88 215,89.3431458 215,91 C215,92.6568542 216.343146,94 218,94 Z" id="Oval-127" stroke="#00C4CC" stroke-width="2"></path>
                            <circle id="Oval-127" stroke="#F6A623" stroke-width="2" cx="87" cy="23" r="3"></circle>
                            <circle id="Oval-127" stroke="#BD0FE1" stroke-width="1.6" cx="137.5" cy="6.5" r="6.5"></circle>
                        </g>
                        <g id="?" transform="translate(2.000000, 21.000000)">
                            <path d="M140.16343,7.64883963 C139.817412,8.24688926 139.052164,8.94660732 138.241448,9.68818886 C137.804494,10.087387 137.144054,10.6914171 137.015356,10.8984918 C136.380347,12.0288056 136.458182,12.7188053 136.459723,12.7255334 C136.577632,13.3146123 136.178439,13.8670606 135.570402,13.9821852 C135.501044,13.9948937 135.430916,14.0016218 135.362329,14.0016218 C134.833668,14.0016218 134.358952,13.6263457 134.254145,13.1052949 C134.208677,12.8795312 134.034512,11.6625002 135.050989,9.85265251 C135.309154,9.39364942 135.847833,8.88979261 136.704788,8.1063476 C137.232678,7.62342252 138.031063,6.89380198 138.209081,6.58655398 C139.121522,5.00770296 138.959687,3.64863519 137.776751,2.95115981 C136.670879,2.30078084 134.989338,2.42039076 134.090769,3.75030362 C133.751686,4.25191775 133.057337,4.39171185 132.539466,4.06203699 C132.022364,3.73236213 131.878254,3.0595563 132.217337,2.55719462 C133.860347,0.130608253 136.925962,-0.0921652327 138.93965,1.09421572 C140.800752,2.19014166 141.900458,4.64214513 140.16343,7.64883963 L140.16343,7.64883963 Z M136.473595,17.3095838 C136.473595,17.9098761 135.972677,18.3957914 135.353851,18.3957914 C134.735026,18.3957914 134.233337,17.9098761 134.233337,17.3095838 L134.233337,16.0349905 C134.233337,15.4346982 134.735026,14.9487829 135.353851,14.9487829 C135.972677,14.9487829 136.473595,15.4346982 136.473595,16.0349905 L136.473595,17.3095838 Z" id="Fill-1" fill="#7ED321"></path>
                            <g id="Page-1" transform="translate(0.000000, 84.000000)">
                                <polygon id="Stroke-1" stroke-opacity="0.00784313771" stroke="#000000" stroke-width="1.33333335e-11" points="0 0 23.9999985 0 23.9999985 23.9999985 0 23.9999985"></polygon>
                                <g id="Group-6">
                                    <use id="Fill-2" stroke="#007EE5" mask="url(#mask-6)" stroke-width="2" xlink:href="#path-5"></use>
                                    <path d="M15.1469994,15.8069992 C14.3949995,15.6499996 13.6829997,15.3909988 13.0129996,15.0589991 C13.0769998,16.6189984 13.8009997,18.0429981 14.9659996,18.9989994 L3.0349999,18.9989994 C4.25499985,17.997998 4.9999997,16.485999 4.9999997,14.8379993 L4.9999997,11.9999993 C4.9999997,10.1139997 6.31699953,8.53799959 8.07699918,8.11899899 C8.03099965,7.75099945 7.99999952,7.37899974 7.99999952,6.99999958 C7.99999952,6.68999965 8.01599931,6.38499984 8.04599904,6.08299982 C5.18999974,6.54199942 2.99999982,9.01699965 2.99999982,11.9999993 L2.99999982,14.8379993 C2.99999982,16.2979993 2.06899988,17.5889996 0.683999974,18.0519989 L0,18.2789982 L0,20.9999987 L17.9999989,20.9999987 L17.9999989,18.2789982 L17.3159989,18.0519989 C16.2489995,17.6949985 15.4569988,16.8449983 15.1469994,15.8069992 Z" id="Fill-3" fill="#FFA726"></path>
                                    <path d="M16.999999,13.9999992 C13.1399985,13.9999992 9.9999994,10.8599989 9.9999994,6.99999958 C9.9999994,3.13999967 13.1399995,0 16.999999,0 C20.8599993,0 23.9999986,3.13999991 23.9999986,6.99999958 C23.9999986,10.8599989 20.8599993,13.9999992 16.999999,13.9999992 Z M16.999999,1.99999988 C14.2429991,1.99999988 11.9999993,4.24299978 11.9999993,6.99999958 C11.9999993,9.75699937 14.2429991,11.9999993 16.999999,11.9999993 C19.7569987,11.9999993 21.9999987,9.75699937 21.9999987,6.99999958 C21.9999987,4.24299978 19.7569987,1.99999988 16.999999,1.99999988 Z" id="Fill-4" fill="#FFA726"></path>
                                    <polygon id="Fill-5" fill="#7ED321" points="19.9999988 7.99999952 15.999999 7.99999952 15.999999 2.99999982 17.9999989 2.99999982 17.9999989 5.99999964 19.9999988 5.99999964"></polygon>
                                </g>
                            </g>
                        </g>
                        <g id="Page-1" transform="translate(227.000000, 117.000000)">
                            <polygon id="Stroke-1" stroke-opacity="0.00784313771" stroke="#000000" stroke-width="0.5" points="0 0 18.9999988 0 18.9999988 18.9999988 0 18.9999988"></polygon>
                            <g id="Group-6" transform="translate(1.583333, 2.375000)">
                                <path d="M7.9166661,15.0416656 C3.98841641,15.0416656 0.791666524,11.8457069 0.791666524,7.91666605 C0.791666524,3.98762513 3.98841641,0.791666477 7.9166661,0.791666477 C11.8449157,0.791666477 15.0416657,3.98762513 15.0416657,7.91666605 C15.0416657,11.8457069 11.8449157,15.0416656 7.9166661,15.0416656 Z M7.9166661,2.37499972 C4.86083246,2.37499972 2.37499976,4.86083317 2.37499976,7.91666605 C2.37499976,10.9724997 4.86083322,13.4583324 7.9166661,13.4583324 C10.9724989,13.4583324 13.4583324,10.9724997 13.4583324,7.91666605 C13.4583324,4.86083317 10.9724989,2.37499972 7.9166661,2.37499972 Z" id="Fill-2" fill="#F1543F"></path>
                                <path d="M15.1532912,4.03591594 L11.7966249,0.680833253 C12.2249154,0.260458167 12.8115412,-1.42500085e-07 13.4583324,-1.42500085e-07 C14.7701236,-1.42500085e-07 15.8333323,1.06320807 15.8333323,2.37499971 C15.8333323,3.02179127 15.5728736,3.60762477 15.1532912,4.03591594 Z M0.680041499,4.03591594 C0.260458215,3.60762477 -9.49999031e-08,3.02179127 -9.49999031e-08,2.37499971 C-9.49999031e-08,1.06320807 1.06320812,-1.42500085e-07 2.37499976,-1.42500085e-07 C3.02179132,-1.42500085e-07 3.60841642,0.260458167 4.03670797,0.680833253 L0.680041499,4.03591594 Z" id="Combined-Shape" fill="#F6A623"></path>
                                <path d="M9.73195781,10.8513748 L7.35695796,8.4763749 C7.20812408,8.32754102 7.12499948,8.12645794 7.12499948,7.91666605 L7.12499948,3.95833295 L8.70833272,3.95833295 L8.70833272,7.58891639 L10.851374,9.73195777 L9.73195781,10.8513748 Z" id="Fill-5" fill="#F6A623"></path>
                            </g>
                        </g>
                        <g id="barcode-scanner" transform="translate(70.000000, 53.000000)" fill-rule="nonzero">
                            <g id="Layer_1">
                                <g id="Oval">
                                    <use fill="#F2F5FF" fill-rule="evenodd" xlink:href="#path-7"></use>
                                    <use fill="black" fill-opacity="1" filter="url(#filter-8)" xlink:href="#path-7"></use>
                                </g>
                                <polygon id="Shape" fill="#F9B54C" points="58.0283465 72.6173228 66.5952756 65.0582677 72.6425197 62.7401575 77.303937 63.8740157 72.6425197 72.6173228 62.992126 76.8"></polygon>
                                <path d="M43.6913386,36.6110236 C38.6267717,37.1905512 33.7637795,38.8031496 28.9259843,40.3653543 C27.2125984,40.919685 25.4992126,41.4740157 23.8110236,42.0283465 C22.3748031,42.5070866 20.9637795,42.9606299 19.4771654,43.2629921 C17.0330709,43.7669291 14.5385827,43.792126 12.0440945,43.8173228 C9.14645669,43.8425197 6.22362205,43.8677165 3.3511811,43.6409449 C1.18425197,50.0409449 0,56.8692913 0,64 C0,69.8708661 0.806299213,75.5653543 2.29291339,80.9826772 C6.17322835,81.1338583 10.103937,80.3779528 13.6314961,78.7653543 C14.1354331,78.5385827 14.6897638,78.2866142 15.2188976,78.4125984 C15.6724409,78.5385827 16,78.8913386 16.3275591,79.2440945 C18.7212598,81.8141732 21.8456693,84.0314961 25.3732283,84.0818898 C26.8346457,84.1070866 28.3212598,83.7543307 29.7070866,84.1574803 C30.4629921,84.384252 31.1937008,84.8125984 31.9496063,84.6866142 C32.4283465,84.5858268 32.8566929,84.2834646 33.2094488,83.9559055 C37.6188976,80.2015748 39.7102362,74.4566929 43.3133858,69.9212598 C44.6992126,68.1574803 46.3370079,66.5700787 47.4456693,64.6299213 C48.6299213,62.6141732 49.2094488,60.3212598 50.0913386,58.1543307 C51.5275591,54.7023622 53.7448819,51.6535433 55.4834646,48.3527559 C57.2220472,45.0519685 58.5070866,41.2724409 57.8015748,37.6188976 C53.2409449,36.4094488 48.4031496,36.0566929 43.6913386,36.6110236 Z" id="Shape" fill="url(#linearGradient-9)"></path>
                                <g id="Group" transform="translate(22.929134, 41.070866)">
                                    <path d="M59.6661417,20.9133858 L59.4897638,20.9133858 C56.5165354,20.9637795 53.6188976,21.5685039 50.8472441,22.576378 C46.2866142,24.2393701 42.0283465,26.9858268 38.2488189,30.1354331 C37.215748,30.1102362 35.9811024,29.807874 34.3433071,28.8755906 C33.9905512,28.6740157 33.5874016,28.623622 33.2598425,28.3968504 C30.6393701,26.6582677 27.5905512,25.5244094 24.4661417,25.1716535 C23.7354331,25.096063 23.0047244,25.0456693 22.2992126,25.1968504 C19.8551181,25.7259843 18.519685,28.3464567 17.9401575,30.815748 C17.9149606,30.9417323 17.8897638,31.0677165 17.8645669,31.1685039 C17.2346457,30.5637795 16.5291339,29.9338583 15.7732283,29.5055118 C14.9669291,29.0267717 14.0850394,28.7748031 13.1779528,29.0015748 C12.296063,29.2283465 11.5653543,29.8582677 10.9606299,30.5385827 C10.103937,31.496063 9.3984252,32.6299213 9.19685039,33.9149606 C8.99527559,35.1748031 9.3480315,36.5858268 10.3307087,37.4173228 C10.0787402,37.4677165 9.8015748,37.5181102 9.5496063,37.5685039 C8.23937008,37.8456693 6.95433071,38.3496063 6.5007874,39.5590551 C6.1480315,40.5165354 6.5007874,41.6 6.95433071,42.5322835 C9.37322835,47.4708661 14.3622047,50.7464567 19.6031496,52.384252 C20.0566929,52.5354331 20.5102362,52.6362205 20.9637795,52.7622047 L20.9637795,52.7622047 C24.3905512,63.8992126 20.1574803,67.9811024 20.1574803,67.9811024 C13.9590551,71.1559055 0.151181102,47.6220472 0.151181102,47.6220472 C3.3511811,38.0724409 32.1259843,0.125984252 32.1259843,0.125984252 L59.6661417,20.9133858 Z" id="Shape" fill="url(#linearGradient-10)"></path>
                                    <path d="M20.5102362,51.3511811 C20.6866142,51.8299213 20.8377953,52.3086614 20.9637795,52.7622047 C20.5102362,52.6614173 20.0566929,52.5354331 19.6031496,52.384252 C14.3622047,50.7464567 9.37322835,47.4708661 6.95433071,42.5322835 C6.5007874,41.6 6.1480315,40.5165354 6.5007874,39.5590551 C6.95433071,38.3748031 8.23937008,37.8456693 9.5496063,37.5685039 C9.8015748,37.5181102 10.0787402,37.4677165 10.3307087,37.4173228 C9.3480315,36.5858268 8.97007874,35.1748031 9.19685039,33.9149606 C9.3984252,32.6551181 10.103937,31.5212598 10.9606299,30.5385827 C11.5653543,29.8582677 12.2708661,29.2031496 13.1779528,29.0015748 C14.0850394,28.7748031 14.9669291,29.0519685 15.7732283,29.5055118 C16.5291339,29.9338583 17.2346457,30.5637795 17.8645669,31.1685039 C17.8897638,31.0425197 17.9149606,30.9417323 17.9401575,30.815748 C18.4944882,28.3464567 19.8299213,25.7259843 22.2992126,25.1968504 C23.0047244,25.0456693 23.7606299,25.0708661 24.4661417,25.1716535 C27.5905512,25.5244094 30.6393701,26.6330709 33.2598425,28.3968504 C33.5874016,28.623622 33.9905512,28.6740157 34.3433071,28.8755906 C35.9559055,29.807874 37.215748,30.1354331 38.2488189,30.1354331 C27.5149606,39.080315 20.5102362,51.3511811 20.5102362,51.3511811 Z" id="Shape" fill="#ACB3BA"></path>
                                </g>
                                <g id="Shape">
                                    <use fill="url(#linearGradient-11)" fill-rule="evenodd" xlink:href="#path-13"></use>
                                    <use fill="url(#linearGradient-12)" fill-rule="evenodd" xlink:href="#path-13"></use>
                                </g>
                                <path d="M101.44252,60.4724409 C101.44252,61.2787402 101.492913,62.0598425 101.618898,62.815748 C100.283465,62.5889764 98.8976378,62.4629921 97.4866142,62.4629921 C93.0267717,62.4629921 88.8440945,63.6220472 85.215748,65.6629921 C84.9133858,65.5370079 84.6110236,65.4110236 84.3086614,65.2598425 C83.9811024,65.1086614 83.6535433,64.9574803 83.3007874,64.8062992 C81.688189,64.0503937 80.1007874,63.2188976 78.5385827,62.3370079 C76.5480315,61.2031496 74.5826772,59.9685039 72.6929134,58.6582677 C71.9370079,50.4440945 81.7889764,42.2299213 95.0929134,40.1385827 C97.4614173,39.7606299 99.7795276,39.6094488 101.99685,39.6598425 C106.103937,41.5244094 109.606299,43.4141732 112.453543,45.3543307 C106.053543,47.4204724 101.44252,53.392126 101.44252,60.4724409 Z" id="Shape" fill="url(#linearGradient-14)"></path>
                                <g id="Shape">
                                    <use fill="url(#linearGradient-15)" fill-rule="evenodd" xlink:href="#path-16"></use>
                                    <use fill="black" fill-opacity="1" filter="url(#filter-17)" xlink:href="#path-16"></use>
                                </g>
                                <g id="Shape">
                                    <use fill="url(#linearGradient-18)" fill-rule="evenodd" xlink:href="#path-19"></use>
                                    <use fill="black" fill-opacity="1" filter="url(#filter-20)" xlink:href="#path-19"></use>
                                </g>
                                <path d="M84.3086614,65.2850394 C84.3086614,65.8393701 84.207874,66.3937008 84.0566929,66.9228346 C82.3181102,73.6755906 76.4220472,79.1685039 69.5685039,80.3779528 C68.7370079,80.5291339 67.8551181,80.6299213 67.0992126,81.0330709 C66.3433071,81.4362205 65.7133858,82.2173228 65.7889764,83.0740157 C65.8141732,83.2503937 65.8393701,83.4015748 65.8141732,83.5527559 C65.7637795,83.7795276 65.5874016,83.9307087 65.4110236,84.0818898 C64.2267717,85.0645669 63.0425197,86.0724409 61.8330709,87.0551181 C61.3543307,87.4582677 60.8503937,87.8614173 60.2708661,88.0377953 C59.5653543,88.2393701 58.8346457,88.088189 58.1291339,88.1637795 C55.8110236,88.4661417 54.6015748,91.0362205 52.8125984,92.5480315 C50.4188976,94.5637795 46.992126,94.5385827 43.9181102,93.807874 C43.4645669,93.7070866 43.0110236,93.5811024 42.5574803,93.4299213 C37.3165354,91.792126 32.3275591,88.5165354 29.9086614,83.5779528 C29.4551181,82.6456693 29.1023622,81.5622047 29.4551181,80.6047244 C29.9086614,79.4204724 31.1937008,78.8913386 32.503937,78.6141732 C32.7559055,78.5637795 33.0330709,78.5133858 33.2850394,78.4629921 C32.3023622,77.6314961 31.9244094,76.2204724 32.1511811,74.9606299 C32.3527559,73.7007874 33.0582677,72.5669291 33.9149606,71.584252 C34.519685,70.903937 35.2251969,70.2488189 36.1322835,70.0472441 C37.0393701,69.8204724 37.9212598,70.0976378 38.7275591,70.5511811 C39.4834646,70.9795276 40.1889764,71.6094488 40.8188976,72.2141732 C40.8440945,72.088189 40.8692913,71.9874016 40.8944882,71.8614173 C41.4488189,69.392126 42.784252,66.7716535 45.2535433,66.2425197 C45.9590551,66.0913386 46.7149606,66.1165354 47.4204724,66.2173228 C50.5448819,66.5700787 53.5937008,67.6787402 56.2141732,69.4425197 C56.5417323,69.6692913 56.9448819,69.719685 57.2976378,69.9212598 C58.9102362,70.8535433 60.1700787,71.1811024 61.2031496,71.1811024 C63.4708661,71.2062992 64.6299213,69.8204724 66.2929134,70.6519685 C67.376378,71.2062992 68,71 69,71 C70,71 70.8283465,70.3244094 71.2062992,69.7448819 C71.8614173,68.7874016 72.5417323,67.8047244 72.9448819,66.696063 C73.2976378,65.688189 73.423622,64.6047244 73.8015748,63.6220472 C75.3637795,63.0677165 76.9511811,62.6141732 78.5637795,62.3370079 C80.1259843,63.2188976 81.7385827,64.0503937 83.3259843,64.8062992 C83.6535433,64.9826772 83.9811024,65.1338583 84.3086614,65.2850394 Z" id="Shape" fill="url(#linearGradient-9)"></path>
                                <g id="Group" transform="translate(32.251969, 68.283465)" fill="#F9B54C">
                                    <path d="M32.9070866,13.5307087 C31.3952756,13.8330709 22.6519685,15.5716535 19.2251969,13.7574803 C19.2251969,13.7574803 10.9858268,9.5496063 8.51653543,3.95590551 C9.27244094,4.38425197 7.88661417,3.3511811 8.51653543,3.95590551 C8.54173228,3.82992126 15.4204724,12.0188976 20.5858268,13.2031496 C20.5858268,13.2031496 28.2708661,14.4629921 32.9070866,13.5307087 Z" id="Shape"></path>
                                    <path d="M12.0188976,17.9401575 C12.0188976,17.9401575 16.2519685,20.0818898 19.2755906,20.3086614 C16.7811024,20.4094488 11.9937008,20.1826772 8.51653543,17.4866142 C8.51653543,17.4866142 1.68818898,12.0440945 0.226771654,10.3811024 C0.478740157,10.3307087 0.755905512,10.280315 1.00787402,10.2299213 C1.00787402,10.2047244 8.61732283,17.1338583 12.0188976,17.9401575 Z" id="Shape"></path>
                                    <path d="M20.9133858,20.1574803 C20.4346457,20.4574803 19.880315,20.5074803 19.2503937,20.4074803 C20.207874,20.3574803 20.8125984,20.1574803 20.9133858,20.1574803 Z" id="Shape"></path>
                                    <path d="M37.3417323,5.69448819 C37.3165354,6.3496063 37.4425197,6.92913386 37.7700787,7.53385827 C38.0976378,8.13858268 38.903937,8.84409449 38.903937,8.84409449 C38.903937,8.84409449 40.3149606,9.8015748 41.1212598,10.0535433 C40.7685039,9.6503937 39.8866142,9.09606299 39.8866142,9.09606299 C39.8866142,9.09606299 37.6944882,7.71653543 37.6944882,4.38425197 C37.8456693,3.4519685 37.7480315,2.71653543 38.7480315,1.71653543 C39.7480315,0.716535433 37.7480315,0.716535433 37.7480315,0.716535433 L34.7480315,1.71653543 C34.7480315,1.71653543 33.6472441,1.54015748 33.7480315,1.71653543 C33.823622,1.86771654 33.9149606,2.74645669 33.9149606,2.92283465 C33.9401575,3.5023622 33.9653543,4.10708661 33.7889764,4.66141732 C33.7133858,4.88818898 33.6125984,5.14015748 33.7133858,5.36692913 C33.8141732,5.64409449 34.1417323,5.74488189 34.4440945,5.79527559 C34.8220472,5.84566929 35.2251969,5.87086614 35.6031496,5.84566929 C35.7543307,5.84566929 35.9055118,5.79527559 35.9811024,5.66929134 C36.0314961,5.54330709 35.9559055,5.36692913 36.0566929,5.29133858 C36.1070866,5.24094488 36.1826772,5.24094488 36.2582677,5.24094488 L36.888189,5.24094488 C37.0393701,5.24094488 37.215748,5.24094488 37.2913386,5.36692913 C37.3669291,5.46771654 37.3417323,5.59370079 37.3417323,5.69448819 Z" id="Shape"></path>
                                </g>
                                <g id="Group" transform="translate(30.488189, 69.039370)">
                                    <g id="Shape">
                                        <use fill="black" fill-opacity="1" filter="url(#filter-23)" xlink:href="#path-22"></use>
                                        <use fill="url(#linearGradient-21)" fill-rule="evenodd" xlink:href="#path-22"></use>
                                    </g>
                                    <g id="Shape">
                                        <use fill="black" fill-opacity="1" filter="url(#filter-25)" xlink:href="#path-24"></use>
                                        <use fill="url(#linearGradient-21)" fill-rule="evenodd" xlink:href="#path-24"></use>
                                    </g>
                                    <g id="Shape">
                                        <use fill="black" fill-opacity="1" filter="url(#filter-27)" xlink:href="#path-26"></use>
                                        <use fill="url(#linearGradient-21)" fill-rule="evenodd" xlink:href="#path-26"></use>
                                    </g>
                                </g>
                                <path d="M51,46 C51.705224,46.395206 53.9212598,47.7228346 54.576378,48.2519685 C57.2220472,50.4188976 63.9496063,55.8866142 66.519685,57.6251969 C67.0740157,58.0031496 67.376378,58.6330709 67.3259843,59.3133858 C67.0488189,61.9338583 65.3858268,67.7543307 55.5590551,64.7307087 C55.5590551,64.7307087 47.9748031,61.6314961 43.9937008,57.9527559 C43.4645669,57.4740157 42.784252,57.2220472 42.0787402,57.2220472 C39.0299213,57.1968504 45.615748,42.9826772 51,46 Z" id="Shape" fill="url(#linearGradient-28)"></path>
                                <g id="Shape">
                                    <use fill="black" fill-opacity="1" filter="url(#filter-31)" xlink:href="#path-30"></use>
                                    <use fill="url(#linearGradient-29)" fill-rule="evenodd" xlink:href="#path-30"></use>
                                </g>
                                <path d="M101.44252,60.4724409 C101.44252,61.2787402 101.492913,62.0598425 101.618898,62.815748 C100.283465,62.5889764 98.8976378,62.4629921 97.4866142,62.4629921 C93.5055118,62.4629921 89.7511811,63.3952756 86.4,65.0582677 C85.4173228,64.3275591 84.7874016,63.4456693 84.5606299,62.4125984 C83.6787402,58.3559055 89.6251969,53.5937008 97.8393701,51.8047244 C100.15748,51.3007874 102.425197,51.0992126 104.466142,51.1244094 C102.551181,53.7700787 101.44252,56.9952756 101.44252,60.4724409 Z" id="Shape" fill="url(#linearGradient-32)"></path>
                            </g>
                        </g>
                        <g id="barcode-scanner" transform="translate(70.000000, 53.000000)" fill-rule="nonzero">
                            <g id="Layer_1">
                                <g id="Oval">
                                    <use fill="#F2F5FF" fill-rule="evenodd" xlink:href="#path-33"></use>
                                    <use fill="black" fill-opacity="1" filter="url(#filter-34)" xlink:href="#path-33"></use>
                                </g>
                                <polygon id="Shape" fill="#F9B54C" points="58.0283465 72.6173228 66.5952756 65.0582677 72.6425197 62.7401575 77.303937 63.8740157 72.6425197 72.6173228 62.992126 76.8"></polygon>
                                <path d="M43.6913386,36.6110236 C38.6267717,37.1905512 33.7637795,38.8031496 28.9259843,40.3653543 C27.2125984,40.919685 25.4992126,41.4740157 23.8110236,42.0283465 C22.3748031,42.5070866 20.9637795,42.9606299 19.4771654,43.2629921 C17.0330709,43.7669291 14.5385827,43.792126 12.0440945,43.8173228 C9.14645669,43.8425197 6.22362205,43.8677165 3.3511811,43.6409449 C1.18425197,50.0409449 0,56.8692913 0,64 C0,69.8708661 0.806299213,75.5653543 2.29291339,80.9826772 C6.17322835,81.1338583 10.103937,80.3779528 13.6314961,78.7653543 C14.1354331,78.5385827 14.6897638,78.2866142 15.2188976,78.4125984 C15.6724409,78.5385827 16,78.8913386 16.3275591,79.2440945 C18.7212598,81.8141732 21.8456693,84.0314961 25.3732283,84.0818898 C26.8346457,84.1070866 28.3212598,83.7543307 29.7070866,84.1574803 C30.4629921,84.384252 31.1937008,84.8125984 31.9496063,84.6866142 C32.4283465,84.5858268 32.8566929,84.2834646 33.2094488,83.9559055 C37.6188976,80.2015748 39.7102362,74.4566929 43.3133858,69.9212598 C44.6992126,68.1574803 46.3370079,66.5700787 47.4456693,64.6299213 C48.6299213,62.6141732 49.2094488,60.3212598 50.0913386,58.1543307 C51.5275591,54.7023622 53.7448819,51.6535433 55.4834646,48.3527559 C57.2220472,45.0519685 58.5070866,41.2724409 57.8015748,37.6188976 C53.2409449,36.4094488 48.4031496,36.0566929 43.6913386,36.6110236 Z" id="Shape" fill="url(#linearGradient-9)"></path>
                                <g id="Group" transform="translate(22.929134, 41.070866)">
                                    <path d="M59.6661417,20.9133858 L59.4897638,20.9133858 C56.5165354,20.9637795 53.6188976,21.5685039 50.8472441,22.576378 C46.2866142,24.2393701 42.0283465,26.9858268 38.2488189,30.1354331 C37.215748,30.1102362 35.9811024,29.807874 34.3433071,28.8755906 C33.9905512,28.6740157 33.5874016,28.623622 33.2598425,28.3968504 C30.6393701,26.6582677 27.5905512,25.5244094 24.4661417,25.1716535 C23.7354331,25.096063 23.0047244,25.0456693 22.2992126,25.1968504 C19.8551181,25.7259843 18.519685,28.3464567 17.9401575,30.815748 C17.9149606,30.9417323 17.8897638,31.0677165 17.8645669,31.1685039 C17.2346457,30.5637795 16.5291339,29.9338583 15.7732283,29.5055118 C14.9669291,29.0267717 14.0850394,28.7748031 13.1779528,29.0015748 C12.296063,29.2283465 11.5653543,29.8582677 10.9606299,30.5385827 C10.103937,31.496063 9.3984252,32.6299213 9.19685039,33.9149606 C8.99527559,35.1748031 9.3480315,36.5858268 10.3307087,37.4173228 C10.0787402,37.4677165 9.8015748,37.5181102 9.5496063,37.5685039 C8.23937008,37.8456693 6.95433071,38.3496063 6.5007874,39.5590551 C6.1480315,40.5165354 6.5007874,41.6 6.95433071,42.5322835 C9.37322835,47.4708661 14.3622047,50.7464567 19.6031496,52.384252 C20.0566929,52.5354331 20.5102362,52.6362205 20.9637795,52.7622047 L20.9637795,52.7622047 C24.3905512,63.8992126 20.1574803,67.9811024 20.1574803,67.9811024 C13.9590551,71.1559055 0.151181102,47.6220472 0.151181102,47.6220472 C3.3511811,38.0724409 32.1259843,0.125984252 32.1259843,0.125984252 L59.6661417,20.9133858 Z" id="Shape" fill="url(#linearGradient-35)"></path>
                                    <path d="M20.5102362,51.3511811 C20.6866142,51.8299213 20.8377953,52.3086614 20.9637795,52.7622047 C20.5102362,52.6614173 20.0566929,52.5354331 19.6031496,52.384252 C14.3622047,50.7464567 9.37322835,47.4708661 6.95433071,42.5322835 C6.5007874,41.6 6.1480315,40.5165354 6.5007874,39.5590551 C6.95433071,38.3748031 8.23937008,37.8456693 9.5496063,37.5685039 C9.8015748,37.5181102 10.0787402,37.4677165 10.3307087,37.4173228 C9.3480315,36.5858268 8.97007874,35.1748031 9.19685039,33.9149606 C9.3984252,32.6551181 10.103937,31.5212598 10.9606299,30.5385827 C11.5653543,29.8582677 12.2708661,29.2031496 13.1779528,29.0015748 C14.0850394,28.7748031 14.9669291,29.0519685 15.7732283,29.5055118 C16.5291339,29.9338583 17.2346457,30.5637795 17.8645669,31.1685039 C17.8897638,31.0425197 17.9149606,30.9417323 17.9401575,30.815748 C18.4944882,28.3464567 19.8299213,25.7259843 22.2992126,25.1968504 C23.0047244,25.0456693 23.7606299,25.0708661 24.4661417,25.1716535 C27.5905512,25.5244094 30.6393701,26.6330709 33.2598425,28.3968504 C33.5874016,28.623622 33.9905512,28.6740157 34.3433071,28.8755906 C35.9559055,29.807874 37.215748,30.1354331 38.2488189,30.1354331 C27.5149606,39.080315 20.5102362,51.3511811 20.5102362,51.3511811 Z" id="Shape" fill="#ACB3BA"></path>
                                </g>
                                <path d="M101.44252,60.4724409 C101.44252,61.2787402 101.492913,62.0598425 101.618898,62.815748 C100.283465,62.5889764 98.8976378,62.4629921 97.4866142,62.4629921 C93.0267717,62.4629921 88.8440945,63.6220472 85.215748,65.6629921 C84.5858268,65.3858268 83.9559055,65.1086614 83.3007874,64.8062992 C65.9401575,56.6677165 50.0913386,39.6850394 53.1149606,32.5795276 C56.1385827,25.4740157 77.2535433,29.984252 95.1685039,36.8377953 C102.349606,39.584252 108.144882,42.4314961 112.428346,45.3543307 C106.053543,47.4204724 101.44252,53.392126 101.44252,60.4724409 Z" id="Shape" fill="url(#linearGradient-36)"></path>
                                <path d="M82,47 C78.9033297,49.6206138 76.6307733,52.234895 75,55 C64.3939311,47.5090791 56.7271748,39.8421969 58,38 C59.6989793,35.3174796 70.3375402,39.7165103 82,47 Z" id="Shape" fill="url(#linearGradient-37)"></path>
                                <path d="M79,47.4615385 C76.8482186,48.9250606 75.1794901,50.9162241 74.5882353,53 C67.4725995,47.8600196 63.1690367,43.021029 64,41.9230769 C65.1232056,39.8953652 71.490722,42.3958962 79,47.4615385 Z" id="Shape" fill="url(#linearGradient-38)"></path>
                                <path d="M101.44252,60.4724409 C101.44252,61.2787402 101.492913,62.0598425 101.618898,62.815748 C100.283465,62.5889764 98.8976378,62.4629921 97.4866142,62.4629921 C93.0267717,62.4629921 88.8440945,63.6220472 85.215748,65.6629921 C84.9133858,65.5370079 84.6110236,65.4110236 84.3086614,65.2598425 C83.9811024,65.1086614 83.6535433,64.9574803 83.3007874,64.8062992 C81.688189,64.0503937 80.1007874,63.2188976 78.5385827,62.3370079 C76.5480315,61.2031496 74.5826772,59.9685039 72.6929134,58.6582677 C71.9370079,50.4440945 81.7889764,42.2299213 95.0929134,40.1385827 C97.4614173,39.7606299 99.7795276,39.6094488 101.99685,39.6598425 C106.103937,41.5244094 109.606299,43.4141732 112.453543,45.3543307 C106.053543,47.4204724 101.44252,53.392126 101.44252,60.4724409 Z" id="Shape" fill="url(#linearGradient-37)"></path>
                                <path d="M84.3086614,65.2850394 C84.3086614,65.8393701 84.207874,66.3937008 84.0566929,66.9228346 C82.3181102,73.6755906 76.4220472,79.1685039 69.5685039,80.3779528 C68.7370079,80.5291339 67.8551181,80.6299213 67.0992126,81.0330709 C66.3433071,81.4362205 65.7133858,82.2173228 65.7889764,83.0740157 C65.8141732,83.2503937 65.8393701,83.4015748 65.8141732,83.5527559 C65.7637795,83.7795276 65.5874016,83.9307087 65.4110236,84.0818898 C64.2267717,85.0645669 63.0425197,86.0724409 61.8330709,87.0551181 C61.3543307,87.4582677 60.8503937,87.8614173 60.2708661,88.0377953 C59.5653543,88.2393701 58.8346457,88.088189 58.1291339,88.1637795 C55.8110236,88.4661417 54.6015748,91.0362205 52.8125984,92.5480315 C50.4188976,94.5637795 46.992126,94.5385827 43.9181102,93.807874 L43.9181102,93.807874 C43.4645669,93.7070866 43.0110236,93.5811024 42.5574803,93.4299213 C37.3165354,91.792126 32.3275591,88.5165354 29.9086614,83.5779528 C29.4551181,82.6456693 29.1023622,81.5622047 29.4551181,80.6047244 C29.9086614,79.4204724 31.1937008,78.8913386 32.503937,78.6141732 C32.7559055,78.5637795 33.0330709,78.5133858 33.2850394,78.4629921 C32.3023622,77.6314961 31.9244094,76.2204724 32.1511811,74.9606299 C32.3527559,73.7007874 33.0582677,72.5669291 33.9149606,71.584252 C34.519685,70.903937 35.2251969,70.2488189 36.1322835,70.0472441 C37.0393701,69.8204724 37.9212598,70.0976378 38.7275591,70.5511811 C39.4834646,70.9795276 40.1889764,71.6094488 40.8188976,72.2141732 C40.8440945,72.088189 40.8692913,71.9874016 40.8944882,71.8614173 C41.4488189,69.392126 42.784252,66.7716535 45.2535433,66.2425197 C45.9590551,66.0913386 46.7149606,66.1165354 47.4204724,66.2173228 C50.5448819,66.5700787 53.5937008,67.6787402 56.2141732,69.4425197 C56.5417323,69.6692913 56.9448819,69.719685 57.2976378,69.9212598 C58.9102362,70.8535433 60.1700787,71.1811024 61.2031496,71.1811024 C63.4708661,71.2062992 64.6299213,69.8204724 66.2929134,70.6519685 C67.376378,71.2062992 68.6866142,71.7354331 69.7952756,71.2062992 C70.4,70.903937 70.8283465,70.3244094 71.2062992,69.7448819 C71.8614173,68.7874016 72.5417323,67.8047244 72.9448819,66.696063 C73.2976378,65.688189 73.423622,64.6047244 73.8015748,63.6220472 C75.3637795,63.0677165 76.9511811,62.6141732 78.5637795,62.3370079 C80.1259843,63.2188976 81.7385827,64.0503937 83.3259843,64.8062992 C83.6535433,64.9826772 83.9811024,65.1338583 84.3086614,65.2850394 Z" id="Shape" fill="url(#linearGradient-9)"></path>
                                <g id="Group" transform="translate(32.251969, 68.283465)" fill="#F9B54C">
                                    <path d="M32.9070866,13.5307087 C31.3952756,13.8330709 22.6519685,15.5716535 19.2251969,13.7574803 C19.2251969,13.7574803 10.9858268,9.5496063 8.51653543,3.95590551 C9.27244094,4.38425197 7.88661417,3.3511811 8.51653543,3.95590551 C8.54173228,3.82992126 15.4204724,12.0188976 20.5858268,13.2031496 C20.5858268,13.2031496 28.2708661,14.4629921 32.9070866,13.5307087 Z" id="Shape"></path>
                                    <path d="M12.0188976,17.9401575 C12.0188976,17.9401575 16.2519685,20.0818898 19.2755906,20.3086614 C16.7811024,20.4094488 11.9937008,20.1826772 8.51653543,17.4866142 C8.51653543,17.4866142 1.68818898,12.0440945 0.226771654,10.3811024 C0.478740157,10.3307087 0.755905512,10.280315 1.00787402,10.2299213 C1.00787402,10.2047244 8.61732283,17.1338583 12.0188976,17.9401575 Z" id="Shape"></path>
                                    <path d="M20.9133858,20.1574803 C20.4346457,20.4574803 19.880315,20.5074803 19.2503937,20.4074803 C20.207874,20.3574803 20.8125984,20.1574803 20.9133858,20.1574803 Z" id="Shape"></path>
                                    <path d="M37.3417323,5.69448819 C37.9354331,7.00472441 37.4425197,6.92913386 37.7700787,7.53385827 C38.0976378,8.13858268 38.903937,8.84409449 38.903937,8.84409449 C38.903937,8.84409449 40.3149606,9.8015748 41.1212598,10.0535433 C40.7685039,9.6503937 39.8866142,9.09606299 39.8866142,9.09606299 C39.8866142,9.09606299 37.6944882,7.71653543 37.6944882,4.38425197 C37.8456693,3.4519685 37.7480315,2.71653543 38.7480315,1.71653543 C39.7480315,0.716535433 37.7480315,0.716535433 37.7480315,0.716535433 L34.7480315,1.71653543 C34.7480315,1.71653543 31.7480315,1.71653543 32.7480315,1.71653543 C33.7480315,1.71653543 36.7480315,4.38425197 37.3417323,5.69448819 Z" id="Shape"></path>
                                </g>
                                <g id="Group" transform="translate(30.488189, 68.039370)">
                                    <g id="Shape">
                                        <use fill="black" fill-opacity="1" filter="url(#filter-41)" xlink:href="#path-40"></use>
                                        <use fill="url(#linearGradient-39)" fill-rule="evenodd" xlink:href="#path-40"></use>
                                    </g>
                                    <g id="Shape">
                                        <use fill="black" fill-opacity="1" filter="url(#filter-43)" xlink:href="#path-42"></use>
                                        <use fill="url(#linearGradient-39)" fill-rule="evenodd" xlink:href="#path-42"></use>
                                    </g>
                                    <g id="Shape">
                                        <use fill="black" fill-opacity="1" filter="url(#filter-45)" xlink:href="#path-44"></use>
                                        <use fill="url(#linearGradient-39)" fill-rule="evenodd" xlink:href="#path-44"></use>
                                    </g>
                                </g>
                                <path d="M51,46 C51.705224,46.395206 53.9212598,47.7228346 54.576378,48.2519685 C57.2220472,50.4188976 63.9496063,55.8866142 66.519685,57.6251969 C67.0740157,58.0031496 67.376378,58.6330709 67.3259843,59.3133858 C67.0488189,61.9338583 65.3858268,67.7543307 55.5590551,64.7307087 C55.5590551,64.7307087 47.9748031,61.6314961 43.9937008,57.9527559 C43.4645669,57.4740157 42.784252,57.2220472 42.0787402,57.2220472 C39.0299213,57.1968504 45.615748,42.9826772 51,46 Z" id="Shape" fill="url(#linearGradient-28)"></path>
                                <g id="Shape">
                                    <use fill="black" fill-opacity="1" filter="url(#filter-48)" xlink:href="#path-47"></use>
                                    <use fill="url(#linearGradient-46)" fill-rule="evenodd" xlink:href="#path-47"></use>
                                </g>
                                <path d="M101.44252,60.4724409 C101.44252,61.2787402 101.492913,62.0598425 101.618898,62.815748 C100.283465,62.5889764 98.8976378,62.4629921 97.4866142,62.4629921 C93.5055118,62.4629921 89.7511811,63.3952756 86.4,65.0582677 C85.4173228,64.3275591 84.7874016,63.4456693 84.5606299,62.4125984 C83.6787402,58.3559055 89.6251969,53.5937008 97.8393701,51.8047244 C100.15748,51.3007874 102.425197,51.0992126 104.466142,51.1244094 C102.551181,53.7700787 101.44252,56.9952756 101.44252,60.4724409 Z" id="Shape" fill="url(#linearGradient-49)"></path>
                            </g>
                        </g>
                    </g>
                </g>
            </g>
        </g>
    </g>
</svg>