<svg xmlns="http://www.w3.org/2000/svg" width="37" height="40" viewBox="0 0 37 40">
    <g fill="none" fill-rule="evenodd" transform="translate(-7 -4.699)">
        <rect width="51" height="51" x="-.5" y="-.5" fill="#FFF" fill-opacity=".7" stroke="#E5E5E5" rx="8"/>
        <path fill="#FFB74D" d="M36.47 14.783c2.43 0 4.408-2.194 4.408-4.89C40.878 7.194 38.9 5 36.469 5c-2.43 0-4.408 2.195-4.408 4.892 0 2.697 1.978 4.89 4.408 4.89"/>
        <path fill="#556B7A" d="M16.094 18.087c-.477 0-.914-.357-1.045-.897-.156-.647.185-1.315.763-1.49l17.073-5.173c.579-.175 1.171.208 1.328.855.155.648-.186 1.315-.763 1.49l-17.073 5.173a.98.98 0 0 1-.283.042"/>
        <path fill="#4FC3F7" d="M12.408 13.163C9.978 13.163 8 15.358 8 18.055c0 2.697 1.977 4.89 4.408 4.89 2.43 0 4.408-2.193 4.408-4.89 0-2.697-1.977-4.892-4.408-4.892"/>
        <path fill="#556B7A" d="M31.328 30.995a1.06 1.06 0 0 1-.559-.16l-16.064-9.91c-.563-.348-.769-1.141-.459-1.772.31-.633 1.017-.862 1.58-.514l16.064 9.908c.562.348.768 1.141.459 1.773-.213.432-.61.675-1.02.675"/>
        <path fill="#FF7043" d="M36.47 25.699c-3.601 0-6.531 3.249-6.531 7.242s2.93 7.24 6.53 7.24c3.601 0 6.531-3.247 6.531-7.24 0-3.993-2.93-7.242-6.53-7.242"/>
        <path fill="#556B7A" d="M23.96 39.953c-.46 0-.887-.331-1.033-.85-.18-.638.137-1.32.707-1.523l7.45-2.639c.567-.2 1.178.153 1.358.793.18.64-.136 1.322-.707 1.524l-7.45 2.639a.988.988 0 0 1-.326.056"/>
        <path fill="#4DB6AC" d="M21.587 36.46c-1.938 0-3.515 1.75-3.515 3.902 0 2.151 1.577 3.9 3.515 3.9 1.937 0 3.514-1.749 3.514-3.9 0-2.152-1.577-3.902-3.514-3.902"/>
    </g>
</svg>
