<?xml version="1.0" encoding="UTF-8"?>
<svg width="14px" height="14px" viewBox="0 0 14 14" version="1.1" xmlns="http://www.w3.org/2000/svg" xmlns:xlink="http://www.w3.org/1999/xlink">
    <!-- Generator: sketchtool 50.2 (55047) - http://www.bohemiancoding.com/sketch -->
    <title>96F75B09-B988-474C-8863-6458C06BEB11</title>
    <desc>Created with sketchtool.</desc>
    <defs></defs>
    <g id="Page-1" stroke="none" stroke-width="1" fill="none" fill-rule="evenodd">
        <g id="Gradebook-update-01---calcuation-totals-with-new-subcategory-and-avatars" transform="translate(-1120.000000, -446.000000)" fill="#007EE5">
            <g id="Table-Filters-Copy" transform="translate(320.000000, 407.000000)">
                <g id="These-Controls">
                    <g id="Dropdown" transform="translate(0.000000, 28.000000)">
                        <g id="Group-5" transform="translate(800.000000, 9.000000)">
                            <path d="M8.19703538,10.1970354 C6.65875208,11.7356601 4.16437705,11.7356601 2.62575228,10.1970354 C1.08746898,8.65875208 1.08746898,6.16437705 2.62575228,4.62575228 C4.16437705,3.08746898 6.65875208,3.08746898 8.19703538,4.62575228 C9.73566015,6.16437705 9.73531869,8.65875208 8.19703538,10.1970354 M13.746465,14.5219846 L9.79644027,10.5723014 C11.3244797,8.45694843 11.1421394,5.48930799 9.23780953,3.58497814 C7.12450534,1.47167395 3.69828233,1.47167395 1.58497814,3.58497814 C-0.528326047,5.69828233 -0.528326047,9.12450534 1.58497814,11.2378095 C3.48930799,13.1421394 6.45694843,13.3244797 8.57230139,11.7967817 L12.5219846,15.746465 C12.8600313,16.0845117 13.4084182,16.0845117 13.746465,15.746465 L13.746465,15.746465 C14.0845117,15.4084182 14.0845117,14.8600313 13.746465,14.5219846" id="Search_ico-Copy"></path>
                        </g>
                    </g>
                </g>
            </g>
        </g>
    </g>
</svg>