<svg xmlns="http://www.w3.org/2000/svg" width="16" height="16" viewBox="0 0 16 16">
    <path fill="#007EE5" fill-rule="nonzero" d="M15 5h-1V1a1 1 0 0 0-1-1H3a1 1 0 0 0-1 1v4H1a1 1 0 0 0-1 1v5a1 1 0 0 0 1 1h1v3a1 1 0 0 0 1 1h10a1 1 0 0 0 1-1v-3h1a1 1 0 0 0 1-1V6a1 1 0 0 0-1-1zM3 10h10v5H3v-5zm8-2.5a.5.5 0 1 1 1 0 .5.5 0 0 1-1 0zM2.5 8a.5.5 0 1 1 0-1 .5.5 0 0 1 0 1zm11 0a.5.5 0 1 1 0-1 .5.5 0 0 1 0 1zM3 1h10v4H3V1zm9 10.5a.5.5 0 0 0-.5-.5h-7a.5.5 0 1 0 0 1h7a.5.5 0 0 0 .5-.5zm-.5 1.5h-7a.5.5 0 1 0 0 1h7a.5.5 0 1 0 0-1z"/>
</svg>
