<?xml version="1.0" encoding="UTF-8"?>
<svg width="62px" height="38px" viewBox="0 0 62 38" version="1.1" xmlns="http://www.w3.org/2000/svg" xmlns:xlink="http://www.w3.org/1999/xlink">
    <!-- Generator: sketchtool 52.6 (67491) - http://www.bohemiancoding.com/sketch -->
    <title>8D8FF13F-A969-4E27-91E7-8A05C93BD4FC</title>
    <desc>Created with sketchtool.</desc>
    <defs>
        <path d="M23.8397398,21.2425089 L50.3370885,12.2022549 C51.4826644,11.8114263 51.4831721,10.1914149 50.3378501,9.79982473 L40.4370286,6.41492847 C40.1720335,6.32434018 39.8844866,6.32391707 39.6192376,6.41374376 L18.7703922,13.4741296 L13.3946692,11.7942056 L38.4899516,3.23227976 C38.6758247,3.16885526 38.8374535,3.06658908 38.9688721,2.93758222 L58.5602709,9.50868134 C59.468904,9.81332201 60.0819087,10.6690238 60.0819087,11.6325345 L60.0819087,13.2395563 L52.7781488,15.6962717 L46.1740046,17.9113478 L30.7445897,23.0864311 C30.5161938,23.1628451 30.2785741,23.2012214 30.0409544,23.2012214 C29.8033346,23.2012214 29.5657149,23.163099 29.337319,23.0864311 L23.8397398,21.2425089 Z M20.1733894,20.0128184 L13.9079041,17.9113478 L1.5216378,13.7568954 C0.613004714,13.4520009 0,12.596553 0,11.6326614 C0,10.6690238 0.613004714,9.81332201 1.5216378,9.50868134 L29.337319,0.179103324 C29.565588,0.102477734 29.8033346,0.0642284066 30.0409544,0.0642284066 C30.2785741,0.0642284066 30.5161938,0.102477734 30.7445897,0.179103324 L35.1983516,1.67294267 L8.8985961,10.6457949 C7.73689971,11.042124 7.75826686,12.6925571 8.92986408,13.0586759 L18.4075736,16.0204602 C18.6638949,16.1005553 18.9390023,16.0973396 19.193335,16.011194 L40.024452,8.95681632 L45.9998094,10.9996858 L20.745733,19.61577 C20.5130214,19.6951882 20.3183053,19.8354498 20.1733894,20.0128184 Z M32.1521565,27.334899 L46.1740046,22.6318395 L46.1740046,30.292029 C46.1740046,31.2556667 45.5609999,32.1112415 44.6523668,32.4160091 L30.7445897,37.080777 C30.5161938,37.1575295 30.2784471,37.1959058 30.0409544,37.1959058 C29.8034616,37.1959058 29.5657149,37.1575295 29.337319,37.080777 L15.429415,32.4160091 C14.5208242,32.1113685 13.9077772,31.2557936 13.9077772,30.292029 L13.9077772,22.6318395 L27.9298792,27.334899 C28.6117665,27.563718 29.322087,27.6795661 30.0409544,27.6795661 C30.7598217,27.6795661 31.4701422,27.563718 32.1521565,27.334899 Z" id="path-1"></path>
        <linearGradient x1="12.4857469%" y1="24.6615052%" x2="12.4857469%" y2="120.992643%" id="linearGradient-3">
            <stop stop-color="#25E1F6" offset="0%"></stop>
            <stop stop-color="#11DE94" offset="100%"></stop>
        </linearGradient>
        <path d="M23.8397398,21.2425089 L50.3370885,12.2022549 C51.4826644,11.8114263 51.4831721,10.1914149 50.3378501,9.79982473 L40.4370286,6.41492847 C40.1720335,6.32434018 39.8844866,6.32391707 39.6192376,6.41374376 L18.7703922,13.4741296 L13.3946692,11.7942056 L38.4899516,3.23227976 C38.6758247,3.16885526 38.8374535,3.06658908 38.9688721,2.93758222 L58.5602709,9.50868134 C59.468904,9.81332201 60.0819087,10.6690238 60.0819087,11.6325345 L60.0819087,13.2395563 L52.7781488,15.6962717 L46.1740046,17.9113478 L30.7445897,23.0864311 C30.5161938,23.1628451 30.2785741,23.2012214 30.0409544,23.2012214 C29.8033346,23.2012214 29.5657149,23.163099 29.337319,23.0864311 L23.8397398,21.2425089 Z M20.1733894,20.0128184 L13.9079041,17.9113478 L1.5216378,13.7568954 C0.613004714,13.4520009 0,12.596553 0,11.6326614 C0,10.6690238 0.613004714,9.81332201 1.5216378,9.50868134 L29.337319,0.179103324 C29.565588,0.102477734 29.8033346,0.0642284066 30.0409544,0.0642284066 C30.2785741,0.0642284066 30.5161938,0.102477734 30.7445897,0.179103324 L35.1983516,1.67294267 L8.8985961,10.6457949 C7.73689971,11.042124 7.75826686,12.6925571 8.92986408,13.0586759 L18.4075736,16.0204602 C18.6638949,16.1005553 18.9390023,16.0973396 19.193335,16.011194 L40.024452,8.95681632 L45.9998094,10.9996858 L20.745733,19.61577 C20.5130214,19.6951882 20.3183053,19.8354498 20.1733894,20.0128184 Z M32.1521565,27.334899 L46.1740046,22.6318395 L46.1740046,30.292029 C46.1740046,31.2556667 45.5609999,32.1112415 44.6523668,32.4160091 L30.7445897,37.080777 C30.5161938,37.1575295 30.2784471,37.1959058 30.0409544,37.1959058 C29.8034616,37.1959058 29.5657149,37.1575295 29.337319,37.080777 L15.429415,32.4160091 C14.5208242,32.1113685 13.9077772,31.2557936 13.9077772,30.292029 L13.9077772,22.6318395 L27.9298792,27.334899 C28.6117665,27.563718 29.322087,27.6795661 30.0409544,27.6795661 C30.7598217,27.6795661 31.4701422,27.563718 32.1521565,27.334899 Z" id="path-4"></path>
        <linearGradient x1="16.5336374%" y1="24.6615052%" x2="16.5336374%" y2="32.9172446%" id="linearGradient-6">
            <stop stop-color="#25E1F6" offset="0%"></stop>
            <stop stop-color="#11DE94" offset="100%"></stop>
        </linearGradient>
    </defs>
    <g id="Symbols" stroke="none" stroke-width="1" fill="none" fill-rule="evenodd">
        <g id="logo">
            <g id="Group">
                <g id="Group-299">
                    <g id="Group-295">
                        <mask id="mask-2" fill="white">
                            <use xlink:href="#path-1"></use>
                        </mask>
                        <g id="Clip-294"></g>
                        <polygon id="Fill-293" fill="url(#linearGradient-3)" mask="url(#mask-2)" points="-92.6615353 338.912739 649.476971 338.912739 649.476971 -110.855353 -92.6615353 -110.855353"></polygon>
                    </g>
                    <g id="Group-298">
                        <mask id="mask-5" fill="white">
                            <use xlink:href="#path-4"></use>
                        </mask>
                        <g id="Clip-297"></g>
                        <polygon id="Fill-296" fill="url(#linearGradient-6)" mask="url(#mask-5)" points="-92.6615353 338.912739 649.476971 338.912739 649.476971 -110.855353 -92.6615353 -110.855353"></polygon>
                    </g>
                </g>
            </g>
        </g>
    </g>
</svg>