<?xml version="1.0" encoding="UTF-8"?>
<svg width="13px" height="15px" viewBox="0 0 13 15" version="1.1" xmlns="http://www.w3.org/2000/svg" xmlns:xlink="http://www.w3.org/1999/xlink">
    <!-- Generator: sketchtool 50.2 (55047) - http://www.bohemiancoding.com/sketch -->
    <title>8B0A8504-A62A-442C-8C99-2E1E13D59312</title>
    <desc>Created with sketchtool.</desc>
    <defs></defs>
    <g id="Page-1" stroke="none" stroke-width="1" fill="none" fill-rule="evenodd">
        <g id="T4.2---Teacher_homepage---Language,-Logout-and-help" transform="translate(-1301.000000, -101.000000)">
            <g id="Group-14" transform="translate(1284.000000, 78.000000)">
                <g id="SMS" transform="translate(16.000000, 21.000000)">
                    <g id="sms_ico" transform="translate(0.000000, 2.000000)">
                        <polygon id="Stroke-1" stroke-opacity="0.00784313771" stroke="#000000" stroke-width="1.33333335e-11" points="0 0 15.999999 0 15.999999 15.999999 0 15.999999"></polygon>
                        <path d="M2.66666651,6.66666627 L2.66666651,11.3333327 L4.66666639,11.3333327 L4.66666639,6.66666627 L2.66666651,6.66666627 Z M6.66666627,6.66666627 L6.66666627,11.3333327 L8.66666615,11.3333327 L8.66666615,6.66666627 L6.66666627,6.66666627 Z M1.33333325,14.6666658 L13.9999992,14.6666658 L13.9999992,12.6666659 L1.33333325,12.6666659 L1.33333325,14.6666658 Z M10.666666,6.66666627 L10.666666,11.3333327 L12.6666659,11.3333327 L12.6666659,6.66666627 L10.666666,6.66666627 Z M7.66666621,0.666666627 L1.33333325,3.99999976 L1.33333325,5.33333301 L13.9999992,5.33333301 L13.9999992,3.99999976 L7.66666621,0.666666627 Z" id="Fill-2" fill="#7A8993"></path>
                    </g>
                </g>
            </g>
        </g>
    </g>
</svg>