<svg xmlns="http://www.w3.org/2000/svg" width="61" height="48" viewBox="0 0 61 48">
    <g fill="none" fill-rule="evenodd">
        <path fill="#AED581" d="M39.985 28.178c15.033 0 20.888 10.779 21.013 11.01l.002.004v5.427h-9.281v-3.086S46.286 31.25 32.43 29.188c2.207-.626 4.718-1.01 7.555-1.01zm0-24.946c5.72 0 10.357 4.716 10.357 10.533 0 5.818-4.637 10.536-10.357 10.536-2.221 0-4.28-.712-5.966-1.923a12.193 12.193 0 0 0 5.408-10.17 12.22 12.22 0 0 0-3.19-8.266 10.18 10.18 0 0 1 3.748-.71z"/>
        <path fill="#00BCD4" d="M.118 41.533v6.26h48.476v-6.26S41.883 28.83 24.357 28.83C6.83 28.83.118 41.533.118 41.533zm12.29-29.326c0 6.71 5.35 12.151 11.949 12.151 6.597 0 11.945-5.441 11.945-12.15 0-6.71-5.348-12.15-11.945-12.15-6.599 0-11.948 5.44-11.948 12.15z"/>
    </g>
</svg>
