<svg xmlns="http://www.w3.org/2000/svg" width="32" height="32" viewBox="0 0 32 32">
    <defs>
        <linearGradient id="a" x1="18.844%" x2="91.395%" y1="85.307%" y2="5.181%">
            <stop offset="0%" stop-color="#25E1F6"/>
            <stop offset="100%" stop-color="#11DE93"/>
        </linearGradient>
    </defs>
    <g fill="none" fill-rule="evenodd">
        <path fill="#D1FFF8" d="M29.741 26.241c3.105-5.043 1.53-11.646-3.517-14.748A10.728 10.728 0 0 0 22.032 10c.075.525.11 1.054.107 1.585-.191 5.928-5.085 10.617-11.02 10.56H10a10.972 10.972 0 0 0 10.898 9.188h9.9l-1.041-1.769a3.222 3.222 0 0 1-.016-3.323z"/>
        <path fill="#000" d="M2.251 16.932C-.837 11.914.726 5.342 5.742 2.252S17.328.726 20.417 5.743a10.67 10.67 0 0 1 1.582 5.747c-.19 5.9-5.056 10.567-10.955 10.51H1.2l1.036-1.76a3.208 3.208 0 0 0 .015-3.308z"/>
        <path fill="#FFF" d="M2.251 16.932C-.837 11.914.726 5.342 5.742 2.252S17.328.726 20.417 5.743a10.67 10.67 0 0 1 1.582 5.747c-.19 5.9-5.056 10.567-10.955 10.51H1.2l1.036-1.76a3.208 3.208 0 0 0 .015-3.308z"/>
        <g>
            <path fill="url(#a)" fill-rule="nonzero" d="M30.306 29.092a2.428 2.428 0 0 1 0-2.51c3.302-5.37 1.627-12.4-3.742-15.702a11.408 11.408 0 0 0-3.867-1.495 11.413 11.413 0 0 0-3.41-6.247A11.305 11.305 0 0 0 10.523.04C4.238.533-.457 6.026.035 12.31c.143 1.82.72 3.58 1.684 5.132a2.428 2.428 0 0 1 0 2.51L.662 21.72a.76.76 0 0 0 .654 1.149h8.096a11.68 11.68 0 0 0 11.414 9.13h9.861a.761.761 0 0 0 .654-1.148l-1.035-1.758v-.001zm-27.66-7.746l.366-.616a3.95 3.95 0 0 0 0-4.086C.15 11.99 1.6 5.898 6.252 3.034c4.652-2.862 10.746-1.412 13.609 3.24a9.888 9.888 0 0 1 1.466 5.325 10.082 10.082 0 0 1-10.18 9.747H2.646zm18.21 9.13a10.16 10.16 0 0 1-9.892-7.608h.182c6.308.052 11.505-4.94 11.703-11.246v-.662c5.319 1.248 8.618 6.572 7.37 11.89a9.898 9.898 0 0 1-1.207 2.924 3.95 3.95 0 0 0 0 4.087l.366.616h-8.523l.001-.001z"/>
            <path fill="#23B9ED" d="M12.39 9.667c0 .742-.74 1.217-2.639 1.291l-.078.074.346 2.301h1.576l.165-.868c1.607-.267 2.907-1.01 2.907-2.828 0-1.885-1.473-2.969-3.647-2.969-1.411-.032-2.763.531-3.687 1.536L8.72 9.637a3.186 3.186 0 0 1 2.26-.98c.898 0 1.41.371 1.41 1.01z"/>
            <circle cx="11" cy="15" r="1" fill="#23B9ED"/>
        </g>
    </g>
</svg>
