<svg xmlns="http://www.w3.org/2000/svg" width="73" height="48" viewBox="0 0 73 48">
    <g fill="none" fill-rule="evenodd">
        <path fill="#B39DDB" d="M26.783 11.315c0 3.572-1.962 6.752-5.022 8.825v5.724l-5.866-3.437a15.96 15.96 0 0 1-2.504.203C5.996 22.63 0 17.565 0 11.315 0 5.067 5.996 0 13.39 0c7.397 0 13.393 5.067 13.393 11.315zM20.087 9.7c0-.446-.375-.808-.837-.808H7.533c-.462 0-.837.362-.837.808 0 .447.375.808.837.808H19.25c.462 0 .837-.361.837-.808zm-1.674 4.85c0-.448-.375-.809-.837-.809h-8.37c-.461 0-.837.361-.837.808 0 .447.376.808.838.808h8.37c.461 0 .836-.36.836-.808z"/>
        <path fill="#FFCC80" d="M54.39 31.775c12.868 0 17.888 8.707 18.005 8.912l.002.004v4.392h-7.952v-2.497s-4.656-8.326-16.53-9.994c1.892-.506 4.044-.817 6.476-.817zm0-20.193c4.902 0 8.875 3.818 8.875 8.527 0 4.708-3.973 8.527-8.874 8.527a9.085 9.085 0 0 1-5.113-1.556c2.791-1.756 4.635-4.788 4.635-8.232 0-2.584-1.038-4.935-2.734-6.69a9.173 9.173 0 0 1 3.212-.576z"/>
        <path fill="#00BCD4" d="M20.23 42.586v5.066h41.537v-5.066s-5.75-10.283-20.768-10.283c-15.017 0-20.769 10.283-20.769 10.283zm10.532-23.738c0 5.43 4.583 9.835 10.237 9.835 5.653 0 10.235-4.405 10.235-9.835 0-5.431-4.582-9.835-10.235-9.835-5.654 0-10.237 4.404-10.237 9.835z"/>
    </g>
</svg>
