<svg xmlns="http://www.w3.org/2000/svg" width="15" height="18" viewBox="0 0 15 18">
    <path fill="#B0BEC5" fill-rule="nonzero" d="M13.14 7.943h-.359V5.274c0-2.845-2.463-5.222-5.541-5.273a13.414 13.414 0 0 0-.337 0C3.825.051 1.362 2.43 1.362 5.274v.06c0 .598.529 1.083 1.181 1.083.653 0 1.182-.485 1.182-1.084v-.059c0-1.695 1.502-3.096 3.346-3.096s3.347 1.401 3.347 3.096v2.67H1.003C.451 7.943 0 8.465 0 9.111v7.716C0 17.472.45 18 1.003 18H13.14c.552 0 1.003-.528 1.003-1.172V9.112c0-.646-.45-1.169-1.003-1.169zm-4.932 5.019v2.331c0 .267-.243.493-.535.493H6.47c-.292 0-.536-.226-.536-.493v-2.331a1.332 1.332 0 0 1-.447-.998c0-.74.624-1.375 1.416-1.404.084-.003.253-.003.337 0 .792.029 1.416.664 1.416 1.404 0 .39-.165.743-.448.998z"/>
</svg>
