<svg width="49" height="43" viewBox="0 0 49 43" xmlns="http://www.w3.org/2000/svg" xmlns:xlink="http://www.w3.org/1999/xlink"><title>Virtual Class_ico</title><defs><path id="a" d="M.503 3.15c0 1.63 1.294 2.953 2.89 2.953 1.597 0 2.89-1.322 2.89-2.954 0-1.632-1.293-2.955-2.89-2.955C1.797.195.503 1.518.503 3.15z"/><path id="c" d="M.525 7.435H14.26C14.26 3.593 11.187.48 7.394.48S.525 3.592.525 7.434z"/><path id="e" d="M.888 3.15c0 1.63 1.294 2.953 2.89 2.953s2.89-1.322 2.89-2.954c0-1.632-1.294-2.955-2.89-2.955S.887 1.518.887 3.15z"/><path id="g" d="M.91 7.435h13.735C14.645 3.593 11.57.48 7.777.48 3.985.48.91 3.592.91 7.434z"/><path id="i" d="M.272 3.15c0 1.63 1.294 2.953 2.89 2.953 1.597 0 2.89-1.322 2.89-2.954 0-1.632-1.293-2.955-2.89-2.955C1.566.195.272 1.518.272 3.15z"/><path id="k" d="M.294 7.435H14.03C14.03 3.593 10.956.48 7.162.48 3.37.48.294 3.592.294 7.434z"/><path d="M.528 25.536h48V.708h-48v24.828zm16.334-12.414c0-4.247 3.432-7.69 7.666-7.69 4.235 0 7.667 3.443 7.667 7.69s-3.432 7.69-7.667 7.69c-4.234 0-7.666-3.443-7.666-7.69z" id="m"/></defs><g fill="none" fill-rule="evenodd"><g transform="translate(6 29)"><mask id="b" fill="#fff"><use xlink:href="#a"/></mask><path d="M-4.025-4.37h14.837v15.038H-4.025V-4.37z" fill="#274D57" mask="url(#b)"/></g><g transform="translate(2 35)"><mask id="d" fill="#fff"><use xlink:href="#c"/></mask><path d="M-4.003-4.086H18.79V12H-4.003V-4.086z" fill="#FFB74D" mask="url(#d)"/></g><g transform="translate(21 29)"><mask id="f" fill="#fff"><use xlink:href="#e"/></mask><path d="M-3.64-4.37h14.836v15.038H-3.64V-4.37z" fill="#274D57" mask="url(#f)"/></g><g transform="translate(17 35)"><mask id="h" fill="#fff"><use xlink:href="#g"/></mask><path d="M-3.62-4.086h22.794V12H-3.62V-4.086z" fill="#AED581" mask="url(#h)"/></g><g transform="translate(37 29)"><mask id="j" fill="#fff"><use xlink:href="#i"/></mask><path d="M-4.256-4.37H10.58v15.038H-4.255V-4.37z" fill="#274D57" mask="url(#j)"/></g><g transform="translate(33 35)"><mask id="l" fill="#fff"><use xlink:href="#k"/></mask><path d="M-4.234-4.086H18.56V12H-4.235V-4.086z" fill="#4DB6AC" mask="url(#l)"/></g><g><mask id="n" fill="#fff"><use xlink:href="#m"/></mask><path d="M-4-3.858h57.057v33.96H-4V-3.86z" fill="#B0BEC5" mask="url(#n)"/></g><path d="M22.986 18.17l5.032-5.048-5.032-5.048V18.17z" fill="#00B99B"/></g></svg>