<?xml version="1.0" encoding="UTF-8"?>
<svg width="30px" height="30px" viewBox="0 0 30 30" version="1.1" xmlns="http://www.w3.org/2000/svg" xmlns:xlink="http://www.w3.org/1999/xlink">
    <!-- Generator: sketchtool 52.6 (67491) - http://www.bohemiancoding.com/sketch -->
    <title>8486BACE-FE78-4D27-A6F1-F5C3FFC3AC2A</title>
    <desc>Created with sketchtool.</desc>
    <g id="Main-pages" stroke="none" stroke-width="1" fill="none" fill-rule="evenodd">
        <g id="Student--CourseGroup_Homepage" transform="translate(-685.000000, -345.000000)" fill="#e5e5e5">
            <g id="This-week" transform="translate(318.000000, 306.000000)">
                <g id="Calender" transform="translate(367.000000, 39.000000)">
                    <g id="Group">
                        <path d="M26.1702128,25.9659574 C26.1702128,26.3138298 25.8931915,26.5953191 25.5517021,26.5953191 L4.44829787,26.5953191 C4.10680851,26.5953191 3.82978723,26.3138298 3.82978723,25.9659574 L3.82978723,9.63638298 C3.82978723,9.28851064 4.10680851,9.00702128 4.44829787,9.00702128 L25.5517021,9.00702128 C25.8931915,9.00702128 26.1702128,9.28851064 26.1702128,9.63638298 L26.1702128,25.9659574 Z M26.9087234,2.87297872 L23.2270213,2.87297872 L23.2270213,0.629361702 C23.2270213,0.281489362 22.95,0 22.6085106,0 C22.2670213,0 21.99,0.281489362 21.99,0.629361702 L21.99,2.87297872 L8.0093617,2.87297872 L8.0093617,0.629361702 C8.0093617,0.281489362 7.73234043,0 7.39085106,0 C7.0493617,0 6.77234043,0.281489362 6.77234043,0.629361702 L6.77234043,2.87297872 L3.09,2.87297872 C1.38638298,2.87297872 0,4.27787234 0,6.00382979 L0,26.8691489 C0,28.5957447 1.38638298,30 3.09,30 L26.9087234,30 C28.613617,30 30,28.5957447 30,26.8691489 L30,6.00382979 C30,4.27787234 28.613617,2.87297872 26.9087234,2.87297872 L26.9087234,2.87297872 Z" id="Fill-1"></path>
                    </g>
                </g>
            </g>
        </g>
    </g>
</svg>