<svg xmlns="http://www.w3.org/2000/svg" xmlns:xlink="http://www.w3.org/1999/xlink" width="300" height="377" viewBox="0 0 300 377">
    <defs>
        <path id="b" d="M5 0h204.393a5 5 0 0 1 5 5v337.834H0V5a5 5 0 0 1 5-5z"/>
        <filter id="a" width="128.2%" height="117.7%" x="-14.1%" y="-6.5%" filterUnits="objectBoundingBox">
            <feMorphology in="SourceAlpha" operator="dilate" radius=".769" result="shadowSpreadOuter1"/>
            <feOffset dy="8" in="shadowSpreadOuter1" result="shadowOffsetOuter1"/>
            <feGaussianBlur in="shadowOffsetOuter1" result="shadowBlurOuter1" stdDeviation="8.5"/>
            <feComposite in="shadowBlurOuter1" in2="SourceAlpha" operator="out" result="shadowBlurOuter1"/>
            <feColorMatrix in="shadowBlurOuter1" values="0 0 0 0 0.226735433 0 0 0 0 0.437054197 0 0 0 0 0.687818878 0 0 0 0.0769927536 0"/>
        </filter>
        <ellipse id="d" cx="29.633" cy="29.897" rx="29.633" ry="29.897"/>
        <filter id="c" width="100%" height="100%" x="0%" y="0%" filterUnits="objectBoundingBox">
            <feOffset in="SourceAlpha" result="shadowOffsetOuter1"/>
            <feComposite in="shadowOffsetOuter1" in2="SourceAlpha" operator="out" result="shadowOffsetOuter1"/>
            <feColorMatrix in="shadowOffsetOuter1" values="0 0 0 0 0.866666667 0 0 0 0 0.866666667 0 0 0 0 0.866666667 0 0 0 1 0"/>
        </filter>
        <filter id="e" width="108.4%" height="108.4%" x="-4.2%" y="-4.2%" filterUnits="objectBoundingBox">
            <feOffset dy="-5" in="SourceAlpha" result="shadowOffsetInner1"/>
            <feComposite in="shadowOffsetInner1" in2="SourceAlpha" k2="-1" k3="1" operator="arithmetic" result="shadowInnerInner1"/>
            <feColorMatrix in="shadowInnerInner1" values="0 0 0 0 0.941176471 0 0 0 0 0.941176471 0 0 0 0 0.941176471 0 0 0 1 0"/>
        </filter>
        <rect id="g" width="34" height="1.009" x="7" y="8.071" rx=".504"/>
        <filter id="f" width="174.7%" height="2615.9%" x="-37.3%" y="-1059.7%" filterUnits="objectBoundingBox">
            <feMorphology in="SourceAlpha" operator="dilate" radius="2.692" result="shadowSpreadOuter1"/>
            <feOffset dy="2" in="shadowSpreadOuter1" result="shadowOffsetOuter1"/>
            <feGaussianBlur in="shadowOffsetOuter1" result="shadowBlurOuter1" stdDeviation="3"/>
            <feComposite in="shadowBlurOuter1" in2="SourceAlpha" operator="out" result="shadowBlurOuter1"/>
            <feColorMatrix in="shadowBlurOuter1" values="0 0 0 0 0 0 0 0 0 0 0 0 0 0 0 0 0 0 0.157424607 0"/>
        </filter>
        <path id="i" d="M13.207 8.063c0 4.454-2.956 8.064-6.603 8.064S0 12.517 0 8.063C0 3.61 2.957 0 6.604 0c3.647 0 6.603 3.61 6.603 8.063"/>
        <filter id="h" width="333%" height="290.8%" x="-116.5%" y="-83%" filterUnits="objectBoundingBox">
            <feMorphology in="SourceAlpha" operator="dilate" radius="5.383" result="shadowSpreadOuter1"/>
            <feOffset dy="2" in="shadowSpreadOuter1" result="shadowOffsetOuter1"/>
            <feGaussianBlur in="shadowOffsetOuter1" result="shadowBlurOuter1" stdDeviation="3"/>
            <feComposite in="shadowBlurOuter1" in2="SourceAlpha" operator="out" result="shadowBlurOuter1"/>
            <feColorMatrix in="shadowBlurOuter1" values="0 0 0 0 0 0 0 0 0 0 0 0 0 0 0 0 0 0 0.157424607 0"/>
        </filter>
    </defs>
    <g fill="none" fill-rule="evenodd">
        <g transform="translate(50 9)">
            <use fill="#000" filter="url(#a)" xlink:href="#b"/>
            <use fill="#FFF" stroke="#51BE7D" stroke-width="1.538" xlink:href="#b"/>
        </g>
        <path fill="#51BE7D" d="M77 32.205h161.244a5 5 0 0 1 5 5V350.61c0 .743-.602 1.346-1.345 1.346H73.346A1.346 1.346 0 0 1 72 350.61V37.205a5 5 0 0 1 5-5z"/>
        <g transform="translate(128 93.747)">
            <use fill="#000" filter="url(#c)" xlink:href="#d"/>
            <use fill="#FFF" xlink:href="#d"/>
            <use fill="#000" filter="url(#e)" xlink:href="#d"/>
            <ellipse cx="29.633" cy="29.897" stroke="#3C8C5C" stroke-linejoin="square" stroke-width="4" rx="27.633" ry="27.897"/>
            <rect width="21.259" height="13.185" x="19" y="29.258" stroke="#51BE7D" stroke-linecap="round" stroke-linejoin="round" stroke-width="4.615" rx="1.667"/>
            <path stroke="#51BE7D" stroke-linecap="round" stroke-linejoin="round" stroke-width="4.615" d="M24 28.948v-4.795c0-3.31 2.644-5.993 5.905-5.993 3.262 0 5.906 2.683 5.906 5.993v4.795"/>
        </g>
        <path fill="#AAB9CD" d="M299.704 353.62c0 .679-67.091 1.23-149.852 1.23C67.09 354.85 0 354.299 0 353.62c0-.68 67.091-1.23 149.852-1.23 82.761 0 149.852.55 149.852 1.23"/>
        <g>
            <path fill="#FFCC80" d="M51.247 138.189c-.81 3.466-3.277 25.736.758 38.876 3.86 12.564 13.93 39.46 13.93 39.46l10.043 2.842-12.056-45.927-5.598-45.306-7.077 10.055z"/>
            <path fill="#0F0F3E" d="M123.506 328.489l3.143 9.475 29.46-10.261-30.068 25.576h-9.957l-7.073-26.57z"/>
            <path fill="#F38C01" d="M48.745 142.37l3.603-17.151 15.418-.05-4.173 23.933z"/>
            <path fill="#66BB6A" d="M109.817 329.154l3.314 12.857 13.47-4.074-3.142-9.475z"/>
            <path fill="#0F0F3E" d="M43.315 327.37l-5.174 7.596 4.107 8.488 18.02 9.825-22.536.039-17.667-16.243 13.807-21.478z"/>
            <path fill="#66BB6A" d="M33.214 315.902l-6.872 11.304 11.8 7.76 5.173-7.597z"/>
            <path fill="#2B2B3B" d="M128.616 331.527l-22.783 6.615-22.308-97.183-8.767-37.351-15-28.143H95.48l2.62.183z"/>
            <path fill="#2B2B3B" d="M89.93 213.928l-6.742 27.03-4.166 16.698-35.383 75.64-19.45-13.399 29.96-68.403 1.935-45.773s-1.69-12.57 1.46-30.256h2.51l29.876 38.463z"/>
            <path fill="#121216" d="M83.318 240.26l-10.65-31.579 7.621 43.717z"/>
            <path fill="#FFCC80" d="M126.663 141.652l-.823-4.333s-.901-1.405-.533-3.353c.37-1.948 1.702-4.762 1.281-8.153-.293-2.362 1.905-1.355 2.636.005.731 1.36-.26 4.94 1.428 4.71 1.688-.228 5.224-2.714 6.128-7.233.12-.606 2.67-1.297 4.279 4.429.792 2.822.213 7.615-1.194 9.046 0 0-4.962 3.672-7.15 4.218-2.318.578-2.335-.245-6.052.664"/>
            <path fill="#FFC100" d="M57.379 182.643s-1.72-11.016-3.206-23.268c-1.61-13.269-3.523-20.33-1.825-29.743 3.701-20.523 37.415-23.933 54.497 8.312l-11.221 12.69 3.798 31.765"/>
            <path fill="#FFCC80" d="M80.924 115.041s-6.224 4.213-15.09 4.672c-6.067.314-3.833-3.29-3.833-3.29s3.449-1.867 9.46-2.28c5.056-.346 9.463.898 9.463.898"/>
            <path fill="#0B096F" d="M92.764 76.917s10.876 11.692-2.232 16.141"/>
            <path fill="#285FD7" d="M92.857 94.991l3.556 6.342-3.346.427z"/>
            <path fill="#FFCC80" d="M61.982 95.716c-1.208-2.73.755 12.486.755 12.486l-.109 8.32 14.726-1.076-.668-4.955s14.19-.118 17.012-1.856c0 0 1.142-13.604-1.76-22.937l-12.413-9.22-18.58 2.913 1.037 16.325z"/>
            <path stroke="#E84595" stroke-width="1.011" d="M75.244 103.922s-6.224-.8-9.017-5.545"/>
            <path fill="#0B096F" d="M61.777 103.606c-4.379.674-13.211-13.282-7.637-22.912 7.524-13 18.337-8.764 18.337-8.764s1.77-11.088 9.127-11.676c10.481-.837 13.386 14.81 13.386 14.81s1.839-8.506 5.019-7.829c4.61.982 6.31 26.267-18.07 18.431 0 0 1.543 7.772-4.08 8.382-2.423.263-3.75-2.943-3.75-2.943s-2.545 9.902-6.107 12.685c0 0-4.2-.496-6.225-.184"/>
            <path stroke="#0B096F" stroke-width="3.034" d="M56.699 68.287l2.99 7.763-2.26 1.316-5.464-4.596"/>
            <path fill="#0B096F" d="M90.859 95.338c.168 1.063.81 1.785 1.433 1.612.623-.174.99-1.178.822-2.241-.17-1.064-.811-1.786-1.434-1.612-.623.173-.99 1.177-.821 2.24"/>
            <path fill="#FFCC80" d="M66.163 97.705c2.343 5.224 10.316 5.991 10.316 5.991l-.464-2.712-1.692-9.9c-1.075-2.696-8-4.46-8.743 2.5-.174 1.614.07 2.974.583 4.121"/>
            <path stroke="#E84595" stroke-width="1.011" d="M73.351 99.254s-1.794-.062-1.684-1.922c.106-1.8 1.54-1.994 1.54-1.994s-.83-4.537-4.223-3.527"/>
            <path stroke="#0D1A88" stroke-width="1.011" d="M92.942 104.103s-1.7.11-2.183-1.198"/>
            <path stroke="#F38C01" stroke-width="2.022" d="M94.544 151.48l-2.925 2.975-9.847-9.668"/>
            <path fill="#EF3C86" d="M76.686 110.492l-7.184-.408 7.734 4.487z"/>
            <path fill="#49A2FF" d="M96.265 156.344s1.76 21.137-22.184 17.555l2.436-4.663c12.505 2.85 16.848-7.445 19.107-18.602l.641 5.71zM65.59 134.72s1.636-15.637 17.537-19.276l4.18 2.113c-9.392 1.681-14.866 8.339-17.968 14.2l-3.75 2.963zM49.757 133.58s-2.698-5.243 7.696-14.516l3.107-1.68c-3.802 3.828-8.063 9.17-7.256 15.79l-3.547.406z"/>
            <path fill="#49A2FF" d="M69.648 188.75H43.06c-4.913 0-8.933-4.059-8.933-9.018v-38.653c0-9.323 7.557-16.95 16.793-16.95h10.558c9.236 0 16.792 7.627 16.792 16.95v38.967c0 4.787-3.88 8.703-8.62 8.703"/>
            <path stroke="#0040C2" stroke-width="1.011" d="M55.016 124.128c9.584 0 17.425 8.461 17.425 18.802v17.294"/>
            <path fill="#285FD7" d="M59.383 188.75H42.281c-4.485 0-8.155-3.705-8.155-8.233v-40.29c0-8.854 7.177-16.099 15.95-16.099h1.202c8.772 0 15.948 7.245 15.948 16.1v40.603c0 4.355-3.53 7.918-7.843 7.918"/>
            <path fill="#49A2FF" d="M56.87 182.045H35.052c-1.967 0-3.56-1.609-3.56-3.594v-13.56c0-1.985 1.593-3.594 3.56-3.594h21.816c1.967 0 3.561 1.609 3.561 3.594v13.56c0 1.985-1.594 3.594-3.56 3.594"/>
            <path fill="#285FD7" d="M51.44 182.045H35.053c-1.966 0-3.56-1.609-3.56-3.594v-13.56c0-1.985 1.594-3.594 3.56-3.594H51.44c1.966 0 3.56 1.609 3.56 3.594v13.56c0 1.985-1.594 3.594-3.56 3.594M34.128 142.93v-.944c0-9.82 7.447-17.856 16.548-17.856.143 0 .283.004.427.007-9.378.257-16.975 8.613-16.975 18.793"/>
            <path fill="#49A2FF" d="M47.439 179.336h5.076v-3.31H47.44z"/>
            <path stroke="#0040C2" stroke-width="1.011" d="M31.492 166.639H60.43"/>
            <path fill="#49A2FF" d="M54.649 141.48l-4.672 5.513-4.672-5.513 4.672-5.513z"/>
            <path fill="#FFCC80" d="M134.888 137.4l-7.437-5.124-16.397 13.951-5.605-6.728-10.29 11.623s7.833 9.904 15.766 9.253c5.6-.459 23.963-22.976 23.963-22.976"/>
            <path fill="#EF3C86" d="M111.054 146.227l2.671 2.905-.273-4.945z"/>
        </g>
        <g>
            <g transform="matrix(-1 0 0 1 227 181.522)">
                <use fill="#000" filter="url(#f)" xlink:href="#g"/>
                <use fill="#FD8268" stroke="#FFF" stroke-width="5.383" xlink:href="#g"/>
            </g>
            <path stroke="#FFF" stroke-linecap="round" stroke-width="4.903" d="M219.416 189.565h-8.84"/>
            <g transform="matrix(-1 0 0 1 227 181.522)">
                <use fill="#000" filter="url(#h)" xlink:href="#i"/>
                <path fill="#51BE7D" stroke="#FFF" stroke-width="5.383" d="M15.899 8.063c0 5.835-4.03 10.755-9.295 10.755-5.266 0-9.296-4.92-9.296-10.755 0-5.834 4.03-10.755 9.296-10.755 5.265 0 9.295 4.92 9.295 10.755z"/>
            </g>
        </g>
    </g>
</svg>
