<svg xmlns="http://www.w3.org/2000/svg" xmlns:xlink="http://www.w3.org/1999/xlink" width="300" height="374" viewBox="0 0 300 374">
    <defs>
        <path id="b" d="M5 0h204.393a5 5 0 0 1 5 5v334.81H0V5a5 5 0 0 1 5-5z"/>
        <filter id="a" width="128.2%" height="117.8%" x="-14.1%" y="-6.6%" filterUnits="objectBoundingBox">
            <feMorphology in="SourceAlpha" operator="dilate" radius=".769" result="shadowSpreadOuter1"/>
            <feOffset dy="8" in="shadowSpreadOuter1" result="shadowOffsetOuter1"/>
            <feGaussianBlur in="shadowOffsetOuter1" result="shadowBlurOuter1" stdDeviation="8.5"/>
            <feComposite in="shadowBlurOuter1" in2="SourceAlpha" operator="out" result="shadowBlurOuter1"/>
            <feColorMatrix in="shadowBlurOuter1" values="0 0 0 0 0.226735433 0 0 0 0 0.437054197 0 0 0 0 0.687818878 0 0 0 0.0769927536 0"/>
        </filter>
        <circle id="d" cx="29.633" cy="29.633" r="29.633"/>
        <filter id="c" width="100%" height="100%" x="0%" y="0%" filterUnits="objectBoundingBox">
            <feOffset in="SourceAlpha" result="shadowOffsetOuter1"/>
            <feComposite in="shadowOffsetOuter1" in2="SourceAlpha" operator="out" result="shadowOffsetOuter1"/>
            <feColorMatrix in="shadowOffsetOuter1" values="0 0 0 0 0.866666667 0 0 0 0 0.866666667 0 0 0 0 0.866666667 0 0 0 1 0"/>
        </filter>
        <filter id="e" width="108.4%" height="108.4%" x="-4.2%" y="-4.2%" filterUnits="objectBoundingBox">
            <feOffset dy="-5" in="SourceAlpha" result="shadowOffsetInner1"/>
            <feComposite in="shadowOffsetInner1" in2="SourceAlpha" k2="-1" k3="1" operator="arithmetic" result="shadowInnerInner1"/>
            <feColorMatrix in="shadowInnerInner1" values="0 0 0 0 0.941176471 0 0 0 0 0.941176471 0 0 0 0 0.941176471 0 0 0 1 0"/>
        </filter>
        <rect id="g" width="34" height="1" x="7" y="8" rx=".5"/>
        <filter id="f" width="174.7%" height="2638.3%" x="-37.3%" y="-1069.2%" filterUnits="objectBoundingBox">
            <feMorphology in="SourceAlpha" operator="dilate" radius="2.692" result="shadowSpreadOuter1"/>
            <feOffset dy="2" in="shadowSpreadOuter1" result="shadowOffsetOuter1"/>
            <feGaussianBlur in="shadowOffsetOuter1" result="shadowBlurOuter1" stdDeviation="3"/>
            <feComposite in="shadowBlurOuter1" in2="SourceAlpha" operator="out" result="shadowBlurOuter1"/>
            <feColorMatrix in="shadowBlurOuter1" values="0 0 0 0 0 0 0 0 0 0 0 0 0 0 0 0 0 0 0.157424607 0"/>
        </filter>
        <path id="i" d="M13.207 7.992c0 4.414-2.956 7.993-6.603 7.993S0 12.406 0 7.992 2.957 0 6.604 0c3.647 0 6.603 3.578 6.603 7.992"/>
        <filter id="h" width="333%" height="292.5%" x="-116.5%" y="-83.7%" filterUnits="objectBoundingBox">
            <feMorphology in="SourceAlpha" operator="dilate" radius="5.383" result="shadowSpreadOuter1"/>
            <feOffset dy="2" in="shadowSpreadOuter1" result="shadowOffsetOuter1"/>
            <feGaussianBlur in="shadowOffsetOuter1" result="shadowBlurOuter1" stdDeviation="3"/>
            <feComposite in="shadowBlurOuter1" in2="SourceAlpha" operator="out" result="shadowBlurOuter1"/>
            <feColorMatrix in="shadowBlurOuter1" values="0 0 0 0 0 0 0 0 0 0 0 0 0 0 0 0 0 0 0.157424607 0"/>
        </filter>
    </defs>
    <g fill="none" fill-rule="evenodd">
        <g transform="translate(50 9)">
            <use fill="#000" filter="url(#a)" xlink:href="#b"/>
            <use fill="#FFF" stroke="#007EE5" stroke-width="1.538" xlink:href="#b"/>
        </g>
        <path fill="#007EE5" d="M77 32h161.244a5 5 0 0 1 5 5v310.586c0 .743-.602 1.346-1.345 1.346H73.346A1.346 1.346 0 0 1 72 347.586V37a5 5 0 0 1 5-5z"/>
        <g transform="translate(128 93)">
            <use fill="#000" filter="url(#c)" xlink:href="#d"/>
            <use fill="#FFF" xlink:href="#d"/>
            <use fill="#000" filter="url(#e)" xlink:href="#d"/>
            <circle cx="29.633" cy="29.633" r="27.633" stroke="#005499" stroke-linejoin="square" stroke-width="4"/>
            <rect width="21.259" height="13.068" x="19" y="29" stroke="#007EE5" stroke-linecap="round" stroke-linejoin="round" stroke-width="4.615" rx="1.667"/>
            <path stroke="#007EE5" stroke-linecap="round" stroke-linejoin="round" stroke-width="4.615" d="M24 28.692V23.94c0-3.28 2.644-5.94 5.905-5.94 3.262 0 5.906 2.66 5.906 5.94v4.752"/>
        </g>
        <path fill="#AAB9CD" d="M299.704 350.58c0 .673-67.091 1.22-149.852 1.22C67.09 351.8 0 351.252 0 350.58c0-.674 67.091-1.22 149.852-1.22 82.761 0 149.852.546 149.852 1.22"/>
        <g>
            <path fill="#FFCC80" d="M51.247 137.05c-.81 3.434-3.277 25.508.758 38.532 3.86 12.454 13.93 39.112 13.93 39.112l10.043 2.817-12.056-45.521-5.598-44.907-7.077 9.966z"/>
            <path fill="#0F0F3E" d="M123.506 325.67l3.143 9.392 29.46-10.17-30.068 25.35h-9.957l-7.073-26.335z"/>
            <path fill="#F38C01" d="M48.745 141.193l3.603-17 15.418-.048-4.173 23.72z"/>
            <path fill="#66BB6A" d="M109.817 326.33l3.314 12.743 13.47-4.037-3.142-9.392z"/>
            <path fill="#0F0F3E" d="M43.315 324.561l-5.174 7.53 4.107 8.413 18.02 9.739-22.536.038-17.667-16.1 13.807-21.289z"/>
            <path fill="#66BB6A" d="M33.214 313.195L26.342 324.4l11.8 7.692 5.173-7.53z"/>
            <path fill="#2B2B3B" d="M128.616 328.683l-22.783 6.556-22.308-96.326-8.767-37.022-15-27.895H95.48l2.62.182z"/>
            <path fill="#2B2B3B" d="M89.93 212.12l-6.742 26.793-4.166 16.55-35.383 74.973-19.45-13.281 29.96-67.8 1.935-45.37s-1.69-12.458 1.46-29.989h2.51l29.876 38.125z"/>
            <path fill="#121216" d="M83.318 238.221l-10.65-31.3 7.621 43.33z"/>
            <path fill="#FFCC80" d="M126.663 140.482l-.823-4.294s-.901-1.393-.533-3.324c.37-1.931 1.702-4.72 1.281-8.081-.293-2.342 1.905-1.344 2.636.005.731 1.348-.26 4.895 1.428 4.669 1.688-.227 5.224-2.69 6.128-7.17.12-.601 2.67-1.285 4.279 4.39.792 2.797.213 7.547-1.194 8.966 0 0-4.962 3.64-7.15 4.18-2.318.574-2.335-.242-6.052.66"/>
            <path fill="#FFC100" d="M57.379 181.111s-1.72-10.918-3.206-23.062c-1.61-13.152-3.523-20.151-1.825-29.481 3.701-20.342 37.415-23.722 54.497 8.239l-11.221 12.578 3.798 31.485"/>
            <path fill="#FFCC80" d="M80.924 114.106s-6.224 4.175-15.09 4.63c-6.067.312-3.833-3.26-3.833-3.26s3.449-1.85 9.46-2.26c5.056-.343 9.463.89 9.463.89"/>
            <path fill="#0B096F" d="M92.764 76.318s10.876 11.589-2.232 15.999"/>
            <path fill="#285FD7" d="M92.857 94.233l3.556 6.286-3.346.423z"/>
            <path fill="#FFCC80" d="M61.982 94.95c-1.208-2.706.755 12.377.755 12.377l-.109 8.247 14.726-1.067-.668-4.91s14.19-.118 17.012-1.84c0 0 1.142-13.484-1.76-22.735l-12.413-9.14-18.58 2.888 1.037 16.18z"/>
            <path stroke="#E84595" stroke-width="1.011" d="M75.244 103.084s-6.224-.793-9.017-5.495"/>
            <path fill="#0B096F" d="M61.777 102.772c-4.379.668-13.211-13.165-7.637-22.71 7.524-12.885 18.337-8.687 18.337-8.687s1.77-10.99 9.127-11.573c10.481-.83 13.386 14.68 13.386 14.68s1.839-8.432 5.019-7.76c4.61.972 6.31 26.035-18.07 18.268 0 0 1.543 7.703-4.08 8.308-2.423.26-3.75-2.917-3.75-2.917s-2.545 9.815-6.107 12.573c0 0-4.2-.492-6.225-.182"/>
            <path stroke="#0B096F" stroke-width="3.034" d="M56.699 67.764l2.99 7.695-2.26 1.304-5.464-4.556"/>
            <path fill="#0B096F" d="M90.859 94.576c.168 1.054.81 1.77 1.433 1.598.623-.173.99-1.167.822-2.221-.17-1.055-.811-1.77-1.434-1.598-.623.172-.99 1.167-.821 2.221"/>
            <path fill="#FFCC80" d="M66.163 96.923c2.343 5.178 10.316 5.938 10.316 5.938l-.464-2.688-1.692-9.813c-1.075-2.672-8-4.421-8.743 2.478-.174 1.6.07 2.948.583 4.085"/>
            <path stroke="#E84595" stroke-width="1.011" d="M73.351 98.458s-1.794-.062-1.684-1.905c.106-1.784 1.54-1.977 1.54-1.977s-.83-4.496-4.223-3.495"/>
            <path stroke="#0D1A88" stroke-width="1.011" d="M92.942 103.265s-1.7.109-2.183-1.189"/>
            <path stroke="#F38C01" stroke-width="2.022" d="M94.544 150.223l-2.925 2.949-9.847-9.583"/>
            <path fill="#EF3C86" d="M76.686 109.596l-7.184-.404 7.734 4.447z"/>
            <path fill="#49A2FF" d="M96.265 155.044s1.76 20.951-22.184 17.4l2.436-4.622c12.505 2.825 16.848-7.378 19.107-18.437l.641 5.66zM65.59 133.611s1.636-15.5 17.537-19.105l4.18 2.093c-9.392 1.667-14.866 8.266-17.968 14.075l-3.75 2.937zM49.757 132.481s-2.698-5.197 7.696-14.388l3.107-1.665c-3.802 3.794-8.063 9.09-7.256 15.65l-3.547.403z"/>
            <path fill="#49A2FF" d="M69.648 187.164H43.06c-4.913 0-8.933-4.022-8.933-8.938v-38.312c0-9.24 7.557-16.801 16.793-16.801h10.558c9.236 0 16.792 7.56 16.792 16.8v38.624c0 4.745-3.88 8.627-8.62 8.627"/>
            <path stroke="#0040C2" stroke-width="1.011" d="M55.016 123.113c9.584 0 17.425 8.386 17.425 18.636v17.142"/>
            <path fill="#285FD7" d="M59.383 187.164H42.281c-4.485 0-8.155-3.672-8.155-8.16V139.07c0-8.776 7.177-15.957 15.95-15.957h1.202c8.772 0 15.948 7.18 15.948 15.957v40.246c0 4.316-3.53 7.848-7.843 7.848"/>
            <path fill="#49A2FF" d="M56.87 180.52H35.052a3.562 3.562 0 0 1-3.56-3.564v-13.44a3.562 3.562 0 0 1 3.56-3.563h21.816a3.562 3.562 0 0 1 3.561 3.563v13.44a3.562 3.562 0 0 1-3.56 3.563"/>
            <path fill="#285FD7" d="M51.44 180.52H35.053a3.562 3.562 0 0 1-3.56-3.564v-13.44a3.562 3.562 0 0 1 3.56-3.563H51.44a3.562 3.562 0 0 1 3.56 3.563v13.44a3.562 3.562 0 0 1-3.56 3.563M34.128 141.748v-.935c0-9.734 7.447-17.699 16.548-17.699.143 0 .283.004.427.008-9.378.254-16.975 8.537-16.975 18.626"/>
            <path fill="#49A2FF" d="M47.439 177.833h5.076v-3.28H47.44z"/>
            <path stroke="#0040C2" stroke-width="1.011" d="M31.492 165.248H60.43"/>
            <path fill="#49A2FF" d="M54.649 140.312l-4.672 5.464-4.672-5.464 4.672-5.465z"/>
            <path fill="#FFCC80" d="M134.888 136.267l-7.437-5.078-16.397 13.828-5.605-6.67-10.29 11.521s7.833 9.817 15.766 9.172c5.6-.455 23.963-22.773 23.963-22.773"/>
            <path fill="#EF3C86" d="M111.054 145.017l2.671 2.88-.273-4.902z"/>
        </g>
        <g>
            <g transform="matrix(-1 0 0 1 227 180)">
                <use fill="#000" filter="url(#f)" xlink:href="#g"/>
                <use fill="#FD8268" stroke="#FFF" stroke-width="5.383" xlink:href="#g"/>
            </g>
            <path stroke="#FFF" stroke-linecap="round" stroke-width="4.903" d="M219.416 187.972h-8.84"/>
            <g transform="matrix(-1 0 0 1 227 180)">
                <use fill="#000" filter="url(#h)" xlink:href="#i"/>
                <path fill="#007EE5" stroke="#FFF" stroke-width="5.383" d="M15.899 7.992c0 5.8-4.036 10.684-9.295 10.684-5.26 0-9.296-4.885-9.296-10.684 0-5.799 4.037-10.684 9.296-10.684 5.26 0 9.295 4.885 9.295 10.684z"/>
            </g>
        </g>
    </g>
</svg>
