<svg xmlns="http://www.w3.org/2000/svg" width="100" height="97" viewBox="0 0 100 97">
    <g fill="none" fill-rule="evenodd">
        <ellipse cx="53.488" cy="50.331" fill="#F5F8FF" opacity=".327" rx="46.512" ry="46.358"/>
        <ellipse cx="46.512" cy="46.358" fill="#F5F8FF" rx="46.512" ry="46.358"/>
        <g fill-rule="nonzero">
            <path fill="#F9D99E" d="M18.485 78.06a.83.83 0 0 1-.822-.832V19.794h-5.44a.83.83 0 0 0-.823.832v55.629a40.78 40.78 0 0 0 7.743 8.137h45.454a.83.83 0 0 0 .823-.832v-5.5H18.485z"/>
            <path fill="#F9CFA1" d="M23.912 72.073a.83.83 0 0 1-.822-.831v-57.31h-5.071a.83.83 0 0 0-.822.832V77.7c0 .457.37.831.822.831h52.375a.83.83 0 0 0 .822-.831v-5.626H23.912z"/>
            <path fill="#E9F1FD" d="M76.643 71.713a.83.83 0 0 1-.822.832H23.446a.83.83 0 0 1-.822-.832V8.778a.83.83 0 0 1 .822-.831H75.82a.83.83 0 0 1 .822.831v62.935z"/>
            <path fill="#91E0E8" d="M39.43 31.633v4.862c2.657 0 4.81 2.177 4.81 4.862h4.809c0-5.37-4.307-9.724-9.618-9.724z" opacity=".448"/>
            <path fill="#F29EAA" d="M39.33 27.09v-8.453a.498.498 0 0 0-.493-.499h-2.99a.498.498 0 0 0-.493.5v8.452h3.977z"/>
            <path fill="#99DDC2" d="M45.763 27.09v-4.628a.498.498 0 0 0-.493-.499h-2.99a.498.498 0 0 0-.493.499v4.628h3.976z"/>
            <path fill="#C1E9F3" d="M52.196 27.09V15.478a.498.498 0 0 0-.493-.499h-2.99a.498.498 0 0 0-.493.499V27.09h3.976z"/>
            <g fill="#E2B89F">
                <path d="M70.184 16.393h-11.44a1.24 1.24 0 0 1-1.233-1.247 1.24 1.24 0 0 1 1.234-1.247h11.44a1.24 1.24 0 0 1 1.233 1.247 1.24 1.24 0 0 1-1.234 1.247zM70.184 20.633h-11.44a1.24 1.24 0 0 1-1.233-1.247 1.24 1.24 0 0 1 1.234-1.247h11.44a1.24 1.24 0 0 1 1.233 1.247 1.24 1.24 0 0 1-1.234 1.247zM70.184 24.873h-11.44a1.24 1.24 0 0 1-1.233-1.247 1.24 1.24 0 0 1 1.234-1.247h11.44a1.24 1.24 0 0 1 1.233 1.247 1.24 1.24 0 0 1-1.234 1.247zM70.184 29.113h-11.44a1.24 1.24 0 0 1-1.233-1.247 1.24 1.24 0 0 1 1.234-1.247h11.44a1.24 1.24 0 0 1 1.233 1.247 1.24 1.24 0 0 1-1.234 1.247z"/>
            </g>
            <g fill="#A5D9F6">
                <path d="M48.856 58.71H29.589a1.24 1.24 0 0 1-1.233-1.247 1.24 1.24 0 0 1 1.233-1.247h19.267a1.24 1.24 0 0 1 1.233 1.247 1.24 1.24 0 0 1-1.233 1.247zM48.856 62.95H29.589a1.24 1.24 0 0 1-1.233-1.247 1.24 1.24 0 0 1 1.233-1.247h19.267a1.24 1.24 0 0 1 1.233 1.247 1.24 1.24 0 0 1-1.233 1.247zM48.856 67.19H29.589a1.24 1.24 0 0 1-1.233-1.247 1.24 1.24 0 0 1 1.233-1.247h19.267a1.24 1.24 0 0 1 1.233 1.247 1.24 1.24 0 0 1-1.233 1.247z"/>
            </g>
            <g fill="#F29EAA">
                <path d="M70.184 36.512H52.632a1.24 1.24 0 0 1-1.233-1.247 1.24 1.24 0 0 1 1.233-1.247h17.552a1.24 1.24 0 0 1 1.234 1.247 1.24 1.24 0 0 1-1.234 1.247zM70.184 40.752H52.632a1.24 1.24 0 0 1-1.233-1.247 1.24 1.24 0 0 1 1.233-1.247h17.552a1.24 1.24 0 0 1 1.234 1.247 1.24 1.24 0 0 1-1.234 1.247zM70.184 44.992H52.632a1.24 1.24 0 0 1-1.233-1.247 1.24 1.24 0 0 1 1.233-1.247h17.552a1.24 1.24 0 0 1 1.234 1.247 1.24 1.24 0 0 1-1.234 1.247zM70.184 49.232H52.632a1.24 1.24 0 0 1-1.233-1.247 1.24 1.24 0 0 1 1.233-1.247h17.552a1.24 1.24 0 0 1 1.234 1.247 1.24 1.24 0 0 1-1.234 1.247zM27.374 43.823h4.809c0-2.685 2.153-4.862 4.809-4.862v-4.862c-5.312 0-9.618 4.353-9.618 9.724z"/>
            </g>
            <path fill="#FFAF10" d="M41.8 43.823c0 2.685-2.152 4.863-4.808 4.863-2.656 0-4.809-2.178-4.809-4.863h-4.809c0 5.371 4.306 9.725 9.618 9.725 5.311 0 9.618-4.354 9.618-9.725H41.8zM32.898 27.09V15.478a.498.498 0 0 0-.493-.499h-2.99a.498.498 0 0 0-.494.499V27.09h3.977z" opacity=".448"/>
            <path fill="#A5D9F6" d="M53.047 29.113H28.07a1.24 1.24 0 0 1-1.233-1.247 1.24 1.24 0 0 1 1.233-1.247h24.976a1.24 1.24 0 0 1 1.233 1.247 1.24 1.24 0 0 1-1.233 1.247z"/>
            <path fill="#F29EAA" d="M64.347 61.109c0-.275.22-.499.493-.499h2.23v-5.58a.83.83 0 0 0-.822-.832h-7.42a.83.83 0 0 0-.823.832v7.502c0 .458.37.832.823.832h5.519v-2.255z"/>
            <path fill="#99DDC2" d="M70.184 65.681a.83.83 0 0 1-.822.832H64.84a.83.83 0 0 1-.822-.832V61.11a.83.83 0 0 1 .822-.831h4.522a.83.83 0 0 1 .822.83v4.573z"/>
        </g>
    </g>
</svg>
