<svg xmlns="http://www.w3.org/2000/svg" width="100" height="97" viewBox="0 0 100 97">
    <g fill="none" fill-rule="evenodd">
        <g fill="#F5F8FF">
            <circle cx="46.512" cy="46.512" r="46.512"/>
            <circle cx="53.488" cy="50.498" r="46.512" opacity=".327"/>
        </g>
        <g fill-rule="nonzero">
            <path fill="#AEDBFF" d="M67.44 48.4c6.979-2.362 10.79-10 8.51-17.06-2.279-7.06-9.784-10.867-16.763-8.505L67.439 48.4z"/>
            <path fill="#AEDBFF" d="M67.44 48.4c6.979-2.362 10.79-10 8.51-17.06l-12.686 4.127L67.44 48.4z"/>
            <path fill="#FFD5D5" d="M47.777 93.355c-.885.001-1.739-.428-2.264-1.185L26.307 65.026a2.762 2.762 0 0 1 .693-3.84c1.25-.87 14.005-4.489 15.325-5.247a2.753 2.753 0 0 1 3.761 1.024l17.239 30.14a2.762 2.762 0 0 1-1.51 3.985L48.659 93.21a2.74 2.74 0 0 1-.882.145z"/>
            <path fill="#FF8989" d="M54.817 92.027l6.998-.939a2.762 2.762 0 0 0 1.51-3.986L46.086 56.963a2.753 2.753 0 0 0-3.761-1.024c-.618.354-3.734 1.334-7.006 2.366l19.498 33.722z"/>
            <path fill="#4A92CD" d="M71.494 63.68c-.086 0-.172-.005-.258-.013l-27.798-2.608a2.755 2.755 0 0 1-2.365-1.898l-9.684-29.998a2.76 2.76 0 0 1 .762-2.885L52.955 7.221a2.753 2.753 0 0 1 4.483 1.186l16.678 51.664c.285.883.107 1.85-.472 2.574a2.755 2.755 0 0 1-2.15 1.034z"/>
            <path fill="#FAE9BE" d="M32.065 26.375L9.746 33.636c-4.88 1.652-7.555 7.006-5.964 11.935l5.734 17.763a8.817 8.817 0 0 0 4.448 5.21 8.741 8.741 0 0 0 6.775.473l22.699-7.958-11.373-34.684z"/>
            <path fill="#FCCA80" d="M9.516 63.334a8.817 8.817 0 0 0 4.448 5.21 8.741 8.741 0 0 0 6.775.473l22.699-7.958-5.672-17.297L6.484 53.94l3.032 9.395z"/>
            <g fill="#AEDBFF">
                <path d="M52.365 40.272a2.755 2.755 0 0 0-3.47-1.777 2.76 2.76 0 0 0-1.774 3.474l6.469 20.043 5.968.56-7.193-22.3zM86.555 30.615a2.76 2.76 0 0 1-.826-5.383l7.67-2.506a2.755 2.755 0 0 1 3.474 1.766 2.76 2.76 0 0 1-1.764 3.48l-7.67 2.507c-.294.096-.592.14-.884.136zM88.93 57.934a2.743 2.743 0 0 1-1.24-.311l-7.131-3.713a2.76 2.76 0 0 1-1.174-3.721 2.754 2.754 0 0 1 3.716-1.176l7.131 3.713a2.76 2.76 0 0 1-1.302 5.208zM68.818 14.439a2.761 2.761 0 0 1-2.422-4.018l3.715-7.259a2.754 2.754 0 0 1 3.71-1.196 2.762 2.762 0 0 1 1.195 3.714l-3.715 7.258a2.754 2.754 0 0 1-2.483 1.5z"/>
            </g>
        </g>
    </g>
</svg>
