<svg xmlns="http://www.w3.org/2000/svg" xmlns:xlink="http://www.w3.org/1999/xlink" width="100" height="97" viewBox="0 0 100 97">
    <defs>
        <circle id="a" cx="46.512" cy="46.512" r="46.512"/>
    </defs>
    <g fill="none" fill-rule="evenodd">
        <circle cx="53.488" cy="50.498" r="46.512" fill="#F5F8FF" opacity=".327"/>
        <mask id="b" fill="#fff">
            <use xlink:href="#a"/>
        </mask>
        <use fill="#F5F8FF" xlink:href="#a"/>
        <g fill-rule="nonzero" mask="url(#b)">
            <path fill="#E09380" d="M52.471 60.728a2.498 2.498 0 0 0-2.469 2.497v7.354a.005.005 0 0 1-.005.005l-.717.05c-3.313.23-5.976 2.77-6.457 5.972l-1.567.014c.457-3.784 3.405-6.862 7.19-7.453a.005.005 0 0 0 .004-.005v-6.024c0-.06.001-.12.004-.18.08-1.51 1.426-3.35 2.94-3.36.024 0 .012-10.165.004-13.347a1.887 1.887 0 0 0-1.888-1.882h-.005a1.888 1.888 0 0 0-1.888 1.888v14.152h-1.281V44.903a1.888 1.888 0 0 0-1.888-1.888h-.136a1.888 1.888 0 0 0-1.888 1.888v16.59h-1.281V47.276a1.888 1.888 0 0 0-1.888-1.888h-.136a1.888 1.888 0 0 0-1.888 1.888v15.573H35.95v-11.14a1.888 1.888 0 1 0-3.775 0v25.296h.03a7.085 7.085 0 0 0 3.587 5.547.006.006 0 0 1 .003.004v13.925a50.36 50.36 0 0 0 15.599-.186V82.88c0-.002.001-.004.003-.005a6.077 6.077 0 0 0 3.602-5.543V63.225a2.498 2.498 0 0 0-2.527-2.497z"/>
            <g fill="#DA8A76" opacity=".438">
                <path d="M48.445 69.167a.005.005 0 0 0 .005-.005v-6.024c0-.06.001-.12.004-.18.08-1.51 1.426-3.35 2.94-3.36.024 0 .012-10.165.004-13.347a1.887 1.887 0 0 0-1.888-1.882h-.005a1.888 1.888 0 0 0-1.888 1.888V60.41h-1.281V44.903a1.888 1.888 0 0 0-1.888-1.888h-.136a1.888 1.888 0 0 0-1.888 1.888v16.59h-.06v11.84a8.6 8.6 0 0 1 6.081-4.166z"/>
                <path d="M52.471 60.728a2.498 2.498 0 0 0-2.469 2.497v7.354a.005.005 0 0 1-.005.005l-.717.05c-3.313.23-5.976 2.77-6.457 5.972l-.458.004v20.384a50.32 50.32 0 0 0 9.028-.7V82.88c0-.002.001-.004.003-.005a6.077 6.077 0 0 0 3.602-5.543V63.225a2.498 2.498 0 0 0-2.527-2.497z"/>
            </g>
            <path fill="#FFDECF" d="M75.434 36.25a2.498 2.498 0 0 0-2.469 2.498v7.354a.005.005 0 0 1-.005.005l-.717.05c-3.313.23-5.976 2.77-6.457 5.972l-1.567.014c.457-3.785 3.405-6.862 7.189-7.453a.005.005 0 0 0 .005-.005V38.66c0-.06.001-.12.004-.18.08-1.51 1.426-3.35 2.94-3.36.023 0 .012-10.166.004-13.347a1.887 1.887 0 0 0-1.888-1.882h-.005a1.888 1.888 0 0 0-1.888 1.888v14.152H69.3V20.425a1.888 1.888 0 0 0-1.888-1.887h-.136a1.888 1.888 0 0 0-1.888 1.887v16.591h-1.281V22.8a1.888 1.888 0 0 0-1.888-1.888h-.136a1.888 1.888 0 0 0-1.888 1.888v15.573h-1.281v-11.14a1.888 1.888 0 1 0-3.776 0v25.296h.03a7.085 7.085 0 0 0 3.587 5.546.006.006 0 0 1 .003.005l.001 36.384a49.89 49.89 0 0 0 15.598-8.52v-27.54c0-.003.001-.005.003-.006a6.076 6.076 0 0 0 3.602-5.543V38.748a2.498 2.498 0 0 0-2.527-2.498z"/>
            <g fill="#FFDECF">
                <path d="M71.408 44.69a.005.005 0 0 0 .004-.005V38.66c0-.06.002-.12.005-.18.08-1.51 1.426-3.35 2.939-3.36.024 0 .013-10.166.005-13.347a1.887 1.887 0 0 0-1.888-1.882h-.005a1.888 1.888 0 0 0-1.888 1.888v14.152h-1.282V20.425a1.888 1.888 0 0 0-1.887-1.887h-.136a1.888 1.888 0 0 0-1.888 1.887v16.591h-.079V48.89c1.27-2.196 3.485-3.792 6.1-4.2z"/>
                <path d="M75.434 36.25a2.498 2.498 0 0 0-2.469 2.498v7.354a.005.005 0 0 1-.005.005l-.717.05c-3.313.23-5.976 2.77-6.457 5.972l-.478.004v39.62a50.054 50.054 0 0 0 9.048-5.809V58.403c0-.002.001-.004.003-.005a6.077 6.077 0 0 0 3.602-5.544V38.748a2.498 2.498 0 0 0-2.527-2.498z"/>
            </g>
            <path fill="#FFBEAA" d="M38.794 32.866a2.999 2.999 0 0 0-2.964 2.999v8.83a.007.007 0 0 1-.006.006l-.861.06c-3.978.276-7.175 3.325-7.753 7.17l-1.88.016c.548-4.543 4.087-8.238 8.63-8.948a.006.006 0 0 0 .006-.006V35.76c0-.073.002-.144.005-.216.096-1.814 1.712-4.023 3.529-4.034.03 0 .015-12.205.006-16.025a2.265 2.265 0 0 0-2.267-2.26h-.006a2.267 2.267 0 0 0-2.267 2.267v16.99h-1.538V13.868A2.267 2.267 0 0 0 29.16 11.6h-.163a2.267 2.267 0 0 0-2.266 2.267v19.919h-1.539v-17.07a2.267 2.267 0 0 0-2.267-2.267h-.162a2.267 2.267 0 0 0-2.267 2.267v18.697h-1.539V22.04a2.267 2.267 0 1 0-4.533 0v30.37h.035a8.506 8.506 0 0 0 4.308 6.659.006.006 0 0 1 .003.005v31.67A49.671 49.671 0 0 0 37.5 96.698V59.463c0-.003.002-.005.004-.006 2.546-1.138 4.325-3.692 4.325-6.655V35.865a2.999 2.999 0 0 0-3.034-2.999z"/>
            <g fill="#FDB49D" opacity=".432">
                <path d="M33.96 42.999a.006.006 0 0 0 .006-.006V35.76c0-.073.002-.144.005-.216.096-1.814 1.712-4.023 3.529-4.034.03 0 .015-12.205.006-16.025a2.265 2.265 0 0 0-2.267-2.26h-.006a2.267 2.267 0 0 0-2.267 2.267v16.99h-1.538V13.868A2.267 2.267 0 0 0 29.16 11.6h-.163a2.267 2.267 0 0 0-2.266 2.267v19.919h-.016v14.122c1.537-2.567 4.158-4.427 7.244-4.909z"/>
                <path d="M38.794 32.866a2.999 2.999 0 0 0-2.964 2.999v8.83a.007.007 0 0 1-.006.006l-.861.06c-3.978.276-7.175 3.325-7.753 7.17l-.494.004v42.348a49.717 49.717 0 0 0 10.783 2.415V59.463c0-.002.002-.005.005-.006 2.545-1.138 4.324-3.692 4.324-6.655V35.865a2.999 2.999 0 0 0-3.034-2.999z"/>
            </g>
            <path fill="#DCE1EB" d="M33.52 96.099c3.07.589 6.238.901 9.48.901 3.983 0 7.857-.468 11.571-1.349V84.822l-21.05 1.056v10.22z"/>
            <path fill="#CDD2E1" d="M42.365 85.434v11.558c.211.003.423.008.635.008 3.983 0 7.857-.468 11.571-1.349V84.822l-12.206.612z"/>
            <path fill="#00C8C8" d="M15.35 88.662a49.728 49.728 0 0 0 25.553 8.291V66.015H15.35v22.647z"/>
            <path fill="#00B5B0" d="M40.903 66.015H26.716v28.269a49.84 49.84 0 0 0 14.187 2.67V66.014z"/>
            <path fill="#00C8C8" d="M56.806 95.068a49.905 49.905 0 0 0 19.486-10.767V61.328H56.806v33.74z"/>
            <path fill="#00B5B0" d="M76.292 61.328H65.308v30.424a50.114 50.114 0 0 0 10.984-7.45V61.327z"/>
        </g>
    </g>
</svg>
