<svg xmlns="http://www.w3.org/2000/svg" xmlns:xlink="http://www.w3.org/1999/xlink" width="100" height="102" viewBox="0 0 100 102">
    <defs>
        <ellipse id="a" cx="46.217" cy="47.257" rx="46.217" ry="45.257"/>
    </defs>
    <g fill="none" fill-rule="evenodd">
        <ellipse cx="53.149" cy="56.136" fill="#F5F8FF" opacity=".327" rx="46.217" ry="45.257"/>
        <g transform="translate(0 5)">
            <mask id="b" fill="#fff">
                <use xlink:href="#a"/>
            </mask>
            <use fill="#F5F8FF" xlink:href="#a"/>
            <path fill="#FFF2B4" fill-rule="nonzero" d="M84.882 14.431v61.254c-9.166 9.855-22.762 16.1-37.941 16.1-15.18 0-28.776-6.245-37.941-16.1V14.43c0-3.118 2.74-5.646 6.119-5.646h63.643c3.38 0 6.12 2.528 6.12 5.646z" mask="url(#b)"/>
            <path fill="#DF3D9B" fill-rule="nonzero" d="M86.646 72.455A50.174 50.174 0 0 1 74.66 83.653H54.964V72.455h31.682z" mask="url(#b)"/>
            <path fill="#FD73C4" fill-rule="nonzero" d="M84.1 75.51H54.965V61.256H93.14A49.915 49.915 0 0 1 84.1 75.51z" mask="url(#b)"/>
            <path fill="#FFF2B4" fill-rule="nonzero" d="M84.882 3.265V38.69C75.716 44.39 62.12 48 46.94 48 31.76 48 18.165 44.388 9 38.69V3.264C9 1.462 11.74 0 15.119 0h63.643c3.38 0 6.12 1.462 6.12 3.265z"/>
        </g>
        <path fill="#FFD98F" fill-rule="nonzero" d="M22 1.909v10.182C22 13.145 20.657 14 19 14s-3-.855-3-1.909V1.909C16 .855 17.343 0 19 0s3 .855 3 1.909zM33 0c-1.657 0-3 .855-3 1.909v10.182C30 13.145 31.343 14 33 14s3-.855 3-1.909V1.909C36 .855 34.657 0 33 0zm14 0c-1.657 0-3 .855-3 1.909v10.182C44 13.145 45.343 14 47 14s3-.855 3-1.909V1.909C50 .855 48.657 0 47 0zm14 0c-1.657 0-3 .855-3 1.909v10.182C58 13.145 59.343 14 61 14s3-.855 3-1.909V1.909C64 .855 62.657 0 61 0zm14 0c-1.657 0-3 .855-3 1.909v10.182C72 13.145 73.343 14 75 14s3-.855 3-1.909V1.909C78 .855 76.657 0 75 0z"/>
        <path fill="#FD92D2" fill-rule="nonzero" d="M21.86 70.33a4.076 4.076 0 0 1 4.08-4.073h32.638v22.396H25.94a4.076 4.076 0 0 1-4.08-4.072V70.33z"/>
        <path fill="#FDADE0" fill-rule="nonzero" d="M21.86 76.437V70.33a4.076 4.076 0 0 1 4.08-4.073h32.638V80.51H25.94a4.076 4.076 0 0 1-4.08-4.072z"/>
        <path fill="#E659A9" fill-rule="nonzero" d="M69.797 74.401H33.079a3.057 3.057 0 0 1-3.06-3.054v-4.072a3.057 3.057 0 0 1 3.06-3.053h36.718c1.69 0 3.06 1.367 3.06 3.053v4.072a3.057 3.057 0 0 1-3.06 3.054z"/>
        <path fill="#FFF" fill-rule="nonzero" d="M53.911 52.006v4.072c0 .562-.457 1.018-1.02 1.018H28.414c-.564 0-1.02-.456-1.02-1.018v-4.072c0-.563.456-1.018 1.02-1.018H52.89c.563 0 1.02.455 1.02 1.018zm11.22-13.234H28.413a1.02 1.02 0 0 0-1.02 1.019v4.071a1.02 1.02 0 0 0 1.02 1.018H65.13c.564 0 1.02-.456 1.02-1.018v-4.071c0-.563-.456-1.019-1.02-1.019z"/>
        <path fill="#FFF" fill-rule="nonzero" d="M65.13 32.665H28.414a1.02 1.02 0 0 1-1.02-1.018v-4.072a1.02 1.02 0 0 1 1.02-1.018H65.13c.564 0 1.02.456 1.02 1.018v4.072c0 .562-.456 1.018-1.02 1.018zM47.792 44.88v-6.108H28.414a1.02 1.02 0 0 0-1.02 1.019v4.071a1.02 1.02 0 0 0 1.02 1.018h19.378z"/>
    </g>
</svg>
