<svg xmlns="http://www.w3.org/2000/svg" xmlns:xlink="http://www.w3.org/1999/xlink" width="100" height="97" viewBox="0 0 100 97">
    <defs>
        <ellipse id="a" cx="46.512" cy="46.358" rx="46.512" ry="46.358"/>
    </defs>
    <g fill="none" fill-rule="evenodd">
        <g>
            <ellipse cx="53.488" cy="50.331" fill="#F5F8FF" opacity=".327" rx="46.512" ry="46.358"/>
            <mask id="b" fill="#fff">
                <use xlink:href="#a"/>
            </mask>
            <use fill="#F5F8FF" xlink:href="#a"/>
            <g mask="url(#b)">
                <path d="M16.486 33.408h53.303v43.046H16.486z"/>
                <g fill-rule="nonzero">
                    <path fill="#ECEBED" d="M15.023 82.823h53.372a43.25 43.25 0 0 0 5.516-5.215V27.635H4.357a42.847 42.847 0 0 0-5.695 21.411c0 13.694 6.395 25.893 16.36 33.777z" opacity=".543"/>
                    <path fill="#E1DFE6" d="M10.969 77.586c-.422 0-.8.18-1.068.464a43.234 43.234 0 0 0 10.682 8.508h42.25a43.235 43.235 0 0 0 11.097-8.972H10.97z"/>
                    <path fill="#E1DFE6" d="M26.14 34.955h-5.433c-.593 0-1.073.48-1.073 1.072v3.978c0 .592.48 1.073 1.073 1.073h5.433c.593 0 1.074-.48 1.074-1.073v-3.978c0-.592-.481-1.072-1.074-1.072z" opacity=".543"/>
                    <path fill="#FA9EA2" d="M73.911 28.156V17.028a3.543 3.543 0 0 0-3.543-3.543l-57.136-.862c-5.522 3.774-6.67 9.361-9.934 15.231l70.613.302z"/>
                    <path fill="#EF6C6E" d="M25 13.011v3.037c0 1.341 1.105 2.427 2.467 2.427h16.066c1.362 0 2.68-1.086 2.68-2.427.124-1.365.124-2.377 0-3.037-.004-.015-.266-.015-.789 0H25z"/>
                    <path fill="#FAE8AD" d="M54.776 20.77a2.49 2.49 0 0 1-2.49-2.49V8.554a2.49 2.49 0 1 1 4.98 0v9.726a2.49 2.49 0 0 1-2.49 2.49zM17.49 20.77A2.49 2.49 0 0 1 15 18.28V8.554a2.49 2.49 0 1 1 4.98 0v9.726a2.49 2.49 0 0 1-2.49 2.49zM64.736 20.77a2.49 2.49 0 0 1-2.49-2.49V8.554a2.49 2.49 0 1 1 4.98 0v9.726a2.49 2.49 0 0 1-2.49 2.49z" opacity=".543"/>
                    <path fill="#E1DFE6" d="M39.004 34.955H33.57c-.593 0-1.073.48-1.073 1.072v3.978c0 .592.48 1.073 1.073 1.073h5.434c.592 0 1.072-.48 1.072-1.073v-3.978c0-.592-.48-1.072-1.072-1.072zM51.867 34.955h-5.434c-.592 0-1.072.48-1.072 1.072v3.978c0 .592.48 1.073 1.072 1.073h5.434c.592 0 1.072-.48 1.072-1.073v-3.978c0-.592-.48-1.072-1.072-1.072zM64.73 34.955h-5.434c-.592 0-1.073.48-1.073 1.072v3.978c0 .592.48 1.073 1.073 1.073h5.433c.593 0 1.073-.48 1.073-1.073v-3.978c0-.592-.48-1.072-1.073-1.072zM26.14 45.162h-5.433c-.593 0-1.073.48-1.073 1.072v3.979c0 .592.48 1.073 1.073 1.073h5.433c.593 0 1.074-.48 1.074-1.073v-3.979c0-.591-.481-1.072-1.074-1.072zM39.004 45.162H33.57c-.593 0-1.073.48-1.073 1.072v3.979c0 .592.48 1.073 1.073 1.073h5.434c.592 0 1.072-.48 1.072-1.073v-3.979c0-.591-.48-1.072-1.072-1.072zM51.867 45.162h-5.434c-.592 0-1.072.48-1.072 1.072v3.979c0 .592.48 1.073 1.072 1.073h5.434c.592 0 1.072-.48 1.072-1.073v-3.979c0-.591-.48-1.072-1.072-1.072zM64.73 45.162h-5.434c-.592 0-1.073.48-1.073 1.072v3.979c0 .592.48 1.073 1.073 1.073h5.433c.593 0 1.073-.48 1.073-1.073v-3.979c0-.591-.48-1.072-1.073-1.072zM13.277 65.577H7.844c-.592 0-1.072.48-1.072 1.073v3.978c0 .592.48 1.073 1.072 1.073h5.433c.593 0 1.073-.48 1.073-1.073V66.65c0-.593-.48-1.073-1.073-1.073zM26.14 65.577h-5.433c-.593 0-1.073.48-1.073 1.073v3.978c0 .592.48 1.073 1.073 1.073h5.433c.593 0 1.074-.48 1.074-1.073V66.65c0-.593-.481-1.073-1.074-1.073zM39.004 65.577H33.57c-.593 0-1.073.48-1.073 1.073v3.978c0 .592.48 1.073 1.073 1.073h5.434c.592 0 1.072-.48 1.072-1.073V66.65c0-.593-.48-1.073-1.072-1.073zM51.867 65.577h-5.434c-.592 0-1.072.48-1.072 1.073v3.978c0 .592.48 1.073 1.072 1.073h5.434c.592 0 1.072-.48 1.072-1.073V66.65c0-.593-.48-1.073-1.072-1.073zM13.277 55.37H7.844c-.592 0-1.072.48-1.072 1.072v3.978c0 .593.48 1.073 1.072 1.073h5.433c.593 0 1.073-.48 1.073-1.073v-3.978c0-.592-.48-1.072-1.073-1.072z" opacity=".543"/>
                    <path fill="#D4D1DA" d="M26.14 55.37h-5.433c-.593 0-1.073.48-1.073 1.072v3.978c0 .593.48 1.073 1.073 1.073h5.433c.593 0 1.074-.48 1.074-1.073v-3.978c0-.592-.481-1.072-1.074-1.072z" opacity=".543"/>
                    <path fill="#E1DFE6" d="M39.004 55.37H33.57c-.593 0-1.073.48-1.073 1.072v3.978c0 .593.48 1.073 1.073 1.073h5.434c.592 0 1.072-.48 1.072-1.073v-3.978c0-.592-.48-1.072-1.072-1.072zM51.867 55.37h-5.434c-.592 0-1.072.48-1.072 1.072v3.978c0 .593.48 1.073 1.072 1.073h5.434c.592 0 1.072-.48 1.072-1.073v-3.978c0-.592-.48-1.072-1.072-1.072zM13.277 45.162H7.844c-.592 0-1.072.48-1.072 1.072v3.979c0 .592.48 1.073 1.072 1.073h5.433c.593 0 1.073-.48 1.073-1.073v-3.979c0-.591-.48-1.072-1.073-1.072z" opacity=".543"/>
                    <path fill="#BCB7C6" d="M54.806 76.128h1.233a1.383 1.383 0 0 0 0-2.766h-1.233c-.049.454-.076.915-.076 1.382 0 .468.027.93.076 1.384z" opacity=".543"/>
                </g>
            </g>
        </g>
        <path fill="#FAD3A4" fill-rule="nonzero" d="M82.435 66.102c-4.773-8.265-15.341-11.096-23.606-6.324-8.265 4.772-11.097 15.34-6.325 23.606 4.772 8.265 15.34 11.096 23.606 6.324 8.265-4.772 11.097-15.34 6.325-23.606z"/>
        <path fill="#F2E0CC" fill-rule="nonzero" d="M78.501 68.374c-3.518-6.093-11.308-8.18-17.401-4.663-6.092 3.518-8.18 11.309-4.663 17.401 3.518 6.093 11.31 8.18 17.402 4.663 6.093-3.518 8.18-11.308 4.662-17.401z"/>
        <path fill="#7DA8FF" fill-rule="nonzero" d="M67.471 76.128c-.764 0-1.383-.62-1.383-1.384v-7.403a1.383 1.383 0 1 1 2.766 0v7.403c0 .764-.62 1.384-1.383 1.384z"/>
        <path fill="#EC8A81" fill-rule="nonzero" d="M62.622 76.128a1.383 1.383 0 0 1 0-2.766h4.849a1.383 1.383 0 1 1 0 2.766h-4.85z"/>
        <path fill="#EC8A81" fill-rule="nonzero" d="M65.046 74.744c0-.763.62-1.382 1.383-1.382h-3.807a1.383 1.383 0 1 0 0 2.766h3.807c-.764 0-1.383-.62-1.383-1.384z"/>
    </g>
</svg>
