<svg xmlns="http://www.w3.org/2000/svg" width="100" height="95" viewBox="0 0 100 95">
    <g fill="none" fill-rule="evenodd">
        <ellipse cx="53.488" cy="49.351" fill="#F5F8FF" opacity=".327" rx="46.512" ry="45.455"/>
        <ellipse cx="46.512" cy="45.455" fill="#F5F8FF" rx="46.512" ry="45.455"/>
        <g fill-rule="nonzero">
            <path fill="#FFF" d="M63.317 0H12.625v57.022c0 18.715 15.171 33.887 33.887 33.887 18.715 0 33.887-15.172 33.887-33.887V16.834L63.317 0z"/>
            <path fill="#F5F8FF" d="M80.399 16.834L63.35 0H46.512v90.91c18.715 0 33.887-15.173 33.887-33.888V16.834z"/>
            <path fill="#D0D6E5" d="M63.123 16.883h16.943L63.123 0z"/>
            <path fill="#F56533" d="M65.78 20.51h-5.598v-5.575h-6.41v5.575h-5.6v6.383h5.6v5.575h6.41v-5.575h5.599z"/>
            <path fill="#DCE1EB" d="M20.266 58.766h51.827v6.17H20.266z"/>
            <path fill="#D0D6E5" d="M46.18 58.766h25.913v6.17H46.179z"/>
            <path fill="#DCE1EB" d="M20.266 70.455h51.827v6.168H20.266z"/>
            <path fill="#D0D6E5" d="M46.18 70.455h25.913v6.168H46.179z"/>
            <path fill="#FD9C71" d="M45.748 51.948h7.408l-12.06-34.09h-9.102l-12.06 34.09h7.408l3.05-8.622h12.306l3.05 8.622zm-12.89-15.591l3.687-10.423 3.687 10.423h-7.374z"/>
            <path fill="#F56533" d="M46.512 33.117v18.831h6.644z"/>
        </g>
    </g>
</svg>
