<svg xmlns="http://www.w3.org/2000/svg" width="101" height="97" viewBox="0 0 101 97">
    <g fill="none" fill-rule="evenodd">
        <ellipse cx="53.673" cy="50" fill="#F5F8FF" opacity=".327" rx="46.672" ry="46.053"/>
        <ellipse cx="46.672" cy="46.053" fill="#F5F8FF" rx="46.672" ry="46.053"/>
        <g fill-rule="nonzero">
            <path fill="#D63D24" d="M74.629 52.438h-55.43c-4.278 0-7.746-3.387-7.746-7.564h70.922c0 4.177-3.468 7.564-7.746 7.564z"/>
            <path fill="#BCEBF5" d="M72.907 70.086H20.92c-1.425 0-2.581-1.128-2.581-2.521v-57.15c0-1.391 1.156-2.52 2.581-2.52h51.987c1.426 0 2.582 1.129 2.582 2.52v57.15c0 1.393-1.156 2.521-2.582 2.521z"/>
            <path fill="#B5E9F2" d="M72.907 70.086H24.364c-1.426 0-2.582-1.128-2.582-2.521v-57.15c0-1.391 1.156-2.52 2.582-2.52h48.543c1.426 0 2.582 1.129 2.582 2.52v57.15c0 1.393-1.156 2.521-2.582 2.521z"/>
            <path fill="#2ED0E1" d="M60.857 18.82v1.681a.85.85 0 0 1-.86.84H29.012a.85.85 0 0 1-.861-.84V18.82a.85.85 0 0 1 .86-.84h30.986a.85.85 0 0 1 .86.84zm-31.845 9.245h20.656a.85.85 0 0 0 .86-.84v-1.681a.851.851 0 0 0-.86-.84H29.012a.85.85 0 0 0-.861.84v1.68c0 .465.385.84.86.84zm30.985 6.723H29.012a.85.85 0 0 0-.861.84v1.682c0 .464.385.84.86.84h30.986a.85.85 0 0 0 .86-.84v-1.682a.85.85 0 0 0-.86-.84zm0 6.724H29.012a.85.85 0 0 0-.861.84v1.68a.85.85 0 0 0 .86.842h30.986a.85.85 0 0 0 .86-.841v-1.681a.85.85 0 0 0-.86-.84zm-10.329 6.723H29.012a.85.85 0 0 0-.861.84v1.681c0 .465.385.84.86.84h20.657a.85.85 0 0 0 .86-.84v-1.68a.851.851 0 0 0-.86-.84z" opacity=".495"/>
            <path fill="#FED194" d="M83.732 74.342c-7.508 11.36-21.941 17.763-36.818 17.763-14.876 0-29.438-6.403-36.946-17.763l1.485-29.468 35.46 26.893 35.462-26.893 1.357 29.468z"/>
            <path fill="#FEE0B8" d="M78.416 80.263c-7.679 8.438-19.51 11.842-31.502 11.842-11.991 0-23.951-3.404-31.63-11.842l29.642-23.02a3.31 3.31 0 0 1 3.976 0l29.514 23.02z"/>
        </g>
    </g>
</svg>

