<svg xmlns="http://www.w3.org/2000/svg" width="100" height="98" viewBox="0 0 100 98">
    <g fill="none" fill-rule="evenodd">
        <ellipse cx="53.149" cy="51.993" fill="#F5F8FF" opacity=".327" rx="46.217" ry="45.257"/>
        <ellipse cx="46.217" cy="48.114" fill="#F5F8FF" rx="46.217" ry="45.257"/>
        <g fill-rule="nonzero">
            <path fill="#7DAEBD" d="M59.335 2.655V91.83c0 .137-.015.272-.042.401a49.504 49.504 0 0 1-12.282 1.54 49.2 49.2 0 0 1-26.654-7.8c-.968-4.342-4.765-7.61-9.35-7.76a49.922 49.922 0 0 1-3.864-4.628V2.655c0-1.072.866-1.94 1.935-1.94H57.4a1.926 1.926 0 0 1 1.605.855c.209.31.33.683.33 1.085z"/>
            <path fill="#235967" d="M39.305 3.618h-6.283c-.934 0-1.691.759-1.691 1.696v.485c0 .937.757 1.696 1.691 1.696h6.283c.934 0 1.691-.76 1.691-1.696v-.485c0-.937-.757-1.696-1.691-1.696zm-11.84 0a1.936 1.936 0 0 0-1.933 1.938c0 1.071.865 1.939 1.933 1.939a1.936 1.936 0 0 0 1.933-1.939c0-1.07-.866-1.938-1.933-1.938z"/>
            <path fill="#FFF" d="M55.687 8.273v75.603a1.938 1.938 0 0 1-1.935 1.94H20.45a49.821 49.821 0 0 1-9.61-8.008V8.273c0-1.072.867-1.941 1.936-1.941h7.73v1.936c0 1.072.866 1.941 1.935 1.941h21.646a1.938 1.938 0 0 0 1.935-1.94V6.331h7.73c1.069 0 1.935.869 1.935 1.94z"/>
            <path fill="#ACEDE3" d="M84.583 23.307v5.823c0 3.216-2.6 5.823-5.806 5.823H74.48a13.606 13.606 0 0 1-5.381 7.764 13.607 13.607 0 0 1-5.382-7.764h-35.26c-3.208 0-5.807-2.607-5.807-5.823v-5.823c0-3.216 2.6-5.823 5.806-5.823h50.32c3.206 0 5.806 2.607 5.806 5.823z"/>
            <path fill="#59D3C2" d="M32.328 34.953h-3.87c-3.208 0-5.807-2.607-5.807-5.823v-5.823c0-3.216 2.6-5.823 5.806-5.823h3.87c-3.206 0-5.805 2.607-5.805 5.823v5.823c0 3.216 2.6 5.823 5.806 5.823z"/>
            <path fill="#59D3C2" d="M69.487 22.24v2.135a.388.388 0 0 1-.387.388H28.844a.388.388 0 0 1-.387-.388V22.24c0-.215.173-.389.387-.389H69.1c.213 0 .387.174.387.389zm-18.193 5.434h-22.45a.388.388 0 0 0-.387.389v2.135c0 .214.173.388.387.388h22.45a.388.388 0 0 0 .387-.388v-2.135a.388.388 0 0 0-.387-.389z"/>
            <path fill="#FFE7BF" d="M76.841 54.363v5.823c0 3.216-2.6 5.823-5.806 5.823h-27.52a13.607 13.607 0 0 1-5.381 7.764 13.607 13.607 0 0 1-5.382-7.764h-4.295c-3.207 0-5.806-2.607-5.806-5.823v-5.823c0-3.216 2.6-5.823 5.806-5.823h42.578c3.207 0 5.806 2.607 5.806 5.823z"/>
            <path fill="#FBBA54" d="M61.358 53.296v2.135a.388.388 0 0 1-.387.388H28.844a.388.388 0 0 1-.387-.388v-2.135c0-.215.173-.389.387-.389h32.127c.214 0 .387.174.387.389zM51.294 58.73h-22.45a.388.388 0 0 0-.387.389v2.135c0 .214.173.388.387.388h22.45a.388.388 0 0 0 .387-.388v-2.135a.388.388 0 0 0-.387-.389z"/>
            <path fill="#FBBA54" d="M32.328 66.01h-3.87c-3.208 0-5.807-2.608-5.807-5.824v-5.823c0-3.216 2.6-5.823 5.806-5.823h3.87c-3.206 0-5.805 2.607-5.805 5.823v5.823c0 3.216 2.6 5.823 5.806 5.823zM40.07 79.596a1.938 1.938 0 0 1-1.936 1.941 1.938 1.938 0 0 1-1.935-1.94c0-1.073.866-1.942 1.935-1.942s1.935.87 1.935 1.941zm3.87-1.94a1.938 1.938 0 0 0-1.935 1.94c0 1.072.866 1.941 1.935 1.941a1.938 1.938 0 0 0 1.935-1.94 1.938 1.938 0 0 0-1.935-1.942zm5.806 0a1.938 1.938 0 0 0-1.935 1.94c0 1.072.866 1.941 1.935 1.941a1.938 1.938 0 0 0 1.935-1.94 1.938 1.938 0 0 0-1.935-1.942z"/>
        </g>
    </g>
</svg>
