<svg xmlns="http://www.w3.org/2000/svg" width="100" height="105" viewBox="0 0 100 105">
    <g fill="none" fill-rule="evenodd">
        <ellipse cx="53.149" cy="59.136" fill="#F5F8FF" opacity=".327" rx="46.217" ry="45.257"/>
        <ellipse cx="46.217" cy="55.257" fill="#F5F8FF" rx="46.217" ry="45.257"/>
        <g fill-rule="nonzero">
            <path fill="#7DAEBD" d="M70.32 19.78V94.1a49.44 49.44 0 0 1-3.786 1.692 6.788 6.788 0 0 0-6.685-5.62H23.587c-.902 0-1.657.615-1.874 1.449a49.83 49.83 0 0 1-3.75-2.619V19.78a1.94 1.94 0 0 1 1.94-1.94h48.479a1.94 1.94 0 0 1 1.939 1.94z"/>
            <path fill="#235967" d="M21.842 93.846a49.773 49.773 0 0 1-3.879-2.7V19.78a1.94 1.94 0 0 1 1.94-1.94h5.817a1.94 1.94 0 0 0-1.94 1.94v63.798a1.94 1.94 0 0 0-1.938 1.94v8.328z"/>
            <path fill="#174550" d="M40.264 22.882a1.94 1.94 0 1 1-3.879 0 1.94 1.94 0 0 1 3.879 0zm9.696-1.939h-5.818a1.94 1.94 0 1 0 0 3.878h5.818a1.94 1.94 0 1 0 0-3.878z" opacity=".617"/>
            <path fill="#FFF" d="M66.636 25.597v70.156c-5.696 2.278-12.269 4.961-18.779 4.961-9.773 0-18.746-2.266-26.428-7.143l.219-67.974a1.94 1.94 0 0 1 1.939-1.94h7.756v1.94a1.94 1.94 0 0 0 1.94 1.94H55a1.94 1.94 0 0 0 1.94-1.94v-1.94h7.756a1.94 1.94 0 0 1 1.94 1.94z"/>
            <path fill="#FFEDCA" d="M65.922 26.311l.714 69.442c-1.823.73-3.285 1.592-5.207 2.104l-.416-74.2h3.684c1.071 0 1.225 1.583 1.225 2.654z"/>
            <path fill="#FFEDCA" d="M62.564 35.293v2.133a.388.388 0 0 1-.388.388H26.108a.388.388 0 0 1-.388-.388v-2.133c0-.214.173-.388.388-.388h36.068c.215 0 .388.174.388.388zm-36.456 8.338h17.84a.388.388 0 0 0 .388-.387V41.11a.388.388 0 0 0-.388-.387h-17.84a.388.388 0 0 0-.388.387v2.134c0 .214.173.387.388.387zm36.068 16.483H26.108a.388.388 0 0 0-.388.388v2.133c0 .215.173.388.388.388h36.068a.388.388 0 0 0 .388-.388v-2.133a.388.388 0 0 0-.388-.388zm-9.696 5.818H26.108a.388.388 0 0 0-.388.388v2.133c0 .214.173.388.388.388H52.48a.388.388 0 0 0 .388-.388V66.32a.388.388 0 0 0-.388-.388zM33.477 50.71a3.878 3.878 0 1 1-7.757 0 3.878 3.878 0 0 1 7.757 0zm5.817-3.879a3.878 3.878 0 1 0 0 7.757 3.878 3.878 0 0 0 0-7.757zm9.696 0a3.878 3.878 0 1 0 0 7.757 3.878 3.878 0 0 0 0-7.757zm9.696 7.757a3.878 3.878 0 1 0 0-7.757 3.878 3.878 0 0 0 0 7.757zM29.598 72.04a3.878 3.878 0 1 0 0 7.757 3.878 3.878 0 0 0 0-7.757zm9.696 0a3.878 3.878 0 1 0 0 7.757 3.878 3.878 0 0 0 0-7.757zm9.696 0a3.878 3.878 0 1 0 0 7.757 3.878 3.878 0 0 0 0-7.757zm9.696 0a3.878 3.878 0 1 0 0 7.757 3.878 3.878 0 0 0 0-7.757z" opacity=".617"/>
            <path fill="#00D3B4" d="M31.537 50.71a1.94 1.94 0 1 1-3.878 0 1.94 1.94 0 0 1 3.878 0zM48.99 77.857a1.94 1.94 0 1 0 0-3.878 1.94 1.94 0 0 0 0 3.878zm12.41 7.466H45.5a.388.388 0 0 0-.388.387v4.073c0 .214.173.388.387.388h15.902a.388.388 0 0 0 .388-.388V85.71a.388.388 0 0 0-.388-.387z" opacity=".617"/>
            <path fill="#5EE1D1" d="M67.994 0C81.06 0 91.652 10.592 91.652 23.658S81.06 47.316 67.994 47.316 44.336 36.724 44.336 23.658 54.928 0 67.994 0z"/>
            <path fill="#00B7A0" d="M59.826 45.867c-9.041-3.326-15.49-12.014-15.49-22.21 0-10.194 6.449-18.883 15.49-22.209-5.865 5.012-9.673 13.093-9.673 22.21s3.808 17.198 9.673 22.21z" opacity=".617"/>
            <path fill="#FFF" d="M64.07 12.736a1.79 1.79 0 0 0-1.653-1.101h-1.492a1.79 1.79 0 0 0-1.652 1.101l-8.204 19.69a1.79 1.79 0 0 0 3.304 1.378l1.965-4.716h10.666l1.965 4.716a1.79 1.79 0 0 0 3.305-1.377l-8.205-19.69zM57.953 25.21l3.717-8.92 3.717 8.92h-7.434zm27.88-1.939a1.94 1.94 0 0 1-1.939 1.94h-2.909v2.908a1.94 1.94 0 1 1-3.878 0v-2.909h-2.909a1.94 1.94 0 1 1 0-3.878h2.909v-2.909a1.94 1.94 0 1 1 3.878 0v2.909h2.91a1.94 1.94 0 0 1 1.938 1.94z"/>
        </g>
    </g>
</svg>
