<svg xmlns="http://www.w3.org/2000/svg" width="100" height="97" viewBox="0 0 100 97">
    <g fill="none" fill-rule="evenodd">
        <circle cx="53.488" cy="50.498" r="46.512" fill="#F5F8FF" opacity=".327"/>
        <circle cx="46.512" cy="46.512" r="46.512" fill="#F5F8FF"/>
        <g fill-rule="nonzero">
            <path fill="#FAE9BE" d="M27.387 52.241l17.088 9.847L28.59 89.545c-8.746-3.91-16.987-9.601-21.282-18.116l9.97-16.485c2.043-3.531 6.57-4.742 10.108-2.703zm61.48 28.622L73.872 54.944c-2.043-3.531-6.568-4.742-10.107-2.703l-17.088 9.847L65.37 94.401a1.235 1.235 0 0 0 2.121.026l5.565-9.103a4.934 4.934 0 0 1 4.091-2.357l10.682-.259a1.23 1.23 0 0 0 1.037-1.845z"/>
            <path fill="#FDB44C" d="M79.284 47.433c0 18.58-15.09 33.642-33.708 33.642-18.616 0-33.708-15.061-33.708-33.642 0-18.58 15.092-33.642 33.708-33.642 18.617 0 33.708 15.062 33.708 33.642z"/>
            <path fill="#FD7D43" d="M75.195 53.726a1.695 1.695 0 0 0-.719 2.676c3.297 3.974 4.666 7.36 3.442 9.474-1.223 2.114-4.845 2.624-9.94 1.761a1.699 1.699 0 0 0-1.964 1.96c.864 5.086.353 8.701-1.765 9.922-2.118 1.22-5.51-.146-9.492-3.436a1.702 1.702 0 0 0-2.681.718c-1.8 4.835-4.053 7.712-6.5 7.712-2.446 0-4.7-2.877-6.499-7.712a1.702 1.702 0 0 0-2.682-.717c-3.98 3.29-7.374 4.655-9.492 3.435-2.118-1.22-2.628-4.836-1.764-9.922a1.698 1.698 0 0 0-1.964-1.96c-5.096.863-8.718.353-9.941-1.76-1.223-2.115.146-5.5 3.442-9.474a1.696 1.696 0 0 0-.718-2.677C11.112 51.93 8.23 49.68 8.23 47.24s2.881-4.69 7.727-6.487a1.696 1.696 0 0 0 .718-2.677c-3.296-3.973-4.665-7.359-3.442-9.473 1.223-2.114 4.845-2.623 9.941-1.76a1.7 1.7 0 0 0 1.964-1.96c-.864-5.086-.354-8.702 1.764-9.922 2.118-1.221 5.51.145 9.492 3.435a1.702 1.702 0 0 0 2.682-.717c1.8-4.836 4.053-7.712 6.5-7.712 2.446 0 4.699 2.876 6.499 7.712a1.702 1.702 0 0 0 2.681.717c3.981-3.29 7.374-4.657 9.492-3.435 2.119 1.22 2.63 4.835 1.765 9.92a1.699 1.699 0 0 0 1.964 1.96c5.095-.862 8.717-.352 9.94 1.762 1.223 2.114-.145 5.5-3.442 9.473a1.695 1.695 0 0 0 .719 2.677c4.845 1.797 7.727 4.046 7.727 6.487 0 2.44-2.882 4.69-7.727 6.486z"/>
            <path fill="#FAE9BE" d="M69.691 47.433c0 13.292-10.796 24.068-24.115 24.068-13.318 0-24.115-10.776-24.115-24.068 0-13.292 10.797-24.068 24.115-24.068 13.319 0 24.115 10.776 24.115 24.068z"/>
            <path fill="#FAE9BE" d="M69.691 47.433c0 4.801-1.408 9.273-3.835 13.028a24.033 24.033 0 0 1-13.053 3.828c-13.318 0-24.115-10.776-24.115-24.068 0-4.8 1.409-9.273 3.835-13.028a24.033 24.033 0 0 1 13.053-3.828c13.319 0 24.115 10.776 24.115 24.068z"/>
            <path fill="#FD7D43" d="M44.222 46.652L31.75 41.24a.846.846 0 0 1 0-1.553l12.473-5.413a3.403 3.403 0 0 1 2.708 0l12.473 5.413a.846.846 0 0 1 0 1.553L46.93 46.652a3.403 3.403 0 0 1-2.708 0zm15.614 5.912v-7.416a.834.834 0 0 0-1.667-.002l-.022 7.413c-.993.577-1.706 2.15-1.706 3.999h5.092c0-1.844-.708-3.412-1.697-3.994zm-6.092-5.257l-6.246 2.54a5.096 5.096 0 0 1-3.843 0l-6.246-2.54a.848.848 0 0 0-1.17.784v10.16c0 .469.38.848.85.848h16.975c.469 0 .849-.38.849-.847V48.09a.849.849 0 0 0-1.17-.784z"/>
        </g>
    </g>
</svg>
