<svg xmlns="http://www.w3.org/2000/svg" width="100" height="97" viewBox="0 0 100 97">
    <g fill="none" fill-rule="evenodd">
        <circle cx="53.488" cy="50.498" r="46.512" fill="#F5F8FF" opacity=".327"/>
        <circle cx="46.512" cy="46.512" r="46.512" fill="#F5F8FF"/>
        <g fill-rule="nonzero">
            <path fill="#90E6C4" d="M58.14 2.183v1.85c0 .955-.722 1.738-1.662 1.84-4.313.464-7.593 2.807-7.593 7.385l-3.702.031c0-6.48 4.697-11.907 10.836-12.932 1.111-.185 2.12.688 2.12 1.826z"/>
            <path fill="#B9EDD8" d="M45.622 14.393c-2.195 2.193-5.612 2.331-9.269-1.325-3.655-3.655-6.165-9.722-3.972-11.916 2.195-2.194 8.26.316 11.917 3.972 3.656 3.657 3.517 7.075 1.324 9.269z"/>
            <path fill="#FFF5F5" d="M70.681 37.21c-6.945-.115-12.541-5.72-12.541-12.623 0-3.683 1.593-6.997 4.133-9.305 5.299 3.029 9.003 8.628 9.15 15.196a26.207 26.207 0 0 1-.741 6.732h-.001z"/>
            <path fill="#FFD5D5" d="M71.429 33.523C70.099 46.385 59.36 58.62 46.404 57.765c-24.373-1.61-24.899-24.324-24.802-27.279.368-11.22 10.088-19.397 20.916-17.618a25.081 25.081 0 0 0 8.135 0c5.538-.911 10.86.84 14.748 4.248a4.642 4.642 0 0 0-3.271 4.44 4.635 4.635 0 0 0 4.627 4.642 4.632 4.632 0 0 0-.925 2.785c0 2.564 2.07 4.643 4.626 4.643.333 0 .657-.037.97-.103z"/>
            <path fill="#FF8989" d="M71.429 33.51c-.439 4.241-1.893 8.332-4.113 11.906-3.565 2.183-7.651 3.451-11.992 3.42-13.521-.096-24.582-13.018-24.74-26.61-.002-.218-.312-5.4 1.629-7.96 3.12-1.453 6.704-2.004 10.381-1.4a25.012 25.012 0 0 0 8.114 0c5.524-.91 10.832.841 14.71 4.246a4.638 4.638 0 0 0-3.262 4.437c0 2.563 2.066 4.64 4.615 4.64a4.636 4.636 0 0 0-.923 2.783c0 2.563 2.066 4.64 4.615 4.64.331 0 .654-.036.966-.103z"/>
            <path fill="#FD9C71" d="M83.056 74.508C74.79 85.735 61.468 93.023 46.444 93.023c-14.944 0-28.2-7.21-36.477-18.337a9.332 9.332 0 0 1 1.813-.178h10.195v-2.083h55.611v2.083h5.47z"/>
            <path fill="#FDA989" d="M26.91 88.704A45.922 45.922 0 0 1 9.967 74.705c.59-.117 1.2-.18 1.825-.18h10.266v-2.1h4.852v16.28z"/>
            <path fill="#4A92CD" d="M77.547 74.75H21.899a9.275 9.275 0 0 1-9.274-9.274v-3.71a9.275 9.275 0 0 1 9.274-9.274h55.648c1.024 0 1.855.83 1.855 1.855v18.549a1.855 1.855 0 0 1-1.855 1.855z"/>
            <path fill="#74A1D7" d="M77.545 74.75H28.55c-5.126 0-9.28-4.152-9.28-9.274v-3.71c0-5.122 4.154-9.274 9.28-9.274h48.996c1.026 0 1.857.83 1.857 1.855v18.549a1.856 1.856 0 0 1-1.857 1.855z"/>
            <path fill="#FFF5F5" d="M79.07 79.402a41.31 41.31 0 0 1-12.678 9.302H35.19c-2.554 0-4.625-2.083-4.625-4.651 0-2.569 2.07-4.651 4.625-4.651h43.88zM79.14 69.103H23.568c-2.557 0-4.631-2.045-4.631-4.568v-1.827c0-2.523 2.074-4.568 4.631-4.568H79.14a.92.92 0 0 1 .926.913v9.136a.92.92 0 0 1-.926.914z"/>
            <path fill="#FDE0B8" d="M42.554 88.704h-7.359c-2.557 0-4.63-2.083-4.63-4.651 0-2.569 2.073-4.651 4.63-4.651h7.36c-2.558 0-4.631 2.082-4.631 4.65 0 2.57 2.073 4.652 4.63 4.652zm33.194-6.046H44.87c-.767 0-1.39.624-1.39 1.395 0 .77.623 1.395 1.39 1.395h27.247c1.268-.868 2.46-1.8 3.63-2.79zM31.348 69.103h-7.78c-2.557 0-4.631-2.045-4.631-4.568v-1.827c0-2.523 2.074-4.568 4.631-4.568h7.78c-2.557 0-4.631 2.045-4.631 4.568v1.827c0 2.523 2.074 4.568 4.631 4.568zm48.718-7.035H33.664a1.38 1.38 0 0 0-1.39 1.37c0 .758.622 1.371 1.39 1.371h46.402v-2.74z"/>
        </g>
    </g>
</svg>
