<svg xmlns="http://www.w3.org/2000/svg" width="101" height="96" viewBox="0 0 101 96">
    <g fill="none" fill-rule="evenodd">
        <ellipse cx="53.371" cy="49.871" fill="#F5F8FF" opacity=".327" rx="47.506" ry="45.224"/>
        <ellipse cx="46.333" cy="45.291" fill="#F5F8FF" rx="46.333" ry="45.224"/>
        <path fill="#A797BF" fill-rule="nonzero" d="M82.646 15.253v57.393a44.792 44.792 0 0 1-7.005 7.326c-7.887 6.574-18.121 10.543-29.308 10.543-6.479 0-12.637-1.331-18.206-3.73a45.202 45.202 0 0 1-6.863-3.68 44.897 44.897 0 0 1-4.24-3.133 44.792 44.792 0 0 1-7.004-7.326V15.253c0-3.618 3.005-6.55 6.712-6.55h59.202c3.707 0 6.712 2.932 6.712 6.55z"/>
        <path fill="#F0F0F0" fill-rule="nonzero" d="M75.641 27.585v52.387c-7.887 6.574-18.121 10.543-29.308 10.543-6.479 0-12.637-1.331-18.206-3.73a45.202 45.202 0 0 1-6.863-3.68 44.897 44.897 0 0 1-4.24-3.133V27.585c0-2.282 1.894-4.13 4.23-4.13H71.41c2.335 0 4.23 1.848 4.23 4.13z" opacity=".584"/>
        <path fill="#F2BF6C" fill-rule="nonzero" d="M64.304 10.464v11.59c0 2.166-1.797 3.92-4.016 3.92h-27.91c-2.22 0-4.017-1.754-4.017-3.92v-11.59c0-2.166 1.797-3.92 4.016-3.92h7.027c1.268-2.481 3.895-4.187 6.929-4.187.472 0 .934.042 1.382.12a7.746 7.746 0 0 1 5.126 3.349c.11.164.213.333.307.506.042.075.08.147.114.212h7.026c2.22 0 4.016 1.754 4.016 3.92z"/>
        <path fill="#F5D785" fill-rule="nonzero" d="M64.304 10.464v11.59c0 2.166-1.797 3.92-4.016 3.92H35.142c-2.22 0-4.016-1.754-4.016-3.92v-11.59c0-2.166 1.797-3.92 4.016-3.92h4.262c1.268-2.481 3.895-4.187 6.929-4.187.471 0 .934.042 1.382.12a7.746 7.746 0 0 1 5.126 3.349c.118.185.222.356.306.506.043.075.082.147.115.212h7.026c2.22 0 4.016 1.754 4.016 3.92z"/>
        <ellipse cx="46.333" cy="8.523" fill="#837B77" fill-rule="nonzero" rx="2.673" ry="2.609"/>
        <path fill="#F2BF6C" fill-rule="nonzero" d="M56.286 20.217H36.38c-1.069 0-1.936-.845-1.936-1.889 0-1.043.867-1.889 1.936-1.889h19.907c1.069 0 1.936.846 1.936 1.89 0 1.043-.867 1.888-1.936 1.888z"/>
        <path fill="#81A7CE" fill-rule="nonzero" d="M34.72 47.924H23.108c-1.018 0-1.844-.806-1.844-1.8V34.79c0-.994.826-1.8 1.844-1.8H34.72c1.018 0 1.844.806 1.844 1.8v11.335c0 .993-.826 1.799-1.844 1.799zm-9.769-3.598h7.926v-7.737h-7.926v7.737z"/>
        <g fill="#A797BF" fill-rule="nonzero">
            <path d="M53.338 38.748H41.725c-1.018 0-1.843-.805-1.843-1.799 0-.993.825-1.799 1.843-1.799h11.613c1.017 0 1.843.806 1.843 1.8 0 .993-.826 1.798-1.843 1.798zM67.715 45.765h-25.99c-1.018 0-1.843-.805-1.843-1.8 0-.993.825-1.798 1.843-1.798h25.99c1.018 0 1.843.805 1.843 1.799 0 .994-.825 1.799-1.843 1.799z"/>
        </g>
        <path fill="#81A7CE" fill-rule="nonzero" d="M34.72 67.355H23.108c-1.018 0-1.844-.806-1.844-1.8V54.221c0-.994.826-1.8 1.844-1.8H34.72c1.018 0 1.844.806 1.844 1.8v11.334c0 .994-.826 1.8-1.844 1.8zm-9.769-3.599h7.926V56.02h-7.926v7.736z"/>
        <g fill="#A797BF" fill-rule="nonzero">
            <path d="M53.338 58.179H41.725c-1.018 0-1.843-.806-1.843-1.8 0-.993.825-1.798 1.843-1.798h11.613c1.017 0 1.843.805 1.843 1.799 0 .993-.826 1.799-1.843 1.799zM67.715 65.196h-25.99c-1.018 0-1.843-.806-1.843-1.8 0-.993.825-1.799 1.843-1.799h25.99c1.018 0 1.843.806 1.843 1.8 0 .993-.825 1.799-1.843 1.799z"/>
        </g>
        <path fill="#81A7CE" fill-rule="nonzero" d="M34.72 71.853H23.108c-1.018 0-1.844.806-1.844 1.799v9.452a45.233 45.233 0 0 0 6.863 3.681h6.593c1.018 0 1.844-.806 1.844-1.799V73.652c0-.993-.826-1.8-1.844-1.8zm-1.843 11.334h-7.926v-7.736h7.926v7.736z"/>
        <g fill="#A797BF" fill-rule="nonzero">
            <path d="M53.338 77.61H41.725c-1.018 0-1.843-.806-1.843-1.8 0-.993.825-1.799 1.843-1.799h11.613c1.017 0 1.843.806 1.843 1.8 0 .993-.826 1.799-1.843 1.799zM67.715 84.626h-25.99c-1.018 0-1.843-.805-1.843-1.799 0-.994.825-1.799 1.843-1.799h25.99c1.018 0 1.843.805 1.843 1.8 0 .993-.825 1.798-1.843 1.798z"/>
        </g>
        <path fill="#E181A7" fill-rule="nonzero" d="M29.404 65.26c-.842 0-1.635-.317-2.106-.85l-4.586-5.724c-.775-.877-.461-2.062.703-2.646 1.164-.585 2.736-.348 3.512.529l2.104 2.92 7.202-11.456c.598-.952 2.109-1.359 3.373-.908 1.264.451 1.803 1.59 1.204 2.542l-9.117 14.501c-.39.622-1.194 1.036-2.104 1.087a3.322 3.322 0 0 1-.185.005z"/>
    </g>
</svg>
