<svg xmlns="http://www.w3.org/2000/svg" width="100" height="98" viewBox="0 0 100 98">
    <g fill="none" fill-rule="evenodd">
        <ellipse cx="53.488" cy="52.309" fill="#F5F8FF" opacity=".327" rx="46.512" ry="45.548"/>
        <ellipse cx="46.512" cy="48.405" fill="#F5F8FF" rx="46.512" ry="45.548"/>
        <g fill-rule="nonzero" transform="translate(10.714)">
            <path fill="#2E4C89" d="M41.06 78.575c0-.43.35-.78.781-.78h.853a.195.195 0 0 0 .138-.334l-9.278-9.274a2.712 2.712 0 0 1-.797-1.932c0-.732.283-1.418.797-1.932l.388-.387a2.715 2.715 0 0 1 1.933-.797c.733 0 1.42.283 1.933.797l2.432 2.43a.195.195 0 0 0 .333-.137V46.404a2.736 2.736 0 0 1 2.734-2.733h.082c.824 0 1.562.368 2.063.946V1.952A1.958 1.958 0 0 0 43.5 0H2.155A1.958 1.958 0 0 0 .202 1.952v76.015c0 1.074.879 1.952 1.953 1.952H41.06v-1.344z" opacity=".502"/>
            <path fill="#C3DDF4" d="M32.757 66.255c0-.732.283-1.418.797-1.932l.388-.387a2.715 2.715 0 0 1 1.933-.797c.733 0 1.42.283 1.933.797l2.432 2.43a.195.195 0 0 0 .333-.137V46.404c0-1.3.915-2.39 2.134-2.664V8.422c0-.566-.464-1.03-1.03-1.03H3.977c-.566 0-1.03.464-1.03 1.03v57.952c0 .566.464 1.03 1.03 1.03H33.01a2.73 2.73 0 0 1-.253-1.149z"/>
            <g fill="#1A2B63" opacity=".502" transform="translate(13.149 1.952)">
                <ellipse cx="9.678" cy="71.051" rx="3.625" ry="3.623"/>
                <path d="M17.55 3.19H6.347a1.464 1.464 0 1 1 0-2.928H17.55a1.464 1.464 0 1 1 0 2.928z"/>
                <ellipse cx="1.806" cy="1.726" rx="1.647" ry="1.647"/>
            </g>
            <path fill="#FFD787" d="M41.676 7.392H3.978c-.566 0-1.03.464-1.03 1.03v4.572h39.759V8.422c0-.566-.464-1.03-1.03-1.03z"/>
            <path fill="#839DC9" d="M39.66 42.437a1.958 1.958 0 0 1-1.952 1.952H7.948a1.958 1.958 0 0 1-1.953-1.952v-9.485c0-1.074.878-1.952 1.952-1.952h29.76c1.075 0 1.953.878 1.953 1.952v9.485z"/>
            <path fill="#D8E9F9" d="M32.757 66.255c0-.732.283-1.418.797-1.932l.388-.387a2.715 2.715 0 0 1 1.933-.797c.733 0 1.42.283 1.933.797l2.432 2.43a.195.195 0 0 0 .333-.137V48.523H2.948v17.851c0 .566.464 1.03 1.03 1.03H33.01a2.732 2.732 0 0 1-.253-1.149z"/>
            <path fill="#D9EAFC" d="M6.823 66.374v-17.85H2.948v17.85c0 .566.464 1.03 1.03 1.03h3.875c-.567 0-1.03-.464-1.03-1.03z" opacity=".502"/>
            <g fill="#9AD5E8">
                <path d="M25.928 54.029H10.352a1.464 1.464 0 1 1 0-2.928h15.576a1.464 1.464 0 1 1 0 2.928zM25.928 58.882H10.352a1.464 1.464 0 1 1 0-2.928h15.576a1.464 1.464 0 1 1 0 2.928zM18.171 63.735h-7.819a1.464 1.464 0 1 1 0-2.928h7.82a1.464 1.464 0 1 1 0 2.928z"/>
            </g>
            <path fill="#FFD787" d="M42.857 92.857c7.155-1.207 13.586-1.707 19.286-5.714l.172-1.355h-19.47l.012 7.07z"/>
            <path fill="#F7AD4F" d="M42.845 85.788v7.143a85.608 85.608 0 0 0 3.875-.436v-6.707h-3.875z" opacity=".502"/>
            <path fill="#FAECDB" d="M62.653 77.794V57.51a2.937 2.937 0 0 0-2.93-2.928h-.08a2.938 2.938 0 0 0-2.683 1.757 2.938 2.938 0 0 0-2.681-1.757h-.082a2.938 2.938 0 0 0-2.681 1.757 2.938 2.938 0 0 0-2.682-1.757h-.081c-1.012 0-1.908.52-2.435 1.306v-9.483a2.937 2.937 0 0 0-2.93-2.928h-.08a2.937 2.937 0 0 0-2.93 2.928v19.824l-2.431-2.43a2.939 2.939 0 0 0-4.143 0l-.387.387a2.935 2.935 0 0 0 0 4.14l9.473 9.47h19.763z"/>
            <path fill="#F1E0CE" d="M46.764 77.794l-9.473-9.469a2.935 2.935 0 0 1 0-4.14l.388-.387c.043-.043.089-.081.133-.121a2.937 2.937 0 0 0-4.008.12l-.388.388a2.935 2.935 0 0 0 0 4.14l9.474 9.47h3.874z"/>
            <path fill="#FFD787" d="M64.295 85.007c0 .537-.44.976-.977.976H41.841a.979.979 0 0 1-.976-.976v-6.432c0-.537.44-.976.976-.976h21.477c.537 0 .977.44.977.976v6.432z"/>
            <path fill="#F7AD4F" d="M44.74 85.007v-6.432c0-.537.439-.976.976-.976h-3.875a.979.979 0 0 0-.976.976v6.432c0 .537.44.976.976.976h3.875a.979.979 0 0 1-.976-.976z" opacity=".502"/>
            <ellipse cx="60.005" cy="81.792" fill="#F7AD4F" opacity=".502" rx="1.815" ry="1.814"/>
            <path fill="#F997A2" d="M78.602 46.938c0 .537-.44.976-.976.976H49.548a.979.979 0 0 1-.977-.976V26.69c0-.537.44-.976.977-.976h28.078c.537 0 .976.44.976.976v20.248z"/>
            <path fill="#FCCBD0" d="M61.429 31.92c0-1.074.76-1.513 1.69-.977l7.74 4.467c.93.537.93 1.415 0 1.952l-7.74 4.466c-.93.537-1.69.098-1.69-.976V31.92z"/>
            <path fill="#FFD787" d="M75.964 15.263a4.397 4.397 0 0 1-4.393-4.39c0-.403.055-.792.157-1.161H49.259a.979.979 0 0 0-.976.976v11.577c0 .537.44.976.976.976h28.078c.537 0 .977-.44.977-.976v-7.686a4.366 4.366 0 0 1-2.35.684z"/>
            <path fill="#FCCBD0" d="M52.158 46.853V26.605c0-.537.439-.976.976-.976h-3.875a.979.979 0 0 0-.976.976v20.248c0 .537.44.976.976.976h3.875a.979.979 0 0 1-.976-.976z"/>
            <path fill="#EF9614" d="M52.158 22.265V10.688c0-.537.439-.976.976-.976h-3.875a.979.979 0 0 0-.976.976v11.577c0 .537.44.976.976.976h3.875a.979.979 0 0 1-.976-.976z" opacity=".502"/>
            <ellipse cx="75.963" cy="10.872" fill="#F997A2" rx="4.588" ry="4.586"/>
            <path fill="#EEF6FF" d="M76.103 13.377a.976.976 0 0 1-.977-.976v-2.123a.976.976 0 0 1 .281-1.91h.696c.54 0 .976.436.976.975v3.058c0 .539-.437.976-.976.976z"/>
            <g fill="#F7AD4F">
                <path d="M66.99 15.658H53.009a1.464 1.464 0 1 1 0-2.927h13.98a1.464 1.464 0 1 1 0 2.927zM71.217 20.185H53.009a1.464 1.464 0 1 1 0-2.928h18.208a1.464 1.464 0 1 1 0 2.928z"/>
            </g>
            <path fill="#F7AD4F" d="M16.273 40.524c0 .537-.44.976-.976.976H9.634a.979.979 0 0 1-.977-.976v-5.66c0-.537.44-.976.977-.976h5.663c.537 0 .976.44.976.976v5.66z"/>
            <g fill="#FFF">
                <path d="M29.291 37.694c0-.55.188-1.057.501-1.464h-10.46a1.464 1.464 0 1 0 0 2.928h10.46a2.392 2.392 0 0 1-.5-1.464zM35.996 36.23h-2.389a2.39 2.39 0 0 1 0 2.928h2.389a1.464 1.464 0 1 0 0-2.928z"/>
            </g>
            <ellipse cx="31.7" cy="37.694" fill="#FFD787" rx="2.604" ry="2.602"/>
        </g>
    </g>
</svg>
