<svg xmlns="http://www.w3.org/2000/svg" xmlns:xlink="http://www.w3.org/1999/xlink" width="79" height="52" viewBox="0 0 79 52">
    <defs>
        <linearGradient id="a" x1="45.624%" x2="70.582%" y1="59.481%" y2="4.721%">
            <stop offset=".595%" stop-color="#FFF"/>
            <stop offset="37.5%" stop-color="#B3B3B3"/>
            <stop offset="40.29%" stop-color="#B8B8B8"/>
            <stop offset="65.8%" stop-color="#DEDEDE"/>
            <stop offset="86.2%" stop-color="#F6F6F6"/>
            <stop offset="98.81%" stop-color="#FFF"/>
        </linearGradient>
        <path id="b" d="M0 0v51.711L67.5 7z"/>
        <linearGradient id="d" x1="22.33%" x2="51.081%" y1="120.613%" y2="47.101%">
            <stop offset="40.48%" stop-color="#FFF"/>
            <stop offset="52.31%" stop-color="#FCFCFC"/>
            <stop offset="62.63%" stop-color="#F1F1F1"/>
            <stop offset="72.39%" stop-color="#DFDFDF"/>
            <stop offset="81.81%" stop-color="#C6C6C6"/>
            <stop offset="90.89%" stop-color="#A6A6A6"/>
            <stop offset="99.4%" stop-color="gray"/>
        </linearGradient>
    </defs>
    <g fill="none" fill-rule="evenodd">
        <path fill="#FD8268" d="M0 51.711s32.462-22.678 61.333-6.355c0 0 2.154-28.312 17.667-45.356 0 0-62.77 26.289-79 51.711z"/>
        <path fill="url(#a)" d="M0 1s32.462 22.678 61.333 6.356c0 0 2.154 28.31 17.667 45.355 0 0-62.77-26.289-79-51.711z" style="mix-blend-mode:multiply" transform="matrix(1 0 0 -1 0 52.711)"/>
        <path fill="#FD8268" d="M0 51.711V0h79z"/>
        <g>
            <mask id="c" fill="#fff">
                <use xlink:href="#b"/>
            </mask>
            <path fill="#FFF" fill-opacity=".9" fill-rule="nonzero" d="M29.257 26.167l8.403-2.79v4.541a1.328 1.328 0 0 1-.913 1.254l-8.335 2.76c-.274.09-.57.09-.844 0l-8.335-2.76a1.328 1.328 0 0 1-.913-1.254V23.38l8.401 2.787a4.02 4.02 0 0 0 2.536 0zm-7.181-4.34l-3.756-1.253-7.422-2.456A1.33 1.33 0 0 1 10 16.864c0-.565.36-1.068.898-1.255l16.67-5.54c.274-.09.57-.09.844 0l2.668.885-15.77 5.318a.753.753 0 0 0-.514.72.755.755 0 0 0 .532.71l5.68 1.755c.153.05.318.05.472 0l12.493-4.189 3.58 1.212-15.143 5.112a.76.76 0 0 0-.334.236v-.001zm2.198.73l15.886-5.36c.31-.102.52-.39.52-.713a.753.753 0 0 0-.52-.714l-5.933-2.007a.769.769 0 0 0-.49 0L21.234 17.95l-3.223-1.004 15.05-5.067a.762.762 0 0 0 .286-.175l11.74 3.895c.545.182.912.686.913 1.255v.953l-4.377 1.457-3.958 1.315-9.255 3.07a1.34 1.34 0 0 1-.845 0l-3.29-1.091-.001-.001z" mask="url(#c)" opacity=".767"/>
        </g>
        <path fill="url(#d)" d="M0 1v51.711h79z" style="mix-blend-mode:multiply" transform="matrix(1 0 0 -1 0 52.711)"/>
    </g>
</svg>
