<svg xmlns="http://www.w3.org/2000/svg" width="27" height="32" viewBox="0 0 27 32">
    <g fill="none" fill-rule="evenodd">
        <path fill="#B39DDB" d="M22.888 22.33H3.415c-.418 0-.756-.312-.756-.696 0-.384.338-.696.756-.696h19.473c.417 0 .756.312.756.696 0 .384-.339.696-.756.696zm0 5.332H3.415c-.418 0-.756-.312-.756-.696 0-.384.338-.695.756-.695h19.473c.417 0 .756.311.756.695 0 .384-.339.696-.756.696zM.152 32h26V0h-26v32z"/>
        <path fill="#FFE0B2" d="M12.902 5a2.75 2.75 0 1 1 0 5.5 2.75 2.75 0 0 1 0-5.5zm-.25 6.663c3.59 0 6.5 2.885 6.5 6.445H6.154c0-3.56 2.91-6.445 6.499-6.445z"/>
    </g>
</svg>
