<svg xmlns="http://www.w3.org/2000/svg" width="32" height="33" viewBox="0 0 32 33">
    <path fill="#00C4CC" fill-rule="evenodd" d="M28.47 28.53a.66.66 0 0 1-.66.66H4.39a.66.66 0 0 1-.659-.66V12.407a.66.66 0 0 1 .66-.66H27.81a.66.66 0 0 1 .66.66V28.53zm.564-24.82C30.669 3.71 32 5.058 32 6.713v23.086c0 1.657-1.331 3.003-2.966 3.003H2.966C1.33 32.8 0 31.455 0 29.798V6.712C0 5.057 1.33 3.71 2.966 3.71h1.598v2.3c0 1.092.888 1.98 1.98 1.98s1.98-.888 1.98-1.98v-2.3h.768v2.3c0 1.092.889 1.98 1.98 1.98 1.092 0 1.98-.888 1.98-1.98v-2.3h.768v2.3c0 1.092.888 1.98 1.98 1.98 1.091 0 1.98-.888 1.98-1.98v-2.3h.768v2.3c0 1.092.888 1.98 1.98 1.98 1.091 0 1.98-.888 1.98-1.98v-2.3h.768v2.3c0 1.092.888 1.98 1.979 1.98 1.091 0 1.98-.888 1.98-1.98v-2.3h1.599zM6.544 6.67a.66.66 0 0 1-.66-.659v-4.55a.66.66 0 1 1 1.32 0v4.55a.66.66 0 0 1-.66.66zm4.728 0a.66.66 0 0 1-.66-.659v-4.55a.66.66 0 1 1 1.32 0v4.55a.66.66 0 0 1-.66.66zm4.728 0a.66.66 0 0 1-.66-.659v-4.55a.66.66 0 1 1 1.32 0v4.55a.66.66 0 0 1-.66.66zm4.728 0a.66.66 0 0 1-.66-.659v-4.55a.66.66 0 1 1 1.32 0v4.55a.66.66 0 0 1-.66.66zm4.727 0a.66.66 0 0 1-.66-.659v-4.55a.66.66 0 1 1 1.32 0v4.55a.66.66 0 0 1-.66.66zm-14.858 9.346H8.538a.66.66 0 1 0 0 1.32h2.06a.66.66 0 1 0 0-1.32zm6.533 0h-2.06a.66.66 0 1 0 0 1.32h2.06a.66.66 0 1 0 0-1.32zm6.532 0h-2.059a.66.66 0 1 0 0 1.32h2.06a.66.66 0 1 0 0-1.32zM10.597 19.81H8.538a.66.66 0 0 0 0 1.32h2.06a.66.66 0 1 0 0-1.32zm6.533 0h-2.06a.66.66 0 0 0 0 1.32h2.06a.66.66 0 1 0 0-1.32zm6.532 0h-2.059a.66.66 0 0 0 0 1.32h2.06a.66.66 0 1 0 0-1.32zM10.597 23.6H8.538a.66.66 0 1 0 0 1.32h2.06a.66.66 0 1 0 0-1.32zm6.533 0h-2.06a.66.66 0 1 0 0 1.32h2.06a.66.66 0 1 0 0-1.32zm6.532 0h-2.059a.66.66 0 1 0 0 1.32h2.06a.66.66 0 1 0 0-1.32z"/>
</svg>
