<svg xmlns="http://www.w3.org/2000/svg" width="36" height="32" viewBox="0 0 36 32">
    <path fill="#FD8268" fill-rule="evenodd" d="M32.184 20.513L16.86 29.322l-14.2-8.706c-.143-.242-.48-.963-.48-2.357l.001-.058a.537.537 0 0 0 .046-.04c.186-.056.873.112 1.754.66.455.282 5.001 2.888 8.4 4.835l3.887 2.382a1.098 1.098 0 0 0 1.122.015L27.748 20.1l3.864-2.088c.005.778.145 1.657.572 2.501m0-5.459l-5.503 3.163-10.001 5.405-3.181-1.82L2.66 15.158c-.143-.243-.48-.963-.48-2.358l.001-.055.103-.052c.247-.023.887.166 1.699.67.72.444 11.669 6.706 12.134 6.972.33.188.736.193 1.07.012l14.424-7.793c.005.777.145 1.656.572 2.5m3.668-.86a1.098 1.098 0 0 0-1.491-.391l-.284.163c-.44-.986-.275-2.103-.143-2.667l1.498-.81c.349-.189.567-.55.568-.944 0-.394-.215-.757-.564-.947L21.397.936a1.1 1.1 0 0 0-1.031-.012l-18.888 9.75a2.033 2.033 0 0 0-.57.318l-.059.04C.34 11.364 0 11.792 0 12.8c0 2.072.578 3.181.908 3.65l-.059.04C.34 16.822 0 17.25 0 18.26c0 2.599.918 3.702 1.103 3.897.066.07.14.13.222.18l14.944 9.16a1.099 1.099 0 0 0 1.122.016l18.067-10.385c.52-.299.697-.96.394-1.475a1.099 1.099 0 0 0-1.491-.39l-.284.163c-.44-.986-.275-2.104-.143-2.667l1.498-.81c.407-.22.613-.658.557-1.086a1.061 1.061 0 0 0-.137-.668"/>
</svg>
