<svg xmlns="http://www.w3.org/2000/svg" width="36" height="33" viewBox="0 0 36 33">
    <g fill="none" fill-rule="evenodd">
        <path fill="#B0BEC5" d="M10.075 13.52H8.118a.627.627 0 0 1 0-1.254h1.957a.627.627 0 1 1 0 1.255M16.286 13.52h-1.958a.627.627 0 0 1 0-1.254h1.958a.627.627 0 1 1 0 1.255M22.496 13.52h-1.957a.627.627 0 0 1 0-1.254h1.957a.627.627 0 1 1 0 1.255M10.075 17.126H8.118a.627.627 0 1 1 0-1.254h1.957a.627.627 0 1 1 0 1.254M16.286 17.126h-1.958a.627.627 0 1 1 0-1.254h1.958a.627.627 0 1 1 0 1.254M10.075 20.73H8.118a.627.627 0 1 1 0-1.254h1.957a.627.627 0 1 1 0 1.255M16.286 20.73h-1.958a.627.627 0 1 1 0-1.254h1.958a.627.627 0 1 1 0 1.255"/>
        <path fill="#039BE5" d="M26.69 24.69a.627.627 0 0 1-.618.635H4.116a.626.626 0 0 1-.618-.635V9.171c0-.35.276-.635.618-.635h21.956c.341 0 .618.284.618.635v15.52zM2.78.801H27.22C28.752.801 30 2.098 30 3.69v22.22c0 1.595-1.248 2.891-2.781 2.891H2.78c-1.533 0-2.78-1.296-2.78-2.89V3.69C0 2.098 1.247.8 2.78.8zm.72 4.105c0 .6.487 1.08 1.087 1.08h21.016a1.081 1.081 0 0 0 0-2.16H4.587c-.603 0-1.087.484-1.087 1.08z"/>
        <path fill="#FEAD0B" d="M26.67 33.001c5.153 0 9.33-4.119 9.33-9.2 0-5.08-4.177-9.2-9.33-9.2-5.152 0-9.33 4.12-9.33 9.2 0 5.081 4.178 9.2 9.33 9.2zm.11-1.295c-4.354 0-7.884-3.48-7.884-7.775 0-4.294 3.53-7.775 7.884-7.775 4.354 0 7.884 3.481 7.884 7.775 0 4.294-3.53 7.775-7.884 7.775zm3.58-7.905H26.42v-4.535a.652.652 0 0 0-.657-.648.652.652 0 0 0-.657.648v5.183c0 .358.293.648.657.648h4.599c.363 0 .657-.29.657-.648a.652.652 0 0 0-.657-.648z"/>
    </g>
</svg>
