<svg xmlns="http://www.w3.org/2000/svg" width="32" height="36" viewBox="0 0 32 36">
    <g fill="none" fill-rule="evenodd">
        <path fill="#90A4AE" d="M26.269 9.446H16.77a.707.707 0 0 1 0-1.414h9.499a.707.707 0 1 1 0 1.414zm0 8.885H16.77a.707.707 0 0 1 0-1.414h9.499a.707.707 0 1 1 0 1.414zm0 8.884H16.77a.707.707 0 1 1 0-1.413h9.499a.707.707 0 1 1 0 1.413zM14.168 11.578a.707.707 0 0 1-.707.706H5.35a.707.707 0 0 1-.707-.706V6.54c0-.39.317-.707.707-.707h8.111c.39 0 .707.316.707.707v5.037zm0 8.885c0 .39-.317.706-.707.706H5.35a.707.707 0 0 1-.707-.706v-5.037c0-.39.317-.707.707-.707h8.111c.39 0 .707.316.707.707v5.037zm0 8.885c0 .39-.317.707-.707.707H5.35a.707.707 0 0 1-.707-.707V24.31c0-.391.317-.707.707-.707h8.111c.39 0 .707.316.707.707v5.037zM29.42.802H2.198A2.2 2.2 0 0 0 0 3v29.889a2.2 2.2 0 0 0 2.198 2.198H29.42a2.2 2.2 0 0 0 2.198-2.198V2.999A2.2 2.2 0 0 0 29.42.803z"/>
        <path fill="#FFAB91" d="M12.503 10.812H6.2V7.117h6.303z"/>
        <path fill="#FFCC80" d="M12.503 19.777H6.2v-3.695h6.303z"/>
        <path fill="#80DEEA" d="M12.503 28.58H6.2v-3.694h6.303z"/>
    </g>
</svg>
