<svg xmlns="http://www.w3.org/2000/svg" width="36" height="37" viewBox="0 0 36 37">
    <g fill="none" fill-rule="evenodd">
        <path fill="#F48FB1" d="M.647 17.29a.74.74 0 0 0 .83-.634C2.55 8.454 9.66 2.271 18.014 2.271c8.257 0 15.355 6.101 16.51 14.191a.742.742 0 0 0 1.468-.206C34.734 7.446 27.005.802 18.014.802 8.916.802 1.174 7.536.008 16.466a.736.736 0 0 0 .64.824m34.687 3.48a.744.744 0 0 0-.846.612c-1.278 8.083-8.206 13.95-16.475 13.95-8.36 0-15.47-6.19-16.538-14.396a.747.747 0 0 0-.83-.635.737.737 0 0 0-.64.824c1.162 8.937 8.904 15.677 18.008 15.677 9.003 0 16.547-6.39 17.938-15.193a.736.736 0 0 0-.617-.84"/>
        <path fill="#CFD8DC" d="M18.014 11.469c-4.079 0-7.397 3.289-7.397 7.333 0 4.042 3.318 7.331 7.397 7.331 4.079 0 7.397-3.289 7.397-7.331 0-4.044-3.318-7.333-7.397-7.333"/>
        <path fill="#B39DDB" d="M18.014 27.604c-4.896 0-8.879-3.949-8.879-8.803 0-4.854 3.983-8.802 8.879-8.802 4.896 0 8.88 3.948 8.88 8.802 0 4.854-3.984 8.803-8.88 8.803m0-21.227c-6.91 0-12.533 5.574-12.533 12.424s5.623 12.425 12.533 12.425c6.91 0 12.533-5.574 12.533-12.425 0-6.85-5.623-12.424-12.533-12.424"/>
    </g>
</svg>
