<svg xmlns="http://www.w3.org/2000/svg" width="39" height="48" viewBox="0 0 39 48">
    <path fill="#26A69A" fill-rule="evenodd" d="M34.105 33.495H4.895c-.627 0-1.134-.468-1.134-1.044 0-.576.507-1.044 1.134-1.044h29.21c.626 0 1.134.468 1.134 1.044 0 .576-.508 1.044-1.134 1.044zm0 7.998H4.895c-.627 0-1.134-.467-1.134-1.043 0-.576.507-1.044 1.134-1.044h29.21c.626 0 1.134.468 1.134 1.044 0 .576-.508 1.043-1.134 1.043zM18.752 17.494c5.384 0 9.748 4.328 9.748 9.667H9.003c0-5.339 4.365-9.667 9.749-9.667zm.373-9.994a4.125 4.125 0 1 1 0 8.25 4.125 4.125 0 0 1 0-8.25zM0 48h39V0H0v48z"/>
</svg>
