<?xml version="1.0" encoding="UTF-8" standalone="no"?>
<svg width="27px" height="32px" viewBox="0 0 27 32" version="1.1" xmlns="http://www.w3.org/2000/svg" xmlns:xlink="http://www.w3.org/1999/xlink" xmlns:sketch="http://www.bohemiancoding.com/sketch/ns">
    <!-- Generator: sketchtool 3.5.1 (25234) - http://www.bohemiancoding.com/sketch -->
    <title>Behavior_ico</title>
    <desc>Created with sketchtool.</desc>
    <defs>
        <linearGradient x1="50%" y1="0%" x2="50%" y2="100%" id="linearGradient-1">
            <stop stop-color="#C3D1D7" offset="0%"></stop>
            <stop stop-color="#90A4AE" offset="100%"></stop>
        </linearGradient>
    </defs>
    <g id="Teacher" stroke="none" stroke-width="1" fill="none" fill-rule="evenodd" sketch:type="MSPage">
        <g id="T-4.9-CourseGroup_Homepage" sketch:type="MSArtboardGroup" transform="translate(-1009.000000, -169.000000)" fill="url(#linearGradient-1)">
            <g id="Tabs" sketch:type="MSLayerGroup" transform="translate(296.000000, 169.000000)">
                <g id="-Behavior-notes_ico" transform="translate(712.151515, 0.000000)" sketch:type="MSShapeGroup">
                    <path d="M23.7369461,22.3300085 L4.26319006,22.3300085 C3.84550454,22.3300085 3.50765978,22.0181787 3.50765978,21.6341787 C3.50765978,21.2501787 3.84550454,20.9383489 4.26319006,20.9383489 L23.7369461,20.9383489 C24.1538924,20.9383489 24.4924764,21.2501787 24.4924764,21.6341787 C24.4924764,22.0181787 24.1538924,22.3300085 23.7369461,22.3300085 L23.7369461,22.3300085 Z M23.7369461,27.662434 L4.26319006,27.662434 C3.84550454,27.662434 3.50765978,27.3506043 3.50765978,26.9666043 C3.50765978,26.5826043 3.84550454,26.2707745 4.26319006,26.2707745 L23.7369461,26.2707745 C24.1538924,26.2707745 24.4924764,26.5826043 24.4924764,26.9666043 C24.4924764,27.3506043 24.1538924,27.662434 23.7369461,27.662434 L23.7369461,27.662434 Z M13.5011201,11.6627745 C17.0904398,11.6627745 20.0000681,14.5482213 20.0000681,18.1077106 L7.00217215,18.1077106 C7.00217215,14.5482213 9.91180045,11.6627745 13.5011201,11.6627745 L13.5011201,11.6627745 Z M13.7500681,5.00013617 C15.2686424,5.00013617 16.5000681,6.23147945 16.5000681,7.75013617 C16.5000681,9.26947697 15.2686424,10.5001362 13.7500681,10.5001362 C12.2314938,10.5001362 11.0000681,9.26947697 11.0000681,7.75013617 C11.0000681,6.23147945 12.2314938,5.00013617 13.7500681,5.00013617 L13.7500681,5.00013617 Z M1.00006809,32.0001362 L27.0000681,32.0001362 L27.0000681,0.000136170213 L1.00006809,0.000136170213 L1.00006809,32.0001362 Z" id="Fill-1"></path>
                </g>
            </g>
        </g>
    </g>
</svg>