<?xml version="1.0" encoding="UTF-8" standalone="no"?>
<svg width="27px" height="32px" viewBox="0 0 27 32" version="1.1" xmlns="http://www.w3.org/2000/svg" xmlns:xlink="http://www.w3.org/1999/xlink" xmlns:sketch="http://www.bohemiancoding.com/sketch/ns">
    <!-- Generator: sketchtool 3.5.1 (25234) - http://www.bohemiancoding.com/sketch -->
    <title>content_ico</title>
    <desc>Created with sketchtool.</desc>
    <defs>
        <linearGradient x1="50%" y1="0%" x2="50%" y2="100%" id="linearGradient-1">
            <stop stop-color="#C3D1D7" offset="0%"></stop>
            <stop stop-color="#90A4AE" offset="100%"></stop>
        </linearGradient>
    </defs>
    <g id="HOD" stroke="none" stroke-width="1" fill="none" fill-rule="evenodd" sketch:type="MSPage">
        <g id="H4.31b---HOD-Course-planner" sketch:type="MSArtboardGroup" transform="translate(-669.000000, -169.000000)">
            <g id="Tabs" sketch:type="MSLayerGroup" transform="translate(296.000000, 169.000000)">
                <g id="content_ico" transform="translate(373.000000, 0.000000)" sketch:type="MSShapeGroup">
                    <path d="M0.715102041,4.20440816 C0.404244898,4.26971429 0.182204082,4.5322449 0.182204082,4.83395918 L0.182204082,4.83395918 L0.182204082,28.5831837 C0.182204082,28.6132245 0.184816327,28.6445714 0.189387755,28.6739592 L0.189387755,28.6739592 C0.635428571,31.6466939 3.7675102,31.8465306 4.352,31.8576327 L4.352,31.8576327 L4.41077551,31.8576327 L4.41077551,31.2117551 L4.44604082,31.8576327 L26.2667755,31.8576327 C26.6442449,31.8576327 26.9485714,31.5676735 26.9485714,31.211102 L26.9485714,31.211102 L26.9485714,6.78857143 C26.9485714,6.432 26.6442449,6.14204082 26.2667755,6.14204082 L26.2667755,6.14204082 L13.2290612,6.14204082 L13.2290612,19.9353469 C13.2290612,20.2044082 13.0533878,20.4453878 12.788898,20.5400816 L12.788898,20.5400816 C12.5263673,20.6334694 12.2246531,20.565551 12.0372245,20.3644082 L12.0372245,20.3644082 L8.95085714,17.0579592 L6.14726531,20.3422041 C6.016,20.4976327 5.81942857,20.5818776 5.61828571,20.5818776 L5.61828571,20.5818776 C5.54187755,20.5818776 5.46481633,20.5694694 5.38971429,20.5446531 L5.38971429,20.5446531 C5.11804082,20.4538776 4.9364898,20.2096327 4.9364898,19.9353469 L4.9364898,19.9353469 L4.9364898,6.14204082 L4.65828571,6.14204082 C4.6197551,6.14204082 4.58187755,6.14530612 4.54269388,6.15118367 L4.54269388,6.15118367 C4.37289796,6.17991837 4.20571429,6.19363265 4.04310204,6.19363265 L4.04310204,6.19363265 C2.33273469,6.19363265 1.51314286,4.62302041 1.48114286,4.55836735 L1.48114286,4.55836735 C1.36685714,4.32914286 1.12718367,4.18808163 0.867265306,4.18808163 L0.867265306,4.18808163 C0.816979592,4.18808163 0.766040816,4.19330612 0.715102041,4.20440816 L0.715102041,4.20440816 Z" id="Clip-5" fill="url(#linearGradient-1)"></path>
                    <path d="M23.3090612,0.737959184 C23.2574694,0.796081633 22.0434286,2.17012245 22.283102,3.9764898 L22.283102,3.9764898 C22.4515918,5.23493878 23.2633469,6.35885714 24.6981224,7.31689796 L24.6981224,7.31689796 C24.8176327,7.39657143 24.9541224,7.43510204 25.0899592,7.43510204 L25.0899592,7.43510204 C25.3041633,7.43510204 25.515102,7.33910204 25.6476735,7.16016327 L25.6476735,7.16016327 C25.8651429,6.8682449 25.7906939,6.46530612 25.482449,6.2602449 L25.482449,6.2602449 C24.3794286,5.52359184 23.7583673,4.70465306 23.637551,3.82759184 L23.637551,3.82759184 C23.467102,2.59134694 24.3382857,1.58497959 24.3480816,1.57387755 L24.3480816,1.57387755 C24.5897143,1.30285714 24.555102,0.896653061 24.2690612,0.666122449 L24.2690612,0.666122449 C24.1410612,0.561632653 23.9843265,0.510693878 23.8275918,0.510693878 L23.8275918,0.510693878 C23.6349388,0.510693878 23.4435918,0.587755102 23.3090612,0.737959184 L23.3090612,0.737959184 Z" id="Clip-2" fill="#FD8268"></path>
                    <path d="M3.54155102,0.511346939 C2.38628571,0.545306122 0.207673469,1.2362449 0.182204082,3.60685714 L0.182204082,3.60685714 C0.151510204,3.88179592 0.064,5.08473469 0.856816327,6.09240816 L0.856816327,6.09240816 C1.43085714,6.8244898 2.30922449,7.27379592 3.46710204,7.42857143 L3.46710204,7.42857143 C3.49910204,7.4324898 3.53044898,7.43510204 3.56244898,7.43510204 L3.56244898,7.43510204 L26.2667755,7.43510204 C26.6442449,7.43510204 26.9485714,7.14579592 26.9485714,6.78857143 L26.9485714,6.78857143 C26.9485714,6.43134694 26.6442449,6.14204082 26.2667755,6.14204082 L26.2667755,6.14204082 L3.61208163,6.14204082 C1.35183673,5.81746939 1.48767347,4.08685714 1.53795918,3.74530612 L1.53795918,3.74530612 C1.54383673,3.71330612 1.54579592,3.68 1.54579592,3.64734694 L1.54579592,3.64734694 C1.54579592,1.9317551 3.37763265,1.81093878 3.56244898,1.8037551 L3.56244898,1.8037551 L25.0912653,1.8037551 C25.4674286,1.8037551 25.7724082,1.51379592 25.7724082,1.15722449 L25.7724082,1.15722449 C25.7724082,0.8 25.4674286,0.511346939 25.0912653,0.511346939 L25.0912653,0.511346939 L3.54155102,0.511346939 Z" id="Clip-8" fill="#FD8268"></path>
                </g>
            </g>
        </g>
    </g>
</svg>