<svg xmlns="http://www.w3.org/2000/svg" width="100" height="95" viewBox="0 0 100 95">
    <g fill="none" fill-rule="evenodd">
        <ellipse cx="53.149" cy="49.136" fill="#F5F8FF" opacity=".327" rx="46.217" ry="45.257"/>
        <ellipse cx="46.217" cy="45.257" fill="#F5F8FF" rx="46.217" ry="45.257"/>
        <g fill-rule="nonzero" opacity=".479">
            <path fill="#81F0D0" d="M81.839 63.943H30.435a2.746 2.746 0 0 1-2.754-2.738V3.451A2.746 2.746 0 0 1 30.435.714h51.404a2.746 2.746 0 0 1 2.753 2.737v57.754a2.746 2.746 0 0 1-2.753 2.738z"/>
            <path fill="#81F0D0" d="M81.839 63.943H35.025a2.746 2.746 0 0 1-2.754-2.738V3.451A2.746 2.746 0 0 1 35.025.714h46.814a2.746 2.746 0 0 1 2.753 2.737v57.754a2.746 2.746 0 0 1-2.753 2.738z"/>
            <path fill="#04D481" d="M71.007 12.576v1.826a.915.915 0 0 1-.918.912H37.044a.915.915 0 0 1-.918-.912v-1.826c0-.504.411-.912.918-.912h33.045c.507 0 .918.408.918.912zM37.044 22.613h22.03a.915.915 0 0 0 .918-.912v-1.825a.915.915 0 0 0-.918-.913h-22.03a.915.915 0 0 0-.918.913V21.7c0 .504.411.912.918.912zm33.045 7.3H37.044a.915.915 0 0 0-.918.912v1.826c0 .503.411.912.918.912h33.045a.915.915 0 0 0 .918-.912v-1.826a.915.915 0 0 0-.918-.912zm0 7.3H37.044a.915.915 0 0 0-.918.912v1.825c0 .504.411.913.918.913h33.045a.916.916 0 0 0 .918-.913v-1.825a.915.915 0 0 0-.918-.912zm-11.015 7.3h-22.03a.915.915 0 0 0-.918.912v1.825c0 .504.411.912.918.912h22.03a.915.915 0 0 0 .918-.912v-1.825a.915.915 0 0 0-.918-.913z"/>
            <path fill="#D3F1F5" d="M65.132 31.47v56.624a45.04 45.04 0 0 1-18.725 4.049c-16.112 0-30.242-8.423-38.186-21.08V31.47a2.746 2.746 0 0 1 2.754-2.737h51.404a2.745 2.745 0 0 1 2.753 2.737z"/>
            <path fill="#95BCC9" d="M50.813 38.125v1.825a.916.916 0 0 1-.918.913H16.85a.916.916 0 0 1-.918-.913v-1.825c0-.504.411-.912.918-.912h33.045c.507 0 .918.408.918.912zM38.88 44.512H16.85a.915.915 0 0 0-.918.913v1.825c0 .504.411.912.918.912h22.03a.915.915 0 0 0 .918-.912v-1.825a.915.915 0 0 0-.918-.913z"/>
            <path fill="#84DEEA" d="M50.813 56.374V58.2a.915.915 0 0 1-.918.912H16.85a.915.915 0 0 1-.918-.912v-1.826c0-.503.411-.912.918-.912h33.045c.507 0 .918.409.918.912zm-.918 6.388H16.85a.915.915 0 0 0-.918.912v1.825c0 .504.411.912.918.912h33.045a.915.915 0 0 0 .918-.912v-1.825a.915.915 0 0 0-.918-.912zm-11.015 7.3H16.85a.915.915 0 0 0-.918.912v1.825c0 .504.411.912.918.912h22.03a.915.915 0 0 0 .918-.912v-1.825a.915.915 0 0 0-.918-.913z"/>
        </g>
    </g>
</svg>
