<svg xmlns="http://www.w3.org/2000/svg" width="101" height="96" viewBox="0 0 101 96">
    <g fill="none" fill-rule="evenodd">
        <ellipse cx="53.371" cy="51.504" fill="#F5F8FF" opacity=".327" rx="47.506" ry="44.219"/>
        <ellipse cx="46.333" cy="47.026" fill="#F5F8FF" rx="46.333" ry="44.219"/>
        <g fill-rule="nonzero">
            <path fill="#FCCE56" d="M55.336 73.228c-1.16 6.212-6.632 10.644-12.929 10.963a14.37 14.37 0 0 1-3.19-.193c-7.548-1.298-12.572-8.227-11.22-15.472 1.354-7.247 8.57-12.07 16.12-10.77 1.076.185 2.099.481 3.06.881 5.79 2.4 9.318 8.379 8.159 14.591z"/>
            <path fill="#FAE189" d="M54.094 77.839c-2.408 3.718-6.468 6.13-10.937 6.372-4.108-1.8-7.085-5.49-8.07-9.825l19.007 3.453z" opacity=".577"/>
            <path fill="#FAE189" d="M80.179 72.982L5.848 60.252c1.846-9.846 14.186-14.507 15.127-19.526l3.728-19.885c1.29-6.876 5.374-12.604 10.934-16.302C41.197.84 48.235-.831 55.429.4c14.39 2.465 23.966 15.614 21.387 29.366l-3.728 19.885c-.798 4.258 6.196 11.003 7.201 18.966.18 1.418.17 2.874-.11 4.364z"/>
            <path fill="#FCCE56" d="M83.333 72.982c-1.809 2.119-3.665 5.238-5.848 7.018L4.386 67.368c-1.5-2.56-1.976-5.013-2.924-7.849a4.688 4.688 0 0 1 3.042-.504l77.125 12.952c1.41.24 1.083-.087 1.704 1.015z"/>
            <path fill="#FD8D97" d="M95.03 15.439c0 8.526-7.201 15.438-16.082 15.438-8.882 0-16.083-6.912-16.083-15.438C62.865 6.912 70.065 0 78.948 0c8.881 0 16.081 6.912 16.081 15.439z"/>
            <path fill="#FFF" d="M77.703 11.749l-1.025.674c-.257.147-.545.19-.77.19-.802 0-1.347-.548-1.347-1.096 0-.38.289-.78.802-.99l3.783-1.895c.224-.127.514-.21.866-.21.866 0 1.86.336 1.86.883v13.69c0 .57-1.059.865-2.085.865-1.058 0-2.084-.295-2.084-.864V11.749z"/>
        </g>
    </g>
</svg>
