<svg xmlns="http://www.w3.org/2000/svg" width="41" height="48" viewBox="0 0 41 48">
    <g fill="none" fill-rule="evenodd">
        <path fill="#AED581" d="M35.55 5.984h-5.347v-.241c0-1.494-1.287-2.71-2.869-2.71h-1.836C24.66 1.218 22.742 0 20.596 0h-.192c-2.146 0-4.064 1.217-4.902 3.034h-1.836c-1.582 0-2.869 1.215-2.869 2.709v.24H5.45C2.35 5.984.5 7.383.5 9.724v33.472c0 2.578 2.22 4.675 4.95 4.675h30.1c2.73 0 4.95-2.097 4.95-4.675V22.034v.748-12.123c0-2.578-2.22-4.675-4.95-4.675zm-7.327 2.244H12.777V5.743c0-.463.399-.84.889-.84h2.535c.447 0 .838-.282.955-.69.397-1.38 1.733-2.343 3.248-2.343h.192c1.515 0 2.851.964 3.248 2.344.117.407.508.69.955.69h2.535c.49 0 .889.376.889.839v2.485z"/>
        <path fill="#FFF" d="M12.5 13.898c-2.206 0-4 1.731-4 3.86 0 2.129 1.794 3.86 4 3.86 2.205 0 4-1.731 4-3.86 0-2.129-1.795-3.86-4-3.86zm0 5.882c-1.156 0-2.095-.907-2.095-2.022 0-1.115.94-2.022 2.095-2.022 1.155 0 2.095.907 2.095 2.022 0 1.115-.94 2.022-2.095 2.022zM12.5 24.707c-2.206 0-4 1.732-4 3.86 0 2.13 1.794 3.86 4 3.86 2.205 0 4-1.73 4-3.86 0-2.128-1.795-3.86-4-3.86zm0 5.883c-1.156 0-2.095-.907-2.095-2.023 0-1.115.94-2.022 2.095-2.022 1.155 0 2.095.907 2.095 2.022 0 1.116-.94 2.023-2.095 2.023zM12.5 35.516c-2.206 0-4 1.732-4 3.86 0 2.13 1.794 3.861 4 3.861 2.205 0 4-1.731 4-3.86 0-2.129-1.795-3.86-4-3.86zm0 5.883c-1.156 0-2.095-.907-2.095-2.022 0-1.115.94-2.022 2.095-2.022 1.155 0 2.095.907 2.095 2.022 0 1.115-.94 2.022-2.095 2.022zM31.55 20.074h-10.9c-.525 0-.95.346-.95.773 0 .426.425.772.95.772h10.9c.524 0 .95-.346.95-.772 0-.427-.426-.773-.95-.773zM31.55 15.442h-10.9c-.525 0-.95.345-.95.772 0 .426.425.772.95.772h10.9c.524 0 .95-.346.95-.772 0-.427-.426-.772-.95-.772zM31.55 30.884h-10.9c-.525 0-.95.345-.95.772 0 .426.425.772.95.772h10.9c.524 0 .95-.346.95-.772 0-.427-.426-.772-.95-.772zM31.55 26.251h-10.9c-.525 0-.95.346-.95.772 0 .427.425.772.95.772h10.9c.524 0 .95-.345.95-.772 0-.426-.426-.772-.95-.772zM31.55 41.693h-10.9c-.525 0-.95.346-.95.772 0 .427.425.772.95.772h10.9c.524 0 .95-.345.95-.772 0-.426-.426-.772-.95-.772zM31.55 37.06h-10.9c-.525 0-.95.346-.95.773 0 .426.425.772.95.772h10.9c.524 0 .95-.346.95-.772 0-.427-.426-.773-.95-.773z"/>
    </g>
</svg>
