<svg xmlns="http://www.w3.org/2000/svg" width="100" height="97" viewBox="0 0 100 97">
    <g fill="none" fill-rule="evenodd">
        <circle cx="46.512" cy="46.512" r="46.512" fill="#F5F8FF"/>
        <circle cx="53.488" cy="50.498" r="46.512" fill="#F5F8FF" opacity=".327"/>
        <g fill-rule="nonzero">
            <path fill="#2BA1CF" d="M37.542 60.154v31.873a46.15 46.15 0 0 1-6.885-1.925 46.022 46.022 0 0 1-8.143-3.91A46.926 46.926 0 0 1 9.418 74.39a46.535 46.535 0 0 1-5.431-9.195v-5.042c0-5.85 3.975-10.773 9.375-12.215a12.232 12.232 0 0 1 2.245-.389c.341-.026.686-.042 1.034-.042h8.243a12.591 12.591 0 0 1 3.267.425l.011.004a12.59 12.59 0 0 1 3.93 1.822 12.624 12.624 0 0 1 5.45 10.395z"/>
            <path fill="#2BA1CF" d="M37.21 60.154v31.873a45.52 45.52 0 0 1-6.832-1.925 45.472 45.472 0 0 1-8.08-3.91A46.691 46.691 0 0 1 9.301 74.39V60.154c0-5.85 3.945-10.773 9.303-12.215.197-.053.394-.103.594-.144a12.084 12.084 0 0 1 1.634-.245c.339-.026.68-.042 1.027-.042h2.79a12.402 12.402 0 0 1 3.241.425l.011.004a12.449 12.449 0 0 1 3.9 1.822 12.652 12.652 0 0 1 5.407 10.395z"/>
            <path fill="#F2F0EC" d="M28.24 47.84l-.03.143L24.4 65.53a3.697 3.697 0 0 1-3.604 2.91h-.064a3.696 3.696 0 0 1-3.604-2.91l-3.809-17.544-.03-.144h14.95z"/>
            <path fill="#D8D5D0" d="M20.598 52.704l-5.605 3.11-1.704-7.919 3.482-2.048M20.598 52.704l5.605 3.11 1.704-7.919-3.482-2.048"/>
            <path fill="#CC7A3B" d="M3.654 44.518v-18.97c0-1.928.323-3.816.958-5.614 2.38-6.755 8.804-11.296 15.985-11.296a16.95 16.95 0 0 1 12.83 5.864 16.89 16.89 0 0 1 4.115 11.046v18.97"/>
            <path fill="#A35418" d="M10.676 26.288c0 6.71 3.966 14.473 6.144 18.23H3.654v-18.97c0-1.928.326-3.816.965-5.615C7.002 13.216 13.414 8.69 20.598 8.638c-5.247.13-9.922 8.47-9.922 17.65z"/>
            <path fill="#EAB599" d="M25.25 42.857v5.493a4.475 4.475 0 0 1-4.487 4.474 4.479 4.479 0 0 1-4.484-4.474v-5.493h8.97z"/>
            <path fill="#F6CAAE" d="M25.25 48.173v.35a4.503 4.503 0 0 1-3.175 4.3 4.502 4.502 0 0 1-3.138-3.714 15.449 15.449 0 0 0 3.41-.173 15.347 15.347 0 0 0 2.902-.763zM8.306 33.72A4.153 4.153 0 1 1 0 33.722a4.153 4.153 0 0 1 8.306 0z"/>
            <path fill="#EAB599" d="M8.306 33.72c0 2.095-1.49 3.832-3.443 4.154a16.047 16.047 0 0 1-.544-4.153c0-1.437.19-2.83.544-4.153 1.952.322 3.443 2.058 3.443 4.153z"/>
            <path fill="#EAB599" d="M5.648 33.72a1.495 1.495 0 1 1-2.99.001 1.495 1.495 0 0 1 2.99 0z"/>
            <path fill="#EAB599" d="M31.561 28.453v14.41a15.444 15.444 0 0 1-8.224 4.112l-.077.013c-.786.125-1.592.188-2.416.188-8.576 0-15.528-6.983-15.528-15.597v-5.94c0-.76.053-1.51.158-2.24 3.695 2.669 8.992 2.405 12.368-.8a8.839 8.839 0 0 0 2.333-3.662c.245 2.345 1.313 4.628 3.206 6.426 2.253 2.137 5.23 3.167 8.18 3.09z"/>
            <path fill="#F6CAAE" d="M31.561 28.404v14.337a15.658 15.658 0 0 1-8.295 4.09l-.077.013c-7.492-1.16-13.222-7.583-13.222-15.33v-5.91c0-.157.003-.313.008-.469 2.762.28 5.63-.57 7.749-2.555a8.777 8.777 0 0 0 2.353-3.643c.247 2.333 1.324 4.604 3.233 6.393 2.273 2.126 5.276 3.151 8.251 3.074z"/>
            <path fill="#EAB599" d="M29.236 30.233a2.658 2.658 0 1 0-5.316 0M17.608 30.233a2.658 2.658 0 0 0-5.316 0"/>
            <path fill="#3D4159" d="M16.611 31.395a1.828 1.828 0 1 1-3.655 0 1.828 1.828 0 0 1 3.655 0zM28.24 31.395a1.827 1.827 0 1 1-3.655 0 1.827 1.827 0 0 1 3.654 0z"/>
            <path fill="#EAB599" d="M22.506 35.88h-3.483c-.415 0-.75-.372-.75-.83 0-.458.335-.83.75-.83h3.483c.414 0 .75.372.75.83 0 .458-.336.83-.75.83zM20.764 40.532a7.736 7.736 0 0 1-3.794-1 .714.714 0 0 1-.273-.96.686.686 0 0 1 .94-.278 6.345 6.345 0 0 0 6.254 0 .685.685 0 0 1 .94.278.714.714 0 0 1-.273.96 7.736 7.736 0 0 1-3.794 1z"/>
            <path fill="#FFF" d="M16.28 31.063a.83.83 0 1 1-1.663 0 .83.83 0 0 1 1.662 0zM27.907 31.063a.83.83 0 1 1-1.66 0 .83.83 0 0 1 1.66 0z"/>
            <path fill="#EAB599" d="M31.23 35.549a1.993 1.993 0 1 1-3.988-.001 1.993 1.993 0 0 1 3.987 0zM13.953 35.549a1.993 1.993 0 1 1-3.985 0 1.993 1.993 0 0 1 3.985 0z"/>
            <path fill="#BFD5DE" d="M88.704 59.755v5.847c-4.571 10.088-12.603 18.25-22.566 22.951a45.735 45.735 0 0 1-5.598 2.202 45.214 45.214 0 0 1-6.72 1.604V59.755c0-6.95 5.317-12.651 12.081-13.2.356-.03.714-.043 1.076-.043h8.568c1.013 0 1.999.112 2.946.331 5.848 1.346 10.213 6.618 10.213 12.912z"/>
            <path fill="#DDE8ED" d="M88.704 60.07v5.84A46.773 46.773 0 0 1 66.078 88.83a45.965 45.965 0 0 1-5.613 2.199V60.07c0-7.304 5.907-13.226 13.193-13.226L76 47c6-1 13 5 12.704 13.07z"/>
            <path fill="#D3A489" d="M58.472 32.226a4.319 4.319 0 1 1-8.638.001 4.319 4.319 0 0 1 8.638-.001z"/>
            <path fill="#BF8E75" d="M58.472 32.226c0 2.178-1.615 3.984-3.73 4.319a16.045 16.045 0 0 1-.59-4.32c0-1.493.206-2.942.59-4.318 2.115.336 3.73 2.141 3.73 4.319z"/>
            <path fill="#BF8E75" d="M55.482 32.06a1.496 1.496 0 1 1-2.991 0 1.496 1.496 0 0 1 2.99 0z"/>
            <path fill="#BFD5DE" d="M71.429 52.164l-5.86 3.318-1.782-8.447 3.64-2.185M71.429 52.164l5.859 3.318 1.782-8.447-3.64-2.185"/>
            <path fill="#D3A489" d="M84.385 32.226a4.319 4.319 0 1 0 8.638.001 4.319 4.319 0 0 0-8.638-.001z"/>
            <g fill="#BF8E75">
                <path d="M84.344 32.082a4.374 4.374 0 0 0 3.672 4.319c.378-1.376.58-2.824.58-4.319 0-1.494-.202-2.942-.58-4.319a4.375 4.375 0 0 0-3.672 4.32z"/>
                <path d="M90.279 32.082a1.564 1.564 0 1 1-3.127 0 1.564 1.564 0 0 1 3.127 0z"/>
                <path d="M87.715 29.757c0 8.1-5.914 14.82-13.657 16.067-.849.14-1.721.21-2.61.21-8.986 0-16.268-7.287-16.268-16.277 0-4.254 1.476-10.64 4.146-13.54 2.972-3.228 7.387-2.738 12.121-2.738.89 0 1.761.071 2.61.21 7.744 1.248 13.658 7.967 13.658 16.068z"/>
                <path d="M76.149 41.544v5.774a4.703 4.703 0 0 1-4.703 4.703 4.702 4.702 0 0 1-4.7-4.703v-5.774h9.403z"/>
            </g>
            <path fill="#D3A489" d="M76.08 47.176v.376c0 2.167-1.406 4-3.342 4.607-1.747-.545-3.06-2.09-3.303-3.98a16.049 16.049 0 0 0 3.591-.186 15.93 15.93 0 0 0 3.054-.817zM87.708 29.735c0 8.122-5.899 14.861-13.622 16.112-7.722-1.25-13.62-7.99-13.62-16.112 0-5.002 2.235-9.48 5.758-12.474a16.103 16.103 0 0 1 7.862-3.64c7.2 1.166 12.816 7.104 13.542 14.486.053.535.08 1.079.08 1.628z"/>
            <path fill="#BF8E75" d="M71.429 37.874a8.296 8.296 0 0 1-3.946-1 .699.699 0 0 1-.284-.96.726.726 0 0 1 .978-.278 6.833 6.833 0 0 0 6.504 0 .726.726 0 0 1 .977.278.7.7 0 0 1-.284.96 8.3 8.3 0 0 1-3.945 1z"/>
            <path fill="#3D4159" d="M67.774 29.07a1.827 1.827 0 1 1-3.654 0 1.827 1.827 0 0 1 3.654 0zM78.405 29.07a1.827 1.827 0 1 1-3.654 0 1.827 1.827 0 0 1 3.654 0z"/>
            <path fill="#FFF" d="M67.442 28.737a.83.83 0 1 1-1.662 0 .83.83 0 0 1 1.662 0zM78.405 28.737a.83.83 0 1 1-1.661 0 .83.83 0 0 1 1.661 0z"/>
            <path fill="#BF8E75" d="M73.285 33.555h-3.713c-.442 0-.801-.372-.801-.831 0-.459.359-.83.8-.83h3.714c.443 0 .801.371.801.83 0 .459-.358.83-.8.83z"/>
            <path fill="#393B45" d="M70.432 8.996c4.938.354 8.902 4.361 9.153 9.405l.047.947h2.84l1.53 10.22 3.706-1.152-.498-10.014c-.263-5.3-4.625-9.452-9.904-9.432l-6.874.026z"/>
            <path fill="#393B45" d="M86.737 4.983c3.952 3.952 3.952 10.36 0 14.312s-10.36 3.952-14.312 0L86.737 4.983z"/>
            <path fill="#393B45" d="M72.717 19.348h-12.34l-1.528 10.22-3.7-1.152.496-10.014c.263-5.298 4.62-9.452 9.891-9.432l17.822.068 2.356 4.266"/>
            <path fill="#3D4159" d="M66.113 85.213v3.465a46.813 46.813 0 0 1-19.766 4.345 46.792 46.792 0 0 1-19.769-4.347v-3.463c0-6.84 4.684-12.593 11.047-14.279a14.423 14.423 0 0 1 2.644-.453c.404-.032.81-.05 1.22-.05H51.2a15.074 15.074 0 0 1 3.85.497l.014.004a14.868 14.868 0 0 1 4.63 2.13c3.88 2.668 6.419 7.115 6.419 12.15z"/>
            <path fill="#3D4159" d="M55.15 70.764l-.037.168-4.782 21.926a51.578 51.578 0 0 1-3.983.166 46.041 46.041 0 0 1-3.241-.112c-.25-.017-.5-.034-.749-.054l-4.78-21.924-.036-.17H55.15z"/>
            <path fill="#2BA1CF" d="M46.512 76.334l-6.624 3.732-2.014-9.502 4.115-2.458M46.512 76.334l6.623 3.732 2.015-9.502-4.116-2.458"/>
            <path fill="#EAB599" d="M51.827 64.452v6.59a5.363 5.363 0 0 1-3.744 5.13 5.25 5.25 0 0 1-1.573.24c-2.935 0-5.314-2.404-5.314-5.37v-6.59h10.631z"/>
            <path fill="#F6CAAE" d="M51.827 70.432v.425c0 2.457-1.546 4.532-3.676 5.223-1.921-.62-3.366-2.37-3.633-4.511a17.136 17.136 0 0 0 3.95-.21 17.143 17.143 0 0 0 3.36-.927zM31.894 53.821a4.984 4.984 0 1 1-9.969-.001 4.984 4.984 0 0 1 9.969.001z"/>
            <path fill="#EAB599" d="M31.894 53.987c0 2.429-1.74 4.443-4.017 4.817a18.504 18.504 0 0 1-.634-4.817c0-1.668.22-3.283.634-4.818 2.277.375 4.017 2.389 4.017 4.818z"/>
            <path fill="#EAB599" d="M28.904 53.987a1.828 1.828 0 1 1-3.656-.001 1.828 1.828 0 0 1 3.656 0z"/>
            <path fill="#F6CAAE" d="M61.13 53.821a4.984 4.984 0 1 0 9.968-.001 4.984 4.984 0 0 0-9.968.001z"/>
            <path fill="#EAB599" d="M61.13 53.987c0 2.429 1.74 4.443 4.017 4.817.413-1.535.634-3.15.634-4.817a18.5 18.5 0 0 0-.634-4.818c-2.278.375-4.017 2.389-4.017 4.818z"/>
            <path fill="#F6CAAE" d="M64.784 44.334v7.014c0 9.167-6.703 16.77-15.48 18.182l-.09.015c-.934.15-1.892.222-2.87.222-10.183 0-18.437-8.246-18.437-18.418v-7.015c0-2.142.366-4.2 1.041-6.112 2.522-7.169 9.36-12.308 17.396-12.308h.002c.976 0 1.936.075 2.87.222 8.82 1.377 15.568 9.001 15.568 18.198z"/>
            <path fill="#EAB599" d="M67.774 53.987a1.827 1.827 0 1 1-3.654 0 1.827 1.827 0 0 1 3.654 0z"/>
            <path fill="#F6CAAE" d="M64.784 44.352v6.979c0 9.12-6.651 16.685-15.361 18.09l-.09.014c-8.751-1.37-15.446-8.955-15.446-18.104v-6.98c0-9.15 6.696-16.736 15.45-18.105 8.752 1.37 15.447 8.955 15.447 18.106z"/>
            <path fill="#3D4159" d="M42.525 50a2.16 2.16 0 1 1-4.32 0 2.16 2.16 0 0 1 4.32 0zM54.817 50a2.16 2.16 0 1 1-4.319 0 2.16 2.16 0 0 1 4.32 0z"/>
            <path fill="#FFF" d="M42.193 49.668a.83.83 0 1 1-1.661 0 .83.83 0 0 1 1.66 0zM54.153 49.668a.83.83 0 1 1-1.661 0 .83.83 0 0 1 1.66 0z"/>
            <path fill="#EAB599" d="M48.6 54.485h-4.177c-.498 0-.901-.372-.901-.83 0-.46.403-.831.9-.831h4.179c.497 0 .9.371.9.83 0 .46-.404.831-.9.831zM46.346 60.133a9.08 9.08 0 0 1-4.401-1.143.809.809 0 0 1-.317-1.096.802.802 0 0 1 1.09-.319 7.454 7.454 0 0 0 7.254 0 .8.8 0 0 1 1.091.32.809.809 0 0 1-.317 1.095 9.082 9.082 0 0 1-4.4 1.143z"/>
            <path fill="#393B45" d="M64.784 38.027v7.156h-3.432v-5.605l-24.772-4.58-5.241-.969v11.154h-3.432v-7.157c0-8.158 6.646-14.77 14.843-14.77h7.19c.196 0 .391.003.586.013 7.925.304 14.258 6.794 14.258 14.758z"/>
            <path fill="#393B45" d="M64.784 38.022v7.16h-3.436v-5.607l-24.803-4.583c1.366-6.526 7.061-11.472 13.964-11.736 7.934.304 14.275 6.798 14.275 14.766z"/>
        </g>
    </g>
</svg>
