<?xml version="1.0" encoding="UTF-8"?>
<svg width="32px" height="32px" viewBox="0 0 32 32" version="1.1" xmlns="http://www.w3.org/2000/svg" xmlns:xlink="http://www.w3.org/1999/xlink">
    <!-- Generator: sketchtool 52.6 (67491) - http://www.bohemiancoding.com/sketch -->
    <title>28A9512B-DA6A-41F3-93BC-C8314726A9BF</title>
    <desc>Created with sketchtool.</desc>
    <g id="Main-pages" stroke="none" stroke-width="1" fill="none" fill-rule="evenodd">
        <g id="Teacher-CourseGroup_Homepage" transform="translate(-504.000000, -614.000000)" fill="#FD8268">
            <g id="Course-Schedule" transform="translate(320.000000, 460.000000)">
                <g id="Title-+-Segment" transform="translate(0.000000, 26.000000)">
                    <g id="22-sept" transform="translate(147.000000, 61.000000)">
                        <path d="M52.9772619,87.7333608 C52.3647466,87.7333608 51.8548838,87.2640688 51.803296,86.6536785 L51.0069543,77.1427246 C50.9605972,76.5911143 51.1475294,76.0458136 51.522015,75.638538 C51.8960102,75.2317855 52.4241151,75 52.9772619,75 C53.5304087,75 54.0585135,75.2317855 54.432476,75.638538 C54.8068962,76.0458136 54.9939265,76.5911143 54.9475694,77.1427246 L54.1512277,86.6536785 C54.0996399,87.2640688 53.5897771,87.7333608 52.9772619,87.7333608 Z M52.9772619,88.4333596 C53.6861528,88.4333596 54.2606147,89.0077888 54.2606147,89.7167125 C54.2606147,90.4255708 53.6861528,91 52.9772619,91 C52.2683709,91 51.693909,90.4255708 51.693909,89.7167125 C51.693909,89.0077888 52.2683709,88.4333596 52.9772619,88.4333596 Z M53,67 C44.164,67 37,74.16 37,83 C37,91.84 44.164,99 53,99 C61.836,99 69,91.84 69,83 C69,74.16 61.836,67 53,67 L53,67 Z" id="late"></path>
                    </g>
                </g>
            </g>
        </g>
    </g>
</svg>