<?xml version="1.0" encoding="UTF-8"?>
<svg width="32px" height="32px" viewBox="0 0 32 32" version="1.1" xmlns="http://www.w3.org/2000/svg" xmlns:xlink="http://www.w3.org/1999/xlink">
    <!-- Generator: sketchtool 52.6 (67491) - http://www.bohemiancoding.com/sketch -->
    <title>6439BEAB-E647-43A3-A1EA-454263055289</title>
    <desc>Created with sketchtool.</desc>
    <g id="Main-pages" stroke="none" stroke-width="1" fill="none" fill-rule="evenodd">
        <g id="Teacher-CourseGroup_Homepage" transform="translate(-357.000000, -614.000000)" fill="#fd8268">
            <g id="Course-Schedule" transform="translate(320.000000, 460.000000)">
                <g id="Title-+-Segment" transform="translate(0.000000, 26.000000)">
                    <g id="15-sept" transform="translate(0.000000, 61.000000)">
                        <path d="M59.027,76.07 C58.548,75.79 57.937,75.96 57.661,76.43 L51.266,87.51 L47.688,84.21 C47.31,83.81 46.677,83.79 46.274,84.17 C45.871,84.54 45.85,85.18 46.228,85.58 L50.8,89.8 C51.177,90.2 51.81,90.22 52.213,89.84 C52.335,89.73 59.393,77.43 59.393,77.43 C59.669,76.96 59.505,76.34 59.027,76.07 L59.027,76.07 Z M53,67 C44.164,67 37,74.16 37,83 C37,91.84 44.164,99 53,99 C61.836,99 69,91.84 69,83 C69,74.16 61.836,67 53,67 L53,67 Z" id="complete"></path>
                    </g>
                </g>
            </g>
        </g>
    </g>
</svg>