<?xml version="1.0" encoding="UTF-8" standalone="no"?>
<svg width="26px" height="32px" viewBox="0 0 26 32" version="1.1" xmlns="http://www.w3.org/2000/svg" xmlns:xlink="http://www.w3.org/1999/xlink">
    <!-- Generator: Sketch 3.7.2 (28276) - http://www.bohemiancoding.com/sketch -->
    <title>audio_icon</title>
    <desc>Created with Sketch.</desc>
    <defs></defs>
    <g id="Components" stroke="none" stroke-width="1" fill="none" fill-rule="evenodd">
        <g id="Files" transform="translate(-997.000000, -367.000000)">
            <g id="audio_icon" transform="translate(997.000000, 367.000000)">
                <g id="Layer_1">
                    <g id="Rectangle_45" transform="translate(0.500000, 0.500000)" fill="#F7F9FF">
                        <rect id="Rectangle-path" x="0" y="0" width="23" height="31"></rect>
                    </g>
                    <g id="Ellipse_9" transform="translate(6.000000, 16.500000)" fill="#FFFFFF">
                        <path d="M1.736,9.077 C0.9185,9.282 0.3745,9.861 0.5205,10.3705 C0.666,10.8805 1.4475,11.1275 2.264,10.9225 C3.0815,10.7175 3.6255,10.1385 3.4795,9.628 C3.3335,9.1195 2.5525,8.8725 1.736,9.077 L1.736,9.077 Z M11.4795,7.629 C11.3335,7.1195 10.5525,6.8725 9.7365,7.077 C8.9185,7.282 8.3745,7.861 8.5205,8.3705 C8.666,8.8805 9.4475,9.1275 10.2635,8.9225 C11.0815,8.718 11.6255,8.1385 11.4795,7.629 L11.4795,7.629 Z M11.5,0 L3.5,2 L3.5,4 L11.5,2 L11.5,0 L11.5,0 Z" id="Shape"></path>
                    </g>
                    <g id="Rounded_Rectangle_7_6_">
                        <path d="M8.391,27.9055 C9.394,27.6465 10.057,26.888 9.9685,26.1565 C9.985,26.1065 10,26.0555 10,26 L10,20.875 L17,19.125 L17,23.1225 C16.5935,22.989 16.1065,22.9665 15.609,23.0945 C14.5335,23.372 13.837,24.226 14.053,25.001 C14.27,25.777 15.316,26.181 16.392,25.904 C17.395,25.6455 18.058,24.8865 17.969,24.156 C17.9855,24.1065 18,24.0555 18,24 L18,16.5 C18,16.2235 17.7765,16 17.5,16 C17.4215,16 17.349,16.022 17.283,16.054 L9.5,18 C9.2235,18 9,18.2235 9,18.5 L9,25.1225 C8.594,24.989 8.1065,24.9665 7.609,25.0945 C6.5335,25.372 5.837,26.226 6.053,27.001 C6.269,27.7785 7.316,28.182 8.391,27.9055 L8.391,27.9055 Z M16.134,24.9415 C15.583,25.0725 15.0775,24.9805 15.003,24.7375 C14.93,24.4935 15.316,24.189 15.8665,24.0595 C16.418,23.928 16.924,24.0205 16.998,24.264 C17.0715,24.508 16.684,24.811 16.134,24.9415 L16.134,24.9415 Z M10,18.875 L17,17.125 L17,18.125 L10,19.875 L10,18.875 L10,18.875 Z M7.866,26.0585 C8.417,25.9275 8.923,26.0195 8.997,26.2625 C9.0705,26.5065 8.684,26.811 8.1335,26.9405 C7.5825,27.072 7.0765,26.9795 7.0025,26.736 C6.929,26.492 7.316,26.189 7.866,26.0585 L7.866,26.0585 Z M25,4 L24,4 L24,1 C24,0.448 23.552,0 23,0 L1,0 C0.448,0 0,0.448 0,1 L0,31 C0,31.552 0.448,32 1,32 L23,32 C23.552,32 24,31.552 24,31 L24,13 L25,13 C25.552,13 26,12.552 26,12 L26,5 C26,4.448 25.552,4 25,4 L25,4 Z M23,4 L11,4 C10.448,4 10,4.448 10,5 L10,12 C10,12.552 10.448,13 11,13 L23,13 L23,31 L1,31 L1,1 L23,1 L23,4 L23,4 Z" id="Shape" fill="#00BCD4"></path>
                        <path d="M13.4709982,6.65730823 C13.5334797,6.77185762 13.6055059,6.91330665 13.687079,7.08165954 C13.768652,7.25001243 13.853695,7.43224737 13.9422104,7.62836981 C14.0307259,7.82449226 14.1183722,8.02495069 14.205152,8.22975112 C14.2919319,8.43455154 14.3735037,8.6271999 14.44987,8.80770198 C14.5262362,8.6271999 14.6078081,8.43455154 14.6945879,8.22975112 C14.7813677,8.02495069 14.8690141,7.82449226 14.9575295,7.62836981 C15.046045,7.43224737 15.1310879,7.25001243 15.212661,7.08165954 C15.294234,6.91330665 15.3662602,6.77185762 15.4287417,6.65730823 L16.1681023,6.65730823 C16.2028142,6.8968206 16.2349223,7.16496629 16.2644274,7.46175335 C16.2939326,7.75854041 16.3199661,8.06747202 16.3425289,8.38855743 C16.3650916,8.70964285 16.3859185,9.03159124 16.40501,9.35441225 C16.4241016,9.67723326 16.4405895,9.98095816 16.4544743,10.265596 L15.6630461,10.265596 C15.6526325,9.91500548 15.638748,9.5331799 15.621392,9.12010785 C15.604036,8.7070358 15.5780025,8.2904988 15.5432905,7.87048436 C15.480809,8.0162745 15.4113862,8.17768259 15.3350199,8.35471346 C15.2586537,8.53174434 15.1831563,8.70877257 15.1085257,8.88580344 C15.033895,9.06283432 14.9618688,9.23205248 14.892445,9.39346298 C14.8230211,9.55487349 14.7640117,9.69285137 14.715415,9.80740076 L14.1478776,9.80740076 C14.0992809,9.69285137 14.0402715,9.55487349 13.9708476,9.39346298 C13.9014238,9.23205248 13.8293976,9.06283432 13.7547669,8.88580344 C13.6801362,8.70877257 13.6046389,8.53174434 13.5282727,8.35471346 C13.4519064,8.17768259 13.3824836,8.0162745 13.3200021,7.87048436 C13.2852901,8.2904988 13.2592566,8.7070358 13.2419006,9.12010785 C13.2245446,9.5331799 13.2106601,9.91500548 13.2002465,10.265596 L12.4088183,10.265596 C12.4227031,9.98095816 12.439191,9.67723326 12.4582825,9.35441225 C12.4773741,9.03159124 12.498201,8.70964285 12.5207637,8.38855743 C12.5433265,8.06747202 12.56936,7.75854041 12.5988652,7.46175335 C12.6283703,7.16496629 12.6604784,6.8968206 12.6951903,6.65730823 L13.4709982,6.65730823 Z M18.4320981,6.61565412 C18.9701331,6.61565412 19.383199,6.71024273 19.6713081,6.89942278 C19.9594171,7.08860284 20.1034695,7.39840223 20.1034695,7.82883025 C20.1034695,8.26272946 19.9576816,8.57599999 19.6661013,8.76865124 C19.374521,8.96130249 18.957984,9.05762667 18.4164778,9.05762667 L18.1613464,9.05762667 L18.1613464,10.265596 L17.3490911,10.265596 L17.3490911,6.70937588 C17.526122,6.67466394 17.7135636,6.65036595 17.9114217,6.63648117 C18.1092797,6.6225964 18.2828368,6.61565412 18.4320981,6.61565412 L18.4320981,6.61565412 Z M18.4841658,7.3081538 C18.4251555,7.3081538 18.3670138,7.30988937 18.3097392,7.31336056 C18.2524645,7.31683175 18.2030007,7.3203029 18.1613464,7.32377409 L18.1613464,8.36512699 L18.4164778,8.36512699 C18.6976445,8.36512699 18.9093842,8.32694444 19.0517031,8.25057817 C19.194022,8.17421191 19.2651804,8.03189511 19.2651804,7.82362348 C19.2651804,7.72295887 19.2469569,7.63965147 19.2105094,7.57369879 C19.1740619,7.50774611 19.1219948,7.4548112 19.0543065,7.41489247 C18.9866182,7.37497374 18.9041786,7.34720461 18.8069852,7.33158424 C18.7097917,7.31596387 18.6021863,7.3081538 18.4841658,7.3081538 L18.4841658,7.3081538 Z M21.6385183,10.3436975 C21.5447961,10.3436975 21.4458686,10.337623 21.3417328,10.3254738 C21.237597,10.3133247 21.1369339,10.2968367 21.0397404,10.2760096 C20.942547,10.2551824 20.8540329,10.23262 20.7741954,10.2083216 C20.694358,10.1840233 20.6318774,10.1614609 20.5867519,10.1406337 L20.7377481,9.49499489 C20.8279991,9.53317802 20.9434146,9.57396394 21.0839979,9.61735386 C21.2245813,9.66074378 21.3990061,9.68243842 21.6072778,9.68243842 C21.8467901,9.68243842 22.0220828,9.63731357 22.133161,9.54706254 C22.2442392,9.4568115 22.2997774,9.33532154 22.2997774,9.18258902 C22.2997774,9.08886679 22.2798184,9.00989832 22.2398996,8.94568124 C22.1999809,8.88146415 22.1453104,8.82939703 22.0758866,8.7894783 C22.0064627,8.74955957 21.9240231,8.72179044 21.8285653,8.70617007 C21.7331074,8.6905497 21.6315765,8.68273963 21.5239695,8.68273963 L21.2219772,8.68273963 L21.2219772,8.05792789 L21.5656236,8.05792789 C21.6419899,8.05792789 21.7157517,8.0509856 21.7869111,8.03710083 C21.8580706,8.02321605 21.9214189,7.99978585 21.976958,7.96680951 C22.0324971,7.93383317 22.0767542,7.88870833 22.1097305,7.83143363 C22.1427069,7.77415893 22.1591948,7.70213275 22.1591948,7.6153529 C22.1591948,7.54940022 22.1453102,7.49212639 22.1175407,7.44352967 C22.0897711,7.39493296 22.0541919,7.35501483 22.010802,7.32377409 C21.9674121,7.29253335 21.9170805,7.26910314 21.8598058,7.25348277 C21.8025311,7.2378624 21.7443895,7.23005233 21.6853792,7.23005233 C21.5361179,7.23005233 21.39814,7.25261475 21.2714414,7.29774027 C21.1447429,7.34286579 21.0293274,7.39840405 20.9251916,7.46435673 L20.6492331,6.8968194 C20.7047722,6.86210746 20.7698561,6.82566048 20.8444868,6.78747735 C20.9191174,6.74929421 21.001557,6.7145828 21.0918081,6.68334205 C21.1820591,6.65210131 21.2783833,6.62606775 21.3807835,6.60524059 C21.4831837,6.58441342 21.5916569,6.574 21.7062063,6.574 C21.9179491,6.574 22.1010518,6.59916578 22.2555199,6.64949809 C22.4099881,6.69983039 22.5375525,6.7709888 22.6382171,6.86297543 C22.7388818,6.95496206 22.8135113,7.06256745 22.862108,7.18579483 C22.9107047,7.30902221 22.9350027,7.44352894 22.9350027,7.58931908 C22.9350027,7.73163802 22.8950846,7.8696159 22.8152471,8.00325686 C22.7354097,8.13689782 22.6278043,8.23842871 22.4924277,8.30785258 C22.6798722,8.38421884 22.8247924,8.49789873 22.9271926,8.64889566 C23.0295928,8.79989258 23.0807921,8.98125974 23.0807921,9.19300255 C23.0807921,9.35961985 23.053023,9.51321787 22.9974839,9.65380121 C22.9419448,9.79438456 22.8551662,9.91587451 22.7371457,10.0182747 C22.6191251,10.1206749 22.4689982,10.2005112 22.2867605,10.2577859 C22.1045229,10.3150606 21.8884443,10.3436975 21.6385183,10.3436975 L21.6385183,10.3436975 Z" id="MP3" fill="#FFFFFF"></path>
                    </g>
                </g>
            </g>
        </g>
    </g>
</svg>