<svg xmlns="http://www.w3.org/2000/svg" width="26" height="32" viewBox="0 0 26 32">
    <g fill="none" fill-rule="evenodd">
        <path fill="#F2F8FC" d="M.5.5h23v31H.5z"/>
        <path fill="#2196F3" d="M13.749 16.502l3 3V27a1.5 1.5 0 0 1-1.5 1.5h-6.75A1.5 1.5 0 0 1 7 27v-8.998a1.5 1.5 0 0 1 1.5-1.5h4.499c.502-.008.702.01.75.01v-.01zm1.956 10.178v-6.269h-1.393c-.77 0-1.393-.623-1.393-1.393 0 0-.016-.558-.01-1.393H8.74a.697.697 0 0 0-.696.697v8.358c0 .384.312.697.697.697h6.268a.697.697 0 0 0 .697-.697zm-1.581-4.179a.375.375 0 0 1 0 .75h-4.5a.375.375 0 1 1 0-.75h4.5zm0 2.25a.375.375 0 1 1 0 .75h-4.5a.375.375 0 1 1 0-.75h4.5zM25 4h-1V1a1 1 0 0 0-1-1H1a1 1 0 0 0-1 1v30a1 1 0 0 0 1 1h22a1 1 0 0 0 1-1V13h1a1 1 0 0 0 1-1V5a1 1 0 0 0-1-1zm-2 0H11a1 1 0 0 0-1 1v7a1 1 0 0 0 1 1h12v18H1V1h22v3z"/>
        <path fill="#FFF" d="M14.499 19.501a.75.75 0 0 1-.75-.75v-1.5l2.25 2.25h-1.5z"/>
        <g fill="#FFF">
            <path d="M13.302 9.493a5.249 5.249 0 0 0 .309.01c.401 0 .699-.1.892-.303.194-.202.291-.481.291-.838 0-.374-.093-.657-.278-.849-.185-.192-.478-.288-.88-.288l-.169.003a1.604 1.604 0 0 0-.165.013v2.252zm2.32-1.131c0 .309-.048.578-.144.807-.096.23-.232.42-.409.571-.176.151-.392.264-.645.34a2.993 2.993 0 0 1-.854.113c-.144 0-.312-.006-.504-.018a4.118 4.118 0 0 1-.566-.075V6.63c.185-.035.378-.058.579-.07.2-.012.373-.018.517-.018.305 0 .582.034.83.103a1.7 1.7 0 0 1 .64.324c.179.148.316.336.412.566.096.23.144.506.144.828zm1.506 0c0 .175.022.333.064.473.043.14.105.262.186.363.08.1.179.179.295.234.117.055.25.082.402.082.147 0 .28-.027.398-.082a.814.814 0 0 0 .299-.234 1.08 1.08 0 0 0 .185-.363 1.62 1.62 0 0 0 .064-.473c0-.175-.021-.334-.064-.476a1.078 1.078 0 0 0-.185-.365.814.814 0 0 0-.299-.234.936.936 0 0 0-.398-.082.845.845 0 0 0-.697.321c-.08.101-.143.223-.186.365-.042.143-.064.3-.064.47zm2.721 0c0 .305-.045.573-.136.805-.091.231-.215.425-.373.581a1.531 1.531 0 0 1-.563.352 2.046 2.046 0 0 1-.702.119c-.244 0-.474-.04-.69-.119a1.585 1.585 0 0 1-.565-.352 1.647 1.647 0 0 1-.381-.581 2.157 2.157 0 0 1-.139-.805c0-.305.048-.574.144-.805.096-.231.226-.426.388-.584.163-.158.352-.276.566-.355.215-.079.44-.118.677-.118.243 0 .473.04.689.118.216.08.404.197.566.355.16.158.288.353.38.584.093.231.14.5.14.805zm2.458 1.857c-.58 0-1.021-.161-1.325-.484-.303-.322-.455-.78-.455-1.373 0-.295.046-.558.139-.79a1.591 1.591 0 0 1 .957-.949c.223-.082.464-.123.725-.123.15 0 .288.011.411.033.124.023.232.048.324.078a1.599 1.599 0 0 1 .366.162l-.232.648a1.829 1.829 0 0 0-.88-.21c-.123-.001-.244.02-.362.06a.82.82 0 0 0-.314.199.987.987 0 0 0-.218.352 1.478 1.478 0 0 0-.083.525c0 .164.018.318.054.46a.976.976 0 0 0 .175.368.84.84 0 0 0 .317.244c.13.06.288.09.473.09a2.156 2.156 0 0 0 .56-.07c.072-.018.136-.04.19-.064l.15-.067.221.643a1.88 1.88 0 0 1-.478.185 2.788 2.788 0 0 1-.715.083z"/>
        </g>
    </g>
</svg>
