<?xml version="1.0" encoding="UTF-8" standalone="no"?>
<svg width="26px" height="32px" viewBox="0 0 26 32" version="1.1" xmlns="http://www.w3.org/2000/svg" xmlns:xlink="http://www.w3.org/1999/xlink">
    <!-- Generator: Sketch 3.7.2 (28276) - http://www.bohemiancoding.com/sketch -->
    <title>file_icon</title>
    <desc>Created with Sketch.</desc>
    <defs></defs>
    <g id="Components" stroke="none" stroke-width="1" fill="none" fill-rule="evenodd">
        <g id="Files" transform="translate(-827.000000, -367.000000)">
            <g id="file_icon" transform="translate(827.000000, 367.000000)">
                <g id="Layer_1">
                    <g id="Rectangle_26" transform="translate(0.500000, 0.500000)">
                        <rect id="Rectangle-path" fill="#F3F6F8" x="0" y="0" width="23" height="31"></rect>
                        <path d="M6.5,19.5 C5.948,19.5 5.5,19.948 5.5,20.5 C5.5,21.052 5.948,21.5 6.5,21.5 C7.052,21.5 7.5,21.052 7.5,20.5 C7.5,19.948 7.052,19.5 6.5,19.5 L6.5,19.5 Z M11.5,19.5 C10.948,19.5 10.5,19.948 10.5,20.5 C10.5,21.052 10.948,21.5 11.5,21.5 C12.052,21.5 12.5,21.052 12.5,20.5 C12.5,19.948 12.052,19.5 11.5,19.5 L11.5,19.5 Z M16.5,19.5 C15.948,19.5 15.5,19.948 15.5,20.5 C15.5,21.052 15.948,21.5 16.5,21.5 C17.052,21.5 17.5,21.052 17.5,20.5 C17.5,19.948 17.052,19.5 16.5,19.5 L16.5,19.5 Z" id="Shape" fill="#C2CDDC"></path>
                    </g>
                    <g id="icon_5_" fill="#78909C">
                        <path d="M25,4 L24,4 L24,1 C24,0.448 23.552,0 23,0 L1,0 C0.448,0 0,0.448 0,1 L0,31 C0,31.552 0.448,32 1,32 L23,32 C23.552,32 24,31.552 24,31 L24,13 L25,13 C25.552,13 26,12.552 26,12 L26,5 C26,4.448 25.552,4 25,4 L25,4 Z M7,19.5 C6.1715,19.5 5.5,20.1715 5.5,21 C5.5,21.8285 6.1715,22.5 7,22.5 C7.8285,22.5 8.5,21.8285 8.5,21 C8.5,20.1715 7.8285,19.5 7,19.5 L7,19.5 Z M7,21.5 C6.7235,21.5 6.5,21.2765 6.5,21 C6.5,20.7235 6.7235,20.5 7,20.5 C7.2765,20.5 7.5,20.7235 7.5,21 C7.5,21.2765 7.2765,21.5 7,21.5 L7,21.5 Z M12,19.5 C11.1715,19.5 10.5,20.1715 10.5,21 C10.5,21.8285 11.1715,22.5 12,22.5 C12.8285,22.5 13.5,21.8285 13.5,21 C13.5,20.1715 12.8285,19.5 12,19.5 L12,19.5 Z M12,21.5 C11.7235,21.5 11.5,21.2765 11.5,21 C11.5,20.7235 11.7235,20.5 12,20.5 C12.2765,20.5 12.5,20.7235 12.5,21 C12.5,21.2765 12.2765,21.5 12,21.5 L12,21.5 Z M15.5,21 C15.5,21.8285 16.1715,22.5 17,22.5 C17.8285,22.5 18.5,21.8285 18.5,21 C18.5,20.1715 17.8285,19.5 17,19.5 C16.1715,19.5 15.5,20.1715 15.5,21 L15.5,21 Z M17,20.5 C17.2765,20.5 17.5,20.7235 17.5,21 C17.5,21.2765 17.2765,21.5 17,21.5 C16.7235,21.5 16.5,21.2765 16.5,21 C16.5,20.7235 16.7235,20.5 17,20.5 L17,20.5 Z M23,4 L11,4 C10.448,4 10,4.448 10,5 L10,12 C10,12.552 10.448,13 11,13 L23,13 L23,31 L1,31 L1,1 L23,1 L23,4 L23,4 Z" id="Shape"></path>
                    </g>
                    <g id="Group" transform="translate(13.500000, 6.500000)" fill="#FFFFFF">
                        <path d="M0,4.02894906 L0,0.430931407 L2.40906232,0.430931407 L2.40906232,1.11107616 L0.809943367,1.11107616 L0.809943367,1.86390813 L2.2325362,1.86390813 L2.2325362,2.54405288 L0.809943367,2.54405288 L0.809943367,4.02894906 L0,4.02894906 Z M3.86705476,4.02894906 L3.093455,4.02894906 L3.093455,1.29798617 L3.86705476,1.29798617 L3.86705476,4.02894906 Z M3.93974198,0.508810577 C3.93974198,0.650724441 3.89388026,0.762350135 3.80215545,0.843691008 C3.71043064,0.925031881 3.6022662,0.965701707 3.47765891,0.965701707 C3.35305161,0.965701707 3.24488718,0.925031881 3.15316237,0.843691008 C3.06143755,0.762350135 3.01557583,0.650724441 3.01557583,0.508810577 C3.01557583,0.366896713 3.06143755,0.255271019 3.15316237,0.173930146 C3.24488718,0.0925892731 3.35305161,0.0519194466 3.47765891,0.0519194466 C3.6022662,0.0519194466 3.71043064,0.0925892731 3.80215545,0.173930146 C3.89388026,0.255271019 3.93974198,0.366896713 3.93974198,0.508810577 L3.93974198,0.508810577 Z M5.8494336,4.0808685 C5.62444821,4.07740719 5.44186665,4.05317836 5.30168344,4.00818128 C5.16150024,3.9631842 5.05073986,3.90001617 4.96939898,3.8186753 C4.88805811,3.73733443 4.83267792,3.63868846 4.80325676,3.52273445 C4.77383559,3.40678044 4.75912523,3.27611781 4.75912523,3.13074263 L4.75912523,0.124606672 L5.53272498,0 L5.53272498,2.97498429 C5.53272498,3.04421057 5.53791687,3.10651328 5.54830081,3.1618943 C5.55868476,3.21727532 5.57858701,3.26400235 5.60800818,3.30207681 C5.63742934,3.34015126 5.6798298,3.37130261 5.73521082,3.39553181 C5.79059184,3.41976101 5.86500897,3.43533668 5.95846444,3.44225931 L5.8494336,4.0808685 Z M6.43517934,2.68423539 C6.43517934,2.44194343 6.4723879,2.22994114 6.54680615,2.04822217 C6.62122439,1.8665032 6.71900504,1.71507299 6.84015102,1.59392701 C6.961297,1.47278103 7.10061279,1.38105759 7.25810257,1.31875394 C7.41559234,1.2564503 7.57740633,1.22529894 7.74354939,1.22529894 C8.13121653,1.22529894 8.4375382,1.34384716 8.6625236,1.58094715 C8.88750899,1.81804714 9,2.16676927 9,2.627124 C9,2.67212108 8.99826937,2.72144406 8.99480806,2.77509442 C8.99134674,2.82874479 8.98788548,2.87633714 8.98442417,2.9178729 L7.22954687,2.9178729 C7.24685344,3.07709333 7.32127057,3.20342939 7.45280049,3.29688486 C7.58433041,3.39034033 7.76085477,3.43706737 7.98237885,3.43706737 C8.12429271,3.43706737 8.2636085,3.42408763 8.40033039,3.39812778 C8.53705228,3.37216793 8.64867798,3.34015126 8.73521082,3.30207681 L8.83904972,3.93030211 C8.79751395,3.95106999 8.74213376,3.97183756 8.67290749,3.99260545 C8.60368121,4.01337333 8.52666814,4.03154495 8.44186595,4.04712086 C8.35706376,4.06269678 8.26620564,4.07567651 8.16928885,4.08606045 C8.07237207,4.09644439 7.97545674,4.10163628 7.87853995,4.10163628 C7.63278668,4.10163628 7.41905376,4.06529303 7.23733479,3.99260545 C7.05561582,3.91991786 6.90505093,3.82040658 6.7856356,3.69406863 C6.66622028,3.56773068 6.5779581,3.4180311 6.52084642,3.24496541 C6.46373475,3.07189973 6.43517934,2.88499159 6.43517934,2.68423539 L6.43517934,2.68423539 Z M8.25235997,2.38829454 C8.24889865,2.32252958 8.23764955,2.25849624 8.21861233,2.19619259 C8.1995751,2.13388894 8.17015438,2.07850876 8.13034927,2.03005036 C8.09054416,1.98159197 8.04035586,1.94178746 7.97978287,1.91063564 C7.91920988,1.87948381 7.84392744,1.86390813 7.75393328,1.86390813 C7.66740044,1.86390813 7.59298331,1.8786185 7.53067966,1.90803966 C7.46837601,1.93746083 7.41645709,1.97640003 7.37492132,2.02485842 C7.33338556,2.07331681 7.30136888,2.12956232 7.27887034,2.19359662 C7.25637181,2.25763092 7.23993081,2.32252958 7.22954687,2.38829454 L8.25235997,2.38829454 Z" id="File"></path>
                    </g>
                </g>
            </g>
        </g>
    </g>
</svg>