<?xml version="1.0" encoding="UTF-8" standalone="no"?>
<svg width="36px" height="44px" viewBox="0 0 36 44" version="1.1" xmlns="http://www.w3.org/2000/svg" xmlns:xlink="http://www.w3.org/1999/xlink">
    <!-- Generator: sketchtool 3.6.1 (26313) - http://www.bohemiancoding.com/sketch -->
    <title>pdf_icon</title>
    <desc>Created with sketchtool.</desc>
    <defs></defs>
    <g id="Teacher" stroke="none" stroke-width="1" fill="none" fill-rule="evenodd">
        <g id="*View_Content" transform="translate(-736.000000, -526.000000)">
            <g id="Content" transform="translate(726.000000, 490.000000)">
                <g id="pdf" transform="translate(10.000000, 36.000000)">
                    <g id="pdf_icon">
                        <rect id="Rectangle-path" fill="#F7F9FF" x="0" y="1" width="31.8461538" height="42.625"></rect>
                        <path d="M34.6153846,5.5 L33.2307692,5.5 L33.2307692,1.375 C33.2307692,0.616 32.6104615,0 31.8461538,0 L1.38461538,0 C0.620307692,0 0,0.616 0,1.375 L0,42.625 C0,43.384 0.620307692,44 1.38461538,44 L31.8461538,44 C32.6104615,44 33.2307692,43.384 33.2307692,42.625 L33.2307692,17.875 L34.6153846,17.875 C35.3796923,17.875 36,17.259 36,16.5 L36,6.875 C36,6.116 35.3796923,5.5 34.6153846,5.5 L34.6153846,5.5 Z M31.8461538,5.5 L15.2307692,5.5 C14.4664615,5.5 13.8461538,6.116 13.8461538,6.875 L13.8461538,16.5 C13.8461538,17.259 14.4664615,17.875 15.2307692,17.875 L31.8461538,17.875 L31.8461538,42.625 L1.38461538,42.625 L1.38461538,1.375 L31.8461538,1.375 L31.8461538,5.5 L31.8461538,5.5 Z M11.7283846,37.1270625 C12.3320769,36.199625 12.7516154,34.9724375 12.8353846,34.4348125 C14.9801538,33.451 17.4108462,33.0859375 19.3977692,32.9635625 C19.8574615,33.36575 20.4916154,33.9769375 21.0773077,34.4526875 C22.5623077,35.657875 23.6326154,36.042875 24.7887692,35.4413125 C25.2200769,35.217875 25.5018462,34.7208125 25.5717692,34.1446875 C25.5773077,34.128875 25.5863077,34.1171875 25.5897692,34.1006875 L25.6001538,34.0456875 C25.6001538,33.265375 25.1134615,32.0436875 23.4906923,31.780375 C22.1628462,31.5651875 20.3933077,31.6188125 19.6643077,31.68275 C17.5368462,30.0705625 15.7617692,28.5374375 14.6478462,27.4965625 C14.7350769,26.654375 14.8486154,25.0745 14.5813846,24.233 C13.9299231,22.1821875 11.4486923,22.1134375 11.1039231,24.305875 C10.8491538,25.9249375 12.6699231,27.512375 13.1884615,27.927625 C12.834,29.4958125 12.1673077,32.1055625 11.7761538,33.6153125 C11.3171538,33.818125 10.7203846,34.0924375 10.1921538,34.3798125 C9.13776923,34.953875 8.30076923,36.152875 8.32015385,36.9435 C8.37692308,39.24525 10.7217692,38.67325 11.7283846,37.1270625 L11.7283846,37.1270625 Z M21.3791538,32.9841875 C22.2881538,32.9841875 22.9292308,32.9725 22.9624615,32.97525 C23.1722308,32.9828125 23.7918462,33.086625 24.0777692,33.419375 C24.1885385,33.5493125 24.2328462,33.642125 24.2113846,33.8449375 C24.0736154,34.348875 23.85,34.375 23.6063077,34.375 C23.3238462,34.375 22.9423846,34.2155 22.8793846,34.1873125 C22.1704615,33.746625 22.0936154,33.6111875 21.3396923,32.96975 C21.3459231,32.968375 21.3729231,32.9841875 21.3791538,32.9841875 L21.3791538,32.9841875 Z M14.3529231,28.8811875 L17.8795385,31.876625 C17.2031538,31.956375 16.2491538,32.0546875 15.3595385,32.2664375 C14.5571538,32.4561875 13.8925385,32.7105625 13.3726154,32.9016875 L14.3529231,28.8811875 L14.3529231,28.8811875 Z M13.1663077,26.057625 C12.3826154,25.194125 12.3950769,24.5733125 12.4366154,24.4289375 C12.5058462,24.1869375 12.6013846,24.052875 12.7772308,24.052875 C13.0638462,24.052875 13.1593846,24.2556875 13.2230769,24.3478125 C13.383,24.58225 13.5152308,25.1879375 13.4501538,26.343625 C13.2646154,26.16075 13.1663077,26.057625 13.1663077,26.057625 L13.1663077,26.057625 Z M9.84253846,36.3969375 C10.269,35.743125 10.6511538,35.4715625 11.3905385,35.0728125 C10.6698462,36.955875 9.99,37.1201875 9.71723077,37.12775 C9.71030769,37.1215625 9.70684615,37.1146875 9.70338462,37.109875 C9.63346154,36.9730625 9.71792308,36.641 9.84253846,36.3969375 L9.84253846,36.3969375 Z" id="Shape" fill="#FF5A6E"></path>
                        <g id="pdf" transform="translate(18.000000, 8.937500)" fill="#FFFFFF">
                            <path d="M1.57223077,3.4821875 L1.57223077,5.15625 L0.402923077,5.15625 L0.402923077,0.1478125 L2.18146154,0.1478125 C2.53661538,0.1478125 2.84192308,0.18975 3.09738462,0.273625 C3.35146154,0.3575 3.56192308,0.4723125 3.72669231,0.6194375 C3.89146154,0.765875 4.01330769,0.939125 4.09223077,1.1385 C4.17046154,1.337875 4.20992308,1.55375 4.20992308,1.7840625 C4.20992308,2.033625 4.16907692,2.26325 4.08807692,2.4715625 C4.00707692,2.6805625 3.88384615,2.858625 3.71769231,3.0078125 C3.55153846,3.157 3.34107692,3.2731875 3.08630769,3.3570625 C2.83153846,3.44025 2.529,3.482875 2.18076923,3.482875 L1.57223077,3.482875 L1.57223077,3.4821875 Z M1.57223077,2.605625 L2.18146154,2.605625 C2.48607692,2.605625 2.70553846,2.5334375 2.83915385,2.3890625 C2.97276923,2.2446875 3.03992308,2.04325 3.03992308,1.7840625 C3.03992308,1.6699375 3.02261538,1.5654375 2.988,1.47125 C2.95338462,1.3770625 2.90076923,1.296625 2.83015385,1.2285625 C2.75953846,1.1611875 2.67161538,1.1089375 2.56361538,1.0718125 C2.45630769,1.035375 2.32892308,1.0175 2.18076923,1.0175 L1.57153846,1.0175 L1.57153846,2.605625 L1.57223077,2.605625 Z" id="Shape"></path>
                            <path d="M9.39530769,2.6503125 C9.39530769,3.0119375 9.33230769,3.3460625 9.207,3.652 C9.08169231,3.9579375 8.90376923,4.222625 8.67530769,4.4460625 C8.44684615,4.6695 8.17130769,4.8434375 7.85007692,4.9685625 C7.52884615,5.0936875 7.17023077,5.15625 6.77838462,5.15625 L4.81915385,5.15625 L4.81915385,0.1478125 L6.77838462,0.1478125 C7.17023077,0.1478125 7.52815385,0.2110625 7.85007692,0.336875 C8.172,0.4626875 8.44684615,0.6373125 8.67530769,0.859375 C8.90376923,1.0814375 9.081,1.3454375 9.207,1.651375 C9.333,1.9573125 9.39530769,2.29075 9.39530769,2.6503125 L9.39530769,2.6503125 Z M8.19830769,2.6503125 C8.19830769,2.4028125 8.16576923,2.1786875 8.10069231,1.9793125 C8.03561538,1.7799375 7.94284615,1.6108125 7.82238462,1.472625 C7.70123077,1.33375 7.55307692,1.227875 7.37723077,1.1529375 C7.20138462,1.078 7.00269231,1.040875 6.77838462,1.040875 L5.99607692,1.040875 L5.99607692,4.2625 L6.77838462,4.2625 C7.00269231,4.2625 7.20138462,4.2246875 7.37723077,4.1504375 C7.55307692,4.076875 7.70123077,3.969625 7.82238462,3.83075 C7.94353846,3.6925625 8.03630769,3.5234375 8.10069231,3.3240625 C8.16507692,3.1246875 8.19830769,2.9005625 8.19830769,2.6503125 L8.19830769,2.6503125 Z" id="Shape"></path>
                            <path d="M13.203,0.1478125 L13.203,1.0415625 L11.133,1.0415625 L11.133,2.3106875 L12.8568462,2.3106875 L12.8568462,3.207875 L11.133,3.207875 L11.133,5.15625 L9.95607692,5.15625 L9.95607692,0.1478125 L13.203,0.1478125 L13.203,0.1478125 Z" id="Shape"></path>
                        </g>
                    </g>
                </g>
            </g>
        </g>
    </g>
</svg>