<?xml version="1.0" encoding="UTF-8" standalone="no"?>
<svg width="36px" height="44px" viewBox="0 0 36 44" version="1.1" xmlns="http://www.w3.org/2000/svg" xmlns:xlink="http://www.w3.org/1999/xlink">
    <!-- Generator: sketchtool 3.6.1 (26313) - http://www.bohemiancoding.com/sketch -->
    <title>ppt_icon</title>
    <desc>Created with sketchtool.</desc>
    <defs></defs>
    <g id="Teacher" stroke="none" stroke-width="1" fill="none" fill-rule="evenodd">
        <g id="*View_Content" transform="translate(-736.000000, -594.000000)">
            <g id="Content" transform="translate(726.000000, 490.000000)">
                <g id="ppt" transform="translate(10.000000, 104.000000)">
                    <g id="ppt_icon">
                        <rect id="Rectangle-path" fill="#FFFAF1" x="0.692307692" y="0.6875" width="31.8461538" height="42.625"></rect>
                        <g id="Group-4" transform="translate(9.000000, 22.000000)">
                            <ellipse id="Oval" fill="#FFFFFF" cx="8.30769231" cy="8.25" rx="7.61538462" ry="7.5625"></ellipse>
                            <path d="M8.30769231,0.6875 L8.30769231,7.5625 L14.022,13.237125 C15.2016923,11.90475 15.9230769,10.1633125 15.9230769,8.25 C15.9230769,4.0734375 12.5134615,0.6875 8.30769231,0.6875 L8.30769231,0.6875 Z" id="Shape" fill="#FFDCA8"></path>
                            <path d="M0.692307692,8.146875 C0.692307692,10.033375 1.41369231,11.752125 2.59338462,13.06525 L8.30769231,7.4683125 L8.30769231,0.6875 C4.10192308,0.6875 0.692307692,4.0266875 0.692307692,8.146875 L0.692307692,8.146875 Z" id="Shape" fill="#FFF3E0"></path>
                        </g>
                        <path d="M17.3076923,38.5 C21.8956154,38.5 25.6153846,34.8060625 25.6153846,30.25 C25.6153846,25.6939375 21.8956154,22 17.3076923,22 C12.7197692,22 9,25.6939375 9,30.25 C9,34.8060625 12.7197692,38.5 17.3076923,38.5 L17.3076923,38.5 Z M18,23.4100625 C21.4982308,23.7551875 24.2307692,26.6853125 24.2307692,30.25 C24.2307692,31.7295 23.7544615,33.0969375 22.9548462,34.2175625 L18,29.297125 L18,23.4100625 L18,23.4100625 Z M22.0631538,35.2378125 C20.8225385,36.4045 19.1513077,37.125 17.3076923,37.125 C15.4640769,37.125 13.7928462,36.4045 12.5522308,35.2378125 L17.3076923,30.515375 L22.0631538,35.2378125 L22.0631538,35.2378125 Z M16.6153846,23.4100625 L16.6153846,29.297125 L11.6605385,34.2175625 C10.8602308,33.0969375 10.3846154,31.7295 10.3846154,30.25 C10.3846154,26.684625 13.1171538,23.7551875 16.6153846,23.4100625 L16.6153846,23.4100625 Z M34.6153846,5.5 L33.2307692,5.5 L33.2307692,1.375 C33.2307692,0.616 32.6104615,0 31.8461538,0 L1.38461538,0 C0.620307692,0 0,0.616 0,1.375 L0,42.625 C0,43.384 0.620307692,44 1.38461538,44 L31.8461538,44 C32.6104615,44 33.2307692,43.384 33.2307692,42.625 L33.2307692,17.875 L34.6153846,17.875 C35.3796923,17.875 36,17.259 36,16.5 L36,6.875 C36,6.116 35.3796923,5.5 34.6153846,5.5 L34.6153846,5.5 Z M31.8461538,5.5 L15.2307692,5.5 C14.4664615,5.5 13.8461538,6.116 13.8461538,6.875 L13.8461538,16.5 C13.8461538,17.259 14.4664615,17.875 15.2307692,17.875 L31.8461538,17.875 L31.8461538,42.625 L1.38461538,42.625 L1.38461538,1.375 L31.8461538,1.375 L31.8461538,5.5 L31.8461538,5.5 Z" id="Shape" fill="#FFB93F"></path>
                        <g id="Group" transform="translate(18.000000, 8.937500)" fill="#FFFFFF">
                            <path d="M1.78753846,3.4821875 L1.78753846,5.15625 L0.618230769,5.15625 L0.618230769,0.1478125 L2.39676923,0.1478125 C2.75192308,0.1478125 3.05723077,0.18975 3.31269231,0.273625 C3.56676923,0.3575 3.77723077,0.4723125 3.942,0.6194375 C4.10676923,0.765875 4.22861538,0.939125 4.30753846,1.1385 C4.38576923,1.337875 4.42523077,1.55375 4.42523077,1.7840625 C4.42523077,2.033625 4.38438462,2.26325 4.30338462,2.4715625 C4.22238462,2.6805625 4.09915385,2.858625 3.933,3.0078125 C3.76684615,3.157 3.55638462,3.2731875 3.30161538,3.3570625 C3.04684615,3.44025 2.74430769,3.482875 2.39607692,3.482875 L1.78753846,3.482875 L1.78753846,3.4821875 Z M1.78753846,2.605625 L2.39676923,2.605625 C2.70138462,2.605625 2.92084615,2.5334375 3.05446154,2.3890625 C3.18807692,2.2446875 3.25523077,2.04325 3.25523077,1.7840625 C3.25523077,1.6699375 3.23792308,1.5654375 3.20330769,1.47125 C3.16869231,1.3770625 3.11607692,1.296625 3.04546154,1.2285625 C2.97484615,1.1611875 2.88692308,1.1089375 2.77892308,1.0718125 C2.67161538,1.035375 2.54423077,1.0175 2.39607692,1.0175 L1.78684615,1.0175 L1.78684615,2.605625 L1.78753846,2.605625 Z" id="Shape"></path>
                            <path d="M6.20446154,3.4821875 L6.20446154,5.15625 L5.03446154,5.15625 L5.03446154,0.1478125 L6.81369231,0.1478125 C7.16953846,0.1478125 7.47415385,0.18975 7.72892308,0.273625 C7.98438462,0.3575 8.19415385,0.4723125 8.35892308,0.6194375 C8.52369231,0.765875 8.64553846,0.939125 8.72376923,1.1385 C8.802,1.337875 8.84146154,1.55375 8.84146154,1.7840625 C8.84146154,2.033625 8.80061538,2.26325 8.72030769,2.4715625 C8.64,2.6805625 8.51607692,2.858625 8.35061538,3.0078125 C8.18446154,3.157 7.97330769,3.2731875 7.71853846,3.3570625 C7.46376923,3.44025 7.16192308,3.482875 6.813,3.482875 L6.20446154,3.482875 L6.20446154,3.4821875 Z M6.20446154,2.605625 L6.81369231,2.605625 C7.11761538,2.605625 7.33776923,2.5334375 7.47138462,2.3890625 C7.605,2.2446875 7.67215385,2.04325 7.67215385,1.7840625 C7.67215385,1.6699375 7.65484615,1.5654375 7.62023077,1.47125 C7.58561538,1.3770625 7.533,1.296625 7.46238462,1.2285625 C7.39176923,1.1611875 7.30315385,1.1089375 7.19584615,1.0718125 C7.08853846,1.035375 6.96046154,1.0175 6.813,1.0175 L6.20376923,1.0175 L6.20376923,2.605625 L6.20446154,2.605625 Z" id="Shape"></path>
                            <path d="M13.113,0.1478125 L13.113,1.0690625 L11.6937692,1.0690625 L11.6937692,5.15625 L10.5237692,5.15625 L10.5237692,1.0690625 L9.10523077,1.0690625 L9.10523077,0.1478125 L13.113,0.1478125 L13.113,0.1478125 Z" id="Shape"></path>
                        </g>
                    </g>
                </g>
            </g>
        </g>
    </g>
</svg>