<?xml version="1.0" encoding="UTF-8" standalone="no"?>
<svg width="26px" height="32px" viewBox="0 0 26 32" version="1.1" xmlns="http://www.w3.org/2000/svg" xmlns:xlink="http://www.w3.org/1999/xlink">
    <!-- Generator: Sketch 3.7.2 (28276) - http://www.bohemiancoding.com/sketch -->
    <title>video_icon</title>
    <desc>Created with Sketch.</desc>
    <defs></defs>
    <g id="Components" stroke="none" stroke-width="1" fill="none" fill-rule="evenodd">
        <g id="Files" transform="translate(-1065.000000, -367.000000)">
            <g id="video_icon" transform="translate(1065.000000, 367.000000)">
                <g id="Layer_1">
                    <g id="Rectangle_26" transform="translate(0.500000, 0.500000)" fill="#FDF8FA">
                        <rect id="Rectangle-path" x="0" y="0" width="23" height="31"></rect>
                    </g>
                    <g id="Ellipse_6" transform="translate(7.000000, 16.500000)" fill="#FFFFFF">
                        <circle id="Oval" cx="5.5" cy="5.5" r="5.5"></circle>
                    </g>
                    <g id="icon_5_" fill="#FF4081">
                        <path d="M25,4 L24,4 L24,1 C24,0.448 23.552,0 23,0 L1,0 C0.448,0 0,0.448 0,1 L0,31 C0,31.552 0.448,32 1,32 L23,32 C23.552,32 24,31.552 24,31 L24,13 L25,13 C25.552,13 26,12.552 26,12 L26,5 C26,4.448 25.552,4 25,4 L25,4 Z M23,4 L11,4 C10.448,4 10,4.448 10,5 L10,12 C10,12.552 10.448,13 11,13 L23,13 L23,31 L1,31 L1,1 L23,1 L23,4 L23,4 Z M12.5,28 C15.8135,28 18.5,25.3135 18.5,22 C18.5,18.686 15.8135,16 12.5,16 C9.1865,16 6.5,18.686 6.5,22 C6.5,25.3135 9.1865,28 12.5,28 L12.5,28 Z M12.5,17 C15.2605,17 17.5,19.2395 17.5,22 C17.5,24.7605 15.2605,27 12.5,27 C9.739,27 7.5,24.7605 7.5,22 C7.5,19.2395 9.739,17 12.5,17 L12.5,17 Z M11.0365,23.682 C11.039,23.6885 11.041,23.694 11.0435,23.701 C11.0535,23.724 11.055,23.749 11.069,23.771 C11.089,23.8035 11.1195,23.826 11.1455,23.8525 C11.1465,23.853 11.1465,23.8535 11.1475,23.854 C11.1915,23.8975 11.2415,23.9305 11.298,23.9555 C11.303,23.9575 11.3075,23.96 11.312,23.962 C11.3705,23.9855 11.4315,23.9975 11.4955,23.999 C11.497,23.999 11.4985,24 11.5,24 C11.501,24 11.5015,23.9995 11.502,23.9995 C11.5905,24.0005 11.679,23.9885 11.761,23.9445 L14.246,22.3745 C14.2865,22.3525 14.3055,22.3345 14.3175,22.3175 C14.4085,22.2405 14.47,22.129 14.47,22 C14.47,21.871 14.4085,21.76 14.3175,21.6825 C14.307,21.6655 14.2865,21.6475 14.246,21.6255 L11.761,20.0555 C11.679,20.0115 11.5905,19.9995 11.502,20.0005 C11.5015,20.0005 11.501,20 11.5,20 C11.4985,20 11.497,20.001 11.4955,20.001 C11.4315,20.0025 11.3705,20.0145 11.312,20.038 C11.307,20.04 11.3025,20.042 11.298,20.0445 C11.2415,20.0695 11.1915,20.1025 11.1475,20.146 C11.1465,20.1465 11.1465,20.147 11.1455,20.1475 C11.119,20.174 11.089,20.1965 11.069,20.229 C11.0555,20.251 11.0535,20.276 11.0435,20.299 C11.041,20.306 11.039,20.3115 11.0365,20.318 C11.02,20.3645 11.009,20.4105 11.0085,20.4575 C11.0075,20.4715 11,20.4855 11,20.5 L11,23.5 C11,23.5145 11.0075,23.5285 11.009,23.5425 C11.0095,23.59 11.02,23.6355 11.0365,23.682 L11.0365,23.682 Z" id="Shape"></path>
                    </g>
                    <g id="Group" transform="translate(12.500000, 6.500000)" fill="#FFFFFF">
                        <path d="M0.939841612,0.573713068 C0.995126689,0.675069042 1.05885714,0.800226437 1.13103488,0.949189006 C1.20321262,1.09815157 1.27846062,1.2593973 1.35678115,1.43293101 C1.43510168,1.60646473 1.51265319,1.78383502 1.58943802,1.96504722 C1.66622285,2.14625942 1.73839951,2.31671918 1.80597016,2.47643163 C1.87354081,2.31671918 1.94571746,2.14625942 2.02250229,1.96504722 C2.09928712,1.78383502 2.17683864,1.60646473 2.25515916,1.43293101 C2.33347969,1.2593973 2.40872769,1.09815157 2.48090543,0.949189006 C2.55308317,0.800226437 2.61681362,0.675069042 2.6720987,0.573713068 L3.32630218,0.573713068 C3.35701611,0.785639197 3.38542607,1.02290076 3.41153291,1.28550488 C3.43763975,1.54810899 3.46067486,1.82145889 3.48063891,2.10556275 C3.50060297,2.38966662 3.51903105,2.67453407 3.53592371,2.96017363 C3.55281637,3.2458132 3.56740527,3.51455607 3.57969085,3.76641031 L2.8794167,3.76641031 C2.87020252,3.4561996 2.85791714,3.11835142 2.84256017,2.75285563 C2.8272032,2.38735984 2.8041681,2.01879819 2.77345417,1.64715961 C2.71816909,1.77615813 2.65674215,1.91897577 2.5891715,2.07561682 C2.52160085,2.23225787 2.45479905,2.38889657 2.3887641,2.54553763 C2.32272914,2.70217868 2.25899869,2.85190685 2.19757083,2.99472663 C2.13614296,3.13754641 2.08393006,3.25963246 2.04093056,3.36098844 L1.53876029,3.36098844 C1.49576078,3.25963246 1.44354788,3.13754641 1.38212002,2.99472663 C1.32069215,2.85190685 1.2569617,2.70217868 1.19092675,2.54553763 C1.1248918,2.38889657 1.05809,2.23225787 0.990519346,2.07561682 C0.922948696,1.91897577 0.861521754,1.77615813 0.806236677,1.64715961 C0.775522745,2.01879819 0.752487642,2.38735984 0.737130676,2.75285563 C0.72177371,3.11835142 0.709488322,3.4561996 0.700274142,3.76641031 L0,3.76641031 C0.0122855727,3.51455607 0.0268744714,3.2458132 0.0437671339,2.96017363 C0.0606597964,2.67453407 0.079087879,2.38966662 0.0990519346,2.10556275 C0.11901599,1.82145889 0.142051094,1.54810899 0.168157935,1.28550488 C0.194264777,1.02290076 0.222674738,0.785639197 0.25338867,0.573713068 L0.939841612,0.573713068 Z M4.97479439,2.16775815 C4.97479439,2.32439921 4.99399031,2.46568117 5.03238273,2.59160829 C5.07077514,2.71753541 5.12605939,2.8258004 5.19823713,2.9164065 C5.27041487,3.0070126 5.3587161,3.07688574 5.46314347,3.12602803 C5.56757083,3.17517032 5.68735337,3.1997411 5.82249467,3.1997411 C5.95456458,3.1997411 6.07357928,3.17517032 6.17954234,3.12602803 C6.28550541,3.07688574 6.37457447,3.0070126 6.44675221,2.9164065 C6.51892995,2.8258004 6.5742142,2.71753541 6.61260661,2.59160829 C6.65099903,2.46568117 6.67019495,2.32439921 6.67019495,2.16775815 C6.67019495,2.0111171 6.65099903,1.8690673 6.61260661,1.74160448 C6.5742142,1.61414167 6.51892995,1.50510884 6.44675221,1.41450275 C6.37457447,1.32389665 6.28550541,1.2540235 6.17954234,1.20488121 C6.07357928,1.15573892 5.95456458,1.13116814 5.82249467,1.13116814 C5.68735337,1.13116814 5.56757083,1.15650676 5.46314347,1.20718474 C5.3587161,1.25786273 5.27041487,1.32850371 5.19823713,1.41910981 C5.12605939,1.50971591 5.07077514,1.61874873 5.03238273,1.74621155 C4.99399031,1.87367437 4.97479439,2.0141885 4.97479439,2.16775815 L4.97479439,2.16775815 Z M7.41193269,2.16775815 C7.41193269,2.44111215 7.37123734,2.68144506 7.28984542,2.8887641 C7.2084535,3.09608314 7.09711717,3.26961425 6.95583309,3.40936264 C6.814549,3.54911103 6.64639275,3.65430467 6.45135928,3.72494671 C6.25632581,3.79558875 6.04670637,3.83090924 5.82249467,3.83090924 C5.60442576,3.83090924 5.3986455,3.79558875 5.20514773,3.72494671 C5.01164996,3.65430467 4.84272587,3.54911103 4.69837039,3.40936264 C4.55401491,3.26961425 4.44037507,3.09608314 4.35744745,2.8887641 C4.27451984,2.68144506 4.23305665,2.44111215 4.23305665,2.16775815 C4.23305665,1.89440416 4.27605551,1.65407125 4.36205452,1.44675221 C4.44805353,1.23943317 4.56399688,1.06513422 4.70988806,0.923850139 C4.85577923,0.782566053 5.02470332,0.676604578 5.2166654,0.605962535 C5.40862747,0.535320492 5.61056854,0.5 5.82249467,0.5 C6.04056359,0.5 6.24634384,0.535320492 6.43984161,0.605962535 C6.63333938,0.676604578 6.80226347,0.782566053 6.94661895,0.923850139 C7.09097443,1.06513422 7.20461427,1.23943317 7.28754189,1.44675221 C7.37046951,1.65407125 7.41193269,1.89440416 7.41193269,2.16775815 L7.41193269,2.16775815 Z M8.99131891,3.76641031 C8.86539179,3.4991991 8.74100223,3.22124219 8.6181465,2.93253123 C8.49529078,2.64382027 8.37857959,2.35818499 8.26800943,2.07561682 C8.15743928,1.79304865 8.05531699,1.5227701 7.96163949,1.26477308 C7.867962,1.00677605 7.78733914,0.776425017 7.71976849,0.573713068 L8.51218397,0.573713068 C8.57361183,0.757996658 8.64041363,0.956866383 8.71259137,1.17032821 C8.78476911,1.38379003 8.85848144,1.59648082 8.93373057,1.80840695 C9.00897971,2.02033308 9.0819242,2.22304199 9.15256624,2.41653976 C9.22320829,2.61003753 9.28924225,2.77742595 9.35067011,2.91871003 C9.40902658,2.77742595 9.47429271,2.61003753 9.54647045,2.41653976 C9.61864819,2.22304199 9.69236052,2.02033308 9.76760965,1.80840695 C9.84285878,1.59648082 9.91657111,1.38379003 9.98874885,1.17032821 C10.0609266,0.956866383 10.1277284,0.757996658 10.1891563,0.573713068 L10.9539293,0.573713068 C10.8832873,0.776425017 10.8018966,1.00677605 10.7097548,1.26477308 C10.617613,1.5227701 10.5162585,1.79304865 10.4056884,2.07561682 C10.2951182,2.35818499 10.178407,2.64382027 10.0555513,2.93253123 C9.93269559,3.22124219 9.80830604,3.4991991 9.68237892,3.76641031 L8.99131891,3.76641031 Z" id="MOV"></path>
                    </g>
                </g>
            </g>
        </g>
    </g>
</svg>