<svg xmlns="http://www.w3.org/2000/svg" width="26" height="32" viewBox="0 0 26 32">
    <g fill="none" fill-rule="evenodd">
        <path fill="#F6FFF7" d="M.482.497h23V31.32h-23z"/>
        <path fill="#66BB6A" d="M25 4h-1V1a1 1 0 0 0-1-1H1a1 1 0 0 0-1 1v30a1 1 0 0 0 1 1h22a1 1 0 0 0 1-1V13h1a1 1 0 0 0 1-1V5a1 1 0 0 0-1-1zm-2 0H11a1 1 0 0 0-1 1v7a1 1 0 0 0 1 1h12v18H1V1h22v3zm-9.07 23.022a29.707 29.707 0 0 0-.872-1.614 19.526 19.526 0 0 0-1.092-1.67c-.129.165-.291.394-.488.687-.197.293-.394.605-.591.935-.197.33-.382.645-.556.948-.175.302-.303.54-.385.714H7.5c.403-.742.873-1.52 1.408-2.336a74.495 74.495 0 0 1 1.794-2.597L7.637 17.5h2.597l1.855 2.968 1.814-2.968h2.446l-3.023 4.617c.77.998 1.415 1.921 1.937 2.768.522.848.935 1.56 1.237 2.137h-2.57z"/>
        <path fill="#FFF" d="M13.697 8.257l.6-.955h.89l-1.04 1.51c.232.298.442.588.63.87.19.283.34.535.451.758h-.924l-.116-.224a5.504 5.504 0 0 0-.156-.28 8.059 8.059 0 0 0-.182-.292 4.019 4.019 0 0 0-.188-.266c-.058.076-.116.16-.176.25-.06.092-.117.185-.17.278-.055.093-.107.186-.16.277a4.426 4.426 0 0 0-.135.257h-.879c.046-.1.11-.217.19-.352a13.3 13.3 0 0 1 .562-.856c.104-.145.206-.281.306-.409-.174-.25-.347-.504-.52-.76l-.515-.761h.93l.602.955zm3.207 2.243a2.089 2.089 0 0 1-.61-.084.897.897 0 0 1-.37-.218.729.729 0 0 1-.184-.34 1.891 1.891 0 0 1-.05-.45V5.954l.862-.143v3.418c0 .08.006.151.017.215a.377.377 0 0 0 .067.16c.032.045.08.08.141.108a.755.755 0 0 0 .249.054l-.122.734zm1.486-.698c.158 0 .27-.016.335-.048s.098-.094.098-.185c0-.072-.042-.134-.127-.188a2.381 2.381 0 0 0-.387-.182 3.902 3.902 0 0 1-.367-.161 1.079 1.079 0 0 1-.28-.2.81.81 0 0 1-.18-.277 1.057 1.057 0 0 1-.063-.388.85.85 0 0 1 .318-.698c.211-.171.502-.257.872-.257.185 0 .362.017.532.051.17.034.304.07.404.11l-.15.693a3.086 3.086 0 0 0-.326-.096 1.721 1.721 0 0 0-.396-.042c-.27 0-.405.078-.405.233 0 .036.006.068.018.095a.202.202 0 0 0 .069.081.96.96 0 0 0 .142.084c.06.03.135.062.228.098.189.072.345.142.468.212.123.07.22.145.292.226a.71.71 0 0 1 .15.272c.029.1.043.215.043.346 0 .31-.112.545-.338.704-.225.159-.544.238-.956.238a2.667 2.667 0 0 1-1.046-.19l.144-.722c.147.06.297.106.451.14.154.034.306.05.457.05zm3.138-1.545l.6-.955h.89l-1.04 1.51c.232.298.442.588.63.87.19.283.34.535.451.758h-.924l-.116-.224a5.504 5.504 0 0 0-.156-.28 8.059 8.059 0 0 0-.182-.292 4.019 4.019 0 0 0-.188-.266c-.058.076-.116.16-.176.25-.06.092-.117.185-.17.278-.055.093-.108.186-.16.277a4.426 4.426 0 0 0-.135.257h-.879c.046-.1.11-.217.19-.352a13.3 13.3 0 0 1 .561-.856c.104-.145.207-.281.307-.409-.174-.25-.347-.504-.52-.76l-.515-.761h.93l.602.955z"/>
    </g>
</svg>
