<?xml version="1.0" encoding="UTF-8" standalone="no"?>
<svg width="26px" height="32px" viewBox="0 0 26 32" version="1.1" xmlns="http://www.w3.org/2000/svg" xmlns:xlink="http://www.w3.org/1999/xlink">
    <!-- Generator: Sketch 3.7.2 (28276) - http://www.bohemiancoding.com/sketch -->
    <title>zip_icon</title>
    <desc>Created with Sketch.</desc>
    <defs></defs>
    <g id="Components" stroke="none" stroke-width="1" fill="none" fill-rule="evenodd">
        <g id="Files" transform="translate(-1099.000000, -367.000000)">
            <g id="zip_icon" transform="translate(1099.000000, 367.000000)">
                <g id="Layer_1">
                    <g id="Rectangle_26" transform="translate(0.500000, 0.500000)" fill="#FFFDFC">
                        <rect id="Rectangle-path" x="0" y="0" width="23" height="31"></rect>
                    </g>
                    <g id="icon_5_">
                        <path d="M25,4 L24,4 L24,1 C24,0.448 23.552,0 23,0 L1,0 C0.448,0 0,0.448 0,1 L0,31 C0,31.552 0.448,32 1,32 L23,32 C23.552,32 24,31.552 24,31 L24,13 L25,13 C25.552,13 26,12.552 26,12 L26,5 C26,4.448 25.552,4 25,4 L25,4 Z M23,4 L11,4 C10.448,4 10,4.448 10,5 L10,12 C10,12.552 10.448,13 11,13 L23,13 L23,31 L1,31 L1,1 L23,1 L23,4 L23,4 Z" id="Shape" fill="#A1887F"></path>
                        <path d="M12.4090909,29 L13.0909091,29 C13.8436364,29 14.4545455,28.3890909 14.4545455,27.6363636 L14.4545455,22.1818182 C14.4545455,21.4290909 13.8436364,20.8181818 13.0909091,20.8181818 L13.0909091,19.4545455 L11.7272727,19.4545455 L11.7272727,20.8181818 L10.3636364,20.8181818 C9.61090909,20.8181818 9,21.4290909 9,22.1818182 L9,27.6363636 C9,28.3890909 9.61090909,29 10.3636364,29 L11.0454545,29 L12.4090909,29 Z M13.0909091,15.3636364 L13.0909091,14 L11.7272727,14 L11.7272727,15.3636364 L13.0909091,15.3636364 L13.0909091,15.3636364 Z M10.3636364,16.7272727 L11.7272727,16.7272727 L11.7272727,15.3636364 L10.3636364,15.3636364 L10.3636364,16.7272727 L10.3636364,16.7272727 Z M13.0909091,18.0909091 L13.0909091,16.7272727 L11.7272727,16.7272727 L11.7272727,18.0909091 L13.0909091,18.0909091 L13.0909091,18.0909091 Z M10.3636364,18.0909091 L10.3636364,19.4545455 L11.7272727,19.4545455 L11.7272727,18.0909091 L10.3636364,18.0909091 L10.3636364,18.0909091 Z" id="Shape" fill="#A1887F"></path>
                        <polygon id="Path" fill="#FFFFFF" points="10.3636364 23.5454545 10.3636364 22.1818182 13.0909091 22.1818182 13.0909091 23.5454545"></polygon>
                        <rect id="Rectangle-467" fill="#A1887F" x="10.1999512" y="29" width="3" height="2"></rect>
                        <polygon id="Path" fill="#FFFFFF" points="13.0909091 24.9090909 13.0909091 27.6363636 10.3636364 27.6363636 10.3636364 24.9090909"></polygon>
                    </g>
                    <g id="Group" transform="translate(12.500000, 6.500000)" fill="#FFFFFF">
                        <path d="M3.8381305,0.653056586 C3.71802754,0.776912765 3.57540741,0.937360408 3.41026584,1.13440433 C3.24512427,1.33144825 3.07435543,1.54631673 2.89795421,1.77901622 C2.72155298,2.0117157 2.54703098,2.25191802 2.37438298,2.49963038 C2.20173497,2.74734274 2.04785536,2.9837919 1.91273953,3.20898495 L3.90005828,3.20898495 L3.90005828,3.94648851 L0.831818283,3.94648851 L0.831818283,3.42291728 C0.936908374,3.23150319 1.06545415,3.01851128 1.21745946,2.78393519 C1.36946477,2.54935909 1.52803583,2.31290993 1.6931774,2.07458062 C1.85831897,1.83625131 2.02627294,1.60543189 2.19704434,1.38211545 C2.36781573,1.158799 2.5263868,0.958943168 2.67276228,0.782541944 L0.921895053,0.782541944 L0.921895053,0.0450383853 L3.8381305,0.0450383853 L3.8381305,0.653056586 Z M4.69846599,0.0450383853 L5.5767145,0.0450383853 L5.5767145,3.94648851 L4.69846599,3.94648851 L4.69846599,0.0450383853 Z M7.82761014,0 C8.40935886,0 8.85598504,0.102273644 9.1675021,0.306824 C9.47901916,0.511374355 9.63477535,0.846343996 9.63477535,1.31174297 C9.63477535,1.78089516 9.47714258,2.11961796 9.1618723,2.32792154 C8.84660203,2.53622511 8.39622268,2.64037534 7.81072074,2.64037534 L7.53486063,2.64037534 L7.53486063,3.94648851 L6.65661212,3.94648851 L6.65661212,0.101336367 C6.84802622,0.0638041915 7.05069692,0.0375320628 7.26463032,0.0225191926 C7.47856372,0.00750632248 7.66622178,0 7.82761014,0 L7.82761014,0 Z M7.88390812,0.748763155 C7.82010342,0.748763155 7.75723797,0.750639736 7.69530988,0.754392953 C7.63338179,0.758146171 7.57989924,0.761899332 7.53486063,0.765652549 L7.53486063,1.89161218 L7.81072074,1.89161218 C8.11473136,1.89161218 8.3436742,1.85032741 8.49755612,1.76775662 C8.65143804,1.68518584 8.72837784,1.53130622 8.72837784,1.30611317 C8.72837784,1.19726986 8.70867375,1.10719399 8.66926496,1.03588286 C8.62985618,0.964571728 8.57355876,0.907336019 8.50037102,0.864174017 C8.42718328,0.821012015 8.3380457,0.790986726 8.23295561,0.774097247 C8.12786551,0.757207768 8.01151752,0.748763155 7.88390812,0.748763155 L7.88390812,0.748763155 Z" id="ZIP"></path>
                    </g>
                </g>
            </g>
        </g>
    </g>
</svg>