<?xml version="1.0" encoding="UTF-8" standalone="no"?>
<svg width="38px" height="32px" viewBox="0 0 38 32" version="1.1" xmlns="http://www.w3.org/2000/svg" xmlns:xlink="http://www.w3.org/1999/xlink" xmlns:sketch="http://www.bohemiancoding.com/sketch/ns">
    <!-- Generator: sketchtool 3.5.1 (25234) - http://www.bohemiancoding.com/sketch -->
    <title>Assignments_ico</title>
    <desc>Created with sketchtool.</desc>
    <defs>
        <linearGradient x1="50%" y1="0%" x2="50%" y2="100%" id="linearGradient-1">
            <stop stop-color="#C3D1D7" offset="0%"></stop>
            <stop stop-color="#90A4AE" offset="100%"></stop>
        </linearGradient>
    </defs>
    <g id="HOD" stroke="none" stroke-width="1" fill="none" fill-rule="evenodd" sketch:type="MSPage">
        <g id="H4.31b---HOD-Course-planner" sketch:type="MSArtboardGroup" transform="translate(-828.000000, -169.000000)">
            <g id="Tabs" sketch:type="MSLayerGroup" transform="translate(296.000000, 169.000000)">
                <g id="Assignments_ico" transform="translate(532.000000, 0.000000)" sketch:type="MSShapeGroup">
                    <path d="M25.1622115,5.54302439 L26.2489054,6.69658537 L16.620705,14.6044878 C16.620705,14.6044878 19.0595918,17.3127805 15.9091058,22.620878 L15.9091058,22.620878 C15.3564972,22.270439 14.6325492,22.3414634 14.1563488,22.8472195 L14.1563488,22.8472195 C13.5937069,23.4435122 13.5937069,24.4089756 14.1563488,25.0044878 L14.1563488,25.0044878 C14.7182189,25.6007805 15.6289425,25.6007805 16.1900408,25.0044878 L16.1900408,25.0044878 C16.6654694,24.5002927 16.7341596,23.7315122 16.4030575,23.1445854 L16.4030575,23.1445854 C21.4074063,19.8033171 23.9589759,22.3906341 23.9589759,22.3906341 L23.9589759,22.3906341 L31.4130167,12.1763902 L32.5004824,13.3291707 L37.3172839,8.21931707 L29.979013,0.432390244 L25.1622115,5.54302439 Z M22.5195696,15.4442927 L25.275666,12.5198049 C25.4547236,12.3301463 25.7449202,12.3301463 25.9239777,12.5198049 L25.9239777,12.5198049 C26.1038071,12.7102439 26.1038071,13.0185366 25.9239777,13.2081951 L25.9239777,13.2081951 L23.1678813,16.1319024 C23.1478145,16.1529756 23.1238887,16.163122 23.1015065,16.1795122 L23.1015065,16.1795122 C23.3639184,16.737561 23.2821076,17.4314146 22.8437254,17.8973659 L22.8437254,17.8973659 C22.2942041,18.4796098 21.4043191,18.4796098 20.8563414,17.8973659 L20.8563414,17.8973659 C20.3075918,17.3143415 20.3075918,16.3707317 20.8563414,15.7884878 L20.8563414,15.7884878 C21.2954954,15.3233171 21.9492096,15.2366829 22.4748052,15.5145366 L22.4748052,15.5145366 C22.491013,15.4919024 22.4995028,15.4645854 22.5195696,15.4442927 L22.5195696,15.4442927 Z" id="Clip-2" fill="#80DEEA"></path>
                    <path d="M3.05555473,5.60468293 C1.52430427,5.60468293 0.27090167,6.93463415 0.27090167,8.55882927 L0.27090167,8.55882927 L0.27090167,28.6985366 C0.27090167,30.3227317 1.52430427,31.6526829 3.05555473,31.6526829 L3.05555473,31.6526829 L27.2236883,31.6526829 C28.7557106,31.6526829 30.0083414,30.3227317 30.0083414,28.6985366 L30.0083414,28.6985366 L30.0083414,16.6158049 L24.1210538,24.6837073 L22.95718,23.5036098 C22.9540928,23.5036098 22.3528609,22.974439 21.1557996,22.974439 L21.1557996,22.974439 C20.2203785,22.974439 19.1815362,23.2889756 18.0608831,23.9079024 L18.0608831,23.9079024 C18.0647421,24.4542439 17.9211874,24.992 17.6572319,25.4712195 L17.6572319,25.4712195 L24.5686976,25.4712195 C24.9708052,25.4712195 25.294961,25.8154146 25.294961,26.24 L25.294961,26.24 C25.294961,26.6661463 24.9708052,27.0103415 24.5686976,27.0103415 L24.5686976,27.0103415 L3.81732096,27.0103415 C3.41675696,27.0103415 3.09105751,26.6661463 3.09105751,26.24 L3.09105751,26.24 C3.09105751,25.8154146 3.41675696,25.4712195 3.81732096,25.4712195 L3.81732096,25.4712195 L12.6899295,25.4712195 C12.0423896,24.2958049 12.1820853,22.7637073 13.1298553,21.758439 L13.1298553,21.758439 C13.673974,21.1816585 14.3971503,20.8632195 15.1666345,20.8632195 L15.1666345,20.8632195 L15.1897885,20.8632195 C16.8946939,17.3830244 15.6065603,15.713561 15.5463599,15.6386341 L15.5463599,15.6386341 L14.4341967,14.403122 L15.7331354,13.3861463 L24.0577662,6.54985366 L23.1671095,5.60468293 L3.05555473,5.60468293 Z M3.09105751,11.0173659 C3.09105751,10.5912195 3.41675696,10.2462439 3.81732096,10.2462439 L3.81732096,10.2462439 L15.4645492,10.2462439 C15.865885,10.2462439 16.1908126,10.5912195 16.1908126,11.0173659 L16.1908126,11.0173659 C16.1908126,11.4411707 15.865885,11.7869268 15.4645492,11.7869268 L15.4645492,11.7869268 L3.81732096,11.7869268 C3.41675696,11.7869268 3.09105751,11.4411707 3.09105751,11.0173659 L3.09105751,11.0173659 Z M3.09105751,18.7075122 C3.09105751,18.2813659 3.41675696,17.9371707 3.81732096,17.9371707 L3.81732096,17.9371707 L13.4671317,17.9371707 C13.8676957,17.9371707 14.1918516,18.2813659 14.1918516,18.7075122 L14.1918516,18.7075122 C14.1918516,19.1320976 13.8676957,19.4762927 13.4671317,19.4762927 L13.4671317,19.4762927 L3.81732096,19.4762927 C3.41675696,19.4762927 3.09105751,19.1320976 3.09105751,18.7075122 L3.09105751,18.7075122 Z" id="Clip-5" fill="url(#linearGradient-1)"></path>
                </g>
            </g>
        </g>
    </g>
</svg>