<?xml version="1.0" encoding="UTF-8" standalone="no"?>
<svg width="35px" height="32px" viewBox="0 0 35 32" version="1.1" xmlns="http://www.w3.org/2000/svg" xmlns:xlink="http://www.w3.org/1999/xlink" xmlns:sketch="http://www.bohemiancoding.com/sketch/ns">
    <!-- Generator: sketchtool 3.5.1 (25234) - http://www.bohemiancoding.com/sketch -->
    <title>Attendance_ico</title>
    <desc>Created with sketchtool.</desc>
    <defs>
        <linearGradient x1="50%" y1="0%" x2="50%" y2="100%" id="linearGradient-1">
            <stop stop-color="#C3D1D7" offset="0%"></stop>
            <stop stop-color="#90A4AE" offset="100%"></stop>
        </linearGradient>
    </defs>
    <g id="Teacher" stroke="none" stroke-width="1" fill="none" fill-rule="evenodd" sketch:type="MSPage">
        <g id="T-4.9-CourseGroup_Homepage" sketch:type="MSArtboardGroup" transform="translate(-892.000000, -169.000000)">
            <g id="Tabs" sketch:type="MSLayerGroup" transform="translate(296.000000, 169.000000)">
                <g id="Attendance_ico" transform="translate(596.151515, 0.000000)" sketch:type="MSShapeGroup">
                    <path d="M0.624695652,10.848 C0.624695652,16.749913 5.27513043,21.5513043 10.9913043,21.5513043 L10.9913043,21.5513043 C11.9547826,21.5513043 12.909913,21.4149565 13.8309565,21.1457391 L13.8309565,21.1457391 C14.1954783,21.037913 14.4069565,20.6483478 14.3033043,20.2733913 L14.3033043,20.2733913 C14.2413913,20.0514783 14.0786087,19.8970435 13.8831304,19.8212174 L13.8831304,19.8212174 L18.9711304,6.22330435 C19.1652174,6.29913043 19.3857391,6.29495652 19.5763478,6.17530435 L19.5763478,6.17530435 C19.8991304,5.97078261 19.9993043,5.53669565 19.7996522,5.20486957 L19.7996522,5.20486957 C17.8928696,2.03686957 14.6003478,0.145391304 10.9913043,0.145391304 L10.9913043,0.145391304 C5.27513043,0.145391304 0.624695652,4.94747826 0.624695652,10.848 L0.624695652,10.848 Z M6.66226087,13.5631304 C6.46817391,13.2292174 6.57530435,12.7951304 6.90156522,12.5954783 L6.90156522,12.5954783 L10.418087,10.4473043 L10.418087,3.664 C10.418087,3.27443478 10.7255652,2.95791304 11.106087,2.95791304 L11.106087,2.95791304 C11.485913,2.95791304 11.7947826,3.27443478 11.7947826,3.664 L11.7947826,3.664 L11.7947826,10.848 C11.7947826,11.0970435 11.666087,11.3273043 11.458087,11.4546087 L11.458087,11.4546087 L7.60765217,13.8073043 C7.49634783,13.8747826 7.3746087,13.9074783 7.25495652,13.9074783 L7.25495652,13.9074783 C7.01982609,13.9074783 6.79165217,13.7843478 6.66226087,13.5631304 L6.66226087,13.5631304 Z" id="Clip-5" fill="#FFCC80"></path>
                    <path d="M25.6333787,29.026553 L26.304,28.9871304 C27.6236522,28.909913 28.4201739,28.8633043 29.232,28.7596522 C32.1753043,28.381913 33.9638261,27.3509565 34.0146087,26.0013913 C34.0277817,25.6567109 33.9269733,25.3380794 33.7322916,25.0439393 C33.6972454,24.944772 33.6411033,24.8559055 33.5693913,24.7826087 C30.1168696,19.6646957 30.3046957,12.4473043 30.3805217,10.9773913 C30.4493913,9.19304348 29.7558261,7.53043478 28.4264348,6.29495652 C27.7779205,5.6925514 27.0101379,5.21479267 26.1448859,4.87020372 C26.0377655,2.79625399 24.7396318,1.13309218 23.0963478,1.06782609 C23.0594783,1.06643478 23.024,1.06504348 22.9885217,1.06504348 C22.1391304,1.06504348 21.3252174,1.49008696 20.7109565,2.26643478 C20.2066098,2.90291449 19.8778293,3.72196317 19.764484,4.61118479 C16.9923523,5.45550926 15.1787965,7.60027711 15.072,10.4250435 C15.0386087,11.8358261 14.6789565,19.1206957 10.7693913,23.9596522 C10.7430892,23.9921494 10.7203022,24.0265994 10.700993,24.0625378 C10.4507662,24.3633352 10.31834,24.6923707 10.3046957,25.0490435 C10.2068426,27.5938897 16.3481588,28.5883389 18.6819386,28.8729182 C19.1891724,30.2823369 20.4857517,31.3143452 22.0382609,31.3773913 L22.1871304,31.3801739 C23.7240436,31.3801739 25.066857,30.4280902 25.6333787,29.026553 Z M25.918419,27.5966744 L26.226087,27.5784348 C27.5165217,27.5033043 28.2956522,27.4573913 29.0622609,27.36 C31.7307826,27.0177391 32.6295652,26.192 32.6393043,25.9457391 C32.6405776,25.911325 32.6321962,25.8740952 32.6141778,25.8343988 C32.5819476,25.8079721 32.5519117,25.7784569 32.5245217,25.746087 C31.6796498,24.7494129 27.8722531,23.5736851 22.452424,23.3305868 C22.3835433,23.3275066 22.3140326,23.3245509 22.2441739,23.3217391 C19.3147826,23.2048696 16.56,23.3885217 14.4848696,23.8413913 C13.6481743,24.0239613 13.0501483,24.2218881 12.6274705,24.4066754 C12.2511602,24.5721134 11.9769222,24.7438137 11.8093913,24.9126957 C11.7938979,24.9282698 11.7778709,24.9430857 11.7613408,24.9570956 C11.7039292,25.0241162 11.6810319,25.0752137 11.68,25.1046957 C11.6633538,25.5414931 13.602018,26.7876922 18.454945,27.4237751 C18.455164,27.4171287 18.4553997,27.410479 18.4556522,27.4038261 C18.5335652,25.3433043 20.1711304,23.7286957 22.1822609,23.7286957 L22.3311304,23.7321739 C24.3523685,23.8142269 25.940102,25.5362039 25.918419,27.5966744 Z M21.2245446,4.30057611 C21.3385394,3.86597523 21.5267213,3.47436377 21.7787826,3.15617391 C22.1405217,2.69913043 22.5857391,2.46469565 23.042087,2.47721739 C23.8377612,2.5089775 24.5049025,3.34362239 24.7099933,4.4399457 C24.1582772,4.32348116 23.5782099,4.2523534 22.973913,4.22817391 C22.8229565,4.22191304 22.6726957,4.21913043 22.5252174,4.21913043 C22.0774158,4.21913043 21.6432259,4.24680336 21.2245446,4.30057611 Z" id="Clip-2" fill="url(#linearGradient-1)"></path>
                </g>
            </g>
        </g>
    </g>
</svg>