<svg xmlns="http://www.w3.org/2000/svg" width="28" height="32" viewBox="0 0 28 32">
    <defs>
        <linearGradient id="a" x1="50%" x2="50%" y1="0%" y2="100%">
            <stop offset="0%" stop-color="#C3D1D7"/>
            <stop offset="100%" stop-color="#90A4AE"/>
        </linearGradient>
    </defs>
    <path fill="url(#a)" fill-rule="evenodd" d="M23.737 22.33H4.263c-.417 0-.755-.312-.755-.696 0-.384.338-.696.755-.696h19.474c.417 0 .755.312.755.696 0 .384-.338.696-.755.696zm0 5.332H4.263c-.417 0-.755-.311-.755-.695 0-.384.338-.696.755-.696h19.474c.417 0 .755.312.755.696 0 .384-.338.695-.755.695zm-10.236-16c3.59 0 6.5 2.886 6.5 6.446H7.001c0-3.56 2.91-6.445 6.5-6.445zM13.751 5a2.75 2.75 0 1 1-.001 5.5 2.75 2.75 0 0 1 0-5.5zM1 32h26V0H1v32z" transform="translate(-.848)"/>
</svg>
