<?xml version="1.0" encoding="UTF-8" standalone="no"?>
<svg width="25px" height="19px" viewBox="0 0 25 19" version="1.1" xmlns="http://www.w3.org/2000/svg" xmlns:xlink="http://www.w3.org/1999/xlink" xmlns:sketch="http://www.bohemiancoding.com/sketch/ns">
    <!-- Generator: sketchtool 3.5.1 (25234) - http://www.bohemiancoding.com/sketch -->
    <title>download_ico</title>
    <desc>Created with sketchtool.</desc>
    <defs></defs>
    <g id="Parent" stroke="none" stroke-width="1" fill="none" fill-rule="evenodd" sketch:type="MSPage">
        <g id="P-11.5-Coursegroup_content" sketch:type="MSArtboardGroup" transform="translate(-1169.000000, -942.000000)" fill="#66BB6A">
            <g id="Ch03" sketch:type="MSLayerGroup" transform="translate(296.000000, 939.000000)">
                <g id="Download_ico" transform="translate(873.000000, 0.000000)" sketch:type="MSShapeGroup">
                    <path d="M19.0078124,19.7268749 L6.08249998,19.7268749 C6.08249998,19.7268749 1.49173312,19.2554812 1.520625,15.165 C1.53659156,12.85365 3.56434499,10.7399812 6.08249998,10.603125 C6.08249998,7.45543124 8.0973281,4.520625 11.4046875,4.520625 C14.0148403,4.520625 15.7559559,6.11728124 16.3756106,8.32979061 C20.142959,8.17012498 22.6907662,11.15055 22.8093749,13.644375 C22.9120171,15.7960593 21.0454499,18.5712 19.0078124,19.7268749 L19.0078124,19.7268749 Z M17.5381284,6.82437186 C16.4219896,4.55864062 14.0984746,3 11.4046875,3 C7.79396341,3 4.84319061,5.79794999 4.5869653,9.34100623 C1.93271437,10.1013187 0,12.4202718 0,15.165 C0,18.4039312 2.69150624,21.0422156 6.08249998,21.2322937 L19.0078124,21.2474999 C21.6210065,20.1146343 24.3299999,16.9517343 24.3299999,14.0245312 C24.3299999,10.17735 21.3260052,7.04486249 17.5381284,6.82437186 L17.5381284,6.82437186 Z M16.1908546,12.4202718 L12.9253125,15.6668062 L12.9253125,8.32979061 C12.9253125,7.91161873 12.5854528,7.56947811 12.165,7.56947811 C11.7453075,7.56947811 11.4046875,7.91161873 11.4046875,8.32979061 L11.4046875,15.6439968 L8.16271497,12.4202718 C7.86467248,12.12375 7.38035341,12.12375 7.08079029,12.4202718 C6.78274779,12.7167937 6.78274779,13.1957906 7.08079029,13.4999156 L11.5978068,17.9933625 C11.7574725,18.1530281 11.968079,18.2214562 12.177165,18.20625 C12.3854906,18.2214562 12.5968575,18.1530281 12.7557628,17.9933625 L17.2727793,13.4999156 C17.5708218,13.1957906 17.5708218,12.7167937 17.2727793,12.4202718 C16.9739765,12.12375 16.4896574,12.12375 16.1908546,12.4202718 L16.1908546,12.4202718 Z" id="Fill-16"></path>
                </g>
            </g>
        </g>
    </g>
</svg>