<?xml version="1.0" encoding="UTF-8" standalone="no"?>
<svg width="33px" height="32px" viewBox="0 0 33 32" version="1.1" xmlns="http://www.w3.org/2000/svg" xmlns:xlink="http://www.w3.org/1999/xlink" xmlns:sketch="http://www.bohemiancoding.com/sketch/ns">
    <!-- Generator: sketchtool 3.5.1 (25234) - http://www.bohemiancoding.com/sketch -->
    <title>grades_ico</title>
    <desc>Created with sketchtool.</desc>
    <defs>
        <linearGradient x1="50%" y1="0%" x2="50%" y2="100%" id="linearGradient-1">
            <stop stop-color="#C3D1D7" offset="0%"></stop>
            <stop stop-color="#90A4AE" offset="100%"></stop>
        </linearGradient>
    </defs>
    <g id="Teacher" stroke="none" stroke-width="1" fill="none" fill-rule="evenodd" sketch:type="MSPage">
        <g id="T-4.9-CourseGroup_Homepage" sketch:type="MSArtboardGroup" transform="translate(-778.000000, -169.000000)">
            <g id="Tabs" sketch:type="MSLayerGroup" transform="translate(296.000000, 169.000000)">
                <g id="grades_ico" transform="translate(482.151515, 0.000000)" sketch:type="MSShapeGroup">
                    <path d="M22.4403931,16.6807273 C20.0338625,17.4138182 18.6696176,19.9789899 19.3945155,22.4116364 L19.3945155,22.4116364 C19.8072502,23.7989495 20.8103523,24.8423434 22.0413727,25.3472323 L22.0413727,25.3472323 L21.0937808,30.6734545 L22.7904339,29.9351919 L24.1252911,31.2248889 L24.1259441,31.2248889 L25.1153319,25.6691717 L28.9742706,29.750303 L29.3850462,27.9292121 L31.2018625,27.5975758 L27.5042298,23.6858182 C28.2545972,22.5771313 28.5236584,21.1484444 28.1096176,19.7604848 L28.1096176,19.7604848 C27.5172911,17.7693737 25.7096176,16.4848485 23.7536992,16.4848485 L23.7536992,16.4848485 C23.3194135,16.4848485 22.8779441,16.5475556 22.4403931,16.6807273 L22.4403931,16.6807273 Z" id="Clip-2" fill="#66BB6A"></path>
                    <path d="M2.57306122,0.576 C1.19053061,0.576 0.069877551,1.70666667 0.069877551,3.10109091 L0.069877551,3.10109091 L0.069877551,22.6165657 C0.069877551,24.0116364 1.19053061,25.142303 2.57306122,25.142303 L2.57306122,25.142303 L19.2293878,25.142303 C18.6945306,24.5107071 18.2844082,23.7698586 18.0395102,22.9507879 L18.0395102,22.9507879 C17.5771429,21.4012121 17.7410612,19.7611313 18.5012245,18.3356768 L18.5012245,18.3356768 C19.2607347,16.9089293 20.5263673,15.8661818 22.0643265,15.4000808 L22.0643265,15.4000808 C22.6285714,15.2287677 23.2117551,15.1408485 23.797551,15.1408485 L23.797551,15.1408485 C26.4267755,15.1408485 28.7928163,16.9160404 29.5510204,19.4579394 L29.5510204,19.4579394 C29.9676735,20.8530101 29.8723265,22.3237172 29.3022041,23.6321616 L29.3022041,23.6321616 L30.3137959,24.6994747 C30.9714286,24.2450101 31.4037551,23.4821818 31.4037551,22.6165657 L31.4037551,22.6165657 L31.4037551,3.10109091 C31.4037551,1.70666667 30.2837551,0.576 28.9005714,0.576 L28.9005714,0.576 L2.57306122,0.576 Z M3.42791837,7.97931313 C3.21697959,7.66577778 3.29730612,7.23846465 3.60816327,7.02513131 L3.60816327,7.02513131 C10.9766531,1.97494949 20.4969796,1.97494949 27.8654694,7.02513131 L27.8654694,7.02513131 C28.1763265,7.23846465 28.2566531,7.66577778 28.0457143,7.97931313 L28.0457143,7.97931313 C27.8341224,8.29284848 27.4122449,8.37430303 27.0987755,8.16161616 L27.0987755,8.16161616 C20.1952653,3.43014141 11.274449,3.43078788 4.37485714,8.16161616 L4.37485714,8.16161616 C4.25665306,8.24113131 4.12408163,8.28056566 3.99216327,8.28056566 L3.99216327,8.28056566 C3.77404082,8.28056566 3.55983673,8.17519192 3.42791837,7.97931313 L3.42791837,7.97931313 Z M13.0703673,9.85470707 C13.0703673,8.36977778 14.2641633,7.16541414 15.7368163,7.16541414 L15.7368163,7.16541414 C17.2094694,7.16541414 18.4032653,8.36977778 18.4032653,9.85470707 L18.4032653,9.85470707 C18.4032653,11.3402828 17.2094694,12.544 15.7368163,12.544 L15.7368163,12.544 C14.2641633,12.544 13.0703673,11.3402828 13.0703673,9.85470707 L13.0703673,9.85470707 Z M3.66497959,17.463596 C3.66497959,17.0847677 3.96930612,16.776404 4.34612245,16.776404 L4.34612245,16.776404 L14.5084082,16.776404 C14.8845714,16.776404 15.189551,17.0847677 15.189551,17.463596 L15.189551,17.463596 C15.189551,17.8430707 14.8845714,18.1507879 14.5084082,18.1507879 L14.5084082,18.1507879 L4.34612245,18.1507879 C3.96930612,18.1507879 3.66497959,17.8430707 3.66497959,17.463596 L3.66497959,17.463596 Z M3.66497959,21.7929697 C3.66497959,21.4134949 3.96930612,21.1057778 4.34612245,21.1057778 L4.34612245,21.1057778 L14.5084082,21.1057778 C14.8845714,21.1057778 15.189551,21.4134949 15.189551,21.7929697 L15.189551,21.7929697 C15.189551,22.1724444 14.8845714,22.4801616 14.5084082,22.4801616 L14.5084082,22.4801616 L4.34612245,22.4801616 C3.96930612,22.4801616 3.66497959,22.1724444 3.66497959,21.7929697 L3.66497959,21.7929697 Z" id="Clip-5" fill="url(#linearGradient-1)"></path>
                </g>
            </g>
        </g>
    </g>
</svg>