<?xml version="1.0" encoding="UTF-8" standalone="no"?>
<svg width="16px" height="16px" viewBox="0 0 16 16" version="1.1" xmlns="http://www.w3.org/2000/svg" xmlns:xlink="http://www.w3.org/1999/xlink" xmlns:sketch="http://www.bohemiancoding.com/sketch/ns">
    <!-- Generator: Sketch 3.5.1 (25234) - http://www.bohemiancoding.com/sketch -->
    <title>logout_ico</title>
    <desc>Created with Sketch.</desc>
    <defs></defs>
    <g id="HOD" stroke="none" stroke-width="1" fill="none" fill-rule="evenodd" sketch:type="MSPage">
        <g id="H4.31a---HOD_Course_Homepage" sketch:type="MSArtboardGroup" transform="translate(-1311.000000, -104.000000)" fill="#7A8993">
            <g id="Header" sketch:type="MSLayerGroup" transform="translate(276.000000, 0.000000)">
                <g id="myprofile" transform="translate(1019.000000, 22.000000)" sketch:type="MSShapeGroup">
                    <g id="logout_dropdown" transform="translate(0.000000, 66.000000)">
                        <g id="logout_ico" transform="translate(16.000000, 16.000000)">
                            <path d="M11.1869919,3.58003306 L11.1869919,0.842842975 C11.1869919,0.406479339 10.8359024,0.0494545455 10.4065041,0.0494545455 L0.780487805,0.0494545455 C0.351219512,0.0494545455 0,0.406479339 0,0.842842975 L0,1.35854545 L0,11.6990413 L0,12.0561983 C0,12.3469752 0.169105691,12.6246612 0.416260163,12.7568926 L6.34796748,15.877686 C6.60813008,16.0099174 6.9203252,15.8249256 6.9203252,15.5206612 L6.9203252,12.4793388 L10.4065041,12.4793388 C10.8359024,12.4793388 11.1869919,12.1224463 11.1869919,11.6859504 L11.1869919,7.34876033 L9.62601626,7.34876033 L9.62601626,10.4958678 C9.62601626,10.7206612 9.45691057,10.892562 9.23577236,10.892562 L6.93333333,10.892562 L6.93333333,6.81983471 L6.93333333,4.24132231 L6.93333333,4.16198347 C6.93333333,3.87107438 6.76422764,3.59338843 6.51707317,3.46115702 L3.01788618,1.63636364 L9.23577236,1.63636364 C9.45691057,1.63636364 9.62601626,1.80826446 9.62601626,2.03305785 L9.62601626,3.59338843 L11.1869919,3.59338843 L11.1869919,3.58003306 L11.1869919,3.58003306 Z" id="Shape"></path>
                            <path d="M13.1902439,2.28403306 L15.7268293,4.86254545 C16.0520325,5.19312397 16.0520325,5.68238017 15.7268293,6.01295868 L13.1902439,8.59147107 C12.8650407,8.92204959 12.3706016,8.93540496 12.0453984,8.60482645 C11.7333333,8.28760331 11.7722276,7.75854545 12.0715447,7.44119008 L13.2161301,6.29077686 L8.7804878,6.29077686 C8.55947967,6.29077686 8.33821138,6.19821488 8.19512195,6.02631405 C7.83089431,5.62961983 7.92195122,4.92879339 8.3902439,4.66433058 C8.50731707,4.59821488 8.6504065,4.55854545 8.7804878,4.55854545 L13.2162602,4.55854545 C13.2162602,4.55854545 12.0846829,3.40813223 12.0716748,3.40813223 C11.7723577,3.104 11.7333333,2.56185124 12.0455285,2.25771901 C12.3577236,1.94036364 12.8650407,1.95345455 13.1902439,2.28403306 L13.1902439,2.28403306 Z" id="Shape"></path>
                        </g>
                    </g>
                </g>
            </g>
        </g>
    </g>
</svg>