<?xml version="1.0" encoding="UTF-8" standalone="no"?>
<svg width="36px" height="28px" viewBox="0 0 36 28" version="1.1" xmlns="http://www.w3.org/2000/svg" xmlns:xlink="http://www.w3.org/1999/xlink" xmlns:sketch="http://www.bohemiancoding.com/sketch/ns">
    <!-- Generator: sketchtool 3.5.1 (25234) - http://www.bohemiancoding.com/sketch -->
    <title>members_ico</title>
    <desc>Created with sketchtool.</desc>
    <defs>
        <linearGradient x1="50%" y1="0%" x2="50%" y2="100%" id="linearGradient-1">
            <stop stop-color="#D9E1E5" offset="0%"></stop>
            <stop stop-color="#B0BEC5" offset="100%"></stop>
        </linearGradient>
    </defs>
    <g id="Teacher" stroke="none" stroke-width="1" fill="none" fill-rule="evenodd" sketch:type="MSPage">
        <g id="T-4.9-CourseGroup_Homepage" sketch:type="MSArtboardGroup" transform="translate(-1356.000000, -171.000000)" fill="url(#linearGradient-1)">
            <g id="Tabs" sketch:type="MSLayerGroup" transform="translate(296.000000, 169.000000)">
                <g id="members_ico" transform="translate(1060.000000, 2.000000)" sketch:type="MSShapeGroup">
                    <path d="M19.8444769,13.0541634 C20.8284227,13.7604035 22.0289903,14.1753049 23.3247709,14.1753049 C26.6612788,14.1753049 29.3662136,11.4231557 29.3662136,8.02980729 C29.3662136,4.63645892 26.6612788,1.88511721 23.3247709,1.88511721 C22.5537293,1.88511721 21.8164,2.03197945 21.1383624,2.29969071 C22.2931872,3.56450625 22.9993656,5.25893099 22.9993656,7.12096466 C22.9993656,9.60326258 21.7443556,11.788063 19.8444769,13.0541634 Z M30.1696448,26.0277976 L35.5831372,26.0277976 L35.5831372,22.8621798 C35.5831372,22.8621798 32.1889261,16.437268 23.3247709,16.437268 C21.669159,16.437268 20.2043402,16.6614029 18.9167997,17.0259467 C27.0000783,18.2281772 30.1696448,24.2278586 30.1696448,24.2278586 L30.1696448,26.0277976 Z" id="Clip-8"></path>
                    <path d="M0.0690589507,24.2278586 L0.0690589507,27.8789189 L28.3463061,27.8789189 L28.3463061,24.2278586 C28.3463061,24.2278586 24.4315981,16.8176965 14.2081384,16.8176965 C3.98467866,16.8176965 0.0690589507,24.2278586 0.0690589507,24.2278586 L0.0690589507,24.2278586 Z M7.23842645,7.12096466 C7.23842645,11.0346778 10.3590705,14.2088649 14.2081384,14.2088649 C18.0562946,14.2088649 21.176027,11.0346778 21.176027,7.12096466 C21.176027,3.20725156 18.0562946,0.033995842 14.2081384,0.033995842 C10.3590705,0.033995842 7.23842645,3.20725156 7.23842645,7.12096466 L7.23842645,7.12096466 Z" id="Clip-8"></path>
                </g>
            </g>
        </g>
    </g>
</svg>