<?xml version="1.0" encoding="UTF-8" standalone="no"?>
<svg width="29px" height="32px" viewBox="0 0 29 32" version="1.1" xmlns="http://www.w3.org/2000/svg" xmlns:xlink="http://www.w3.org/1999/xlink" xmlns:sketch="http://www.bohemiancoding.com/sketch/ns">
    <!-- Generator: sketchtool 3.5.1 (25234) - http://www.bohemiancoding.com/sketch -->
    <title>Overview_ico</title>
    <desc>Created with sketchtool.</desc>
    <defs>
        <linearGradient x1="50%" y1="0%" x2="50%" y2="100%" id="linearGradient-1">
            <stop stop-color="#C3D1D7" offset="0%"></stop>
            <stop stop-color="#90A4AE" offset="100%"></stop>
        </linearGradient>
    </defs>
    <g id="HOD" stroke="none" stroke-width="1" fill="none" fill-rule="evenodd" sketch:type="MSPage">
        <g id="H4.31b---HOD-Course-planner" sketch:type="MSArtboardGroup" transform="translate(-344.000000, -169.000000)">
            <g id="Tabs" sketch:type="MSLayerGroup" transform="translate(296.000000, 169.000000)">
                <g id="Overview_ico" transform="translate(48.000000, 0.000000)" sketch:type="MSShapeGroup">
                    <path d="M14.356739,30.066383 L0.946466667,30.066383 C0.4238,30.066383 -0.0002,30.4994043 -0.0002,31.0331915 C-0.0002,31.5676596 0.4238,32 0.946466667,32 L25.4511333,32 C25.9738,32 26.3978,31.5676596 26.3978,31.0331915 C26.3978,30.4994043 25.9738,30.066383 25.4511333,30.066383 L17.4305878,30.066383 L28.6335333,21.1159149 C28.8415333,20.9497872 28.9722,20.7019574 28.9935333,20.4337021 C29.0155333,20.164766 28.9262,19.8985532 28.7468667,19.6997447 L18.469706,8.27835987 L20.1265333,6.58628085 C21.5205333,5.16262128 21.5205333,2.84568511 20.1265333,1.42134468 L19.7805333,1.06798298 C18.3865333,-0.356357447 16.1172,-0.356357447 14.7232,1.06798298 L11.0952,4.77385532 C12.3058667,5.25589787 13.4192,5.98645106 14.3652,6.95257872 C15.3258667,7.93436596 16.0325333,9.07615319 16.4958667,10.2941957 L17.1296506,9.64692707 L26.6595333,20.2382979 L14.356739,30.066383 Z M16.0896667,10.7097191 C15.6263333,9.4916766 14.9196667,8.34920851 13.959,7.36810213 C13.0123333,6.40197447 11.8996667,5.67142128 10.689,5.18937872 C9.60033333,4.7556766 8.433,4.52146383 7.229,4.52146383 C4.687,4.52146383 2.297,5.53252766 0.500333333,7.36810213 C0.253666667,7.62001702 0.253666667,8.02784681 0.500333333,8.2797617 L3.67766667,11.5246979 L4.14033333,11.9972085 L4.61566667,12.4819745 L8.951,16.9095489 L9.42566667,17.3943149 L9.88833333,17.8668255 L13.0663333,21.1124426 C13.1896667,21.2384 13.351,21.3010383 13.5123333,21.3010383 C13.6743333,21.3010383 13.8356667,21.2384 13.959,21.1124426 C16.7083333,18.3046128 17.415,14.193634 16.0896667,10.7097191 Z" id="Fill-9" fill="url(#linearGradient-1)"></path>
                    <path d="M8.93366667,17.7710298 L8.459,17.2862638 L4.12366667,12.8586894 L3.64833333,12.3739234 L3.18566667,11.9014128 C2.90633333,12.0818383 2.64566667,12.293583 2.40633333,12.5373277 C0.651666667,14.3300085 0.651666667,17.2474553 2.407,19.0401362 C3.285,19.9361362 4.437,20.3834553 5.58966667,20.3834553 C6.74233333,20.3834553 7.895,19.9354553 8.773,19.0394553 C9.01166667,18.7950298 9.21966667,18.528817 9.39633333,18.2435404 L8.93366667,17.7710298 Z" id="Fill-7" fill="#FFB74D"></path>
                </g>
            </g>
        </g>
    </g>
</svg>