<?xml version="1.0" encoding="UTF-8" standalone="no"?>
<svg width="32px" height="32px" viewBox="0 0 32 32" version="1.1" xmlns="http://www.w3.org/2000/svg" xmlns:xlink="http://www.w3.org/1999/xlink" xmlns:sketch="http://www.bohemiancoding.com/sketch/ns">
    <!-- Generator: sketchtool 3.5.1 (25234) - http://www.bohemiancoding.com/sketch -->
    <title>Planner_ico</title>
    <desc>Created with sketchtool.</desc>
    <defs>
        <linearGradient x1="50%" y1="0%" x2="50%" y2="100%" id="linearGradient-1">
            <stop stop-color="#B2BEC5" offset="0%"></stop>
            <stop stop-color="#7A8993" offset="100%"></stop>
        </linearGradient>
    </defs>
    <g id="HOD" stroke="none" stroke-width="1" fill="none" fill-rule="evenodd" sketch:type="MSPage">
        <g id="H4.31b---HOD-Course-planner" sketch:type="MSArtboardGroup" transform="translate(-505.000000, -169.000000)">
            <g id="Tabs" sketch:type="MSLayerGroup" transform="translate(296.000000, 169.000000)">
                <g id="Planner_ico" transform="translate(209.000000, 0.000000)" sketch:type="MSShapeGroup">
                    <path d="M5.39406972,6.07918298 L0.689988809,6.07918298 C0.308480658,6.07918298 0.000284707575,5.78369362 0.000284707575,5.4194383 C0.000284707575,5.05518298 0.308480658,4.75969362 0.689988809,4.75969362 L5.39406972,4.75969362 C5.77557787,4.75969362 6.08377382,5.05518298 6.08377382,5.4194383 C6.08377382,5.78369362 5.77557787,6.07918298 5.39406972,6.07918298 Z M5.39406972,11.3693957 L0.689988809,11.3693957 C0.308480658,11.3693957 0.000284707575,11.0739064 0.000284707575,10.7096511 C0.000284707575,10.3453957 0.308480658,10.0499064 0.689988809,10.0499064 L5.39406972,10.0499064 C5.77557787,10.0499064 6.08377382,10.3453957 6.08377382,10.7096511 C6.08377382,11.0739064 5.77557787,11.3693957 5.39406972,11.3693957 Z M5.39406972,16.6597447 L0.689988809,16.6597447 C0.308480658,16.6597447 0.000284707575,16.3642553 0.000284707575,16 C0.000284707575,15.6357447 0.308480658,15.3402553 0.689988809,15.3402553 L5.39406972,15.3402553 C5.77557787,15.3402553 6.08377382,15.6357447 6.08377382,16 C6.08377382,16.3642553 5.77557787,16.6597447 5.39406972,16.6597447 Z M5.39406972,21.9502979 L0.689988809,21.9502979 C0.308480658,21.9502979 0.000284707575,21.6548085 0.000284707575,21.2905532 C0.000284707575,20.9262979 0.308480658,20.6308085 0.689988809,20.6308085 L5.39406972,20.6308085 C5.77557787,20.6308085 6.08377382,20.9262979 6.08377382,21.2905532 C6.08377382,21.6548085 5.77557787,21.9502979 5.39406972,21.9502979 Z M5.39406972,27.2405787 L0.689988809,27.2405787 C0.308480658,27.2405787 0.000284707575,26.9450894 0.000284707575,26.580834 C0.000284707575,26.2165787 0.308480658,25.9210894 0.689988809,25.9210894 L5.39406972,25.9210894 C5.77557787,25.9210894 6.08377382,26.2165787 6.08377382,26.580834 C6.08377382,26.9450894 5.77557787,27.2405787 5.39406972,27.2405787 Z" id="Fill-5" fill="#7ED321"></path>
                    <path d="M9.96711397,17.9716766 C9.96711397,17.4249532 10.4304756,16.9817191 11.002026,16.9817191 L16.5004411,16.9817191 C17.0712797,16.9817191 17.5346413,17.4249532 17.5346413,17.9716766 C17.5346413,18.5184 17.0712797,18.961634 16.5004411,18.961634 L11.002026,18.961634 C10.4304756,18.961634 9.96711397,18.5184 9.96711397,17.9716766 M11.002026,11.5294638 L19.6692364,11.5294638 C20.2400751,11.5294638 20.7034366,11.9726979 20.7034366,12.5194213 C20.7034366,13.0661447 20.2400751,13.5086979 19.6692364,13.5086979 L11.002026,13.5086979 C10.4304756,13.5086979 9.96711397,13.0661447 9.96711397,12.5194213 C9.96711397,11.9726979 10.4304756,11.5294638 11.002026,11.5294638 M11.002026,6.07720851 L19.6692364,6.07720851 C20.2400751,6.07720851 20.7034366,6.52044255 20.7034366,7.06716596 C20.7034366,7.61388936 20.2400751,8.05644255 19.6692364,8.05644255 L11.002026,8.05644255 C10.4304756,8.05644255 9.96711397,7.61388936 9.96711397,7.06716596 C9.96711397,6.52044255 10.4304756,6.07720851 11.002026,6.07720851 M22.9106321,24.3226553 L16.9033023,28.452017 C16.7823016,28.5344 16.6420831,28.5759319 16.5004411,28.5759319 C16.3666285,28.5759319 16.2335277,28.539166 16.1167976,28.4649532 C15.8776432,28.3117617 15.7630484,28.0332936 15.8285312,27.7650383 L17.5168471,20.8802723 C17.5353531,20.804017 17.5688062,20.7304851 17.6143594,20.6651234 L26.1078982,8.48401702 L26.1078982,2.81865532 C26.1078982,1.26427234 24.9107028,-6.80851062e-05 23.4394764,-6.80851062e-05 L4.80109502,-6.80851062e-05 C3.32986862,-6.80851062e-05 2.13267327,1.26427234 2.13267327,2.81865532 L2.13267327,29.1805277 C2.13267327,30.7349106 3.32986862,31.9999319 4.80109502,31.9999319 L23.4394764,31.9999319 C24.9107028,31.9999319 26.1078982,30.7349106 26.1078982,29.1805277 L26.1078982,20.4683574 C26.1078982,20.3083574 26.0402801,20.1667404 25.9413443,20.0523574 L23.0821684,24.1531234 C23.0359034,24.219166 22.9775384,24.2763574 22.9106321,24.3226553" id="Fill-15" fill="url(#linearGradient-1)"></path>
                    <path d="M28.1413345,14.0252632 L21.5758518,23.4412936 L17.9237654,25.9522723 L18.9494244,21.7664 L25.5151616,12.3500045 L28.1413345,14.0252632 Z M28.7752702,13.1160904 L29.6928648,11.8001021 L27.0664374,10.1252085 L26.1493518,11.4404669 L28.7752702,13.1160904 Z M17.0198189,27.7926128 C16.9087829,27.7926128 16.7984587,27.7619745 16.7023699,27.700017 C16.5044981,27.5740596 16.4091211,27.3432511 16.4632155,27.1212936 L17.8611297,21.4205277 C17.8760769,21.3572085 17.9038359,21.2966128 17.9415596,21.2421447 L26.4329631,9.06444255 C26.6073464,8.81320851 26.9632309,8.7451234 27.2251619,8.91261277 L30.801089,11.1941447 C30.9277839,11.2744851 31.0153315,11.3997617 31.044514,11.5420596 C31.0744083,11.6836766 31.044514,11.8314213 30.9605253,11.9519319 L22.4691218,24.1303149 C22.4313981,24.1854638 22.382286,24.2331234 22.3274798,24.2705702 L17.3529267,27.6898043 C17.2532791,27.7578894 17.136549,27.7926128 17.0198189,27.7926128 Z" id="Fill-18" fill="#7ED321"></path>
                </g>
            </g>
        </g>
    </g>
</svg>