<?xml version="1.0" encoding="UTF-8" standalone="no"?>
<svg width="21px" height="20px" viewBox="0 0 21 20" version="1.1" xmlns="http://www.w3.org/2000/svg" xmlns:xlink="http://www.w3.org/1999/xlink" xmlns:sketch="http://www.bohemiancoding.com/sketch/ns">
    <!-- Generator: sketchtool 3.5.1 (25234) - http://www.bohemiancoding.com/sketch -->
    <title>Planner_ico</title>
    <desc>Created with sketchtool.</desc>
    <defs></defs>
    <g id="HOD" stroke="none" stroke-width="1" fill="none" fill-rule="evenodd" sketch:type="MSPage">
        <g id="H4.31---HOD-homepage" sketch:type="MSArtboardGroup" transform="translate(-508.000000, -176.000000)">
            <g id="Homepage" sketch:type="MSLayerGroup" transform="translate(296.000000, 92.000000)">
                <g id="Courses" transform="translate(8.000000, 24.000000)" sketch:type="MSShapeGroup">
                    <g id="3" transform="translate(24.000000, 44.000000)">
                        <g id="Group">
                            <g id="CTA" transform="translate(179.700000, 16.000000)">
                                <g id="Group-5">
                                    <g id="Planner_ico" transform="translate(1.000000, 0.000000)">
                                        <path d="M18.025237,8.97565957 C17.9571741,8.97565957 17.8882214,8.9573617 17.8272762,8.91821277 L15.7079842,7.56629787 C15.5438325,7.46161702 15.4997918,7.24970213 15.6092263,7.09268085 C15.717771,6.93565957 15.9401988,6.89310638 16.1043505,6.99778723 L18.2236426,8.35012766 C18.3877943,8.45480851 18.431835,8.6667234 18.3224005,8.82374468 C18.2538927,8.92246809 18.1404546,8.97565957 18.025237,8.97565957" id="Fill-3" fill="#FF8F00"></path>
                                        <path d="M3.37129358,3.79948936 L0.431243005,3.79948936 C0.192800411,3.79948936 0.000177942235,3.61480851 0.000177942235,3.38714894 C0.000177942235,3.15948936 0.192800411,2.97480851 0.431243005,2.97480851 L3.37129358,2.97480851 C3.60973617,2.97480851 3.80235864,3.15948936 3.80235864,3.38714894 C3.80235864,3.61480851 3.60973617,3.79948936 3.37129358,3.79948936" id="Fill-5" fill="#90A4AE"></path>
                                        <path d="M3.37129358,7.10587234 L0.431243005,7.10587234 C0.192800411,7.10587234 0.000177942235,6.92119149 0.000177942235,6.69353191 C0.000177942235,6.46587234 0.192800411,6.28119149 0.431243005,6.28119149 L3.37129358,6.28119149 C3.60973617,6.28119149 3.80235864,6.46587234 3.80235864,6.69353191 C3.80235864,6.92119149 3.60973617,7.10587234 3.37129358,7.10587234" id="Fill-7" fill="#90A4AE"></path>
                                        <path d="M3.37129358,10.4123404 L0.431243005,10.4123404 C0.192800411,10.4123404 0.000177942235,10.2276596 0.000177942235,10 C0.000177942235,9.77234043 0.192800411,9.58765957 0.431243005,9.58765957 L3.37129358,9.58765957 C3.60973617,9.58765957 3.80235864,9.77234043 3.80235864,10 C3.80235864,10.2276596 3.60973617,10.4123404 3.37129358,10.4123404" id="Fill-9" fill="#90A4AE"></path>
                                        <path d="M3.37129358,13.7189362 L0.431243005,13.7189362 C0.192800411,13.7189362 0.000177942235,13.5342553 0.000177942235,13.3065957 C0.000177942235,13.0789362 0.192800411,12.8942553 0.431243005,12.8942553 L3.37129358,12.8942553 C3.60973617,12.8942553 3.80235864,13.0789362 3.80235864,13.3065957 C3.80235864,13.5342553 3.60973617,13.7189362 3.37129358,13.7189362" id="Fill-11" fill="#90A4AE"></path>
                                        <path d="M3.37129358,17.0253617 L0.431243005,17.0253617 C0.192800411,17.0253617 0.000177942235,16.8406809 0.000177942235,16.6130213 C0.000177942235,16.3853617 0.192800411,16.2006809 0.431243005,16.2006809 L3.37129358,16.2006809 C3.60973617,16.2006809 3.80235864,16.3853617 3.80235864,16.6130213 C3.80235864,16.8406809 3.60973617,17.0253617 3.37129358,17.0253617" id="Fill-13" fill="#90A4AE"></path>
                                        <path d="M6.22944623,11.2322979 C6.22944623,10.8905957 6.51904722,10.6135745 6.87626626,10.6135745 L10.3127757,10.6135745 C10.6695498,10.6135745 10.9591508,10.8905957 10.9591508,11.2322979 C10.9591508,11.574 10.6695498,11.8510213 10.3127757,11.8510213 L6.87626626,11.8510213 C6.51904722,11.8510213 6.22944623,11.574 6.22944623,11.2322979 M6.87626626,7.20591489 L12.2932727,7.20591489 C12.6500469,7.20591489 12.9396479,7.48293617 12.9396479,7.8246383 C12.9396479,8.16634043 12.6500469,8.44293617 12.2932727,8.44293617 L6.87626626,8.44293617 C6.51904722,8.44293617 6.22944623,8.16634043 6.22944623,7.8246383 C6.22944623,7.48293617 6.51904722,7.20591489 6.87626626,7.20591489 M6.87626626,3.79825532 L12.2932727,3.79825532 C12.6500469,3.79825532 12.9396479,4.0752766 12.9396479,4.41697872 C12.9396479,4.75868085 12.6500469,5.0352766 12.2932727,5.0352766 L6.87626626,5.0352766 C6.51904722,5.0352766 6.22944623,4.75868085 6.22944623,4.41697872 C6.22944623,4.0752766 6.51904722,3.79825532 6.87626626,3.79825532 M14.3191451,15.2016596 L10.5645639,17.7825106 C10.4889385,17.834 10.4013019,17.8599574 10.3127757,17.8599574 C10.2291428,17.8599574 10.1459548,17.8369787 10.0729985,17.7905957 C9.92352702,17.6948511 9.85190527,17.5208085 9.89283199,17.3531489 L10.9480294,13.0501702 C10.9595957,13.0025106 10.9805039,12.9565532 11.0089747,12.9157021 L16.3174364,5.30251064 L16.3174364,1.76165957 C16.3174364,0.790170213 15.5691893,-4.25531914e-05 14.6496728,-4.25531914e-05 L3.00068439,-4.25531914e-05 C2.08116789,-4.25531914e-05 1.33292079,0.790170213 1.33292079,1.76165957 L1.33292079,18.2378298 C1.33292079,19.2093191 2.08116789,19.9999574 3.00068439,19.9999574 L14.6496728,19.9999574 C15.5691893,19.9999574 16.3174364,19.2093191 16.3174364,18.2378298 L16.3174364,12.7927234 C16.3174364,12.6927234 16.2751751,12.6042128 16.2133402,12.5327234 L14.4263553,15.0957021 C14.3974397,15.1369787 14.3609615,15.1727234 14.3191451,15.2016596" id="Fill-15" fill="#66BB6A"></path>
                                        <path d="M11.8433903,13.604 L11.2023534,16.2201702 L13.4849074,14.6508085 L18.5580405,7.37506383 L16.9165234,6.32825532 L11.8433903,13.604 Z M10.6373868,17.370383 C10.5679893,17.370383 10.4990367,17.351234 10.4389812,17.3125106 C10.3153113,17.2337872 10.2557007,17.0895319 10.2895097,16.9508085 L11.1632061,13.3878298 C11.1725481,13.3482553 11.1898974,13.310383 11.2134748,13.2763404 L16.5206019,5.6652766 C16.6295915,5.50825532 16.8520193,5.46570213 17.0157262,5.57038298 L19.2506806,6.99634043 C19.3298649,7.04655319 19.3845822,7.12485106 19.4028213,7.21378723 C19.4215052,7.30229787 19.4028213,7.3946383 19.3503283,7.46995745 L14.0432012,15.0814468 C14.0196238,15.1159149 13.9889288,15.1457021 13.9546749,15.1691064 L10.8455792,17.3061277 C10.7832994,17.3486809 10.7103431,17.370383 10.6373868,17.370383 L10.6373868,17.370383 Z" id="Fill-18" fill="#FF8F00"></path>
                                    </g>
                                </g>
                            </g>
                        </g>
                    </g>
                </g>
            </g>
        </g>
    </g>
</svg>