<svg xmlns="http://www.w3.org/2000/svg" width="32" height="32" viewBox="0 0 32 32">
    <defs>
        <linearGradient id="a" x1="50%" x2="50%" y1="0%" y2="100%">
            <stop offset="0%" stop-color="#C3D1D7"/>
            <stop offset="100%" stop-color="#90A4AE"/>
        </linearGradient>
    </defs>
    <path fill="url(#a)" fill-rule="evenodd" d="M3.142 14.226c0 4.328 2.297 8.182 5.877 10.695v6.937l6.867-4.166c.95.156 1.927.247 2.93.247 8.655 0 15.673-6.14 15.673-13.713C34.489 6.652 27.47.51 18.816.51 10.16.511 3.142 6.652 3.142 14.226zm7.836-1.96c0-.54.44-.98.98-.98h13.714a.979.979 0 1 1 0 1.959H11.958a.979.979 0 0 1-.98-.979zm1.96 5.878c0-.542.438-.98.98-.98h9.795a.98.98 0 0 1 0 1.959h-9.796a.978.978 0 0 1-.979-.979z" transform="translate(-3)"/>
</svg>
