<?xml version="1.0" encoding="UTF-8" standalone="no"?>
<svg width="27px" height="32px" viewBox="0 0 27 32" version="1.1" xmlns="http://www.w3.org/2000/svg" xmlns:xlink="http://www.w3.org/1999/xlink" xmlns:sketch="http://www.bohemiancoding.com/sketch/ns">
    <!-- Generator: sketchtool 3.5.1 (25234) - http://www.bohemiancoding.com/sketch -->
    <title>Quizzes_ico</title>
    <desc>Created with sketchtool.</desc>
    <defs>
        <linearGradient x1="50%" y1="0%" x2="50%" y2="100%" id="linearGradient-1">
            <stop stop-color="#C3D1D7" offset="0%"></stop>
            <stop stop-color="#90A4AE" offset="100%"></stop>
        </linearGradient>
    </defs>
    <g id="HOD" stroke="none" stroke-width="1" fill="none" fill-rule="evenodd" sketch:type="MSPage">
        <g id="H4.31b---HOD-Course-planner" sketch:type="MSArtboardGroup" transform="translate(-998.000000, -169.000000)">
            <g id="Tabs" sketch:type="MSLayerGroup" transform="translate(296.000000, 169.000000)">
                <g id="Quizzes_ico" transform="translate(702.000000, 0.000000)" sketch:type="MSShapeGroup">
                    <path d="M3.78122449,5.32114286 C3.69110204,5.41322449 3.6075102,5.50857143 3.53371429,5.61110204 L3.53371429,5.61110204 C3.47297959,5.69795918 3.41485714,5.79330612 3.39069388,5.84163265 L3.39069388,5.84163265 C2.73697959,6.76114286 1.8677551,9.17159184 1.86840816,9.97681633 L1.86840816,9.97681633 C1.83053061,10.250449 1.8122449,10.4920816 1.8122449,10.7141224 L1.8122449,10.7141224 C1.81355102,10.8878367 1.81028571,11.061551 1.80702041,11.2352653 L1.80702041,11.2352653 C1.8004898,11.5755102 1.79526531,11.9164082 1.81355102,12.2533878 L1.81355102,12.2533878 C1.83379592,12.6360816 1.92914286,12.9436735 2.01338776,13.2140408 L2.01338776,13.2140408 C2.05910204,13.3622857 2.10808163,13.5131429 2.14138776,13.6862041 L2.14138776,13.6862041 C2.27591837,14.3653878 2.1844898,15.1092245 1.85273469,16.0287347 L1.85273469,16.0287347 L1.65616327,16.5779592 C1.44457143,17.1742041 1.2244898,17.7900408 0.982857143,18.3764898 L0.982857143,18.3764898 C0.934530612,18.4933878 0.822857143,18.6625306 0.713795918,18.826449 L0.713795918,18.826449 C0.427755102,19.2555102 0.0731428571,19.7916735 0.197877551,20.3715918 L0.197877551,20.3715918 C0.244897959,20.5903673 0.381387755,20.9018776 0.768,21.1461224 L0.768,21.1461224 C1.01355102,21.301551 1.30089796,21.376 1.55428571,21.4413061 L1.55428571,21.4413061 C1.664,21.4700408 1.81812245,21.5098776 1.9082449,21.547102 L1.9082449,21.547102 C1.90236735,21.5980408 1.88930612,21.6705306 1.8795102,21.7247347 L1.8795102,21.7247347 C1.84032653,21.9402449 1.78742857,22.2373878 1.89844898,22.5462857 L1.89844898,22.5462857 C1.97289796,22.7526531 2.08914286,22.9087347 2.25110204,23.0145306 L2.25110204,23.0145306 C2.01665306,23.5611429 2.07020408,23.8706939 2.43004082,24.3245714 L2.43004082,24.3245714 C2.47836735,24.3846531 2.53583673,24.4571429 2.6004898,24.5485714 L2.6004898,24.5485714 C2.71608163,24.715102 2.68538776,24.9293061 2.58612245,25.3773061 L2.58612245,25.3773061 C2.48555102,25.8311837 2.36016327,26.3947755 2.63183673,26.9596735 L2.63183673,26.9596735 C3.17453061,28.0875102 4.55706122,28.1939592 5.47330612,28.2644898 L5.47330612,28.2644898 C5.60914286,28.2755918 5.73844898,28.2853878 5.85991837,28.2977959 L5.85991837,28.2977959 C6.36212245,28.3500408 6.91657143,28.3742041 7.60489796,28.3742041 L7.60489796,28.3742041 C7.96212245,28.3742041 8.32065306,28.3676735 8.67722449,28.3617959 L8.67722449,28.3617959 C8.87510204,28.3578776 9.07102041,28.3546122 9.26693878,28.352 L9.26693878,28.352 L10.7343673,31.4840816 C10.8212245,31.669551 10.9910204,31.8008163 11.188898,31.8432653 L11.188898,31.8432653 L25.0821224,31.8432653 C25.2813061,31.8008163 25.4524082,31.6662857 25.5379592,31.476898 L25.5379592,31.476898 C25.6437551,31.2450612 25.6013061,30.9733878 25.4321633,30.7826939 L25.4321633,30.7826939 C25.3988571,30.7454694 22.1923265,27.0987755 22.4457143,23.2326531 L22.4457143,23.2326531 C22.592,23.0550204 22.7389388,22.8662857 22.8728163,22.667102 L22.8728163,22.667102 C23.019102,22.4496327 23.1562449,22.2230204 23.3182041,21.952 L23.3182041,21.952 C25.1768163,19.6101224 26.2008163,16.6491429 26.2008163,13.6124082 L26.2008163,13.6124082 C26.2008163,6.38040816 20.5315918,0.496326531 13.5634286,0.496326531 L13.5634286,0.496326531 C9.75804082,0.496326531 6.19493878,2.25436735 3.78122449,5.32114286 L3.78122449,5.32114286 Z M5.3322449,13.2166531 C5.3322449,8.66612245 9.06840816,4.96326531 13.6587755,4.96326531 L13.6587755,4.96326531 C18.2497959,4.96326531 21.9846531,8.66612245 21.9846531,13.2166531 L21.9846531,13.2166531 C21.9846531,17.7684898 18.2497959,21.4706939 13.6587755,21.4706939 L13.6587755,21.4706939 C9.06840816,21.4706939 5.3322449,17.7684898 5.3322449,13.2166531 L5.3322449,13.2166531 Z" id="Clip-2" fill="url(#linearGradient-1)"></path>
                    <path d="M12.3820408,13.2166531 C12.3820408,13.9167347 12.9534694,14.4835918 13.6587755,14.4835918 L13.6587755,14.4835918 C14.3640816,14.4835918 14.9355102,13.9167347 14.9355102,13.2166531 L14.9355102,13.2166531 C14.9355102,12.5185306 14.3640816,11.9516735 13.6587755,11.9516735 L13.6587755,11.9516735 C12.9534694,11.9516735 12.3820408,12.5185306 12.3820408,13.2166531 L12.3820408,13.2166531 Z M7.99412245,13.2166531 C7.99412245,13.9167347 8.56620408,14.4835918 9.2715102,14.4835918 L9.2715102,14.4835918 C9.97616327,14.4835918 10.548898,13.9167347 10.548898,13.2166531 L10.548898,13.2166531 C10.548898,12.5185306 9.97616327,11.9516735 9.2715102,11.9516735 L9.2715102,11.9516735 C8.56620408,11.9516735 7.99412245,12.5185306 7.99412245,13.2166531 L7.99412245,13.2166531 Z M16.7686531,13.2166531 C16.7686531,13.9167347 17.3407347,14.4835918 18.0453878,14.4835918 L18.0453878,14.4835918 C18.7513469,14.4835918 19.3234286,13.9167347 19.3234286,13.2166531 L19.3234286,13.2166531 C19.3234286,12.5185306 18.7513469,11.9516735 18.0453878,11.9516735 L18.0453878,11.9516735 C17.3407347,11.9516735 16.7686531,12.5185306 16.7686531,13.2166531 L16.7686531,13.2166531 Z" id="Clip-8" fill="#F48FB1"></path>
                </g>
            </g>
        </g>
    </g>
</svg>