<?xml version="1.0" encoding="UTF-8" standalone="no"?>
<svg width="47px" height="32px" viewBox="0 0 47 32" version="1.1" xmlns="http://www.w3.org/2000/svg" xmlns:xlink="http://www.w3.org/1999/xlink" xmlns:sketch="http://www.bohemiancoding.com/sketch/ns">
    <!-- Generator: sketchtool 3.5.1 (25234) - http://www.bohemiancoding.com/sketch -->
    <title>teachershub_ico</title>
    <desc>Created with sketchtool.</desc>
    <defs>
        <linearGradient x1="50%" y1="0%" x2="50%" y2="100%" id="linearGradient-1">
            <stop stop-color="#D9E1E5" offset="0%"></stop>
            <stop stop-color="#B0BEC5" offset="100%"></stop>
        </linearGradient>
    </defs>
    <g id="HOD" stroke="none" stroke-width="1" fill="none" fill-rule="evenodd" sketch:type="MSPage">
        <g id="H4.31b---HOD-Course-planner" sketch:type="MSArtboardGroup" transform="translate(-1325.000000, -169.000000)">
            <g id="Tabs" sketch:type="MSLayerGroup" transform="translate(296.000000, 169.000000)">
                <g id="teachershub_ico" transform="translate(1029.000000, 0.000000)" sketch:type="MSShapeGroup">
                    <path d="M0,7.57201469 C0,9.96188675 1.26738739,12.0899835 3.24324324,13.477465 L3.24324324,13.477465 L3.24324324,17.3074621 L7.03207207,15.0073725 C7.5563964,15.0935493 8.09585586,15.1436688 8.64900901,15.1436688 L8.64900901,15.1436688 C13.4248649,15.1436688 17.2972973,11.7539302 17.2972973,7.57201469 L17.2972973,7.57201469 C17.2972973,3.39045972 13.4248649,0 8.64900901,0 L8.64900901,0 C3.87243243,0 0,3.39045972 0,7.57201469 L0,7.57201469 Z M4.32432432,6.49029831 C4.32432432,6.19174458 4.56648649,5.94944011 4.86486486,5.94944011 L4.86486486,5.94944011 L12.4324324,5.94944011 C12.7308108,5.94944011 12.972973,6.19174458 12.972973,6.49029831 L12.972973,6.49029831 C12.972973,6.7892126 12.7308108,7.03079593 12.4324324,7.03079593 L12.4324324,7.03079593 L4.86486486,7.03079593 C4.56648649,7.03079593 4.32432432,6.7892126 4.32432432,6.49029831 L4.32432432,6.49029831 Z M5.40576577,9.73544746 C5.40576577,9.43617259 5.64756757,9.19458927 5.94594595,9.19458927 L5.94594595,9.19458927 L11.3513514,9.19458927 C11.6497297,9.19458927 11.8922523,9.43617259 11.8922523,9.73544746 L11.8922523,9.73544746 C11.8922523,10.0343618 11.6497297,10.2759451 11.3513514,10.2759451 L11.3513514,10.2759451 L5.94594595,10.2759451 C5.64756757,10.2759451 5.40576577,10.0343618 5.40576577,9.73544746 L5.40576577,9.73544746 Z" id="Clip-2" fill="#B39DDB" transform="translate(8.648649, 8.653731) scale(-1, 1) translate(-8.648649, -8.653731) "></path>
                    <path d="M31.8256756,18.1217232 C32.7591063,18.7775176 33.8980377,19.1627832 35.1272939,19.1627832 C38.2925078,19.1627832 40.8585732,16.607216 40.8585732,13.4562496 C40.8585732,10.3052833 38.2925078,7.75046598 35.1272939,7.75046598 C34.3958369,7.75046598 33.6963616,7.88683806 33.053134,8.13542709 C34.1486709,9.30989866 34.8185946,10.8832931 34.8185946,12.6123243 C34.8185946,14.9173153 33.6280159,16.9460585 31.8256756,18.1217232 Z M41.6207568,30.1686692 L46.7563243,30.1686692 L46.7563243,27.229167 C46.7563243,27.229167 43.5363697,21.2631774 35.1272939,21.2631774 C33.5566799,21.2631774 32.1670638,21.4713027 30.9456247,21.8098077 C38.6139136,22.9261645 41.6207568,28.4972973 41.6207568,28.4972973 L41.6207568,30.1686692 Z" id="Clip-8" fill="url(#linearGradient-1)"></path>
                    <path d="M13.0655135,28.4972973 L13.0655135,31.8875676 L39.891027,31.8875676 L39.891027,28.4972973 C39.891027,28.4972973 36.1772973,21.6164324 26.4787027,21.6164324 C16.7801081,21.6164324 13.0655135,28.4972973 13.0655135,28.4972973 L13.0655135,28.4972973 Z M19.8668108,12.6123243 C19.8668108,16.2464865 22.8272432,19.1939459 26.4787027,19.1939459 C30.1292973,19.1939459 33.0888649,16.2464865 33.0888649,12.6123243 C33.0888649,8.97816216 30.1292973,6.03156757 26.4787027,6.03156757 C22.8272432,6.03156757 19.8668108,8.97816216 19.8668108,12.6123243 L19.8668108,12.6123243 Z" id="Clip-8" fill="url(#linearGradient-1)"></path>
                </g>
            </g>
        </g>
    </g>
</svg>