<?xml version="1.0" encoding="UTF-8" standalone="no"?>
<svg width="37px" height="32px" viewBox="0 0 37 32" version="1.1" xmlns="http://www.w3.org/2000/svg" xmlns:xlink="http://www.w3.org/1999/xlink" xmlns:sketch="http://www.bohemiancoding.com/sketch/ns">
    <!-- Generator: sketchtool 3.5.1 (25234) - http://www.bohemiancoding.com/sketch -->
    <title>Virtual Class_ico Copy</title>
    <desc>Created with sketchtool.</desc>
    <defs>
        <linearGradient x1="50%" y1="0%" x2="50%" y2="100%" id="linearGradient-1">
            <stop stop-color="#C3D1D7" offset="0%"></stop>
            <stop stop-color="#90A4AE" offset="100%"></stop>
        </linearGradient>
    </defs>
    <g id="Teacher" stroke="none" stroke-width="1" fill="none" fill-rule="evenodd" sketch:type="MSPage">
        <g id="T-4.9-CourseGroup_Homepage" sketch:type="MSArtboardGroup" transform="translate(-1231.000000, -169.000000)">
            <g id="Tabs" sketch:type="MSLayerGroup" transform="translate(296.000000, 169.000000)">
                <g id="Virtual-Class_ico" transform="translate(935.151515, 0.000000)" sketch:type="MSShapeGroup">
                    <path d="M4.83944186,23.9248372 C4.83944186,25.1393488 5.8024186,26.1231628 6.99013953,26.1231628 C8.17860465,26.1231628 9.1415814,25.1393488 9.1415814,23.9248372 C9.1415814,22.7110698 8.17860465,21.7265116 6.99013953,21.7265116 C5.8024186,21.7265116 4.83944186,22.7110698 4.83944186,23.9248372 Z M16.2887442,23.9248372 C16.2887442,25.1393488 17.2517209,26.1231628 18.4386977,26.1231628 C19.6271628,26.1231628 20.5901395,25.1393488 20.5901395,23.9248372 C20.5901395,22.7110698 19.6271628,21.7265116 18.4386977,21.7265116 C17.2517209,21.7265116 16.2887442,22.7110698 16.2887442,23.9248372 Z M27.7373023,23.9248372 C27.7373023,25.1393488 28.7002791,26.1231628 29.888,26.1231628 C31.0764651,26.1231628 32.0394419,25.1393488 32.0394419,23.9248372 C32.0394419,22.7110698 31.0764651,21.7265116 29.888,21.7265116 C28.7002791,21.7265116 27.7373023,22.7110698 27.7373023,23.9248372 Z M1.87906977,31.5795349 L12.1012093,31.5795349 C12.1012093,28.7203721 9.81283721,26.4029767 6.99013953,26.4029767 C4.16744186,26.4029767 1.87906977,28.7203721 1.87906977,31.5795349 Z M13.3283721,31.5795349 L23.5497674,31.5795349 C23.5497674,28.7203721 21.2621395,26.4029767 18.4386977,26.4029767 C15.6167442,26.4029767 13.3283721,28.7203721 13.3283721,31.5795349 Z M24.7769302,31.5795349 L34.9990698,31.5795349 C34.9990698,28.7203721 32.7114419,26.4029767 29.888,26.4029767 C27.0660465,26.4029767 24.7769302,28.7203721 24.7769302,31.5795349 Z M0.392930233,19.0035349 L36.1146047,19.0035349 L36.1146047,0.526883721 L0.392930233,0.526883721 L0.392930233,19.0035349 Z M12.5484651,9.7652093 C12.5484651,6.60465116 15.1025116,4.04316279 18.2533953,4.04316279 C21.4050233,4.04316279 23.9590698,6.60465116 23.9590698,9.7652093 C23.9590698,12.9257674 21.4050233,15.4887442 18.2533953,15.4887442 C15.1025116,15.4887442 12.5484651,12.9257674 12.5484651,9.7652093 Z" id="Clip-2" fill="url(#linearGradient-1)"></path>
                    <path d="M17.1055628,13.521414 L20.850307,9.76550698 L17.1055628,6.00885581 L17.1055628,13.521414 Z" id="Fill-22" fill="#00B99B"></path>
                </g>
            </g>
        </g>
    </g>
</svg>