<svg xmlns="http://www.w3.org/2000/svg" width="25" height="31" viewBox="0 0 25 31">
    <defs>
        <linearGradient id="a" x1="48.037%" x2="50%" y1="-13.157%" y2="100%">
            <stop offset="0%" stop-color="#C3D1D7"/>
            <stop offset="100%" stop-color="#90A4AE"/>
        </linearGradient>
    </defs>
    <g fill="none" fill-rule="evenodd">
        <path fill="url(#a)" fill-rule="nonzero" d="M21.906 3.875h-3.342v-.156c0-.967-.804-1.754-1.793-1.754h-1.147C15.1.788 13.9 0 12.56 0h-.12C11.1 0 9.9.788 9.376 1.965H8.23c-.99 0-1.793.787-1.793 1.754v.156H3.094C1.157 3.875 0 4.78 0 6.297v21.676C0 29.642 1.388 31 3.094 31h18.812C23.612 31 25 29.642 25 27.973V14.269v.484-7.85c0-1.67-1.388-3.028-3.094-3.028zm-4.58 1.453H7.674V3.72c0-.3.25-.543.556-.543h1.584c.28 0 .524-.183.597-.447.248-.894 1.083-1.518 2.03-1.518h.12c.947 0 1.782.624 2.03 1.518a.617.617 0 0 0 .597.447h1.584a.55.55 0 0 1 .556.543v1.61z"/>
        <path fill="#FFF" fill-rule="nonzero" d="M7.5 9A2.503 2.503 0 0 0 5 11.5C5 12.879 6.121 14 7.5 14c1.378 0 2.5-1.121 2.5-2.5S8.878 9 7.5 9zm0 3.81a1.31 1.31 0 0 1-1.31-1.31 1.311 1.311 0 0 1 2.619 0c0 .722-.587 1.31-1.309 1.31zM7.5 16A2.503 2.503 0 0 0 5 18.5C5 19.879 6.121 21 7.5 21c1.378 0 2.5-1.121 2.5-2.5S8.878 16 7.5 16zm0 3.81a1.31 1.31 0 0 1-1.31-1.31 1.311 1.311 0 0 1 2.619 0c0 .722-.587 1.31-1.309 1.31zM7.5 23A2.503 2.503 0 0 0 5 25.5C5 26.879 6.121 28 7.5 28c1.378 0 2.5-1.121 2.5-2.5S8.878 23 7.5 23zm0 3.81a1.31 1.31 0 0 1-1.31-1.31 1.311 1.311 0 0 1 2.619 0c0 .722-.587 1.31-1.309 1.31z"/>
        <path fill="#FFF" d="M19.406 13h-6.812c-.328 0-.594.224-.594.5s.266.5.594.5h6.812c.328 0 .594-.224.594-.5s-.266-.5-.594-.5zM19.406 10h-6.812c-.328 0-.594.224-.594.5s.266.5.594.5h6.812c.328 0 .594-.224.594-.5s-.266-.5-.594-.5zM19.406 20h-6.812c-.328 0-.594.224-.594.5s.266.5.594.5h6.812c.328 0 .594-.224.594-.5s-.266-.5-.594-.5zM19.406 17h-6.812c-.328 0-.594.224-.594.5s.266.5.594.5h6.812c.328 0 .594-.224.594-.5s-.266-.5-.594-.5zM19.406 27h-6.812c-.328 0-.594.224-.594.5s.266.5.594.5h6.812c.328 0 .594-.224.594-.5s-.266-.5-.594-.5zM19.406 24h-6.812c-.328 0-.594.224-.594.5s.266.5.594.5h6.812c.328 0 .594-.224.594-.5s-.266-.5-.594-.5z"/>
    </g>
</svg>
